# Made in Blockbench 5.0.7
mtllib corner_floor_closed.mtl

o corner_floor_closed
v -0.4062490000000001 0.75 0.4375
v -0.3437490000000001 0.75 0.4375
v -0.3437490000000001 0.6875 0.4375
v -0.4062490000000001 0.6875 0.4375
v -0.2812490000000001 0.75 0.4375
v -0.21874900000000008 0.75 0.4375
v -0.21874900000000008 0.6875 0.4375
v -0.2812490000000001 0.6875 0.4375
v -0.15624900000000008 0.75 0.4375
v -0.09374900000000008 0.75 0.4375
v -0.09374900000000008 0.6875 0.4375
v -0.15624900000000008 0.6875 0.4375
v -0.031249000000000082 0.75 0.4375
v 0.03125100000000003 0.75 0.4375
v 0.03125100000000003 0.6875 0.4375
v -0.031249000000000082 0.6875 0.4375
v 0.09375100000000003 0.75 0.4375
v 0.15625100000000003 0.75 0.4375
v 0.15625100000000003 0.6875 0.4375
v 0.09375100000000003 0.6875 0.4375
v 0.21875100000000003 0.75 0.4375
v 0.28125100000000003 0.75 0.4375
v 0.28125100000000003 0.6875 0.4375
v 0.21875100000000003 0.6875 0.4375
v 0.34375100000000003 0.75 0.4375
v 0.40625100000000003 0.75 0.4375
v 0.40625100000000003 0.6875 0.4375
v 0.34375100000000003 0.6875 0.4375
v -0.4062490000000001 0.625 0.4375
v -0.3437490000000001 0.625 0.4375
v -0.3437490000000001 0.5625 0.4375
v -0.4062490000000001 0.5625 0.4375
v -0.2812490000000001 0.625 0.4375
v -0.21874900000000008 0.625 0.4375
v -0.21874900000000008 0.5625 0.4375
v -0.2812490000000001 0.5625 0.4375
v -0.15624900000000008 0.625 0.4375
v -0.09374900000000008 0.625 0.4375
v -0.09374900000000008 0.5625 0.4375
v -0.15624900000000008 0.5625 0.4375
v -0.031249000000000082 0.625 0.4375
v 0.03125100000000003 0.625 0.4375
v 0.03125100000000003 0.5625 0.4375
v -0.031249000000000082 0.5625 0.4375
v 0.09375100000000003 0.625 0.4375
v 0.15625100000000003 0.625 0.4375
v 0.15625100000000003 0.5625 0.4375
v 0.09375100000000003 0.5625 0.4375
v 0.21875100000000003 0.625 0.4375
v 0.28125100000000003 0.625 0.4375
v 0.28125100000000003 0.5625 0.4375
v 0.21875100000000003 0.5625 0.4375
v 0.34375100000000003 0.625 0.4375
v 0.40625100000000003 0.625 0.4375
v 0.40625100000000003 0.5625 0.4375
v 0.34375100000000003 0.5625 0.4375
v 0.5000009999999999 0.4375 0.4375
v 0.46875100000000003 0.4375 0.4375
v 0.46875100000000003 0.5 0.4375
v 0.5000009999999999 0.5 0.4375
v -0.4062490000000001 0.5 0.4375
v -0.3437490000000001 0.5 0.4375
v -0.3437490000000001 0.4375 0.4375
v -0.4062490000000001 0.4375 0.4375
v -0.2812490000000001 0.5 0.4375
v -0.21874900000000008 0.5 0.4375
v -0.21874900000000008 0.4375 0.4375
v -0.2812490000000001 0.4375 0.4375
v -0.15624900000000008 0.5 0.4375
v -0.09374900000000008 0.5 0.4375
v -0.09374900000000008 0.4375 0.4375
v -0.15624900000000008 0.4375 0.4375
v -0.031249000000000082 0.5 0.4375
v 0.03125100000000003 0.5 0.4375
v 0.03125100000000003 0.4375 0.4375
v -0.031249000000000082 0.4375 0.4375
v 0.09375100000000003 0.5 0.4375
v 0.15625100000000003 0.5 0.4375
v 0.15625100000000003 0.4375 0.4375
v 0.09375100000000003 0.4375 0.4375
v 0.21875100000000003 0.5 0.4375
v 0.28125100000000003 0.5 0.4375
v 0.28125100000000003 0.4375 0.4375
v 0.21875100000000003 0.4375 0.4375
v 0.34375100000000003 0.5 0.4375
v 0.40625100000000003 0.5 0.4375
v 0.40625100000000003 0.4375 0.4375
v 0.34375100000000003 0.4375 0.4375
v 0.5000009999999999 0.3125 0.4375
v 0.46875100000000003 0.3125 0.4375
v 0.46875100000000003 0.375 0.4375
v 0.5000009999999999 0.375 0.4375
v -0.4062490000000001 0.375 0.4375
v -0.3437490000000001 0.375 0.4375
v -0.3437490000000001 0.3125 0.4375
v -0.4062490000000001 0.3125 0.4375
v -0.2812490000000001 0.375 0.4375
v -0.21874900000000008 0.375 0.4375
v -0.21874900000000008 0.3125 0.4375
v -0.2812490000000001 0.3125 0.4375
v -0.15624900000000008 0.375 0.4375
v -0.09374900000000008 0.375 0.4375
v -0.09374900000000008 0.3125 0.4375
v -0.15624900000000008 0.3125 0.4375
v -0.031249000000000082 0.375 0.4375
v 0.03125100000000003 0.375 0.4375
v 0.03125100000000003 0.3125 0.4375
v -0.031249000000000082 0.3125 0.4375
v 0.09375100000000003 0.375 0.4375
v 0.15625100000000003 0.375 0.4375
v 0.15625100000000003 0.3125 0.4375
v 0.09375100000000003 0.3125 0.4375
v 0.21875100000000003 0.375 0.4375
v 0.28125100000000003 0.375 0.4375
v 0.28125100000000003 0.3125 0.4375
v 0.21875100000000003 0.3125 0.4375
v 0.34375100000000003 0.375 0.4375
v 0.40625100000000003 0.375 0.4375
v 0.40625100000000003 0.3125 0.4375
v 0.34375100000000003 0.3125 0.4375
v 0.5000009999999999 0.1875 0.4375
v 0.46875100000000003 0.1875 0.4375
v 0.46875100000000003 0.25 0.4375
v 0.5000009999999999 0.25 0.4375
v -0.4062490000000001 0.25 0.4375
v -0.3437490000000001 0.25 0.4375
v -0.3437490000000001 0.1875 0.4375
v -0.4062490000000001 0.1875 0.4375
v -0.2812490000000001 0.25 0.4375
v -0.21874900000000008 0.25 0.4375
v -0.21874900000000008 0.1875 0.4375
v -0.2812490000000001 0.1875 0.4375
v -0.15624900000000008 0.25 0.4375
v -0.09374900000000008 0.25 0.4375
v -0.09374900000000008 0.1875 0.4375
v -0.15624900000000008 0.1875 0.4375
v -0.031249000000000082 0.25 0.4375
v 0.03125100000000003 0.25 0.4375
v 0.03125100000000003 0.1875 0.4375
v -0.031249000000000082 0.1875 0.4375
v 0.09375100000000003 0.25 0.4375
v 0.15625100000000003 0.25 0.4375
v 0.15625100000000003 0.1875 0.4375
v 0.09375100000000003 0.1875 0.4375
v 0.21875100000000003 0.25 0.4375
v 0.28125100000000003 0.25 0.4375
v 0.28125100000000003 0.1875 0.4375
v 0.21875100000000003 0.1875 0.4375
v 0.34375100000000003 0.25 0.4375
v 0.40625100000000003 0.25 0.4375
v 0.40625100000000003 0.1875 0.4375
v 0.34375100000000003 0.1875 0.4375
v 0.34375100000000003 0.875 0.4375
v 0.40625100000000003 0.875 0.4375
v 0.40625100000000003 0.8125 0.4375
v 0.34375100000000003 0.8125 0.4375
v 0.21875100000000003 0.875 0.4375
v 0.28125100000000003 0.875 0.4375
v 0.28125100000000003 0.8125 0.4375
v 0.21875100000000003 0.8125 0.4375
v 0.09375100000000003 0.875 0.4375
v 0.15625100000000003 0.875 0.4375
v 0.15625100000000003 0.8125 0.4375
v 0.09375100000000003 0.8125 0.4375
v -0.031249000000000082 0.875 0.4375
v 0.03125100000000003 0.875 0.4375
v 0.03125100000000003 0.8125 0.4375
v -0.031249000000000082 0.8125 0.4375
v -0.15624900000000008 0.875 0.4375
v -0.09374900000000008 0.875 0.4375
v -0.09374900000000008 0.8125 0.4375
v -0.15624900000000008 0.8125 0.4375
v -0.2812490000000001 0.875 0.4375
v -0.21874900000000008 0.875 0.4375
v -0.21874900000000008 0.8125 0.4375
v -0.2812490000000001 0.8125 0.4375
v -0.4062490000000001 0.875 0.4375
v -0.3437490000000001 0.875 0.4375
v -0.3437490000000001 0.8125 0.4375
v -0.4062490000000001 0.8125 0.4375
v 0.5000009999999999 0.5625 0.4375
v 0.46875100000000003 0.5625 0.4375
v 0.46875100000000003 0.625 0.4375
v 0.5000009999999999 0.625 0.4375
v 0.5000009999999999 0.8125 0.4375
v 0.46875100000000003 0.8125 0.4375
v 0.46875100000000003 0.875 0.4375
v 0.5000009999999999 0.875 0.4375
v 0.5000009999999999 0.6875 0.4375
v 0.46875100000000003 0.6875 0.4375
v 0.46875100000000003 0.75 0.4375
v 0.5000009999999999 0.75 0.4375
v 0.5000009999999999 0.9375 0.4375
v -0.4062490000000001 0.9375 0.4375
v -0.4062490000000001 0.1875 0.4375
v 0.5000009999999999 0.15625 0.4375
v -0.4062490000000001 0.15625 0.4375
v 0.5000009999999999 0.15625 0.40625
v 0.5 0.15625 0.46875
v 0.5 0.125 0.46875
v 0.5000009999999999 0.125 0.40625
v -0.46875 0.125 0.46875
v -0.46875 0.15625 0.46875
v -0.4687490000000001 0.15625 0.40625
v -0.4687490000000001 0.125 0.40625
v -0.40625 0.15625 -0.5
v -0.4062490000000001 0.15625 0.40625
v -0.4062490000000001 0.125 0.40625
v -0.40625 0.125 -0.5
v -0.4687490000000001 0.125 0.40625
v -0.4687490000000001 0.15625 0.40625
v -0.46875 0.15625 -0.5
v -0.46875 0.125 -0.5
v 0.37500100000000003 0.125 0.125
v 0.37500100000000003 0.125 0.375
v 0.37500100000000003 0.0625 0.375
v 0.37500100000000003 0.0625 0.125
v 0.12500100000000003 0.0625 0.375
v 0.12500100000000003 0.125 0.375
v 0.12500100000000003 0.125 0.125
v 0.12500100000000003 0.0625 0.125
v 0.5000009999999999 0.0625 0.4375
v 0.5 0.0625 0.5
v 0.5 0 0.5
v 0.5000009999999999 0 0.4375
v -0.4375 0 0.5
v -0.4375 0.0625 0.5
v -0.4375 0.0625 0.4375
v -0.4375 0 0.4375
v -0.12499900000000008 0.125 -0.375
v -0.12499900000000008 0.125 -0.125
v -0.12499900000000008 0.0625 -0.125
v -0.12499900000000008 0.0625 -0.375
v -0.3749990000000001 0.0625 -0.125
v -0.3749990000000001 0.125 -0.125
v -0.375 0.125 -0.375
v -0.375 0.0625 -0.375
v 0.37500100000000003 0.125 -0.375
v 0.37500100000000003 0.125 -0.125
v 0.37500100000000003 0.0625 -0.125
v 0.37500100000000003 0.0625 -0.375
v 0.12500100000000003 0.0625 -0.125
v 0.12500100000000003 0.125 -0.125
v 0.12500100000000003 0.125 -0.375
v 0.12500100000000003 0.0625 -0.375
v 0.12500100000000003 0.125 -0.125
v 0.12500100000000003 0.125 0.125
v 0.12500100000000003 0.0625 0.125
v 0.12500100000000003 0.0625 -0.125
v -0.125 0.0625 0.125
v -0.125 0.125 0.125
v -0.12499900000000008 0.125 -0.125
v -0.12499900000000008 0.0625 -0.125
v -0.125 0.125 0.125
v -0.12499900000000008 0.125 0.375
v -0.12499900000000008 0.0625 0.375
v -0.125 0.0625 0.125
v -0.3749990000000001 0.0625 0.375
v -0.3749990000000001 0.125 0.375
v -0.3749990000000001 0.125 0.125
v -0.3749990000000001 0.0625 0.125
v 0.12500100000000003 0.125 -0.5
v 0.12500100000000003 0.125 -0.375
v 0.12500100000000003 0.0625 -0.375
v 0.12500100000000003 0.0625 -0.5
v -0.12499900000000008 0.0625 -0.375
v -0.12499900000000008 0.125 -0.375
v -0.12499900000000008 0.125 -0.5
v -0.12499900000000008 0.0625 -0.5
v 0.5000009999999999 0.125 -0.125
v 0.5000009999999999 0.125 0.125
v 0.5000009999999999 0.0625 0.125
v 0.5000009999999999 0.0625 -0.125
v 0.37500100000000003 0.0625 0.125
v 0.37500100000000003 0.125 0.125
v 0.37500100000000003 0.125 -0.125
v 0.37500100000000003 0.0625 -0.125
v 0.5000009999999999 0.125 -0.5
v 0.5000009999999999 0.125 -0.375
v 0.5000009999999999 0.0625 -0.375
v 0.5000009999999999 0.0625 -0.5
v 0.37500100000000003 0.0625 -0.375
v 0.37500100000000003 0.125 -0.375
v 0.37500100000000003 0.125 -0.5
v 0.37500100000000003 0.0625 -0.5
v 0.43750100000000003 0.125 0.3125
v 0.43750100000000003 0.125 0.375
v 0.43750100000000003 0.0625 0.375
v 0.43750100000000003 0.0625 0.3125
v 0.37500100000000003 0.0625 0.375
v 0.37500100000000003 0.125 0.375
v 0.37500100000000003 0.125 0.3125
v 0.37500100000000003 0.0625 0.3125
v 0.43750100000000003 0.125 -0.375
v 0.43750100000000003 0.125 -0.3125
v 0.43750100000000003 0.0625 -0.3125
v 0.43750100000000003 0.0625 -0.375
v 0.37500100000000003 0.0625 -0.3125
v 0.37500100000000003 0.125 -0.3125
v 0.37500100000000003 0.125 -0.375
v 0.37500100000000003 0.0625 -0.375
v 0.43750100000000003 0.125 -0.1875
v 0.43750100000000003 0.125 -0.125
v 0.43750100000000003 0.0625 -0.125
v 0.43750100000000003 0.0625 -0.1875
v 0.37500100000000003 0.0625 -0.125
v 0.37500100000000003 0.125 -0.125
v 0.37500100000000003 0.125 -0.1875
v 0.37500100000000003 0.0625 -0.1875
v 0.43750100000000003 0.125 0.125
v 0.43750100000000003 0.125 0.1875
v 0.43750100000000003 0.0625 0.1875
v 0.43750100000000003 0.0625 0.125
v 0.37500100000000003 0.0625 0.1875
v 0.37500100000000003 0.125 0.1875
v 0.37500100000000003 0.125 0.125
v 0.37500100000000003 0.0625 0.125
v -0.125 0.125 0.0625
v -0.125 0.125 0.125
v -0.125 0.0625 0.125
v -0.125 0.0625 0.0625
v -0.18749900000000008 0.0625 0.125
v -0.18749900000000008 0.125 0.125
v -0.18749900000000008 0.125 0.0625
v -0.18749900000000008 0.0625 0.0625
v -0.3124990000000001 0.125 -0.125
v -0.3124990000000001 0.125 -0.0625
v -0.3124990000000001 0.0625 -0.0625
v -0.3124990000000001 0.0625 -0.125
v -0.3749990000000001 0.0625 -0.0625
v -0.3749990000000001 0.125 -0.0625
v -0.3749990000000001 0.125 -0.125
v -0.3749990000000001 0.0625 -0.125
v -0.3124990000000001 0.125 0.0625
v -0.3124990000000001 0.125 0.125
v -0.3124990000000001 0.0625 0.125
v -0.3124990000000001 0.0625 0.0625
v -0.3749990000000001 0.0625 0.125
v -0.3749990000000001 0.125 0.125
v -0.3749990000000001 0.125 0.0625
v -0.3749990000000001 0.0625 0.0625
v 0.37500100000000003 0.125 -0.125
v 0.37500100000000003 0.125 -0.0625
v 0.37500100000000003 0.0625 -0.0625
v 0.37500100000000003 0.0625 -0.125
v 0.31250100000000003 0.0625 -0.0625
v 0.31250100000000003 0.125 -0.0625
v 0.31250100000000003 0.125 -0.125
v 0.31250100000000003 0.0625 -0.125
v 0.37500100000000003 0.125 0.0625
v 0.37500100000000003 0.125 0.125
v 0.37500100000000003 0.0625 0.125
v 0.37500100000000003 0.0625 0.0625
v 0.31250100000000003 0.0625 0.125
v 0.31250100000000003 0.125 0.125
v 0.31250100000000003 0.125 0.0625
v 0.31250100000000003 0.0625 0.0625
v -0.0625 0.125 0.125
v -0.0625 0.125 0.1875
v -0.0625 0.0625 0.1875
v -0.0625 0.0625 0.125
v -0.12499900000000008 0.0625 0.1875
v -0.12499900000000008 0.125 0.1875
v -0.125 0.125 0.125
v -0.125 0.0625 0.125
v 0.18750100000000003 0.125 0.0625
v 0.18750100000000003 0.125 0.125
v 0.18750100000000003 0.0625 0.125
v 0.18750100000000003 0.0625 0.0625
v 0.12500100000000003 0.0625 0.125
v 0.12500100000000003 0.125 0.125
v 0.12500100000000003 0.125 0.0625
v 0.12500100000000003 0.0625 0.0625
v 0.12500100000000003 0.125 0.125
v 0.12500100000000003 0.125 0.1875
v 0.12500100000000003 0.0625 0.1875
v 0.12500100000000003 0.0625 0.125
v 0.06250100000000003 0.0625 0.1875
v 0.06250100000000003 0.125 0.1875
v 0.06250100000000003 0.125 0.125
v 0.06250100000000003 0.0625 0.125
v 0.37500100000000003 0.125 -0.4375
v 0.37500100000000003 0.125 -0.375
v 0.37500100000000003 0.0625 -0.375
v 0.37500100000000003 0.0625 -0.4375
v 0.31250100000000003 0.0625 -0.375
v 0.31250100000000003 0.125 -0.375
v 0.31250100000000003 0.125 -0.4375
v 0.31250100000000003 0.0625 -0.4375
v 0.18750100000000003 0.125 -0.4375
v 0.18750100000000003 0.125 -0.375
v 0.18750100000000003 0.0625 -0.375
v 0.18750100000000003 0.0625 -0.4375
v 0.12500100000000003 0.0625 -0.375
v 0.12500100000000003 0.125 -0.375
v 0.12500100000000003 0.125 -0.4375
v 0.12500100000000003 0.0625 -0.4375
v 0.18750100000000003 0.125 -0.125
v 0.18750100000000003 0.125 -0.0625
v 0.18750100000000003 0.0625 -0.0625
v 0.18750100000000003 0.0625 -0.125
v 0.12500100000000003 0.0625 -0.0625
v 0.12500100000000003 0.125 -0.0625
v 0.12500100000000003 0.125 -0.125
v 0.12500100000000003 0.0625 -0.125
v 0.12500100000000003 0.125 -0.1875
v 0.12500100000000003 0.125 -0.125
v 0.12500100000000003 0.0625 -0.125
v 0.12500100000000003 0.0625 -0.1875
v 0.06250100000000003 0.0625 -0.125
v 0.06250100000000003 0.125 -0.125
v 0.06250100000000003 0.125 -0.1875
v 0.06250100000000003 0.0625 -0.1875
v -0.06249900000000008 0.125 -0.375
v -0.06249900000000008 0.125 -0.3125
v -0.06249900000000008 0.0625 -0.3125
v -0.06249900000000008 0.0625 -0.375
v -0.12499900000000008 0.0625 -0.3125
v -0.12499900000000008 0.125 -0.3125
v -0.12499900000000008 0.125 -0.375
v -0.12499900000000008 0.0625 -0.375
v 0.12500100000000003 0.125 -0.375
v 0.12500100000000003 0.125 -0.3125
v 0.12500100000000003 0.0625 -0.3125
v 0.12500100000000003 0.0625 -0.375
v 0.06250100000000003 0.0625 -0.3125
v 0.06250100000000003 0.125 -0.3125
v 0.06250100000000003 0.125 -0.375
v 0.06250100000000003 0.0625 -0.375
v -0.06249900000000008 0.125 0.3125
v -0.06249900000000008 0.125 0.375
v -0.06249900000000008 0.0625 0.375
v -0.06249900000000008 0.0625 0.3125
v -0.12499900000000008 0.0625 0.375
v -0.12499900000000008 0.125 0.375
v -0.12499900000000008 0.125 0.3125
v -0.12499900000000008 0.0625 0.3125
v 0.12500100000000003 0.125 0.3125
v 0.12500100000000003 0.125 0.375
v 0.12500100000000003 0.0625 0.375
v 0.12500100000000003 0.0625 0.3125
v 0.06250100000000003 0.0625 0.375
v 0.06250100000000003 0.125 0.375
v 0.06250100000000003 0.125 0.3125
v 0.06250100000000003 0.0625 0.3125
v -0.3124990000000001 0.125 -0.4375
v -0.3124990000000001 0.125 -0.375
v -0.3124990000000001 0.0625 -0.375
v -0.3124990000000001 0.0625 -0.4375
v -0.375 0.0625 -0.375
v -0.375 0.125 -0.375
v -0.375 0.125 -0.4375
v -0.375 0.0625 -0.4375
v -0.12499900000000008 0.125 -0.4375
v -0.12499900000000008 0.125 -0.375
v -0.12499900000000008 0.0625 -0.375
v -0.12499900000000008 0.0625 -0.4375
v -0.18749900000000008 0.0625 -0.375
v -0.18749900000000008 0.125 -0.375
v -0.18749900000000008 0.125 -0.4375
v -0.18749900000000008 0.0625 -0.4375
v -0.12499900000000008 0.125 -0.125
v -0.12499900000000008 0.125 -0.0625
v -0.12499900000000008 0.0625 -0.0625
v -0.12499900000000008 0.0625 -0.125
v -0.18749900000000008 0.0625 -0.0625
v -0.18749900000000008 0.125 -0.0625
v -0.18749900000000008 0.125 -0.125
v -0.18749900000000008 0.0625 -0.125
v -0.06249900000000008 0.125 -0.1875
v -0.06249900000000008 0.125 -0.125
v -0.06249900000000008 0.0625 -0.125
v -0.06249900000000008 0.0625 -0.1875
v -0.12499900000000008 0.0625 -0.125
v -0.12499900000000008 0.125 -0.125
v -0.12499900000000008 0.125 -0.1875
v -0.12499900000000008 0.0625 -0.1875
v 0.5000009999999999 0.125 0.375
v 0.5 0.125 0.5
v 0.5 0.0625 0.5
v 0.5000009999999999 0.0625 0.375
v -0.375 0.0625 0.5
v -0.375 0.125 0.5
v -0.3749990000000001 0.125 0.375
v -0.3749990000000001 0.0625 0.375
v -0.375 0.125 -0.5
v -0.375 0.125 0.5
v -0.375 0.0625 0.5
v -0.375 0.0625 -0.5
v -0.5 0.0625 0.5
v -0.5 0.125 0.5
v -0.4999990000000001 0.125 -0.5
v -0.4999990000000001 0.0625 -0.5
v -0.4375 0.0625 -0.5
v -0.4375 0.0625 0.5
v -0.4375 0 0.5
v -0.4375 0 -0.5
v -0.5 0 0.5
v -0.5 0.0625 0.5
v -0.4999990000000001 0.0625 -0.5
v -0.4999990000000001 0 -0.5
v 0.5 1 0.40625
v 0.5 1 0.46875
v 0.5 0.9375 0.46875
v 0.5 0.9375 0.40625
v -0.40625 0.9375 0.46875
v -0.40625 1 0.46875
v -0.40625 1 0.40625
v -0.40625 0.9375 0.40625
v -0.4062490000000001 1 0.40625
v -0.4062490000000001 1 0.46875
v -0.4062490000000001 0.15625 0.46875
v -0.4062490000000001 0.15625 0.40625
v -0.4687490000000001 0.15625 0.46875
v -0.4687490000000001 1 0.46875
v -0.4687490000000001 1 0.40625
v -0.4687490000000001 0.15625 0.40625
v -0.46875 1 -0.5
v -0.40625 1 -0.5
v -0.40625 0.9375 -0.5
v -0.46875 0.9375 -0.5
v -0.4062490000000001 0.9375 0.40625
v -0.4062490000000001 1 0.40625
v -0.4687490000000001 1 0.40625
v -0.4687490000000001 0.9375 0.40625
v -0.4374990000000001 0.875 -0.03125
v -0.4374990000000001 0.875 0.03125
v -0.4374990000000001 0.8125 0.03125
v -0.4374990000000001 0.8125 -0.03125
v -0.4374990000000001 0.875 -0.15625
v -0.4374990000000001 0.875 -0.09375
v -0.4374990000000001 0.8125 -0.09375
v -0.4374990000000001 0.8125 -0.15625
v -0.4374990000000001 0.875 -0.28125
v -0.4374990000000001 0.875 -0.21875
v -0.4374990000000001 0.8125 -0.21875
v -0.4374990000000001 0.8125 -0.28125
v -0.4374990000000001 0.875 -0.40625
v -0.4374990000000001 0.875 -0.34375
v -0.4374990000000001 0.8125 -0.34375
v -0.4374990000000001 0.8125 -0.40625
v -0.4374990000000001 0.375 0.40625
v -0.4374990000000001 0.4375 0.40625
v -0.4374990000000001 0.4375 -0.5
v -0.4374990000000001 0.375 -0.5
v -0.4374990000000001 0.75 0.34375
v -0.4374990000000001 0.75 0.40625
v -0.4374990000000001 0.6875 0.40625
v -0.4374990000000001 0.6875 0.34375
v -0.4374990000000001 0.75 0.21875
v -0.4374990000000001 0.75 0.28125
v -0.4374990000000001 0.6875 0.28125
v -0.4374990000000001 0.6875 0.21875
v -0.4374990000000001 0.75 0.09375
v -0.4374990000000001 0.75 0.15625
v -0.4374990000000001 0.6875 0.15625
v -0.4374990000000001 0.6875 0.09375
v -0.4374990000000001 0.75 -0.03125
v -0.4374990000000001 0.75 0.03125
v -0.4374990000000001 0.6875 0.03125
v -0.4374990000000001 0.6875 -0.03125
v -0.4374990000000001 0.75 -0.15625
v -0.4374990000000001 0.75 -0.09375
v -0.4374990000000001 0.6875 -0.09375
v -0.4374990000000001 0.6875 -0.15625
v -0.4374990000000001 0.75 -0.28125
v -0.4374990000000001 0.75 -0.21875
v -0.4374990000000001 0.6875 -0.21875
v -0.4374990000000001 0.6875 -0.28125
v -0.4374990000000001 0.75 -0.40625
v -0.4374990000000001 0.75 -0.34375
v -0.4374990000000001 0.6875 -0.34375
v -0.4374990000000001 0.6875 -0.40625
v -0.4374990000000001 0.625 0.34375
v -0.4374990000000001 0.625 0.40625
v -0.4374990000000001 0.5625 0.40625
v -0.4374990000000001 0.5625 0.34375
v -0.4374990000000001 0.625 0.21875
v -0.4374990000000001 0.625 0.28125
v -0.4374990000000001 0.5625 0.28125
v -0.4374990000000001 0.5625 0.21875
v -0.4374990000000001 0.625 0.09375
v -0.4374990000000001 0.625 0.15625
v -0.4374990000000001 0.5625 0.15625
v -0.4374990000000001 0.5625 0.09375
v -0.4374990000000001 0.625 -0.03125
v -0.4374990000000001 0.625 0.03125
v -0.4374990000000001 0.5625 0.03125
v -0.4374990000000001 0.5625 -0.03125
v -0.4374990000000001 0.625 -0.15625
v -0.4374990000000001 0.625 -0.09375
v -0.4374990000000001 0.5625 -0.09375
v -0.4374990000000001 0.5625 -0.15625
v -0.4374990000000001 0.625 -0.28125
v -0.4374990000000001 0.625 -0.21875
v -0.4374990000000001 0.5625 -0.21875
v -0.4374990000000001 0.5625 -0.28125
v -0.4374990000000001 0.625 -0.40625
v -0.4374990000000001 0.625 -0.34375
v -0.4374990000000001 0.5625 -0.34375
v -0.4374990000000001 0.5625 -0.40625
v -0.4374990000000001 0.5 0.34375
v -0.4374990000000001 0.5 0.40625
v -0.4374990000000001 0.4375 0.34375
v -0.4374990000000001 0.5 0.21875
v -0.4374990000000001 0.5 0.28125
v -0.4374990000000001 0.4375 0.28125
v -0.4374990000000001 0.4375 0.21875
v -0.4374990000000001 0.5 0.09375
v -0.4374990000000001 0.5 0.15625
v -0.4374990000000001 0.4375 0.15625
v -0.4374990000000001 0.4375 0.09375
v -0.4374990000000001 0.5 -0.03125
v -0.4374990000000001 0.5 0.03125
v -0.4374990000000001 0.4375 0.03125
v -0.4374990000000001 0.4375 -0.03125
v -0.4374990000000001 0.5 -0.15625
v -0.4374990000000001 0.5 -0.09375
v -0.4374990000000001 0.4375 -0.09375
v -0.4374990000000001 0.4375 -0.15625
v -0.4374990000000001 0.5 -0.28125
v -0.4374990000000001 0.5 -0.21875
v -0.4374990000000001 0.4375 -0.21875
v -0.4374990000000001 0.4375 -0.28125
v -0.4374990000000001 0.5 -0.40625
v -0.4374990000000001 0.5 -0.34375
v -0.4374990000000001 0.4375 -0.34375
v -0.4374990000000001 0.4375 -0.40625
v -0.4374990000000001 0.375 0.34375
v -0.4374990000000001 0.3125 0.40625
v -0.4374990000000001 0.3125 0.34375
v -0.4374990000000001 0.375 0.21875
v -0.4374990000000001 0.375 0.28125
v -0.4374990000000001 0.3125 0.28125
v -0.4374990000000001 0.3125 0.21875
v -0.4374990000000001 0.375 0.09375
v -0.4374990000000001 0.375 0.15625
v -0.4374990000000001 0.3125 0.15625
v -0.4374990000000001 0.3125 0.09375
v -0.4374990000000001 0.375 -0.03125
v -0.4374990000000001 0.375 0.03125
v -0.4374990000000001 0.3125 0.03125
v -0.4374990000000001 0.3125 -0.03125
v -0.4374990000000001 0.375 -0.15625
v -0.4374990000000001 0.375 -0.09375
v -0.4374990000000001 0.3125 -0.09375
v -0.4374990000000001 0.3125 -0.15625
v -0.4374990000000001 0.375 -0.28125
v -0.4374990000000001 0.375 -0.21875
v -0.4374990000000001 0.3125 -0.21875
v -0.4374990000000001 0.3125 -0.28125
v -0.4374990000000001 0.375 -0.40625
v -0.4374990000000001 0.375 -0.34375
v -0.4374990000000001 0.3125 -0.34375
v -0.4374990000000001 0.3125 -0.40625
v -0.4374990000000001 0.25 0.34375
v -0.4374990000000001 0.25 0.40625
v -0.4374990000000001 0.1875 0.40625
v -0.4374990000000001 0.1875 0.34375
v -0.4374990000000001 0.25 0.21875
v -0.4374990000000001 0.25 0.28125
v -0.4374990000000001 0.1875 0.28125
v -0.4374990000000001 0.1875 0.21875
v -0.4374990000000001 0.25 0.09375
v -0.4374990000000001 0.25 0.15625
v -0.4374990000000001 0.1875 0.15625
v -0.4374990000000001 0.1875 0.09375
v -0.4374990000000001 0.25 -0.03125
v -0.4374990000000001 0.25 0.03125
v -0.4374990000000001 0.1875 0.03125
v -0.4374990000000001 0.1875 -0.03125
v -0.4374990000000001 0.25 -0.15625
v -0.4374990000000001 0.25 -0.09375
v -0.4374990000000001 0.1875 -0.09375
v -0.4374990000000001 0.1875 -0.15625
v -0.4374990000000001 0.25 -0.28125
v -0.4374990000000001 0.25 -0.21875
v -0.4374990000000001 0.1875 -0.21875
v -0.4374990000000001 0.1875 -0.28125
v -0.4374990000000001 0.25 -0.40625
v -0.4374990000000001 0.25 -0.34375
v -0.4374990000000001 0.1875 -0.34375
v -0.4374990000000001 0.1875 -0.40625
v -0.4374990000000001 0.875 0.34375
v -0.4374990000000001 0.875 0.40625
v -0.4374990000000001 0.8125 0.40625
v -0.4374990000000001 0.8125 0.34375
v -0.4374990000000001 0.875 0.09375
v -0.4374990000000001 0.875 0.15625
v -0.4374990000000001 0.8125 0.15625
v -0.4374990000000001 0.8125 0.09375
v -0.4374990000000001 0.875 0.21875
v -0.4374990000000001 0.875 0.28125
v -0.4374990000000001 0.8125 0.28125
v -0.4374990000000001 0.8125 0.21875
v -0.4374990000000001 0.25 -0.5
v -0.4374990000000001 0.3125 -0.5
v -0.4374990000000001 0.1875 -0.46875
v -0.4374990000000001 0.1875 -0.5
v -0.4374990000000001 0.25 -0.5
v -0.4374990000000001 0.25 -0.46875
v -0.4374990000000001 0.3125 -0.46875
v -0.4374990000000001 0.3125 -0.5
v -0.4374990000000001 0.375 -0.46875
v -0.4374990000000001 0.4375 -0.46875
v -0.4374990000000001 0.5 -0.5
v -0.4374990000000001 0.5 -0.46875
v -0.4374990000000001 0.5625 -0.46875
v -0.4374990000000001 0.5625 -0.5
v -0.4374990000000001 0.625 -0.5
v -0.4374990000000001 0.625 -0.46875
v -0.4374990000000001 0.6875 -0.46875
v -0.4374990000000001 0.6875 -0.5
v -0.4374990000000001 0.75 -0.5
v -0.4374990000000001 0.75 -0.46875
v -0.4374990000000001 0.8125 -0.46875
v -0.4374990000000001 0.8125 -0.5
v -0.4374990000000001 0.875 -0.5
v -0.4374990000000001 0.875 -0.46875
v -0.4374990000000001 0.9375 -0.5
v -0.4374990000000001 0.9375 0.40625
v -0.4374990000000001 0.1875 0.40625
v -0.4374990000000001 0.15625 -0.5
v -0.4374990000000001 0.15625 0.40625
vt 0.453125 0.28125
vt 0.4375 0.28125
vt 0.4375 0.265625
vt 0.453125 0.265625
vt 0.484375 0.28125
vt 0.46875 0.28125
vt 0.46875 0.265625
vt 0.484375 0.265625
vt 0.515625 0.28125
vt 0.5 0.28125
vt 0.5 0.265625
vt 0.515625 0.265625
vt 0.546875 0.28125
vt 0.53125 0.28125
vt 0.53125 0.265625
vt 0.546875 0.265625
vt 0.734375 0.328125
vt 0.71875 0.328125
vt 0.71875 0.3125
vt 0.734375 0.3125
vt 0.015625 0.265625
vt 0 0.265625
vt 0 0.25
vt 0.015625 0.25
vt 0.75 1
vt 0.734375 1
vt 0.734375 0.984375
vt 0.75 0.984375
vt 0.046875 0.265625
vt 0.03125 0.265625
vt 0.03125 0.25
vt 0.046875 0.25
vt 0.75 0.96875
vt 0.734375 0.96875
vt 0.734375 0.953125
vt 0.75 0.953125
vt 0.140625 0.265625
vt 0.125 0.265625
vt 0.125 0.25
vt 0.140625 0.25
vt 0.171875 0.265625
vt 0.15625 0.265625
vt 0.15625 0.25
vt 0.171875 0.25
vt 0.203125 0.265625
vt 0.1875 0.265625
vt 0.1875 0.25
vt 0.203125 0.25
vt 0.75 0.8125
vt 0.734375 0.8125
vt 0.734375 0.796875
vt 0.75 0.796875
vt 0.234375 0.265625
vt 0.21875 0.265625
vt 0.21875 0.25
vt 0.234375 0.25
vt 0.734375 0.765625
vt 0.75 0.765625
vt 0.75 0.78125
vt 0.734375 0.78125
vt 0.75 0.75
vt 0.734375 0.75
vt 0.734375 0.734375
vt 0.75 0.734375
vt 0.578125 0.265625
vt 0.5625 0.265625
vt 0.5625 0.25
vt 0.578125 0.25
vt 0.609375 0.265625
vt 0.59375 0.265625
vt 0.59375 0.25
vt 0.609375 0.25
vt 0.640625 0.265625
vt 0.625 0.265625
vt 0.625 0.25
vt 0.640625 0.25
vt 0.671875 0.265625
vt 0.65625 0.265625
vt 0.65625 0.25
vt 0.671875 0.25
vt 0.703125 0.265625
vt 0.6875 0.265625
vt 0.6875 0.25
vt 0.703125 0.25
vt 0.75 0.296875
vt 0.734375 0.296875
vt 0.734375 0.28125
vt 0.75 0.28125
vt 0.71875 0.25
vt 0.734375 0.25
vt 0.734375 0.265625
vt 0.71875 0.265625
vt 0.078125 0.25
vt 0.0625 0.25
vt 0.0625 0.234375
vt 0.078125 0.234375
vt 0.109375 0.25
vt 0.09375 0.25
vt 0.09375 0.234375
vt 0.109375 0.234375
vt 0.265625 0.25
vt 0.25 0.25
vt 0.25 0.234375
vt 0.265625 0.234375
vt 0.296875 0.25
vt 0.28125 0.25
vt 0.28125 0.234375
vt 0.296875 0.234375
vt 0.328125 0.25
vt 0.3125 0.25
vt 0.3125 0.234375
vt 0.328125 0.234375
vt 0.359375 0.25
vt 0.34375 0.25
vt 0.34375 0.234375
vt 0.359375 0.234375
vt 0.390625 0.25
vt 0.375 0.25
vt 0.375 0.234375
vt 0.390625 0.234375
vt 0.40625 0.234375
vt 0.421875 0.234375
vt 0.421875 0.25
vt 0.40625 0.25
vt 0.453125 0.25
vt 0.4375 0.25
vt 0.4375 0.234375
vt 0.453125 0.234375
vt 0.484375 0.25
vt 0.46875 0.25
vt 0.46875 0.234375
vt 0.484375 0.234375
vt 0.515625 0.25
vt 0.5 0.25
vt 0.5 0.234375
vt 0.515625 0.234375
vt 0.546875 0.25
vt 0.53125 0.25
vt 0.53125 0.234375
vt 0.546875 0.234375
vt 0.765625 0.421875
vt 0.75 0.421875
vt 0.75 0.40625
vt 0.765625 0.40625
vt 0.765625 0.390625
vt 0.75 0.390625
vt 0.75 0.375
vt 0.765625 0.375
vt 0.765625 0.359375
vt 0.75 0.359375
vt 0.75 0.34375
vt 0.765625 0.34375
vt 0.765625 0.328125
vt 0.75 0.328125
vt 0.75 0.3125
vt 0.765625 0.3125
vt 0.765625 0.265625
vt 0.75 0.265625
vt 0.75 0.25
vt 0.765625 0.25
vt 0.015625 0.234375
vt 0 0.234375
vt 0 0.21875
vt 0.015625 0.21875
vt 0.78125 1
vt 0.765625 1
vt 0.765625 0.984375
vt 0.78125 0.984375
vt 0.046875 0.234375
vt 0.03125 0.234375
vt 0.03125 0.21875
vt 0.046875 0.21875
vt 0.78125 0.96875
vt 0.765625 0.96875
vt 0.765625 0.953125
vt 0.78125 0.953125
vt 0.140625 0.234375
vt 0.125 0.234375
vt 0.125 0.21875
vt 0.140625 0.21875
vt 0.15625 0.21875
vt 0.171875 0.21875
vt 0.171875 0.234375
vt 0.15625 0.234375
vt 0.1875 0.21875
vt 0.203125 0.21875
vt 0.203125 0.234375
vt 0.1875 0.234375
vt 0.765625 0.796875
vt 0.78125 0.796875
vt 0.78125 0.8125
vt 0.765625 0.8125
vt 0.0625 0.609375
vt 0.296875 0.609375
vt 0.296875 0.625
vt 0.0625 0.625
vt 0.546875 0.625
vt 0.3125 0.625
vt 0.3125 0.609375
vt 0.546875 0.609375
vt 0.625 0.6875
vt 0.625 0.703125
vt 0.390625 0.703125
vt 0.390625 0.6875
vt 0.390625 0.671875
vt 0.390625 0.65625
vt 0.625 0.65625
vt 0.625 0.671875
vt 0.40625 1
vt 0.40625 0.984375
vt 0.640625 0.984375
vt 0.640625 1
vt 0.40625 0.96875
vt 0.40625 0.953125
vt 0.640625 0.953125
vt 0.640625 0.96875
vt 0.296875 0.578125
vt 0.296875 0.59375
vt 0.0625 0.59375
vt 0.0625 0.578125
vt 0.765625 0.109375
vt 0.75 0.109375
vt 0.75 0.09375
vt 0.765625 0.09375
vt 0.90625 0.28125
vt 0.90625 0.296875
vt 0.890625 0.296875
vt 0.890625 0.28125
vt 0.34375 0.890625
vt 0.34375 0.90625
vt 0.09375 0.90625
vt 0.09375 0.890625
vt 0.34375 0.859375
vt 0.34375 0.875
vt 0.09375 0.875
vt 0.09375 0.859375
vt 0.34375 0.84375
vt 0.09375 0.84375
vt 0.09375 0.828125
vt 0.34375 0.828125
vt 0.09375 0.796875
vt 0.34375 0.796875
vt 0.34375 0.8125
vt 0.09375 0.8125
vt 0.859375 0.875
vt 0.625 0.875
vt 0.625 0.859375
vt 0.859375 0.859375
vt 0.859375 0.828125
vt 0.859375 0.84375
vt 0.625 0.84375
vt 0.625 0.828125
vt 0.328125 0.359375
vt 0.328125 0.59375
vt 0.3125 0.59375
vt 0.3125 0.359375
vt 0.234375 0.21875
vt 0.234375 0.234375
vt 0.21875 0.234375
vt 0.21875 0.21875
vt 0.78125 0.78125
vt 0.765625 0.78125
vt 0.765625 0.765625
vt 0.78125 0.765625
vt 0.34375 0.359375
vt 0.359375 0.359375
vt 0.359375 0.59375
vt 0.34375 0.59375
vt 0.6875 0.421875
vt 0.625 0.421875
vt 0.625 0.40625
vt 0.6875 0.40625
vt 0.6875 0.375
vt 0.6875 0.390625
vt 0.625 0.390625
vt 0.625 0.375
vt 0.15625 0.71875
vt 0.15625 0.78125
vt 0.09375 0.78125
vt 0.09375 0.71875
vt 0.703125 0.6875
vt 0.703125 0.703125
vt 0.640625 0.703125
vt 0.640625 0.6875
vt 0.703125 0.671875
vt 0.640625 0.671875
vt 0.640625 0.65625
vt 0.703125 0.65625
vt 0.171875 0.71875
vt 0.234375 0.71875
vt 0.234375 0.78125
vt 0.171875 0.78125
vt 0.796875 0.109375
vt 0.78125 0.109375
vt 0.78125 0.09375
vt 0.796875 0.09375
vt 0.78125 0.734375
vt 0.78125 0.75
vt 0.765625 0.75
vt 0.765625 0.734375
vt 0.640625 0.78125
vt 0.640625 0.796875
vt 0.40625 0.796875
vt 0.40625 0.78125
vt 0.640625 0.75
vt 0.640625 0.765625
vt 0.40625 0.765625
vt 0.40625 0.75
vt 0.640625 0.734375
vt 0.40625 0.734375
vt 0.40625 0.71875
vt 0.640625 0.71875
vt 0.375 0.578125
vt 0.609375 0.578125
vt 0.609375 0.59375
vt 0.375 0.59375
vt 0.6875 0.359375
vt 0.625 0.359375
vt 0.625 0.34375
vt 0.6875 0.34375
vt 0.765625 0.46875
vt 0.765625 0.484375
vt 0.703125 0.484375
vt 0.703125 0.46875
vt 0.3125 0.71875
vt 0.3125 0.78125
vt 0.25 0.78125
vt 0.25 0.71875
vt 0.71875 0.984375
vt 0.71875 1
vt 0.65625 1
vt 0.65625 0.984375
vt 0.71875 0.96875
vt 0.65625 0.96875
vt 0.65625 0.953125
vt 0.71875 0.953125
vt 0 0.671875
vt 0.0625 0.671875
vt 0.0625 0.734375
vt 0 0.734375
vt 0.71875 0.8125
vt 0.65625 0.8125
vt 0.65625 0.796875
vt 0.71875 0.796875
vt 0.71875 0.765625
vt 0.71875 0.78125
vt 0.65625 0.78125
vt 0.65625 0.765625
vt 0.140625 0.640625
vt 0.140625 0.703125
vt 0.078125 0.703125
vt 0.078125 0.640625
vt 0.3125 0.328125
vt 0.3125 0.34375
vt 0.25 0.34375
vt 0.25 0.328125
vt 0.71875 0.75
vt 0.65625 0.75
vt 0.65625 0.734375
vt 0.71875 0.734375
vt 0.15625 0.640625
vt 0.21875 0.640625
vt 0.21875 0.703125
vt 0.15625 0.703125
vt 0.390625 0.34375
vt 0.328125 0.34375
vt 0.328125 0.328125
vt 0.390625 0.328125
vt 0.765625 0.4375
vt 0.765625 0.453125
vt 0.703125 0.453125
vt 0.703125 0.4375
vt 0.296875 0.640625
vt 0.296875 0.703125
vt 0.234375 0.703125
vt 0.234375 0.640625
vt 0.46875 0.328125
vt 0.46875 0.34375
vt 0.40625 0.34375
vt 0.40625 0.328125
vt 0.546875 0.34375
vt 0.484375 0.34375
vt 0.484375 0.328125
vt 0.546875 0.328125
vt 0.3125 0.640625
vt 0.375 0.640625
vt 0.375 0.703125
vt 0.3125 0.703125
vt 0.625 0.296875
vt 0.5625 0.296875
vt 0.5625 0.28125
vt 0.625 0.28125
vt 0.625 0.3125
vt 0.625 0.328125
vt 0.5625 0.328125
vt 0.5625 0.3125
vt 0.390625 0.9375
vt 0.390625 1
vt 0.328125 1
vt 0.328125 0.9375
vt 0.703125 0.3125
vt 0.703125 0.328125
vt 0.640625 0.328125
vt 0.640625 0.3125
vt 0.3125 0.3125
vt 0.25 0.3125
vt 0.25 0.296875
vt 0.3125 0.296875
vt 0.328125 0.71875
vt 0.390625 0.71875
vt 0.390625 0.78125
vt 0.328125 0.78125
vt 0.03125 0.296875
vt 0 0.296875
vt 0 0.28125
vt 0.03125 0.28125
vt 0.734375 0.40625
vt 0.734375 0.421875
vt 0.703125 0.421875
vt 0.703125 0.40625
vt 0.6875 0.484375
vt 0.6875 0.515625
vt 0.625 0.515625
vt 0.625 0.484375
vt 0.390625 0.296875
vt 0.390625 0.3125
vt 0.328125 0.3125
vt 0.328125 0.296875
vt 0.46875 0.3125
vt 0.40625 0.3125
vt 0.40625 0.296875
vt 0.46875 0.296875
vt 0.625 0.4375
vt 0.6875 0.4375
vt 0.6875 0.46875
vt 0.625 0.46875
vt 0.546875 0.3125
vt 0.484375 0.3125
vt 0.484375 0.296875
vt 0.546875 0.296875
vt 0.765625 0.5
vt 0.765625 0.515625
vt 0.703125 0.515625
vt 0.703125 0.5
vt 0.28125 0.4375
vt 0.28125 0.5
vt 0.25 0.5
vt 0.25 0.4375
vt 0.734375 0.375
vt 0.734375 0.390625
vt 0.703125 0.390625
vt 0.703125 0.375
vt 0.671875 0.296875
vt 0.640625 0.296875
vt 0.640625 0.28125
vt 0.671875 0.28125
vt 0.25 0.359375
vt 0.28125 0.359375
vt 0.28125 0.421875
vt 0.25 0.421875
vt 0.734375 0.359375
vt 0.703125 0.359375
vt 0.703125 0.34375
vt 0.734375 0.34375
vt 0.71875 0.28125
vt 0.71875 0.296875
vt 0.6875 0.296875
vt 0.6875 0.28125
vt 0.03125 0.359375
vt 0.03125 0.390625
vt 0 0.390625
vt 0 0.359375
vt 0.28125 0.265625
vt 0.28125 0.28125
vt 0.25 0.28125
vt 0.25 0.265625
vt 0.75 0.71875
vt 0.71875 0.71875
vt 0.71875 0.703125
vt 0.75 0.703125
vt 0 0.3125
vt 0.03125 0.3125
vt 0.03125 0.34375
vt 0 0.34375
vt 0.78125 0.71875
vt 0.765625 0.71875
vt 0.765625 0.703125
vt 0.78125 0.703125
vt 0.78125 0.671875
vt 0.78125 0.6875
vt 0.765625 0.6875
vt 0.765625 0.671875
vt 0.578125 0.21875
vt 0.578125 0.234375
vt 0.5625 0.234375
vt 0.5625 0.21875
vt 0.609375 0.21875
vt 0.609375 0.234375
vt 0.59375 0.234375
vt 0.59375 0.21875
vt 0.640625 0.234375
vt 0.625 0.234375
vt 0.625 0.21875
vt 0.640625 0.21875
vt 0.65625 0.21875
vt 0.671875 0.21875
vt 0.671875 0.234375
vt 0.65625 0.234375
vt 0.703125 0.234375
vt 0.6875 0.234375
vt 0.6875 0.21875
vt 0.703125 0.21875
vt 0.78125 0.28125
vt 0.78125 0.296875
vt 0.765625 0.296875
vt 0.765625 0.28125
vt 0.734375 0.21875
vt 0.734375 0.234375
vt 0.71875 0.234375
vt 0.71875 0.21875
vt 0.765625 0.21875
vt 0.765625 0.234375
vt 0.75 0.234375
vt 0.75 0.21875
vt 0.078125 0.21875
vt 0.0625 0.21875
vt 0.0625 0.203125
vt 0.078125 0.203125
vt 0.09375 0.203125
vt 0.109375 0.203125
vt 0.109375 0.21875
vt 0.09375 0.21875
vt 0.265625 0.21875
vt 0.25 0.21875
vt 0.25 0.203125
vt 0.265625 0.203125
vt 0.296875 0.203125
vt 0.296875 0.21875
vt 0.28125 0.21875
vt 0.28125 0.203125
vt 0.328125 0.203125
vt 0.328125 0.21875
vt 0.3125 0.21875
vt 0.3125 0.203125
vt 0.359375 0.203125
vt 0.359375 0.21875
vt 0.34375 0.21875
vt 0.34375 0.203125
vt 0.390625 0.21875
vt 0.375 0.21875
vt 0.375 0.203125
vt 0.390625 0.203125
vt 0.40625 0.203125
vt 0.421875 0.203125
vt 0.421875 0.21875
vt 0.40625 0.21875
vt 0.453125 0.21875
vt 0.4375 0.21875
vt 0.4375 0.203125
vt 0.453125 0.203125
vt 0.484375 0.203125
vt 0.484375 0.21875
vt 0.46875 0.21875
vt 0.46875 0.203125
vt 0.796875 0.5
vt 0.796875 0.515625
vt 0.78125 0.515625
vt 0.78125 0.5
vt 0.515625 0.203125
vt 0.515625 0.21875
vt 0.5 0.21875
vt 0.5 0.203125
vt 0.796875 0.484375
vt 0.78125 0.484375
vt 0.78125 0.46875
vt 0.796875 0.46875
vt 0.53125 0.203125
vt 0.546875 0.203125
vt 0.546875 0.21875
vt 0.53125 0.21875
vt 0.796875 0.453125
vt 0.78125 0.453125
vt 0.78125 0.4375
vt 0.796875 0.4375
vt 0.796875 0.40625
vt 0.796875 0.421875
vt 0.78125 0.421875
vt 0.78125 0.40625
vt 0.796875 0.375
vt 0.796875 0.390625
vt 0.78125 0.390625
vt 0.78125 0.375
vt 0.796875 0.34375
vt 0.796875 0.359375
vt 0.78125 0.359375
vt 0.78125 0.34375
vt 0.796875 0.328125
vt 0.78125 0.328125
vt 0.78125 0.3125
vt 0.796875 0.3125
vt 0.78125 0.25
vt 0.796875 0.25
vt 0.796875 0.265625
vt 0.78125 0.265625
vt 0.796875 0.234375
vt 0.78125 0.234375
vt 0.78125 0.21875
vt 0.796875 0.21875
vt 0.015625 0.1875
vt 0.015625 0.203125
vt 0 0.203125
vt 0 0.1875
vt 0.8125 0.984375
vt 0.8125 1
vt 0.796875 1
vt 0.796875 0.984375
vt 0.046875 0.1875
vt 0.046875 0.203125
vt 0.03125 0.203125
vt 0.03125 0.1875
vt 0.8125 0.96875
vt 0.796875 0.96875
vt 0.796875 0.953125
vt 0.8125 0.953125
vt 0.125 0.1875
vt 0.140625 0.1875
vt 0.140625 0.203125
vt 0.125 0.203125
vt 0.171875 0.203125
vt 0.15625 0.203125
vt 0.15625 0.1875
vt 0.171875 0.1875
vt 0.203125 0.1875
vt 0.203125 0.203125
vt 0.1875 0.203125
vt 0.1875 0.1875
vt 0.8125 0.796875
vt 0.8125 0.8125
vt 0.796875 0.8125
vt 0.796875 0.796875
vt 0.234375 0.1875
vt 0.234375 0.203125
vt 0.21875 0.203125
vt 0.21875 0.1875
vt 0.8125 0.78125
vt 0.796875 0.78125
vt 0.796875 0.765625
vt 0.8125 0.765625
vt 0.796875 0.734375
vt 0.8125 0.734375
vt 0.8125 0.75
vt 0.796875 0.75
vt 0.8125 0.71875
vt 0.796875 0.71875
vt 0.796875 0.703125
vt 0.8125 0.703125
vt 0.8125 0.671875
vt 0.8125 0.6875
vt 0.796875 0.6875
vt 0.796875 0.671875
vt 0.578125 0.1875
vt 0.578125 0.203125
vt 0.5625 0.203125
vt 0.5625 0.1875
vt 0.609375 0.1875
vt 0.609375 0.203125
vt 0.59375 0.203125
vt 0.59375 0.1875
vt 0.640625 0.203125
vt 0.625 0.203125
vt 0.625 0.1875
vt 0.640625 0.1875
vt 0.65625 0.1875
vt 0.671875 0.1875
vt 0.671875 0.203125
vt 0.65625 0.203125
vt 0.703125 0.203125
vt 0.6875 0.203125
vt 0.6875 0.1875
vt 0.703125 0.1875
vt 0.8125 0.28125
vt 0.8125 0.296875
vt 0.796875 0.296875
vt 0.796875 0.28125
vt 0.734375 0.1875
vt 0.734375 0.203125
vt 0.71875 0.203125
vt 0.71875 0.1875
vt 0.765625 0.1875
vt 0.765625 0.203125
vt 0.75 0.203125
vt 0.75 0.1875
vt 0.796875 0.203125
vt 0.78125 0.203125
vt 0.78125 0.1875
vt 0.796875 0.1875
vt 0.0625 0.171875
vt 0.078125 0.171875
vt 0.078125 0.1875
vt 0.0625 0.1875
vt 0.109375 0.1875
vt 0.09375 0.1875
vt 0.09375 0.171875
vt 0.109375 0.171875
vt 0.734375 0.09375
vt 0.734375 0.109375
vt 0.71875 0.109375
vt 0.71875 0.09375
vt 0.265625 0.171875
vt 0.265625 0.1875
vt 0.25 0.1875
vt 0.25 0.171875
vt 0.296875 0.171875
vt 0.296875 0.1875
vt 0.28125 0.1875
vt 0.28125 0.171875
vt 0.328125 0.1875
vt 0.3125 0.1875
vt 0.3125 0.171875
vt 0.328125 0.171875
vt 0.34375 0.171875
vt 0.359375 0.171875
vt 0.359375 0.1875
vt 0.34375 0.1875
vt 0.828125 0.65625
vt 0.8125 0.65625
vt 0.8125 0.640625
vt 0.828125 0.640625
vt 0.390625 0.171875
vt 0.390625 0.1875
vt 0.375 0.1875
vt 0.375 0.171875
vt 0.421875 0.171875
vt 0.421875 0.1875
vt 0.40625 0.1875
vt 0.40625 0.171875
vt 0.453125 0.171875
vt 0.453125 0.1875
vt 0.4375 0.1875
vt 0.4375 0.171875
vt 0.484375 0.1875
vt 0.46875 0.1875
vt 0.46875 0.171875
vt 0.484375 0.171875
vt 0.8125 0.5
vt 0.828125 0.5
vt 0.828125 0.515625
vt 0.8125 0.515625
vt 0.515625 0.1875
vt 0.5 0.1875
vt 0.5 0.171875
vt 0.515625 0.171875
vt 0.828125 0.46875
vt 0.828125 0.484375
vt 0.8125 0.484375
vt 0.8125 0.46875
vt 0.546875 0.171875
vt 0.546875 0.1875
vt 0.53125 0.1875
vt 0.53125 0.171875
vt 0.828125 0.4375
vt 0.828125 0.453125
vt 0.8125 0.453125
vt 0.8125 0.4375
vt 0.828125 0.421875
vt 0.8125 0.421875
vt 0.8125 0.40625
vt 0.828125 0.40625
vt 0.8125 0.375
vt 0.828125 0.375
vt 0.828125 0.390625
vt 0.8125 0.390625
vt 0.828125 0.359375
vt 0.8125 0.359375
vt 0.8125 0.34375
vt 0.828125 0.34375
vt 0.828125 0.3125
vt 0.828125 0.328125
vt 0.8125 0.328125
vt 0.8125 0.3125
vt 0.828125 0.25
vt 0.828125 0.265625
vt 0.8125 0.265625
vt 0.8125 0.25
vt 0.828125 0.21875
vt 0.828125 0.234375
vt 0.8125 0.234375
vt 0.8125 0.21875
vt 0.828125 0.203125
vt 0.8125 0.203125
vt 0.8125 0.1875
vt 0.828125 0.1875
vt 0 0.15625
vt 0.015625 0.15625
vt 0.015625 0.171875
vt 0 0.171875
vt 0.84375 1
vt 0.828125 1
vt 0.828125 0.984375
vt 0.84375 0.984375
vt 0.046875 0.15625
vt 0.046875 0.171875
vt 0.03125 0.171875
vt 0.03125 0.15625
vt 0.84375 0.953125
vt 0.84375 0.96875
vt 0.828125 0.96875
vt 0.828125 0.953125
vt 0.140625 0.15625
vt 0.140625 0.171875
vt 0.125 0.171875
vt 0.125 0.15625
vt 0.171875 0.171875
vt 0.15625 0.171875
vt 0.15625 0.15625
vt 0.171875 0.15625
vt 0.1875 0.15625
vt 0.203125 0.15625
vt 0.203125 0.171875
vt 0.1875 0.171875
vt 0.84375 0.8125
vt 0.828125 0.8125
vt 0.828125 0.796875
vt 0.84375 0.796875
vt 0.234375 0.15625
vt 0.234375 0.171875
vt 0.21875 0.171875
vt 0.21875 0.15625
vt 0.84375 0.765625
vt 0.84375 0.78125
vt 0.828125 0.78125
vt 0.828125 0.765625
vt 0.84375 0.734375
vt 0.84375 0.75
vt 0.828125 0.75
vt 0.828125 0.734375
vt 0.84375 0.71875
vt 0.828125 0.71875
vt 0.828125 0.703125
vt 0.84375 0.703125
vt 0.828125 0.671875
vt 0.84375 0.671875
vt 0.84375 0.6875
vt 0.828125 0.6875
vt 0.578125 0.171875
vt 0.5625 0.171875
vt 0.5625 0.15625
vt 0.578125 0.15625
vt 0.609375 0.15625
vt 0.609375 0.171875
vt 0.59375 0.171875
vt 0.59375 0.15625
vt 0.640625 0.15625
vt 0.640625 0.171875
vt 0.625 0.171875
vt 0.625 0.15625
vt 0.671875 0.15625
vt 0.671875 0.171875
vt 0.65625 0.171875
vt 0.65625 0.15625
vt 0.703125 0.171875
vt 0.6875 0.171875
vt 0.6875 0.15625
vt 0.703125 0.15625
vt 0.828125 0.28125
vt 0.84375 0.28125
vt 0.84375 0.296875
vt 0.828125 0.296875
vt 0.734375 0.171875
vt 0.71875 0.171875
vt 0.71875 0.15625
vt 0.734375 0.15625
vt 0.765625 0.15625
vt 0.765625 0.171875
vt 0.75 0.171875
vt 0.75 0.15625
vt 0.796875 0.15625
vt 0.796875 0.171875
vt 0.78125 0.171875
vt 0.78125 0.15625
vt 0.828125 0.15625
vt 0.828125 0.171875
vt 0.8125 0.171875
vt 0.8125 0.15625
vt 0.078125 0.15625
vt 0.0625 0.15625
vt 0.0625 0.140625
vt 0.078125 0.140625
vt 0.09375 0.140625
vt 0.109375 0.140625
vt 0.109375 0.15625
vt 0.09375 0.15625
vt 0.265625 0.15625
vt 0.25 0.15625
vt 0.25 0.140625
vt 0.265625 0.140625
vt 0.296875 0.140625
vt 0.296875 0.15625
vt 0.28125 0.15625
vt 0.28125 0.140625
vt 0.328125 0.140625
vt 0.328125 0.15625
vt 0.3125 0.15625
vt 0.3125 0.140625
vt 0.359375 0.140625
vt 0.359375 0.15625
vt 0.34375 0.15625
vt 0.34375 0.140625
vt 0.859375 0.65625
vt 0.84375 0.65625
vt 0.84375 0.640625
vt 0.859375 0.640625
vt 0.375 0.140625
vt 0.390625 0.140625
vt 0.390625 0.15625
vt 0.375 0.15625
vt 0.421875 0.15625
vt 0.40625 0.15625
vt 0.40625 0.140625
vt 0.421875 0.140625
vt 0.453125 0.140625
vt 0.453125 0.15625
vt 0.4375 0.15625
vt 0.4375 0.140625
vt 0.484375 0.140625
vt 0.484375 0.15625
vt 0.46875 0.15625
vt 0.46875 0.140625
vt 0.859375 0.5
vt 0.859375 0.515625
vt 0.84375 0.515625
vt 0.84375 0.5
vt 0.515625 0.15625
vt 0.5 0.15625
vt 0.5 0.140625
vt 0.515625 0.140625
vt 0.84375 0.46875
vt 0.859375 0.46875
vt 0.859375 0.484375
vt 0.84375 0.484375
vt 0.546875 0.15625
vt 0.53125 0.15625
vt 0.53125 0.140625
vt 0.546875 0.140625
vt 0.859375 0.4375
vt 0.859375 0.453125
vt 0.84375 0.453125
vt 0.84375 0.4375
vt 0.859375 0.40625
vt 0.859375 0.421875
vt 0.84375 0.421875
vt 0.84375 0.40625
vt 0.859375 0.375
vt 0.859375 0.390625
vt 0.84375 0.390625
vt 0.84375 0.375
vt 0.859375 0.359375
vt 0.84375 0.359375
vt 0.84375 0.34375
vt 0.859375 0.34375
vt 0.84375 0.3125
vt 0.859375 0.3125
vt 0.859375 0.328125
vt 0.84375 0.328125
vt 0.859375 0.265625
vt 0.84375 0.265625
vt 0.84375 0.25
vt 0.859375 0.25
vt 0.859375 0.21875
vt 0.859375 0.234375
vt 0.84375 0.234375
vt 0.84375 0.21875
vt 0.859375 0.1875
vt 0.859375 0.203125
vt 0.84375 0.203125
vt 0.84375 0.1875
vt 0.859375 0.15625
vt 0.859375 0.171875
vt 0.84375 0.171875
vt 0.84375 0.15625
vt 0.015625 0.140625
vt 0 0.140625
vt 0 0.125
vt 0.015625 0.125
vt 0.859375 0.984375
vt 0.875 0.984375
vt 0.875 1
vt 0.859375 1
vt 0.046875 0.140625
vt 0.03125 0.140625
vt 0.03125 0.125
vt 0.046875 0.125
vt 0.875 0.953125
vt 0.875 0.96875
vt 0.859375 0.96875
vt 0.859375 0.953125
vt 0.140625 0.125
vt 0.140625 0.140625
vt 0.125 0.140625
vt 0.125 0.125
vt 0.171875 0.125
vt 0.171875 0.140625
vt 0.15625 0.140625
vt 0.15625 0.125
vt 0.203125 0.140625
vt 0.1875 0.140625
vt 0.1875 0.125
vt 0.203125 0.125
vt 0.859375 0.796875
vt 0.875 0.796875
vt 0.875 0.8125
vt 0.859375 0.8125
vt 0.234375 0.140625
vt 0.21875 0.140625
vt 0.21875 0.125
vt 0.234375 0.125
vt 0.875 0.765625
vt 0.875 0.78125
vt 0.859375 0.78125
vt 0.859375 0.765625
vt 0.875 0.734375
vt 0.875 0.75
vt 0.859375 0.75
vt 0.859375 0.734375
vt 0.875 0.703125
vt 0.875 0.71875
vt 0.859375 0.71875
vt 0.859375 0.703125
vt 0.875 0.6875
vt 0.859375 0.6875
vt 0.859375 0.671875
vt 0.875 0.671875
vt 0.859375 0.5625
vt 0.875 0.5625
vt 0.875 0.578125
vt 0.859375 0.578125
vt 0.875 0.546875
vt 0.859375 0.546875
vt 0.859375 0.53125
vt 0.875 0.53125
vt 0.578125 0.125
vt 0.578125 0.140625
vt 0.5625 0.140625
vt 0.5625 0.125
vt 0.609375 0.125
vt 0.609375 0.140625
vt 0.59375 0.140625
vt 0.59375 0.125
vt 0.640625 0.125
vt 0.640625 0.140625
vt 0.625 0.140625
vt 0.625 0.125
vt 0.671875 0.140625
vt 0.65625 0.140625
vt 0.65625 0.125
vt 0.671875 0.125
vt 0.6875 0.125
vt 0.703125 0.125
vt 0.703125 0.140625
vt 0.6875 0.140625
vt 0.421875 0.28125
vt 0.390625 0.28125
vt 0.390625 0.265625
vt 0.421875 0.265625
vt 0.375 0.265625
vt 0.375 0.28125
vt 0.34375 0.28125
vt 0.34375 0.265625
vt 0.3125 0.96875
vt 0.3125 1
vt 0.09375 1
vt 0.09375 0.96875
vt 0.84375 0.5625
vt 0.84375 0.578125
vt 0.625 0.578125
vt 0.625 0.5625
vt 0.84375 0.546875
vt 0.625 0.546875
vt 0.625 0.53125
vt 0.84375 0.53125
vt 0.09375 0.921875
vt 0.3125 0.921875
vt 0.3125 0.953125
vt 0.09375 0.953125
vt 0.609375 0.921875
vt 0.359375 0.921875
vt 0.359375 0.90625
vt 0.609375 0.90625
vt 0.609375 0.84375
vt 0.609375 0.859375
vt 0.359375 0.859375
vt 0.359375 0.84375
vt 0.03125 0.75
vt 0.03125 1
vt 0 1
vt 0 0.75
vt 0.328125 0.265625
vt 0.328125 0.28125
vt 0.296875 0.28125
vt 0.296875 0.265625
vt 0.75 0.6875
vt 0.71875 0.6875
vt 0.71875 0.671875
vt 0.75 0.671875
vt 0.046875 0.75
vt 0.078125 0.75
vt 0.078125 1
vt 0.046875 1
vt 0.609375 0.890625
vt 0.359375 0.890625
vt 0.359375 0.875
vt 0.609375 0.875
vt 0.609375 0.8125
vt 0.609375 0.828125
vt 0.359375 0.828125
vt 0.359375 0.8125
vt 0.015625 0.40625
vt 0.015625 0.65625
vt 0 0.65625
vt 0 0.40625
vt 0.875 0.28125
vt 0.875 0.296875
vt 0.859375 0.296875
vt 0.859375 0.28125
vt 0.734375 0.140625
vt 0.71875 0.140625
vt 0.71875 0.125
vt 0.734375 0.125
vt 0.03125 0.40625
vt 0.046875 0.40625
vt 0.046875 0.65625
vt 0.03125 0.65625
vt 0.765625 0.140625
vt 0.75 0.140625
vt 0.75 0.125
vt 0.765625 0.125
vt 0.796875 0.125
vt 0.796875 0.140625
vt 0.78125 0.140625
vt 0.78125 0.125
vt 0.0625 0.546875
vt 0.296875 0.546875
vt 0.296875 0.5625
vt 0.0625 0.5625
vt 0.609375 0.546875
vt 0.609375 0.5625
vt 0.375 0.5625
vt 0.375 0.546875
vt 0.296875 0.515625
vt 0.296875 0.53125
vt 0.0625 0.53125
vt 0.0625 0.515625
vt 0.609375 0.53125
vt 0.375 0.53125
vt 0.375 0.515625
vt 0.609375 0.515625
vt 0.140625 0.5
vt 0.125 0.5
vt 0.125 0.28125
vt 0.140625 0.28125
vt 0.171875 0.28125
vt 0.171875 0.5
vt 0.15625 0.5
vt 0.15625 0.28125
vt 0.8125 0.125
vt 0.828125 0.125
vt 0.828125 0.140625
vt 0.8125 0.140625
vt 0.859375 0.125
vt 0.859375 0.140625
vt 0.84375 0.140625
vt 0.84375 0.125
vt 0.203125 0.28125
vt 0.203125 0.5
vt 0.1875 0.5
vt 0.1875 0.28125
vt 0.234375 0.5
vt 0.21875 0.5
vt 0.21875 0.28125
vt 0.234375 0.28125
vt 0.078125 0.125
vt 0.0625 0.125
vt 0.0625 0.109375
vt 0.078125 0.109375
vt 0.890625 0.921875
vt 0.890625 0.9375
vt 0.875 0.9375
vt 0.875 0.921875
vt 0.078125 0.265625
vt 0.078125 0.5
vt 0.0625 0.5
vt 0.0625 0.265625
vt 0.09375 0.265625
vt 0.109375 0.265625
vt 0.109375 0.5
vt 0.09375 0.5
vt 0.609375 0.359375
vt 0.609375 0.375
vt 0.375 0.375
vt 0.375 0.359375
vt 0.859375 0.609375
vt 0.625 0.609375
vt 0.625 0.59375
vt 0.859375 0.59375
vt 0.109375 0.125
vt 0.09375 0.125
vt 0.09375 0.109375
vt 0.109375 0.109375
vt 0.890625 0.90625
vt 0.875 0.90625
vt 0.875 0.890625
vt 0.890625 0.890625
vt 0.890625 0.875
vt 0.875 0.875
vt 0.875 0.859375
vt 0.890625 0.859375
vt 0.890625 0.84375
vt 0.875 0.84375
vt 0.875 0.828125
vt 0.890625 0.828125
vt 0.609375 0.484375
vt 0.609375 0.5
vt 0.375 0.5
vt 0.375 0.484375
vt 0.265625 0.125
vt 0.25 0.125
vt 0.25 0.109375
vt 0.265625 0.109375
vt 0.296875 0.125
vt 0.28125 0.125
vt 0.28125 0.109375
vt 0.296875 0.109375
vt 0.328125 0.125
vt 0.3125 0.125
vt 0.3125 0.109375
vt 0.328125 0.109375
vt 0.359375 0.125
vt 0.34375 0.125
vt 0.34375 0.109375
vt 0.359375 0.109375
vt 0.890625 0.65625
vt 0.875 0.65625
vt 0.875 0.640625
vt 0.890625 0.640625
vt 0.390625 0.125
vt 0.375 0.125
vt 0.375 0.109375
vt 0.390625 0.109375
vt 0.890625 0.625
vt 0.875 0.625
vt 0.875 0.609375
vt 0.890625 0.609375
vt 0.421875 0.125
vt 0.40625 0.125
vt 0.40625 0.109375
vt 0.421875 0.109375
vt 0.453125 0.125
vt 0.4375 0.125
vt 0.4375 0.109375
vt 0.453125 0.109375
vt 0.484375 0.125
vt 0.46875 0.125
vt 0.46875 0.109375
vt 0.484375 0.109375
vt 0.890625 0.515625
vt 0.875 0.515625
vt 0.875 0.5
vt 0.890625 0.5
vt 0.515625 0.125
vt 0.5 0.125
vt 0.5 0.109375
vt 0.515625 0.109375
vt 0.890625 0.484375
vt 0.875 0.484375
vt 0.875 0.46875
vt 0.890625 0.46875
vt 0.546875 0.125
vt 0.53125 0.125
vt 0.53125 0.109375
vt 0.546875 0.109375
vt 0.890625 0.453125
vt 0.875 0.453125
vt 0.875 0.4375
vt 0.890625 0.4375
vt 0.890625 0.421875
vt 0.875 0.421875
vt 0.875 0.40625
vt 0.890625 0.40625
vt 0.890625 0.390625
vt 0.875 0.390625
vt 0.875 0.375
vt 0.890625 0.375
vt 0.890625 0.359375
vt 0.875 0.359375
vt 0.875 0.34375
vt 0.890625 0.34375
vt 0.890625 0.328125
vt 0.875 0.328125
vt 0.875 0.3125
vt 0.890625 0.3125
vt 0.890625 0.265625
vt 0.875 0.265625
vt 0.875 0.25
vt 0.890625 0.25
vt 0.890625 0.234375
vt 0.875 0.234375
vt 0.875 0.21875
vt 0.890625 0.21875
vt 0.890625 0.203125
vt 0.875 0.203125
vt 0.875 0.1875
vt 0.890625 0.1875
vt 0.890625 0.171875
vt 0.875 0.171875
vt 0.875 0.15625
vt 0.890625 0.15625
vt 0.890625 0.140625
vt 0.875 0.140625
vt 0.875 0.125
vt 0.890625 0.125
vt 0.015625 0.109375
vt 0 0.109375
vt 0 0.09375
vt 0.015625 0.09375
vt 0.90625 1
vt 0.890625 1
vt 0.890625 0.984375
vt 0.90625 0.984375
vt 0.046875 0.109375
vt 0.03125 0.109375
vt 0.03125 0.09375
vt 0.046875 0.09375
vt 0.90625 0.96875
vt 0.890625 0.96875
vt 0.890625 0.953125
vt 0.90625 0.953125
vt 0.140625 0.109375
vt 0.125 0.109375
vt 0.125 0.09375
vt 0.140625 0.09375
vt 0.171875 0.109375
vt 0.15625 0.109375
vt 0.15625 0.09375
vt 0.171875 0.09375
vt 0.203125 0.109375
vt 0.1875 0.109375
vt 0.1875 0.09375
vt 0.203125 0.09375
vt 0.90625 0.8125
vt 0.890625 0.8125
vt 0.890625 0.796875
vt 0.90625 0.796875
vt 0.234375 0.109375
vt 0.21875 0.109375
vt 0.21875 0.09375
vt 0.234375 0.09375
vt 0.90625 0.78125
vt 0.890625 0.78125
vt 0.890625 0.765625
vt 0.90625 0.765625
vt 0.90625 0.75
vt 0.890625 0.75
vt 0.890625 0.734375
vt 0.90625 0.734375
vt 0.90625 0.71875
vt 0.890625 0.71875
vt 0.890625 0.703125
vt 0.90625 0.703125
vt 0.90625 0.6875
vt 0.890625 0.6875
vt 0.890625 0.671875
vt 0.90625 0.671875
vt 0.90625 0.59375
vt 0.890625 0.59375
vt 0.890625 0.578125
vt 0.90625 0.578125
vt 0.375 0.46875
vt 0.375 0.453125
vt 0.609375 0.453125
vt 0.609375 0.46875
vt 0.890625 0.546875
vt 0.90625 0.546875
vt 0.90625 0.5625
vt 0.890625 0.5625
vt 0.5625 0.09375
vt 0.578125 0.09375
vt 0.578125 0.109375
vt 0.5625 0.109375
vt 0.59375 0.09375
vt 0.609375 0.09375
vt 0.609375 0.109375
vt 0.59375 0.109375
vt 0.625 0.09375
vt 0.640625 0.09375
vt 0.640625 0.109375
vt 0.625 0.109375
vt 0.65625 0.09375
vt 0.671875 0.09375
vt 0.671875 0.109375
vt 0.65625 0.109375
vt 0.6875 0.09375
vt 0.703125 0.09375
vt 0.703125 0.109375
vt 0.6875 0.109375
vt 0.796875 0.625
vt 0.796875 0.640625
vt 0.5625 0.640625
vt 0.5625 0.625
vt 0.609375 0.421875
vt 0.609375 0.4375
vt 0.375 0.4375
vt 0.375 0.421875
vt 0.375 0.40625
vt 0.375 0.390625
vt 0.609375 0.390625
vt 0.609375 0.40625
vt 0.625 0.921875
vt 0.859375 0.921875
vt 0.859375 0.9375
vt 0.625 0.9375
vt 0.859375 0.90625
vt 0.625 0.90625
vt 0.625 0.890625
vt 0.859375 0.890625
vn 0 0 -1
vn 0 0 -1
vn 0 0 -1
vn 0 0 -1
vn 0 0 -1
vn 0 0 -1
vn 0 0 -1
vn 0 0 -1
vn 0 0 -1
vn 0 0 -1
vn 0 0 -1
vn 0 0 -1
vn 0 0 -1
vn 0 0 -1
vn 0 0 -1
vn 0 0 -1
vn 0 0 -1
vn 0 0 -1
vn 0 0 -1
vn 0 0 -1
vn 0 0 -1
vn 0 0 -1
vn 0 0 -1
vn 0 0 -1
vn 0 0 -1
vn 0 0 -1
vn 0 0 -1
vn 0 0 -1
vn 0 0 -1
vn 0 0 -1
vn 0 0 -1
vn 0 0 -1
vn 0 0 -1
vn 0 0 -1
vn 0 0 -1
vn 0 0 -1
vn 0 0 -1
vn 0 0 -1
vn 0 0 -1
vn 0 0 -1
vn 0 0 -1
vn 0 0 -1
vn 0 0 -1
vn 0 0 -1
vn 0 0 -1
vn 0 0 -1
vn 0 0 -1
vn 0 0 -1
vn 0 0 1
vn 0 0 -1
vn 0 0 -1
vn 0 0 1
vn 0 0 1
vn 0 0 1
vn 0 0 -1
vn 0.9999999998720002 0 0.000015999999997523915
vn -0.9999999998720002 0 -0.000015999999996635737
vn 0 -1 0
vn 0 0 1
vn 0 0 -1
vn 0 1 0
vn 0.9999999999993913 0 -0.0000011034482757706202
vn -0.9999999999993913 0 0.0000011034482757706202
vn 0 -1 0
vn 0 0 1
vn 0 0 -1
vn 0 1 0
vn 1 0 0
vn -1 0 0
vn 0 -1 0
vn 0 0 1
vn 0 0 -1
vn 0 1 0
vn 0.9999999998720002 0 0.000015999999997523915
vn -1 0 0
vn 0 -1 0
vn 0 0 1
vn 0 0 -1
vn 0 1 0
vn 1 0 0
vn -0.9999999999920002 0 0.000003999999999638934
vn 0 -1 0
vn 0 0 1
vn 0 0 -1
vn 0 1 0
vn 1 0 0
vn -1 0 0
vn 0 -1 0
vn 0 0 1
vn 0 0 -1
vn 0 1 0
vn 1 0 0
vn -0.9999999999920002 0 -0.000003999999999638934
vn 0 -1 0
vn 0 0 1
vn 0 0 -1
vn 0 1 0
vn 0.9999999999920002 0 -0.000003999999999638934
vn -1 0 0
vn 0 -1 0
vn 0 0 1
vn 0 0 -1
vn 0 1 0
vn 1 0 0
vn -1 0 0
vn 0 -1 0
vn 0 0 1
vn 0 0 -1
vn 0 1 0
vn 1 0 0
vn -1 0 0
vn 0 -1 0
vn 0 0 1
vn 0 0 -1
vn 0 1 0
vn 1 0 0
vn -1 0 0
vn 0 -1 0
vn 0 0 1
vn 0 0 -1
vn 0 1 0
vn 1 0 0
vn -1 0 0
vn 0 -1 0
vn 0 0 1
vn 0 0 -1
vn 0 1 0
vn 1 0 0
vn -1 0 0
vn 0 -1 0
vn 0 0 1
vn 0 0 -1
vn 0 1 0
vn 1 0 0
vn -1 0 0
vn 0 -1 0
vn 0 0 1
vn 0 0 -1
vn 0 1 0
vn 1 0 0
vn -1 0 0
vn 0 -1 0
vn 0 0 1
vn 0 0 -1
vn 0 1 0
vn 1 0 0
vn -1 0 0
vn 0 -1 0
vn 0 0 1
vn 0 0 -1
vn 0 1 0
vn 1 0 0
vn -1 0 0
vn 0 -1 0
vn 0 0 1
vn 0 0 -1
vn 0 1 0
vn 1 0 0
vn -1 0 0
vn 0 -1 0
vn 0 0 1
vn 0 0 -1
vn 0 1 0
vn 1 0 0
vn -1 0 0
vn 0 -1 0
vn 0 0 1
vn 0 0 -1
vn 0 1 0
vn 1 0 0
vn -1 0 0
vn 0 -1 0
vn 0 0 1
vn 0 0 -1
vn 0 1 0
vn 1 0 0
vn -0.9999999998720002 0 0.000015999999996635737
vn 0 -1 0
vn 0 0 1
vn 0 0 -1
vn 0 1 0
vn 1 0 0
vn -1 0 0
vn 0 -1 0
vn 0 0 1
vn 0 0 -1
vn 0 1 0
vn 1 0 0
vn -1 0 0
vn 0 -1 0
vn 0 0 1
vn 0 0 -1
vn 0 1 0
vn 1 0 0
vn -1 0 0
vn 0 -1 0
vn 0 0 1
vn 0 0 -1
vn 0 1 0
vn 1 0 0
vn -1 0 0
vn 0 -1 0
vn 0 0 1
vn 0 0 -1
vn 0 1 0
vn 1 0 0
vn -1 0 0
vn 0 -1 0
vn 0 0 1
vn 0 0 -1
vn 0 1 0
vn 1 0 0
vn -1 0 0
vn 0 -1 0
vn 0 0 1
vn 0 0 -1
vn 0 1 0
vn 1 0 0
vn -1 0 0
vn 0 -1 0
vn 0 0 1
vn 0 0 -1
vn 0 1 0
vn 1 0 0
vn -1 0 0
vn 0 -1 0
vn 0 0 1
vn 0 0 -1
vn 0 1 0
vn 1 0 0
vn -1 0 0
vn 0 -1 0
vn 0 0 1
vn 0 0 -1
vn 0 1 0
vn 1 0 0
vn -1 0 0
vn 0 -1 0
vn 0 0 1
vn 0 0 -1
vn 0 1 0
vn 1 0 0
vn -1 0 0
vn 0 -1 0
vn 0 0 1
vn 0 0 -1
vn 0 1 0
vn 1 0 0
vn -1 0 0
vn 0 -1 0
vn 0 0 1
vn 0 0 -1
vn 0 1 0
vn 1 0 0
vn -1 0 0
vn 0 -1 0
vn 0 0 1
vn 0 0 -1
vn 0 1 0
vn 1 0 0
vn -1 0 0
vn 0 -1 0
vn 0 0 1
vn 0 0 -1
vn 0 1 0
vn 0.999999999968 0 0.000007999999999529956
vn -0.999999999968 0 -0.000007999999999085866
vn 0 -1 0
vn 0 0 1
vn 0 0 -1
vn 0 1 0
vn 1 0 0
vn -0.9999999999995002 0 -9.999999999172336e-7
vn 0 -1 0
vn 0 0 1
vn 0 0 -1
vn 0 1 0
vn 1 0 0
vn -0.9999999999995002 0 -9.999999999172336e-7
vn 0 -1 0
vn 0 0 1
vn 0 0 -1
vn 0 1 0
vn 1 0 0
vn -1 0 0
vn 0 1 0
vn 0 -1 0
vn 0 0 1
vn 0 0 -1
vn 1 0 0
vn -1 0 0
vn 0 1 0
vn 0 -1 0
vn 0 0 1
vn 0 0 -1
vn 0 0 -1
vn 0 0 1
vn 0 1 0
vn 0 -1 0
vn 0.9999999999993913 0 -0.0000011034482757706202
vn -0.9999999999993913 0 0.0000011034482757706202
vn 1 0 0
vn 1 0 0
vn 1 0 0
vn 1 0 0
vn -1 0 0
vn 1 0 0
vn 1 0 0
vn 1 0 0
vn 1 0 0
vn 1 0 0
vn 1 0 0
vn 1 0 0
vn 1 0 0
vn 1 0 0
vn 1 0 0
vn 1 0 0
vn 1 0 0
vn 1 0 0
vn 1 0 0
vn 1 0 0
vn 1 0 0
vn 1 0 0
vn 1 0 0
vn 1 0 0
vn 1 0 0
vn 1 0 0
vn 1 0 0
vn 1 0 0
vn 1 0 0
vn 1 0 0
vn 1 0 0
vn 1 0 0
vn 1 0 0
vn 1 0 0
vn 1 0 0
vn 1 0 0
vn 1 0 0
vn 1 0 0
vn 1 0 0
vn 1 0 0
vn 1 0 0
vn 1 0 0
vn 1 0 0
vn 1 0 0
vn 1 0 0
vn 1 0 0
vn 1 0 0
vn 1 0 0
vn 1 0 0
vn 1 0 0
vn -1 0 0
vn -1 0 0
vn 1 0 0
vn 1 0 0
vn -1 0 0
usemtl m_2dbad874-9436-19b9-b8fb-41e1e57378fc
f 1/1/1 2/2/1 3/3/1 4/4/1
f 5/5/2 6/6/2 7/7/2 8/8/2
f 9/9/3 10/10/3 11/11/3 12/12/3
f 13/13/4 14/14/4 15/15/4 16/16/4
f 17/17/5 18/18/5 19/19/5 20/20/5
f 21/21/6 22/22/6 23/23/6 24/24/6
f 25/25/7 26/26/7 27/27/7 28/28/7
f 29/29/8 30/30/8 31/31/8 32/32/8
f 33/33/9 34/34/9 35/35/9 36/36/9
f 37/37/10 38/38/10 39/39/10 40/40/10
f 41/41/11 42/42/11 43/43/11 44/44/11
f 45/45/12 46/46/12 47/47/12 48/48/12
f 49/49/13 50/50/13 51/51/13 52/52/13
f 53/53/14 54/54/14 55/55/14 56/56/14
f 57/57/15 58/58/15 59/59/15 60/60/15
f 61/61/16 62/62/16 63/63/16 64/64/16
f 65/65/17 66/66/17 67/67/17 68/68/17
f 69/69/18 70/70/18 71/71/18 72/72/18
f 73/73/19 74/74/19 75/75/19 76/76/19
f 77/77/20 78/78/20 79/79/20 80/80/20
f 81/81/21 82/82/21 83/83/21 84/84/21
f 85/85/22 86/86/22 87/87/22 88/88/22
f 89/89/23 90/90/23 91/91/23 92/92/23
f 93/93/24 94/94/24 95/95/24 96/96/24
f 97/97/25 98/98/25 99/99/25 100/100/25
f 101/101/26 102/102/26 103/103/26 104/104/26
f 105/105/27 106/106/27 107/107/27 108/108/27
f 109/109/28 110/110/28 111/111/28 112/112/28
f 113/113/29 114/114/29 115/115/29 116/116/29
f 117/117/30 118/118/30 119/119/30 120/120/30
f 121/121/31 122/122/31 123/123/31 124/124/31
f 125/125/32 126/126/32 127/127/32 128/128/32
f 129/129/33 130/130/33 131/131/33 132/132/33
f 133/133/34 134/134/34 135/135/34 136/136/34
f 137/137/35 138/138/35 139/139/35 140/140/35
f 141/141/36 142/142/36 143/143/36 144/144/36
f 145/145/37 146/146/37 147/147/37 148/148/37
f 149/149/38 150/150/38 151/151/38 152/152/38
f 153/153/39 154/154/39 155/155/39 156/156/39
f 157/157/40 158/158/40 159/159/40 160/160/40
f 161/161/41 162/162/41 163/163/41 164/164/41
f 165/165/42 166/166/42 167/167/42 168/168/42
f 169/169/43 170/170/43 171/171/43 172/172/43
f 173/173/44 174/174/44 175/175/44 176/176/44
f 177/177/45 178/178/45 179/179/45 180/180/45
f 181/181/46 182/182/46 183/183/46 184/184/46
f 185/185/47 186/186/47 187/187/47 188/188/47
f 189/189/48 190/190/48 191/191/48 192/192/48
f 177/193/49 188/194/49 193/195/49 194/196/49
f 195/197/50 121/198/50 196/199/50 197/200/50
f 125/201/51 96/202/51 89/203/51 124/204/51
f 64/205/52 93/206/52 92/207/52 57/208/52
f 32/209/53 61/210/53 60/211/53 181/212/53
f 4/213/54 29/214/54 184/215/54 189/216/54
f 1/217/55 180/218/55 185/219/55 192/220/55
f 198/221/56 199/222/56 200/223/56 201/224/56
f 202/225/57 203/226/57 204/227/57 205/228/57
f 201/229/58 200/230/58 202/231/58 205/232/58
f 200/233/59 199/234/59 203/235/59 202/236/59
f 204/237/60 198/238/60 201/239/60 205/240/60
f 203/241/61 199/242/61 198/243/61 204/244/61
f 206/245/62 207/246/62 208/247/62 209/248/62
f 210/249/63 211/250/63 212/251/63 213/252/63
f 209/253/64 208/254/64 210/255/64 213/256/64
f 208/257/65 207/258/65 211/259/65 210/260/65
f 212/261/66 206/262/66 209/263/66 213/264/66
f 211/265/67 207/266/67 206/267/67 212/268/67
f 214/269/68 215/270/68 216/271/68 217/272/68
f 218/273/69 219/274/69 220/275/69 221/276/69
f 217/277/70 216/278/70 218/279/70 221/280/70
f 216/281/71 215/282/71 219/283/71 218/284/71
f 220/285/72 214/286/72 217/287/72 221/288/72
f 219/289/73 215/290/73 214/291/73 220/292/73
f 222/293/74 223/294/74 224/295/74 225/296/74
f 226/297/75 227/298/75 228/299/75 229/300/75
f 225/301/76 224/302/76 226/303/76 229/304/76
f 224/305/77 223/306/77 227/307/77 226/308/77
f 228/309/78 222/310/78 225/311/78 229/312/78
f 227/313/79 223/314/79 222/315/79 228/316/79
f 230/317/80 231/318/80 232/319/80 233/320/80
f 234/321/81 235/322/81 236/323/81 237/324/81
f 233/325/82 232/326/82 234/327/82 237/328/82
f 232/329/83 231/330/83 235/331/83 234/332/83
f 236/333/84 230/334/84 233/335/84 237/336/84
f 235/337/85 231/338/85 230/339/85 236/340/85
f 238/341/86 239/342/86 240/343/86 241/344/86
f 242/345/87 243/346/87 244/347/87 245/348/87
f 241/349/88 240/350/88 242/351/88 245/352/88
f 240/353/89 239/354/89 243/355/89 242/356/89
f 244/357/90 238/358/90 241/359/90 245/360/90
f 243/361/91 239/362/91 238/363/91 244/364/91
f 246/365/92 247/366/92 248/367/92 249/368/92
f 250/369/93 251/370/93 252/371/93 253/372/93
f 249/373/94 248/374/94 250/375/94 253/376/94
f 248/377/95 247/378/95 251/379/95 250/380/95
f 252/381/96 246/382/96 249/383/96 253/384/96
f 251/385/97 247/386/97 246/387/97 252/388/97
f 254/389/98 255/390/98 256/391/98 257/392/98
f 258/393/99 259/394/99 260/395/99 261/396/99
f 257/397/100 256/398/100 258/399/100 261/400/100
f 256/401/101 255/402/101 259/403/101 258/404/101
f 260/405/102 254/406/102 257/407/102 261/408/102
f 259/409/103 255/410/103 254/411/103 260/412/103
f 262/413/104 263/414/104 264/415/104 265/416/104
f 266/417/105 267/418/105 268/419/105 269/420/105
f 265/421/106 264/422/106 266/423/106 269/424/106
f 264/425/107 263/426/107 267/427/107 266/428/107
f 268/429/108 262/430/108 265/431/108 269/432/108
f 267/433/109 263/434/109 262/435/109 268/436/109
f 270/437/110 271/438/110 272/439/110 273/440/110
f 274/441/111 275/442/111 276/443/111 277/444/111
f 273/445/112 272/446/112 274/447/112 277/448/112
f 272/449/113 271/450/113 275/451/113 274/452/113
f 276/453/114 270/454/114 273/455/114 277/456/114
f 275/457/115 271/458/115 270/459/115 276/460/115
f 278/461/116 279/462/116 280/463/116 281/464/116
f 282/465/117 283/466/117 284/467/117 285/468/117
f 281/469/118 280/470/118 282/471/118 285/472/118
f 280/473/119 279/474/119 283/475/119 282/476/119
f 284/477/120 278/478/120 281/479/120 285/480/120
f 283/481/121 279/482/121 278/483/121 284/484/121
f 286/485/122 287/486/122 288/487/122 289/488/122
f 290/489/123 291/490/123 292/491/123 293/492/123
f 289/493/124 288/494/124 290/495/124 293/496/124
f 288/497/125 287/498/125 291/499/125 290/500/125
f 292/501/126 286/502/126 289/503/126 293/504/126
f 291/505/127 287/506/127 286/507/127 292/508/127
f 294/509/128 295/510/128 296/511/128 297/512/128
f 298/513/129 299/514/129 300/515/129 301/516/129
f 297/517/130 296/518/130 298/519/130 301/520/130
f 296/521/131 295/522/131 299/523/131 298/524/131
f 300/525/132 294/526/132 297/527/132 301/528/132
f 299/529/133 295/530/133 294/531/133 300/532/133
f 302/533/134 303/534/134 304/535/134 305/536/134
f 306/537/135 307/538/135 308/539/135 309/540/135
f 305/541/136 304/542/136 306/543/136 309/544/136
f 304/545/137 303/546/137 307/547/137 306/548/137
f 308/549/138 302/550/138 305/551/138 309/552/138
f 307/553/139 303/554/139 302/555/139 308/556/139
f 310/557/140 311/558/140 312/559/140 313/560/140
f 314/561/141 315/562/141 316/563/141 317/564/141
f 313/565/142 312/566/142 314/567/142 317/568/142
f 312/569/143 311/570/143 315/571/143 314/572/143
f 316/573/144 310/574/144 313/575/144 317/576/144
f 315/577/145 311/578/145 310/579/145 316/580/145
f 318/581/146 319/582/146 320/583/146 321/584/146
f 322/585/147 323/586/147 324/587/147 325/588/147
f 321/589/148 320/590/148 322/591/148 325/592/148
f 320/593/149 319/594/149 323/595/149 322/596/149
f 324/597/150 318/598/150 321/599/150 325/600/150
f 323/601/151 319/602/151 318/603/151 324/604/151
f 326/605/152 327/606/152 328/607/152 329/608/152
f 330/609/153 331/610/153 332/611/153 333/612/153
f 329/613/154 328/614/154 330/615/154 333/616/154
f 328/617/155 327/618/155 331/619/155 330/620/155
f 332/621/156 326/622/156 329/623/156 333/624/156
f 331/625/157 327/626/157 326/627/157 332/628/157
f 334/629/158 335/630/158 336/631/158 337/632/158
f 338/633/159 339/634/159 340/635/159 341/636/159
f 337/637/160 336/638/160 338/639/160 341/640/160
f 336/641/161 335/642/161 339/643/161 338/644/161
f 340/645/162 334/646/162 337/647/162 341/648/162
f 339/649/163 335/650/163 334/651/163 340/652/163
f 342/653/164 343/654/164 344/655/164 345/656/164
f 346/657/165 347/658/165 348/659/165 349/660/165
f 345/661/166 344/662/166 346/663/166 349/664/166
f 344/665/167 343/666/167 347/667/167 346/668/167
f 348/669/168 342/670/168 345/671/168 349/672/168
f 347/673/169 343/674/169 342/675/169 348/676/169
f 350/677/170 351/678/170 352/679/170 353/680/170
f 354/681/171 355/682/171 356/683/171 357/684/171
f 353/685/172 352/686/172 354/687/172 357/688/172
f 352/689/173 351/690/173 355/691/173 354/692/173
f 356/693/174 350/694/174 353/695/174 357/696/174
f 355/697/175 351/698/175 350/699/175 356/700/175
f 358/701/176 359/702/176 360/703/176 361/704/176
f 362/705/177 363/706/177 364/707/177 365/708/177
f 361/709/178 360/710/178 362/711/178 365/712/178
f 360/713/179 359/714/179 363/715/179 362/716/179
f 364/717/180 358/718/180 361/719/180 365/720/180
f 363/721/181 359/722/181 358/723/181 364/724/181
f 366/725/182 367/726/182 368/727/182 369/728/182
f 370/729/183 371/730/183 372/731/183 373/732/183
f 369/733/184 368/734/184 370/735/184 373/736/184
f 368/737/185 367/738/185 371/739/185 370/740/185
f 372/741/186 366/742/186 369/743/186 373/744/186
f 371/745/187 367/746/187 366/747/187 372/748/187
f 374/749/188 375/750/188 376/751/188 377/752/188
f 378/753/189 379/754/189 380/755/189 381/756/189
f 377/757/190 376/758/190 378/759/190 381/760/190
f 376/761/191 375/762/191 379/763/191 378/764/191
f 380/765/192 374/766/192 377/767/192 381/768/192
f 379/769/193 375/770/193 374/771/193 380/772/193
f 382/773/194 383/774/194 384/775/194 385/776/194
f 386/777/195 387/778/195 388/779/195 389/780/195
f 385/781/196 384/782/196 386/783/196 389/784/196
f 384/785/197 383/786/197 387/787/197 386/788/197
f 388/789/198 382/790/198 385/791/198 389/792/198
f 387/793/199 383/794/199 382/795/199 388/796/199
f 390/797/200 391/798/200 392/799/200 393/800/200
f 394/801/201 395/802/201 396/803/201 397/804/201
f 393/805/202 392/806/202 394/807/202 397/808/202
f 392/809/203 391/810/203 395/811/203 394/812/203
f 396/813/204 390/814/204 393/815/204 397/816/204
f 395/817/205 391/818/205 390/819/205 396/820/205
f 398/821/206 399/822/206 400/823/206 401/824/206
f 402/825/207 403/826/207 404/827/207 405/828/207
f 401/829/208 400/830/208 402/831/208 405/832/208
f 400/833/209 399/834/209 403/835/209 402/836/209
f 404/837/210 398/838/210 401/839/210 405/840/210
f 403/841/211 399/842/211 398/843/211 404/844/211
f 406/845/212 407/846/212 408/847/212 409/848/212
f 410/849/213 411/850/213 412/851/213 413/852/213
f 409/853/214 408/854/214 410/855/214 413/856/214
f 408/857/215 407/858/215 411/859/215 410/860/215
f 412/861/216 406/862/216 409/863/216 413/864/216
f 411/865/217 407/866/217 406/867/217 412/868/217
f 414/869/218 415/870/218 416/871/218 417/872/218
f 418/873/219 419/874/219 420/875/219 421/876/219
f 417/877/220 416/878/220 418/879/220 421/880/220
f 416/881/221 415/882/221 419/883/221 418/884/221
f 420/885/222 414/886/222 417/887/222 421/888/222
f 419/889/223 415/890/223 414/891/223 420/892/223
f 422/893/224 423/894/224 424/895/224 425/896/224
f 426/897/225 427/898/225 428/899/225 429/900/225
f 425/901/226 424/902/226 426/903/226 429/904/226
f 424/905/227 423/906/227 427/907/227 426/908/227
f 428/909/228 422/910/228 425/911/228 429/912/228
f 427/913/229 423/914/229 422/915/229 428/916/229
f 430/917/230 431/918/230 432/919/230 433/920/230
f 434/921/231 435/922/231 436/923/231 437/924/231
f 433/925/232 432/926/232 434/927/232 437/928/232
f 432/929/233 431/930/233 435/931/233 434/932/233
f 436/933/234 430/934/234 433/935/234 437/936/234
f 435/937/235 431/938/235 430/939/235 436/940/235
f 438/941/236 439/942/236 440/943/236 441/944/236
f 442/945/237 443/946/237 444/947/237 445/948/237
f 441/949/238 440/950/238 442/951/238 445/952/238
f 440/953/239 439/954/239 443/955/239 442/956/239
f 444/957/240 438/958/240 441/959/240 445/960/240
f 443/961/241 439/962/241 438/963/241 444/964/241
f 446/965/242 447/966/242 448/967/242 449/968/242
f 450/969/243 451/970/243 452/971/243 453/972/243
f 449/973/244 448/974/244 450/975/244 453/976/244
f 448/977/245 447/978/245 451/979/245 450/980/245
f 452/981/246 446/982/246 449/983/246 453/984/246
f 451/985/247 447/986/247 446/987/247 452/988/247
f 454/989/248 455/990/248 456/991/248 457/992/248
f 458/993/249 459/994/249 460/995/249 461/996/249
f 457/997/250 456/998/250 458/999/250 461/1000/250
f 456/1001/251 455/1002/251 459/1003/251 458/1004/251
f 460/1005/252 454/1006/252 457/1007/252 461/1008/252
f 459/1009/253 455/1010/253 454/1011/253 460/1012/253
f 462/1013/254 463/1014/254 464/1015/254 465/1016/254
f 466/1017/255 467/1018/255 468/1019/255 469/1020/255
f 465/1021/256 464/1022/256 466/1023/256 469/1024/256
f 464/1025/257 463/1026/257 467/1027/257 466/1028/257
f 468/1029/258 462/1030/258 465/1031/258 469/1032/258
f 467/1033/259 463/1034/259 462/1035/259 468/1036/259
f 470/1037/260 471/1038/260 472/1039/260 473/1040/260
f 474/1041/261 475/1042/261 476/1043/261 477/1044/261
f 473/1045/262 472/1046/262 474/1047/262 477/1048/262
f 472/1049/263 471/1050/263 475/1051/263 474/1052/263
f 476/1053/264 470/1054/264 473/1055/264 477/1056/264
f 475/1057/265 471/1058/265 470/1059/265 476/1060/265
f 478/1061/266 479/1062/266 480/1063/266 481/1064/266
f 482/1065/267 483/1066/267 484/1067/267 485/1068/267
f 481/1069/268 480/1070/268 482/1071/268 485/1072/268
f 480/1073/269 479/1074/269 483/1075/269 482/1076/269
f 484/1077/270 478/1078/270 481/1079/270 485/1080/270
f 483/1081/271 479/1082/271 478/1083/271 484/1084/271
f 486/1085/272 487/1086/272 488/1087/272 489/1088/272
f 490/1089/273 491/1090/273 492/1091/273 493/1092/273
f 489/1093/274 488/1094/274 490/1095/274 493/1096/274
f 488/1097/275 487/1098/275 491/1099/275 490/1100/275
f 492/1101/276 486/1102/276 489/1103/276 493/1104/276
f 491/1105/277 487/1106/277 486/1107/277 492/1108/277
f 494/1109/278 495/1110/278 496/1111/278 497/1112/278
f 498/1113/279 499/1114/279 500/1115/279 501/1116/279
f 497/1117/280 496/1118/280 498/1119/280 501/1120/280
f 496/1121/281 495/1122/281 499/1123/281 498/1124/281
f 500/1125/282 494/1126/282 497/1127/282 501/1128/282
f 499/1129/283 495/1130/283 494/1131/283 500/1132/283
f 502/1133/284 503/1134/284 504/1135/284 505/1136/284
f 506/1137/285 507/1138/285 508/1139/285 509/1140/285
f 507/1141/286 503/1142/286 502/1143/286 508/1144/286
f 505/1145/287 504/1146/287 506/1147/287 509/1148/287
f 504/1149/288 503/1150/288 507/1151/288 506/1152/288
f 508/1153/289 502/1154/289 505/1155/289 509/1156/289
f 510/1157/290 511/1158/290 512/1159/290 513/1160/290
f 514/1161/291 515/1162/291 516/1163/291 517/1164/291
f 515/1165/292 511/1166/292 510/1167/292 516/1168/292
f 513/1169/293 512/1170/293 514/1171/293 517/1172/293
f 512/1173/294 511/1174/294 515/1175/294 514/1176/294
f 516/1177/295 510/1178/295 513/1179/295 517/1180/295
f 518/1181/296 519/1182/296 520/1183/296 521/1184/296
f 522/1185/297 523/1186/297 524/1187/297 525/1188/297
f 523/1189/298 519/1190/298 518/1191/298 524/1192/298
f 521/1193/299 520/1194/299 522/1195/299 525/1196/299
f 520/1197/300 519/1198/300 523/1199/300 522/1200/300
f 524/1201/301 518/1202/301 521/1203/301 525/1204/301
f 526/1205/302 527/1206/302 528/1207/302 529/1208/302
f 530/1209/303 531/1210/303 532/1211/303 533/1212/303
f 534/1213/304 535/1214/304 536/1215/304 537/1216/304
f 538/1217/305 539/1218/305 540/1219/305 541/1220/305
f 542/1221/306 543/1222/306 544/1223/306 545/1224/306
f 546/1225/307 547/1226/307 548/1227/307 549/1228/307
f 550/1229/308 551/1230/308 552/1231/308 553/1232/308
f 554/1233/309 555/1234/309 556/1235/309 557/1236/309
f 558/1237/310 559/1238/310 560/1239/310 561/1240/310
f 562/1241/311 563/1242/311 564/1243/311 565/1244/311
f 566/1245/312 567/1246/312 568/1247/312 569/1248/312
f 570/1249/313 571/1250/313 572/1251/313 573/1252/313
f 574/1253/314 575/1254/314 576/1255/314 577/1256/314
f 578/1257/315 579/1258/315 580/1259/315 581/1260/315
f 582/1261/316 583/1262/316 584/1263/316 585/1264/316
f 586/1265/317 587/1266/317 588/1267/317 589/1268/317
f 590/1269/318 591/1270/318 592/1271/318 593/1272/318
f 594/1273/319 595/1274/319 596/1275/319 597/1276/319
f 598/1277/320 599/1278/320 600/1279/320 601/1280/320
f 602/1281/321 603/1282/321 543/1283/321 604/1284/321
f 605/1285/322 606/1286/322 607/1287/322 608/1288/322
f 609/1289/323 610/1290/323 611/1291/323 612/1292/323
f 613/1293/324 614/1294/324 615/1295/324 616/1296/324
f 617/1297/325 618/1298/325 619/1299/325 620/1300/325
f 621/1301/326 622/1302/326 623/1303/326 624/1304/326
f 625/1305/327 626/1306/327 627/1307/327 628/1308/327
f 629/1309/328 542/1310/328 630/1311/328 631/1312/328
f 632/1313/329 633/1314/329 634/1315/329 635/1316/329
f 636/1317/330 637/1318/330 638/1319/330 639/1320/330
f 640/1321/331 641/1322/331 642/1323/331 643/1324/331
f 644/1325/332 645/1326/332 646/1327/332 647/1328/332
f 648/1329/333 649/1330/333 650/1331/333 651/1332/333
f 652/1333/334 653/1334/334 654/1335/334 655/1336/334
f 656/1337/335 657/1338/335 658/1339/335 659/1340/335
f 660/1341/336 661/1342/336 662/1343/336 663/1344/336
f 664/1345/337 665/1346/337 666/1347/337 667/1348/337
f 668/1349/338 669/1350/338 670/1351/338 671/1352/338
f 672/1353/339 673/1354/339 674/1355/339 675/1356/339
f 676/1357/340 677/1358/340 678/1359/340 679/1360/340
f 680/1361/341 681/1362/341 682/1363/341 683/1364/341
f 684/1365/342 685/1366/342 686/1367/342 687/1368/342
f 688/1369/343 689/1370/343 690/1371/343 691/1372/343
f 692/1373/344 693/1374/344 694/1375/344 695/1376/344
f 630/1377/345 657/1378/345 696/1379/345 697/1380/345
f 698/1381/346 699/1382/346 700/1383/346 701/1384/346
f 702/1385/347 703/1386/347 545/1387/347 704/1388/347
f 705/1389/348 544/1390/348 706/1391/348 707/1392/348
f 708/1393/349 709/1394/349 710/1395/349 711/1396/349
f 712/1397/350 713/1398/350 714/1399/350 715/1400/350
f 716/1401/351 717/1402/351 718/1403/351 719/1404/351
f 575/1405/352 548/1406/352 713/1407/352 710/1408/352
f 603/1409/353 576/1410/353 709/1411/353 706/1412/353
f 686/1413/354 547/1414/354 714/1415/354 717/1416/354
f 685/1417/355 718/1418/355 720/1419/355 721/1420/355
f 722/1421/356 699/1422/356 723/1423/356 724/1424/356