# Made in Blockbench 5.0.7
mtllib corner_roof_closed.mtl

o corner_roof_closed
v -0.421875 0 -0.4375
v -0.40625 0.9375 0.40625
v -0.34375 0.9375 0.40625
v -0.34375 0.9375 -0.5
v -0.40625 0.9375 -0.5
v 0.5 0.9375 0.40625
v 0.5 0.9375 0.34375
v -0.34375 0.9375 0.34375
v -0.34375 0.9375 0.40625
v 0.5 0.9375 0.15625
v 0.5 0.9375 0.09375
v -0.34375 0.9375 0.09375
v -0.34375 0.9375 0.15625
v 0.5 0.9375 -0.09375
v 0.5 0.9375 -0.15625
v -0.34375 0.9375 -0.15625
v -0.34375 0.9375 -0.09375
v 0.5 0.9375 -0.34375
v 0.5 0.9375 -0.40625
v -0.34375 0.9375 -0.40625
v -0.34375 0.9375 -0.34375
v 0.40625 0.9375 0.15625
v 0.34375 0.9375 0.15625
v 0.34375 0.9375 0.34375
v 0.40625 0.9375 0.34375
v 0.40625 0.9375 -0.09375
v 0.34375 0.9375 -0.09375
v 0.34375 0.9375 0.09375
v 0.40625 0.9375 0.09375
v 0.40625 0.9375 -0.34375
v 0.34375 0.9375 -0.34375
v 0.34375 0.9375 -0.15625
v 0.40625 0.9375 -0.15625
v 0.15625 0.9375 0.15625
v 0.09375 0.9375 0.15625
v 0.09375 0.9375 0.34375
v 0.15625 0.9375 0.34375
v 0.15625 0.9375 -0.09375
v 0.09375 0.9375 -0.09375
v 0.09375 0.9375 0.09375
v 0.15625 0.9375 0.09375
v 0.15625 0.9375 -0.34375
v 0.09375 0.9375 -0.34375
v 0.09375 0.9375 -0.15625
v 0.15625 0.9375 -0.15625
v -0.09375 0.9375 0.15625
v -0.15625 0.9375 0.15625
v -0.15625 0.9375 0.34375
v -0.09375 0.9375 0.34375
v -0.09375 0.9375 -0.09375
v -0.15625 0.9375 -0.09375
v -0.15625 0.9375 0.09375
v -0.09375 0.9375 0.09375
v -0.09375 0.9375 -0.34375
v -0.15625 0.9375 -0.34375
v -0.15625 0.9375 -0.15625
v -0.09375 0.9375 -0.15625
v -0.09375 0.9375 -0.5
v -0.15625 0.9375 -0.5
v -0.15625 0.9375 -0.40625
v -0.09375 0.9375 -0.40625
v 0.15625 0.9375 -0.5
v 0.09375 0.9375 -0.5
v 0.09375 0.9375 -0.40625
v 0.15625 0.9375 -0.40625
v 0.40625 0.9375 -0.5
v 0.34375 0.9375 -0.5
v 0.34375 0.9375 -0.40625
v 0.40625 0.9375 -0.40625
v 0.5 0.8125 0.421875
v 0.5 0.8125 0.453125
v 0.5 0 0.453125
v 0.5 0 0.421875
v 0.4375 0 0.453125
v 0.4375 0.8125 0.453125
v 0.4375 0.8125 0.421875
v 0.4375 0 0.421875
v -0.28125 0.8125 0.421875
v -0.28125 0.8125 0.453125
v -0.28125 0 0.453125
v -0.28125 0 0.421875
v -0.40625 0 0.453125
v -0.40625 0.8125 0.453125
v -0.40625 0.8125 0.421875
v -0.40625 0 0.421875
v 0.5 1 0.40625
v 0.5 1 0.46875
v 0.5 0.9375 0.46875
v 0.5 0.9375 0.40625
v -0.40625 0.9375 0.46875
v -0.40625 1 0.46875
v -0.40625 1 0.40625
v -0.40625 0.9375 0.40625
v 0.5 0.9375 0.421875
v 0.5 0.9375 0.453125
v 0.5 0.8125 0.453125
v 0.5 0.8125 0.421875
v -0.40625 0.8125 0.453125
v -0.40625 0.9375 0.453125
v -0.40625 0.9375 0.421875
v -0.40625 0.8125 0.421875
v -0.28125 0.0625 0.421875
v -0.28125 0.0625 0.453125
v 0.4375 0.0625 0.453125
v 0.4375 0.0625 0.421875
v 0.4375 0 0.453125
v -0.28125 0 0.453125
v -0.28125 0 0.421875
v 0.4375 0 0.421875
v -0.453125 0.0625 0.28125
v -0.421875 0.0625 0.28125
v -0.421875 0.0625 -0.4375
v -0.453125 0.0625 -0.4375
v -0.421875 0 -0.4375
v -0.421875 0 0.28125
v -0.453125 0 0.28125
v -0.453125 0 -0.4375
v -0.40625 1 0.40625
v -0.40625 1 0.46875
v -0.40625 0 0.46875
v -0.40625 0 0.40625
v -0.46875 0 0.46875
v -0.46875 1 0.46875
v -0.46875 1 0.40625
v -0.46875 0 0.40625
v -0.453125 0.8125 -0.5
v -0.421875 0.8125 -0.5
v -0.421875 0 -0.5
v -0.453125 0 -0.5
v -0.421875 0.8125 -0.4375
v -0.453125 0.8125 -0.4375
v -0.453125 0 -0.4375
v -0.453125 0.9375 -0.5
v -0.421875 0.9375 -0.5
v -0.421875 0.8125 -0.5
v -0.453125 0.8125 -0.5
v -0.421875 0.8125 0.40625
v -0.421875 0.9375 0.40625
v -0.453125 0.9375 0.40625
v -0.453125 0.8125 0.40625
v -0.453125 0.8125 0.28125
v -0.421875 0.8125 0.28125
v -0.421875 0 0.28125
v -0.453125 0 0.28125
v -0.421875 0 0.40625
v -0.421875 0.8125 0.40625
v -0.453125 0.8125 0.40625
v -0.453125 0 0.40625
v -0.46875 1 -0.5
v -0.40625 1 -0.5
v -0.40625 0.9375 -0.5
v -0.46875 0.9375 -0.5
v -0.40625 0.9375 0.40625
v -0.40625 1 0.40625
v -0.46875 1 0.40625
v -0.46875 0.9375 0.40625
v -0.40625 1 0.40625
v 0.5 1 0.40625
v 0.5 1 -0.5
v -0.40625 1 -0.5
vt 0.328125 0.625
vt 0.34375 0.625
vt 0.34375 0.859375
vt 0.328125 0.859375
vt 0.609375 0.59375
vt 0.609375 0.609375
vt 0.390625 0.609375
vt 0.390625 0.59375
vt 0.609375 0.5625
vt 0.609375 0.578125
vt 0.390625 0.578125
vt 0.390625 0.5625
vt 0.609375 0.53125
vt 0.609375 0.546875
vt 0.390625 0.546875
vt 0.390625 0.53125
vt 0.609375 0.5
vt 0.609375 0.515625
vt 0.390625 0.515625
vt 0.390625 0.5
vt 0.375 0.421875
vt 0.359375 0.421875
vt 0.359375 0.375
vt 0.375 0.375
vt 0.59375 0.421875
vt 0.578125 0.421875
vt 0.578125 0.375
vt 0.59375 0.375
vt 0.625 0.875
vt 0.609375 0.875
vt 0.609375 0.828125
vt 0.625 0.828125
vt 0.625 0.8125
vt 0.609375 0.8125
vt 0.609375 0.765625
vt 0.625 0.765625
vt 0.234375 0.390625
vt 0.21875 0.390625
vt 0.21875 0.34375
vt 0.234375 0.34375
vt 0.265625 0.390625
vt 0.25 0.390625
vt 0.25 0.34375
vt 0.265625 0.34375
vt 0.625 0.75
vt 0.609375 0.75
vt 0.609375 0.703125
vt 0.625 0.703125
vt 0.625 0.421875
vt 0.609375 0.421875
vt 0.609375 0.375
vt 0.625 0.375
vt 0.296875 0.375
vt 0.28125 0.375
vt 0.28125 0.328125
vt 0.296875 0.328125
vt 0.640625 0.609375
vt 0.625 0.609375
vt 0.625 0.578125
vt 0.640625 0.578125
vt 0.640625 0.5625
vt 0.625 0.5625
vt 0.625 0.53125
vt 0.640625 0.53125
vt 0.65625 0.875
vt 0.640625 0.875
vt 0.640625 0.84375
vt 0.65625 0.84375
vt 0.3125 0.59375
vt 0.296875 0.59375
vt 0.296875 0.390625
vt 0.3125 0.390625
vt 0.015625 0.28125
vt 0.015625 0.484375
vt 0 0.484375
vt 0 0.28125
vt 0.578125 0.34375
vt 0.59375 0.34375
vt 0.59375 0.359375
vt 0.578125 0.359375
vt 0.65625 0.40625
vt 0.65625 0.421875
vt 0.640625 0.421875
vt 0.640625 0.40625
vt 0.046875 0.28125
vt 0.046875 0.484375
vt 0.03125 0.484375
vt 0.03125 0.28125
vt 0.078125 0.484375
vt 0.0625 0.484375
vt 0.0625 0.28125
vt 0.078125 0.28125
vt 0.109375 0.484375
vt 0.09375 0.484375
vt 0.09375 0.28125
vt 0.109375 0.28125
vt 0.40625 0.28125
vt 0.40625 0.484375
vt 0.390625 0.484375
vt 0.390625 0.28125
vt 0.625 0.5
vt 0.65625 0.5
vt 0.65625 0.515625
vt 0.625 0.515625
vt 0.671875 0.8125
vt 0.671875 0.828125
vt 0.640625 0.828125
vt 0.640625 0.8125
vt 0.28125 0.65625
vt 0.28125 0.859375
vt 0.25 0.859375
vt 0.25 0.65625
vt 0.03125 0.703125
vt 0 0.703125
vt 0 0.5
vt 0.03125 0.5
vt 0.625 0.359375
vt 0.609375 0.359375
vt 0.609375 0.34375
vt 0.625 0.34375
vt 0.65625 0.375
vt 0.65625 0.390625
vt 0.640625 0.390625
vt 0.640625 0.375
vt 0.359375 0.84375
vt 0.59375 0.84375
vt 0.59375 0.859375
vt 0.359375 0.859375
vt 0.59375 0.8125
vt 0.59375 0.828125
vt 0.359375 0.828125
vt 0.359375 0.8125
vt 0.59375 0.78125
vt 0.59375 0.796875
vt 0.359375 0.796875
vt 0.359375 0.78125
vt 0.59375 0.765625
vt 0.359375 0.765625
vt 0.359375 0.75
vt 0.59375 0.75
vt 0.65625 0.796875
vt 0.640625 0.796875
vt 0.640625 0.765625
vt 0.65625 0.765625
vt 0.65625 0.71875
vt 0.65625 0.75
vt 0.640625 0.75
vt 0.640625 0.71875
vt 0.359375 0.71875
vt 0.59375 0.71875
vt 0.59375 0.734375
vt 0.359375 0.734375
vt 0.59375 0.6875
vt 0.59375 0.703125
vt 0.359375 0.703125
vt 0.359375 0.6875
vt 0.234375 0.71875
vt 0.234375 0.75
vt 0 0.75
vt 0 0.71875
vt 0.484375 1
vt 0.25 1
vt 0.25 0.96875
vt 0.484375 0.96875
vt 0.5 1
vt 0.5 0.984375
vt 0.6875 0.984375
vt 0.6875 1
vt 0.6875 0.96875
vt 0.5 0.96875
vt 0.5 0.953125
vt 0.6875 0.953125
vt 0.65625 0.34375
vt 0.65625 0.359375
vt 0.640625 0.359375
vt 0.640625 0.34375
vt 0.671875 0.609375
vt 0.65625 0.609375
vt 0.65625 0.59375
vt 0.671875 0.59375
vt 0.6875 0.9375
vt 0.5 0.9375
vt 0.5 0.921875
vt 0.6875 0.921875
vt 0.6875 0.890625
vt 0.6875 0.90625
vt 0.5 0.90625
vt 0.5 0.890625
vt 0.15625 0.25
vt 0.171875 0.25
vt 0.171875 0.4375
vt 0.15625 0.4375
vt 0.203125 0.25
vt 0.203125 0.4375
vt 0.1875 0.4375
vt 0.1875 0.25
vt 0.671875 0.5625
vt 0.671875 0.578125
vt 0.65625 0.578125
vt 0.65625 0.5625
vt 0.671875 0.546875
vt 0.65625 0.546875
vt 0.65625 0.53125
vt 0.671875 0.53125
vt 0.765625 0.484375
vt 0.578125 0.484375
vt 0.578125 0.46875
vt 0.765625 0.46875
vt 0.765625 0.4375
vt 0.765625 0.453125
vt 0.578125 0.453125
vt 0.578125 0.4375
vt 0.15625 0.703125
vt 0.140625 0.703125
vt 0.140625 0.453125
vt 0.15625 0.453125
vt 0.3125 0.609375
vt 0.3125 0.859375
vt 0.296875 0.859375
vt 0.296875 0.609375
vt 0.671875 0.859375
vt 0.6875 0.859375
vt 0.6875 0.875
vt 0.671875 0.875
vt 0.6875 0.78125
vt 0.6875 0.796875
vt 0.671875 0.796875
vt 0.671875 0.78125
vt 0.1875 0.453125
vt 0.1875 0.703125
vt 0.171875 0.703125
vt 0.171875 0.453125
vt 0.21875 0.703125
vt 0.203125 0.703125
vt 0.203125 0.453125
vt 0.21875 0.453125
vt 0.4375 0.484375
vt 0.421875 0.484375
vt 0.421875 0.28125
vt 0.4375 0.28125
vt 0.46875 0.28125
vt 0.46875 0.484375
vt 0.453125 0.484375
vt 0.453125 0.28125
vt 0.234375 0.3125
vt 0.234375 0.328125
vt 0.21875 0.328125
vt 0.21875 0.3125
vt 0.671875 0.75
vt 0.6875 0.75
vt 0.6875 0.765625
vt 0.671875 0.765625
vt 0.5 0.28125
vt 0.5 0.484375
vt 0.484375 0.484375
vt 0.484375 0.28125
vt 0.53125 0.484375
vt 0.515625 0.484375
vt 0.515625 0.28125
vt 0.53125 0.28125
vt 0.65625 0.703125
vt 0.640625 0.703125
vt 0.640625 0.671875
vt 0.65625 0.671875
vt 0.328125 0.328125
vt 0.328125 0.359375
vt 0.3125 0.359375
vt 0.3125 0.328125
vt 0.25 0.40625
vt 0.25 0.640625
vt 0.234375 0.640625
vt 0.234375 0.40625
vt 0.265625 0.40625
vt 0.28125 0.40625
vt 0.28125 0.640625
vt 0.265625 0.640625
vt 0.484375 0.921875
vt 0.484375 0.953125
vt 0.25 0.953125
vt 0.25 0.921875
vt 0.484375 0.90625
vt 0.25 0.90625
vt 0.25 0.875
vt 0.484375 0.875
vt 0.5625 0.484375
vt 0.546875 0.484375
vt 0.546875 0.28125
vt 0.5625 0.28125
vt 0.140625 0.234375
vt 0.140625 0.4375
vt 0.125 0.4375
vt 0.125 0.234375
vt 0.359375 0.328125
vt 0.359375 0.359375
vt 0.34375 0.359375
vt 0.34375 0.328125
vt 0.640625 0.625
vt 0.65625 0.625
vt 0.65625 0.65625
vt 0.640625 0.65625
vt 0.078125 0.5
vt 0.078125 0.703125
vt 0.046875 0.703125
vt 0.046875 0.5
vt 0.125 0.703125
vt 0.09375 0.703125
vt 0.09375 0.5
vt 0.125 0.5
vt 0.265625 0.328125
vt 0.25 0.328125
vt 0.25 0.3125
vt 0.265625 0.3125
vt 0.6875 0.71875
vt 0.6875 0.734375
vt 0.671875 0.734375
vt 0.671875 0.71875
vt 0.375 0.4375
vt 0.375 0.671875
vt 0.359375 0.671875
vt 0.359375 0.4375
vt 0.328125 0.375
vt 0.34375 0.375
vt 0.34375 0.609375
vt 0.328125 0.609375
vt 0.625 0.65625
vt 0.625 0.671875
vt 0.390625 0.671875
vt 0.390625 0.65625
vt 0.625 0.640625
vt 0.390625 0.640625
vt 0.390625 0.625
vt 0.625 0.625
vt 0 0.765625
vt 0.234375 0.765625
vt 0.234375 1
vt 0 1
vn 0 1 0
vn 0 1 0
vn 0 1 0
vn 0 1 0
vn 0 1 0
vn 0 1 0
vn 0 1 0
vn 0 1 0
vn 0 1 0
vn 0 1 0
vn 0 1 0
vn 0 1 0
vn 0 1 0
vn 0 1 0
vn 0 1 0
vn 0 1 0
vn 0 1 0
vn 1 0 0
vn -1 0 0
vn 0 1 0
vn 0 -1 0
vn 0 0 1
vn 0 0 -1
vn 1 0 0
vn -1 0 0
vn 0 1 0
vn 0 -1 0
vn 0 0 1
vn 0 0 -1
vn 1 0 0
vn -1 0 0
vn 0 1 0
vn 0 -1 0
vn 0 0 1
vn 0 0 -1
vn 1 0 0
vn -1 0 0
vn 0 1 0
vn 0 -1 0
vn 0 0 1
vn 0 0 -1
vn 0 1 0
vn 0 -1 0
vn -1 0 0
vn 1 0 0
vn 0 0 1
vn 0 0 -1
vn 0 1 0
vn 0 -1 0
vn 0 0 1
vn 0 0 -1
vn 1 0 0
vn -1 0 0
vn 1 0 0
vn -1 0 0
vn 0 1 0
vn 0 -1 0
vn 0 0 1
vn 0 0 -1
vn 0 0 -1
vn 0 0 1
vn 0 1 0
vn 0 -1 0
vn 1 0 0
vn -1 0 0
vn 0 0 -1
vn 0 0 1
vn 0 1 0
vn 0 -1 0
vn 1 0 0
vn -1 0 0
vn 0 0 -1
vn 0 0 1
vn 0 1 0
vn 0 -1 0
vn 1 0 0
vn -1 0 0
vn 0 0 -1
vn 0 0 1
vn 0 1 0
vn 0 -1 0
vn 1 0 0
vn -1 0 0
vn 0 1 0
usemtl m_038e8e7b-50ed-5d5e-f86c-4cb6d3fe6109
f 2/1/1 3/2/1 4/3/1 5/4/1
f 6/5/2 7/6/2 8/7/2 9/8/2
f 10/9/3 11/10/3 12/11/3 13/12/3
f 14/13/4 15/14/4 16/15/4 17/16/4
f 18/17/5 19/18/5 20/19/5 21/20/5
f 22/21/6 23/22/6 24/23/6 25/24/6
f 26/25/7 27/26/7 28/27/7 29/28/7
f 30/29/8 31/30/8 32/31/8 33/32/8
f 34/33/9 35/34/9 36/35/9 37/36/9
f 38/37/10 39/38/10 40/39/10 41/40/10
f 42/41/11 43/42/11 44/43/11 45/44/11
f 46/45/12 47/46/12 48/47/12 49/48/12
f 50/49/13 51/50/13 52/51/13 53/52/13
f 54/53/14 55/54/14 56/55/14 57/56/14
f 58/57/15 59/58/15 60/59/15 61/60/15
f 62/61/16 63/62/16 64/63/16 65/64/16
f 66/65/17 67/66/17 68/67/17 69/68/17
f 70/69/18 71/70/18 72/71/18 73/72/18
f 74/73/19 75/74/19 76/75/19 77/76/19
f 75/77/20 71/78/20 70/79/20 76/80/20
f 73/81/21 72/82/21 74/83/21 77/84/21
f 72/85/22 71/86/22 75/87/22 74/88/22
f 76/89/23 70/90/23 73/91/23 77/92/23
f 78/93/24 79/94/24 80/95/24 81/96/24
f 82/97/25 83/98/25 84/99/25 85/100/25
f 83/101/26 79/102/26 78/103/26 84/104/26
f 81/105/27 80/106/27 82/107/27 85/108/27
f 80/109/28 79/110/28 83/111/28 82/112/28
f 84/113/29 78/114/29 81/115/29 85/116/29
f 86/117/30 87/118/30 88/119/30 89/120/30
f 90/121/31 91/122/31 92/123/31 93/124/31
f 91/125/32 87/126/32 86/127/32 92/128/32
f 89/129/33 88/130/33 90/131/33 93/132/33
f 88/133/34 87/134/34 91/135/34 90/136/34
f 92/137/35 86/138/35 89/139/35 93/140/35
f 94/141/36 95/142/36 96/143/36 97/144/36
f 98/145/37 99/146/37 100/147/37 101/148/37
f 99/149/38 95/150/38 94/151/38 100/152/38
f 97/153/39 96/154/39 98/155/39 101/156/39
f 96/157/40 95/158/40 99/159/40 98/160/40
f 100/161/41 94/162/41 97/163/41 101/164/41
f 102/165/42 103/166/42 104/167/42 105/168/42
f 106/169/43 107/170/43 108/171/43 109/172/43
f 107/173/44 103/174/44 102/175/44 108/176/44
f 105/177/45 104/178/45 106/179/45 109/180/45
f 104/181/46 103/182/46 107/183/46 106/184/46
f 108/185/47 102/186/47 105/187/47 109/188/47
f 110/189/48 111/190/48 112/191/48 113/192/48
f 114/193/49 115/194/49 116/195/49 117/196/49
f 115/197/50 111/198/50 110/199/50 116/200/50
f 113/201/51 112/202/51 114/203/51 117/204/51
f 112/205/52 111/206/52 115/207/52 114/208/52
f 116/209/53 110/210/53 113/211/53 117/212/53
f 118/213/54 119/214/54 120/215/54 121/216/54
f 122/217/55 123/218/55 124/219/55 125/220/55
f 123/221/56 119/222/56 118/223/56 124/224/56
f 121/225/57 120/226/57 122/227/57 125/228/57
f 120/229/58 119/230/58 123/231/58 122/232/58
f 124/233/59 118/234/59 121/235/59 125/236/59
f 126/237/60 127/238/60 128/239/60 129/240/60
f 1/241/61 130/242/61 131/243/61 132/244/61
f 130/245/62 127/246/62 126/247/62 131/248/62
f 129/249/63 128/250/63 1/251/63 132/252/63
f 128/253/64 127/254/64 130/255/64 1/256/64
f 131/257/65 126/258/65 129/259/65 132/260/65
f 133/261/66 134/262/66 135/263/66 136/264/66
f 137/265/67 138/266/67 139/267/67 140/268/67
f 138/269/68 134/270/68 133/271/68 139/272/68
f 136/273/69 135/274/69 137/275/69 140/276/69
f 135/277/70 134/278/70 138/279/70 137/280/70
f 139/281/71 133/282/71 136/283/71 140/284/71
f 141/285/72 142/286/72 143/287/72 144/288/72
f 145/289/73 146/290/73 147/291/73 148/292/73
f 146/293/74 142/294/74 141/295/74 147/296/74
f 144/297/75 143/298/75 145/299/75 148/300/75
f 143/301/76 142/302/76 146/303/76 145/304/76
f 147/305/77 141/306/77 144/307/77 148/308/77
f 149/309/78 150/310/78 151/311/78 152/312/78
f 153/313/79 154/314/79 155/315/79 156/316/79
f 154/317/80 150/318/80 149/319/80 155/320/80
f 152/321/81 151/322/81 153/323/81 156/324/81
f 151/325/82 150/326/82 154/327/82 153/328/82
f 155/329/83 149/330/83 152/331/83 156/332/83
f 157/333/84 158/334/84 159/335/84 160/336/84