# Made in Blockbench 5.0.7
mtllib door_gate_mid_closed.mtl

o door_gate_mid_closed
v 0.375 0.96875 0.46875
v 0.375 1 0.46875
v 0.375 1 -0.46875
v 0.375 0.96875 -0.5
v 0.4375 1 -0.46875
v 0.4375 0.96875 -0.5
v 0.4375 1 0.46875
v 0.4375 0.96875 0.46875
v 0.375 0.15625 -0.46875
v 0.375 0.96875 -0.46875
v 0.375 0.96875 -0.5
v 0.375 0.15625 -0.5
v 0.4375 0.96875 -0.5
v 0.4375 0.15625 -0.5
v 0.4375 0.96875 -0.46875
v 0.4375 0.15625 -0.46875
v 0.40625 0.257812 -0.46875
v 0.40625 0.308594 -0.46875
v 0.40625 0.308594 0.46875
v 0.40625 0.257812 0.46875
v 0.40625 0.359375 -0.46875
v 0.40625 0.410156 -0.46875
v 0.40625 0.410156 0.46875
v 0.40625 0.359375 0.46875
v 0.40625 0.460938 -0.46875
v 0.40625 0.511719 -0.46875
v 0.40625 0.511719 0.46875
v 0.40625 0.460938 0.46875
v 0.40625 0.5625 -0.46875
v 0.40625 0.613281 -0.46875
v 0.40625 0.613281 0.46875
v 0.40625 0.5625 0.46875
v 0.40625 0.664063 -0.46875
v 0.40625 0.714844 -0.46875
v 0.40625 0.714844 0.46875
v 0.40625 0.664063 0.46875
v 0.40625 0.765625 -0.46875
v 0.40625 0.816406 -0.46875
v 0.40625 0.816406 0.46875
v 0.40625 0.765625 0.46875
v 0.40625 0.867188 -0.46875
v 0.40625 0.917969 -0.46875
v 0.40625 0.917969 0.46875
v 0.40625 0.867188 0.46875
v 0.40625 0.15625 -0.46875
v 0.40625 0.207031 -0.46875
v 0.40625 0.207031 0.46875
v 0.40625 0.15625 0.46875
v 0.375 0.15625 0.5
v 0.375 0.96875 0.5
v 0.375 0.96875 0.46875
v 0.375 0.15625 0.46875
v 0.4375 0.96875 0.46875
v 0.4375 0.15625 0.46875
v 0.4375 0.96875 0.5
v 0.4375 0.15625 0.5
vt 0.5 0.96875
vt 0.5 1
vt 0.015625 1
vt 0 0.96875
vt 0.65625 0.71875
vt 0.65625 0.75
vt 0.625 0.75
vt 0.625 0.71875
vt 0.5546875 0.90625
vt 0.5390625 0.9375
vt 0.0703125 0.9375
vt 0.0703125 0.90625
vt 0.03125 0.375
vt 0.03125 0.40625
vt 0 0.40625
vt 0 0.375
vt 0 0.4375
vt 0.03125 0.4375
vt 0.03125 0.9375
vt 0 0.9375
vt 0.09375 0.875
vt 0.0625 0.875
vt 0.0625 0.40625
vt 0.09375 0.40625
vt 0.15625 0.03125
vt 0.15625 0.4375
vt 0.125 0.4375
vt 0.125 0.03125
vt 0.21875 0.03125
vt 0.21875 0.4375
vt 0.1875 0.4375
vt 0.1875 0.03125
vt 0.28125 0.03125
vt 0.28125 0.4375
vt 0.25 0.4375
vt 0.25 0.03125
vt 0.34375 0.03125
vt 0.34375 0.4375
vt 0.3125 0.4375
vt 0.3125 0.03125
vt 0.59375 0.90625
vt 0.625 0.90625
vt 0.625 0.9375
vt 0.59375 0.9375
vt 0.09375 0.375
vt 0.0625 0.375
vt 0.0625 0.34375
vt 0.09375 0.34375
vt 0.59375 0.84375
vt 0.59375 0.875
vt 0.125 0.875
vt 0.125 0.84375
vt 0.59375 0.78125
vt 0.59375 0.8125
vt 0.125 0.8125
vt 0.125 0.78125
vt 0.59375 0.71875
vt 0.59375 0.75
vt 0.125 0.75
vt 0.125 0.71875
vt 0.59375 0.65625
vt 0.59375 0.6875
vt 0.125 0.6875
vt 0.125 0.65625
vt 0.59375 0.59375
vt 0.59375 0.625
vt 0.125 0.625
vt 0.125 0.59375
vt 0.59375 0.53125
vt 0.59375 0.5625
vt 0.125 0.5625
vt 0.125 0.53125
vt 0.59375 0.46875
vt 0.59375 0.5
vt 0.125 0.5
vt 0.125 0.46875
vt 1 0.96875
vt 1 1
vt 0.53125 1
vt 0.53125 0.96875
vt 0.40625 0.03125
vt 0.40625 0.4375
vt 0.375 0.4375
vt 0.375 0.03125
vt 0.46875 0.03125
vt 0.46875 0.4375
vt 0.4375 0.4375
vt 0.4375 0.03125
vt 0.53125 0.03125
vt 0.53125 0.4375
vt 0.5 0.4375
vt 0.5 0.03125
vt 0.59375 0.03125
vt 0.59375 0.4375
vt 0.5625 0.4375
vt 0.5625 0.03125
vt 0.625 0.84375
vt 0.65625 0.84375
vt 0.65625 0.875
vt 0.625 0.875
vt 0.65625 0.8125
vt 0.625 0.8125
vt 0.625 0.78125
vt 0.65625 0.78125
vt 0.625 0.65625
vt 0.65625 0.65625
vt 0.65625 0.6875
vt 0.625 0.6875
vt 0.6484375 0.609375
vt 0.6328125 0.625
vt 0.6328125 0.59375
vt 0.6328125 0.59375
vt 0 1
vt 0 1
vt 0 1
vt 0 0.984375
vn -1 0 0
vn 0 0.7071067811865476 -0.7071067811865476
vn 1 0 0
vn 0 0 1
vn 0 -1 0
vn 0 1 0
vn -1 0 0
vn 0 0 -1
vn 1 0 0
vn 0 0 1
vn 0 -1 0
vn 0 1 0
vn 1 0 0
vn 1 0 0
vn 1 0 0
vn 1 0 0
vn 1 0 0
vn 1 0 0
vn 1 0 0
vn 1 0 0
vn -1 0 0
vn 0 0 -1
vn 1 0 0
vn 0 0 1
vn 0 -1 0
vn 0 1 0
vn 0 -0.7071067811865476 -0.7071067811865476
vn -1 0 0
vn 0 0 0
usemtl m_5d3e49cc-afea-3c81-cd91-10a1b7d8fcd1
f 1/1/1 2/2/1 3/3/1 4/4/1
f 4/5/2 3/6/2 5/7/2 6/8/2
f 6/9/3 5/10/3 7/11/3 8/12/3
f 8/13/4 7/14/4 2/15/4 1/16/4
f 4/17/5 6/18/5 8/19/5 1/20/5
f 5/21/6 3/22/6 2/23/6 7/24/6
f 9/25/7 10/26/7 11/27/7 12/28/7
f 12/29/8 11/30/8 13/31/8 14/32/8
f 14/33/9 13/34/9 15/35/9 16/36/9
f 16/37/10 15/38/10 10/39/10 9/40/10
f 12/41/11 14/42/11 16/43/11 9/44/11
f 13/45/12 11/46/12 10/47/12 15/48/12
f 17/49/13 18/50/13 19/51/13 20/52/13
f 21/53/14 22/54/14 23/55/14 24/56/14
f 25/57/15 26/58/15 27/59/15 28/60/15
f 29/61/16 30/62/16 31/63/16 32/64/16
f 33/65/17 34/66/17 35/67/17 36/68/17
f 37/69/18 38/70/18 39/71/18 40/72/18
f 41/73/19 42/74/19 43/75/19 44/76/19
f 45/77/20 46/78/20 47/79/20 48/80/20
f 49/81/21 50/82/21 51/83/21 52/84/21
f 52/85/22 51/86/22 53/87/22 54/88/22
f 54/89/23 53/90/23 55/91/23 56/92/23
f 56/93/24 55/94/24 50/95/24 49/96/24
f 52/97/25 54/98/25 56/99/25 49/100/25
f 53/101/26 51/102/26 50/103/26 55/104/26
f 55/105/27 50/106/27 2/107/27 7/108/27
f 55/109/28 7/110/28 8/111/28 53/112/28
f 51/113/29 1/114/29 2/115/29 50/116/29