# Blender 5.2.0 LTS
# www.blender.org
mtllib door_gate_side_closed.mtl
o door_gate_side_closed
v 1.406250 0.156250 0.531250
v 1.406250 0.207031 0.531250
v 1.375000 0.968750 1.375000
v 1.375000 1.000000 1.375000
v 1.375000 0.968750 0.500000
v 1.375000 1.000000 0.531250
v 1.437500 0.968750 1.375000
v 1.437500 1.000000 1.375000
v 1.437500 0.968750 0.500000
v 1.437500 1.000000 0.531250
v 1.375000 0.156250 0.531250
v 1.375000 0.968750 0.531250
v 1.375000 0.156250 0.500000
v 1.375000 0.968750 0.500000
v 1.437500 0.156250 0.531250
v 1.437500 0.968750 0.531250
v 1.437500 0.156250 0.500000
v 1.437500 0.968750 0.500000
v 1.406250 0.257813 1.375000
v 1.406250 0.308594 1.375000
v 1.406250 0.257813 0.531250
v 1.406250 0.308594 0.531250
v 1.406250 0.359375 1.375000
v 1.406250 0.410156 1.375000
v 1.406250 0.359375 0.531250
v 1.406250 0.410156 0.531250
v 1.406250 0.460938 1.375000
v 1.406250 0.511719 1.375000
v 1.406250 0.460938 0.531250
v 1.406250 0.511719 0.531250
v 1.406250 0.562500 1.375000
v 1.406250 0.613281 1.375000
v 1.406250 0.562500 0.531250
v 1.406250 0.613281 0.531250
v 1.406250 0.664063 1.375000
v 1.406250 0.714844 1.375000
v 1.406250 0.664063 0.531250
v 1.406250 0.714844 0.531250
v 1.406250 0.765625 1.375000
v 1.406250 0.816407 1.375000
v 1.406250 0.765625 0.531250
v 1.406250 0.816407 0.531250
v 1.406250 0.867188 1.375000
v 1.406250 0.917969 1.375000
v 1.406250 0.867188 0.531250
v 1.406250 0.917969 0.531250
v 1.406250 0.156250 1.375000
v 1.406250 0.207031 1.375000
v 1.406250 0.156250 0.531250
v 1.406250 0.207031 0.531250
v 1.375000 0.968750 1.375000
v 1.437500 0.968750 1.375000
v 1.375000 0.156250 1.406250
v 1.375000 0.968750 1.406250
v 1.375000 0.156250 1.375000
v 1.375000 0.968750 1.375000
v 1.437500 0.156250 1.406250
v 1.437500 0.968750 1.406250
v 1.437500 0.156250 1.375000
v 1.437500 0.968750 1.375000
vn -1.0000 -0.0000 -0.0000
vn -0.0000 0.7071 -0.7071
vn 1.0000 -0.0000 -0.0000
vn -0.0000 -0.0000 1.0000
vn -0.0000 -1.0000 -0.0000
vn -0.0000 1.0000 -0.0000
vn -0.0000 -0.0000 -1.0000
vn -0.0000 -0.7071 -0.7071
vt 0.375000 0.000000
vt 0.625000 0.000000
vt 0.625000 0.250000
vt 0.375000 0.250000
vt 0.625000 0.500000
vt 0.375000 0.500000
vt 0.625000 0.750000
vt 0.375000 0.750000
vt 0.625000 1.000000
vt 0.375000 1.000000
vt 0.125000 0.500000
vt 0.125000 0.750000
vt 0.875000 0.500000
vt 0.875000 0.750000
vt 0.000000 0.000000
s 0
f 3/1/1 4/2/1 6/3/1 5/4/1
f 5/4/2 6/3/2 10/5/2 9/6/2
f 9/6/3 10/5/3 8/7/3 7/8/3
f 7/8/4 8/7/4 4/9/4 3/10/4
f 5/11/5 9/6/5 7/8/5 3/12/5
f 10/5/6 6/13/6 4/14/6 8/7/6
f 11/1/1 12/2/1 14/3/1 13/4/1
f 13/4/7 14/3/7 18/5/7 17/6/7
f 17/6/3 18/5/3 16/7/3 15/8/3
f 15/8/4 16/7/4 12/9/4 11/10/4
f 13/11/5 17/6/5 15/8/5 11/12/5
f 18/5/6 14/13/6 12/14/6 16/7/6
f 21/6/3 22/5/3 20/7/3 19/8/3
f 25/6/3 26/5/3 24/7/3 23/8/3
f 29/6/3 30/5/3 28/7/3 27/8/3
f 33/6/3 34/5/3 32/7/3 31/8/3
f 37/6/3 38/5/3 36/7/3 35/8/3
f 41/6/3 42/5/3 40/7/3 39/8/3
f 45/6/3 46/5/3 44/7/3 43/8/3
f 49/6/3 50/5/3 48/7/3 47/8/3
f 53/1/1 54/2/1 56/3/1 55/4/1
f 55/4/7 56/3/7 60/5/7 59/6/7
f 59/6/3 60/5/3 58/7/3 57/8/3
f 57/8/4 58/7/4 54/9/4 53/10/4
f 55/11/5 59/6/5 57/8/5 53/12/5
f 60/5/6 56/13/6 54/14/6 58/7/6
f 58/7/8 54/9/8 4/9/8 8/7/8
f 58/15/1 8/15/1 7/15/1 60/15/1
f 56/15/3 3/15/3 4/15/3 54/15/3
l 2 1
l 52 51
