# Blender 5.2.0 LTS
# www.blender.org
mtllib left_roof_door_closed.mtl
o left_roof_door_closed
v 1.468750 3.000001 0.500000
v 1.406250 3.000001 0.500000
v 1.468750 2.937501 0.500000
v 1.406250 2.937501 0.500000
v 1.468750 3.000001 1.406250
v 1.406250 3.000001 1.406250
v 1.468750 2.937501 1.406250
v 1.406250 2.937501 1.406250
v 1.406250 2.937501 1.406250
v 1.406250 2.937501 0.500000
v 1.343750 2.937501 1.406250
v 1.343750 2.937501 0.500000
v 1.343750 2.937501 1.406250
v 1.343750 2.937501 1.343750
v 0.500000 2.937501 1.343750
v 0.500000 2.937501 1.406250
v 1.343750 2.937501 1.093750
v 1.343750 2.937501 1.156250
v 1.343750 2.937501 0.843750
v 1.343750 2.937501 0.906250
v 1.343750 2.937501 0.593750
v 1.343750 2.937501 0.656250
v 1.093750 2.937501 0.593750
v 1.156250 2.937501 0.593750
v 1.093750 2.937501 0.656250
v 1.093750 2.937501 0.843750
v 1.156250 2.937501 0.656250
v 1.156250 2.937501 0.843750
v 1.093750 2.937501 0.906250
v 1.093750 2.937501 1.093750
v 1.156250 2.937501 0.906250
v 1.156250 2.937501 1.093750
v 1.093750 2.937501 1.156250
v 1.093750 2.937501 1.343750
v 1.156250 2.937501 1.156250
v 1.156250 2.937501 1.343750
v 0.843750 2.937501 1.156250
v 0.843750 2.937501 1.343750
v 0.906250 2.937501 1.156250
v 0.906250 2.937501 1.343750
v 0.843750 2.937501 0.906250
v 0.843750 2.937501 1.093750
v 0.906250 2.937501 0.906250
v 0.906250 2.937501 1.093750
v 0.843750 2.937501 0.656250
v 0.843750 2.937501 0.843750
v 0.906250 2.937501 0.656250
v 0.906250 2.937501 0.843750
v 0.843750 2.937501 0.593750
v 0.906250 2.937501 0.593750
v 0.593750 2.937501 1.156250
v 0.593750 2.937501 1.343750
v 0.656250 2.937501 1.156250
v 0.656250 2.937501 1.343750
v 0.593750 2.937501 0.906250
v 0.593750 2.937501 1.093750
v 0.656250 2.937501 0.906250
v 0.656250 2.937501 1.093750
v 0.593750 2.937501 0.656250
v 0.593750 2.937501 0.843750
v 0.656250 2.937501 0.656250
v 0.656250 2.937501 0.843750
v 0.593750 2.937501 0.593750
v 0.656250 2.937501 0.593750
v 1.156250 2.937501 0.500000
v 1.093750 2.937501 0.500000
v 0.906250 2.937501 0.500000
v 0.843750 2.937501 0.500000
v 0.656250 2.937501 0.500000
v 0.593750 2.937501 0.500000
v 0.500000 2.937501 1.156250
v 0.500000 2.937501 1.093750
v 0.500000 2.937501 0.906250
v 0.500000 2.937501 0.843750
v 0.500000 2.937501 0.656250
v 0.500000 2.937501 0.593750
v 1.468750 3.000001 1.468750
v 1.468750 3.000001 1.406250
v 1.468750 2.000001 1.468750
v 1.468750 2.000001 1.406250
v 1.406250 3.000001 1.468750
v 1.406250 3.000001 1.406250
v 1.406250 2.000001 1.468750
v 1.406250 2.000001 1.406250
v 0.562500 2.062500 1.453125
v 0.562500 2.062500 1.421875
v 1.281250 2.062500 1.453125
v 1.281250 2.062500 1.421875
v 0.562500 2.000000 1.453125
v 0.562500 2.000000 1.421875
v 1.281250 2.000000 1.453125
v 1.281250 2.000000 1.421875
v 0.670407 2.062410 1.437500
v 0.562500 2.062500 1.437500
v 1.281250 2.704593 1.437500
v 1.281250 2.812500 1.437500
v 1.281159 2.170408 1.437500
v 1.281250 2.062500 1.437500
v 0.670407 2.812500 1.437500
v 0.562500 2.812500 1.437500
v 0.562500 2.812500 1.453125
v 0.562500 2.812500 1.421875
v 0.562500 2.000000 1.453125
v 0.562500 2.000000 1.421875
v 0.500000 2.812500 1.453125
v 0.500000 2.812500 1.421875
v 0.500000 2.000000 1.453125
v 0.500000 2.000000 1.421875
v 1.406250 2.812500 1.453125
v 1.406250 2.812500 1.421875
v 1.406250 2.000001 1.453125
v 1.406250 2.000001 1.421875
v 1.281250 2.812500 1.453125
v 1.281250 2.812500 1.421875
v 1.281250 2.000001 1.453125
v 1.281250 2.000001 1.421875
v 1.406250 2.937500 1.453125
v 1.406250 2.937500 1.421875
v 1.406250 2.812500 1.453125
v 1.406250 2.812500 1.421875
v 0.500000 2.937500 1.453125
v 0.500000 2.937500 1.421875
v 0.500000 2.812500 1.453125
v 0.500000 2.812500 1.421875
v 1.406250 3.000000 1.468750
v 1.406250 3.000000 1.406250
v 1.406250 2.937500 1.468750
v 1.406250 2.937500 1.406250
v 0.500000 3.000000 1.468750
v 0.500000 3.000000 1.406250
v 0.500000 2.937500 1.468750
v 0.500000 2.937500 1.406250
v 0.500000 3.000001 1.406250
v 1.406250 3.000000 1.406250
v 0.500000 3.000001 0.500000
v 1.406250 3.000000 0.500000
vn -0.0000 -0.0000 -1.0000
vn -0.0000 -0.0000 1.0000
vn -0.0000 1.0000 -0.0000
vn -0.0000 -1.0000 -0.0000
vn 1.0000 -0.0000 -0.0000
vn -1.0000 -0.0000 -0.0000
vt 0.062500 1.000000
vt 0.000000 1.000000
vt 0.000000 0.937500
vt 0.062500 0.937500
vt 0.000000 0.968750
vt 0.062500 0.968750
vt 0.062500 0.984375
vt 0.000000 0.984375
vt 0.000000 0.000000
s 1
f 2/1/1 1/2/1 3/3/1 4/4/1
f 7/4/2 5/1/2 6/2/2 8/3/2
f 5/3/3 1/4/3 2/1/3 6/2/3
f 4/4/4 3/1/4 7/2/4 8/3/4
f 3/4/5 1/1/5 5/2/5 7/3/5
f 6/1/6 2/2/6 4/3/6 8/4/6
f 11/3/4 12/2/4 10/1/4 9/4/4
f 27/3/3 25/4/3 26/1/3 28/2/3
f 31/3/3 29/4/3 30/1/3 32/2/3
f 35/3/3 33/4/3 34/1/3 36/2/3
f 39/3/3 37/4/3 38/1/3 40/2/3
f 43/3/3 41/4/3 42/1/3 44/2/3
f 47/3/3 45/4/3 46/1/3 48/2/3
f 53/3/3 51/4/3 52/1/3 54/2/3
f 57/3/3 55/4/3 56/1/3 58/2/3
f 61/3/3 59/4/3 60/1/3 62/2/3
f 69/5/3 70/6/3 63/1/3 64/2/3
f 67/5/3 68/6/3 49/1/3 50/2/3
f 65/5/3 66/6/3 23/1/3 24/2/3
f 15/7/4 14/7/4 13/8/4 16/8/4
f 18/3/4 71/5/4 72/6/4 17/4/4
f 20/3/4 73/5/4 74/6/4 19/4/4
f 22/3/3 21/4/3 76/6/3 75/5/3
f 78/1/5 77/2/5 79/3/5 80/4/5
f 83/4/6 81/1/6 82/2/6 84/3/6
f 81/3/3 77/4/3 78/1/3 82/2/3
f 80/4/4 79/1/4 83/2/4 84/3/4
f 79/4/2 77/1/2 81/2/2 83/3/2
f 82/1/1 78/2/1 80/3/1 84/4/1
f 86/1/3 85/2/3 87/3/3 88/4/3
f 91/4/4 89/1/4 90/2/4 92/3/4
f 89/3/6 85/4/6 86/1/6 90/2/6
f 88/4/5 87/1/5 91/2/5 92/3/5
f 87/4/2 85/1/2 89/2/2 91/3/2
f 90/1/1 86/2/1 88/3/1 92/4/1
f 102/1/5 101/2/5 103/3/5 104/4/5
f 107/4/6 105/1/6 106/2/6 108/3/6
f 105/3/3 101/4/3 102/1/3 106/2/3
f 104/4/4 103/1/4 107/2/4 108/3/4
f 103/4/2 101/1/2 105/2/2 107/3/2
f 106/1/1 102/2/1 104/3/1 108/4/1
f 110/1/5 109/2/5 111/3/5 112/4/5
f 115/4/6 113/1/6 114/2/6 116/3/6
f 113/3/3 109/4/3 110/1/3 114/2/3
f 112/4/4 111/1/4 115/2/4 116/3/4
f 111/4/2 109/1/2 113/2/2 115/3/2
f 114/1/1 110/2/1 112/3/1 116/4/1
f 118/1/5 117/2/5 119/3/5 120/4/5
f 123/4/6 121/1/6 122/2/6 124/3/6
f 121/3/3 117/4/3 118/1/3 122/2/3
f 120/4/4 119/1/4 123/2/4 124/3/4
f 119/4/2 117/1/2 121/2/2 123/3/2
f 122/1/1 118/2/1 120/3/1 124/4/1
f 126/1/5 125/2/5 127/3/5 128/4/5
f 131/4/6 129/1/6 130/2/6 132/3/6
f 129/3/3 125/4/3 126/1/3 130/2/3
f 128/4/4 127/1/4 131/2/4 132/3/4
f 127/4/2 125/1/2 129/2/2 131/3/2
f 130/1/1 126/2/1 128/3/1 132/4/1
s 0
f 133/9/3 134/9/3 136/9/3 135/9/3
