# Blender 5.2.0 LTS
# www.blender.org
mtllib left_mid_door_closed.mtl
o left_mid_door_closed
v 0.562500 2.000000 1.453125
v 0.562500 2.000000 1.421875
v 0.562500 1.125000 1.453125
v 0.562500 1.125000 1.421875
v 0.500000 2.000000 1.453125
v 0.500000 2.000000 1.421875
v 0.500000 1.125000 1.453125
v 0.500000 1.125000 1.421875
v 1.468750 2.000000 1.468750
v 1.468750 2.000000 1.406250
v 1.468750 1.000000 1.468750
v 1.468750 1.000000 1.406250
v 1.406250 2.000000 1.468750
v 1.406250 2.000000 1.406250
v 1.406250 1.000000 1.468750
v 1.406250 1.000000 1.406250
v 0.562500 1.937500 1.453125
v 0.562500 1.937500 1.421875
v 1.281250 1.937500 1.453125
v 1.281250 1.937500 1.421875
v 0.562500 1.875000 1.453125
v 0.562500 1.875000 1.421875
v 1.281250 1.875000 1.453125
v 1.281250 1.875000 1.421875
v 1.281159 1.232908 1.437500
v 1.281250 1.125000 1.421875
v 1.281250 1.125000 1.437500
v 0.670407 1.875000 1.437500
v 0.562500 1.875000 1.421875
v 0.562500 1.875000 1.437500
v 0.670407 1.124909 1.437500
v 0.562500 1.125000 1.437500
v 1.281250 1.767093 1.437500
v 1.281250 1.875000 1.437500
v 1.406250 2.000000 1.453125
v 1.406250 2.000000 1.421875
v 1.406250 1.125000 1.453125
v 1.406250 1.125000 1.421875
v 1.281250 2.000000 1.453125
v 1.281250 2.000000 1.421875
v 1.281250 1.125000 1.453125
v 1.281250 1.125000 1.421875
v 1.406250 1.125000 1.453125
v 1.406250 1.125000 1.421875
v 1.406250 1.000000 1.453125
v 1.406250 1.000000 1.421875
v 0.500000 1.125000 1.453125
v 0.500000 1.125000 1.421875
v 0.500000 1.000000 1.453125
v 0.500000 1.000000 1.421875
vn 1.0000 -0.0000 -0.0000
vn -1.0000 -0.0000 -0.0000
vn -0.0000 1.0000 -0.0000
vn -0.0000 -1.0000 -0.0000
vn -0.0000 -0.0000 1.0000
vn -0.0000 -0.0000 -1.0000
vt 0.062500 1.000000
vt 0.000000 1.000000
vt 0.000000 0.937500
vt 0.062500 0.937500
s 1
f 2/1/1 1/2/1 3/3/1 4/4/1
f 7/4/2 5/1/2 6/2/2 8/3/2
f 5/3/3 1/4/3 2/1/3 6/2/3
f 4/4/4 3/1/4 7/2/4 8/3/4
f 3/4/5 1/1/5 5/2/5 7/3/5
f 6/1/6 2/2/6 4/3/6 8/4/6
f 10/1/1 9/2/1 11/3/1 12/4/1
f 15/4/2 13/1/2 14/2/2 16/3/2
f 13/3/3 9/4/3 10/1/3 14/2/3
f 12/4/4 11/1/4 15/2/4 16/3/4
f 11/4/5 9/1/5 13/2/5 15/3/5
f 14/1/6 10/2/6 12/3/6 16/4/6
f 18/1/3 17/2/3 19/3/3 20/4/3
f 23/4/4 21/1/4 22/2/4 24/3/4
f 21/3/2 17/4/2 18/1/2 22/2/2
f 20/4/1 19/1/1 23/2/1 24/3/1
f 19/4/5 17/1/5 21/2/5 23/3/5
f 22/1/6 18/2/6 20/3/6 24/4/6
f 36/1/1 35/2/1 37/3/1 38/4/1
f 41/4/2 39/1/2 40/2/2 42/3/2
f 39/3/3 35/4/3 36/1/3 40/2/3
f 38/4/4 37/1/4 41/2/4 42/3/4
f 37/4/5 35/1/5 39/2/5 41/3/5
f 40/1/6 36/2/6 38/3/6 42/4/6
f 44/1/1 43/2/1 45/3/1 46/4/1
f 49/4/2 47/1/2 48/2/2 50/3/2
f 47/3/3 43/4/3 44/1/3 48/2/3
f 46/4/4 45/1/4 49/2/4 50/3/4
f 45/4/5 43/1/5 47/2/5 49/3/5
f 48/1/6 44/2/6 46/3/6 50/4/6
l 26 27
l 29 30
