# Made in Blockbench 5.0.7
mtllib liftplatcorner.mtl

o mesh
v -0.1875 0.0625 -0.0625
v 0.5 0.15625 0.46875
v 0.5 0.15625 0.40625
v 0.5 0.125 0.46875
v 0.5 0.125 0.40625
v -0.46875 0.15625 0.46875
v -0.46875 0.15625 0.40625
v -0.46875 0.125 0.46875
v -0.46875 0.125 0.40625
v -0.40625 0.15625 0.40625
v -0.40625 0.15625 -0.5
v -0.40625 0.125 0.40625
v -0.40625 0.125 -0.5
v -0.46875 0.15625 0.40625
v -0.46875 0.15625 -0.5
v -0.46875 0.125 0.40625
v -0.46875 0.125 -0.5
v 0.375 0.125 0.375
v 0.375 0.125 0.125
v 0.375 0.0625 0.375
v 0.375 0.0625 0.125
v 0.125 0.125 0.375
v 0.125 0.125 0.125
v 0.125 0.0625 0.375
v 0.125 0.0625 0.125
v 0.5 0.0625 0.5
v 0.5 0.0625 0.4375
v 0.5 0 0.5
v 0.5 0 0.4375
v -0.4375 0.0625 0.5
v -0.4375 0.0625 0.4375
v -0.4375 0 0.5
v -0.4375 0 0.4375
v -0.125 0.125 -0.125
v -0.125 0.125 -0.375
v -0.125 0.0625 -0.125
v -0.125 0.0625 -0.375
v -0.375 0.125 -0.125
v -0.375 0.125 -0.375
v -0.375 0.0625 -0.125
v -0.375 0.0625 -0.375
v 0.375 0.125 -0.125
v 0.375 0.125 -0.375
v 0.375 0.0625 -0.125
v 0.375 0.0625 -0.375
v 0.125 0.125 -0.125
v 0.125 0.125 -0.375
v 0.125 0.0625 -0.125
v 0.125 0.0625 -0.375
v 0.125 0.125 0.125
v 0.125 0.125 -0.125
v 0.125 0.0625 0.125
v 0.125 0.0625 -0.125
v -0.125 0.125 0.125
v -0.125 0.125 -0.125
v -0.125 0.0625 0.125
v -0.125 0.0625 -0.125
v -0.125 0.125 0.375
v -0.125 0.125 0.125
v -0.125 0.0625 0.375
v -0.125 0.0625 0.125
v -0.375 0.125 0.375
v -0.375 0.125 0.125
v -0.375 0.0625 0.375
v -0.375 0.0625 0.125
v 0.125 0.125 -0.375
v 0.125 0.125 -0.5
v 0.125 0.0625 -0.375
v 0.125 0.0625 -0.5
v -0.125 0.125 -0.375
v -0.125 0.125 -0.5
v -0.125 0.0625 -0.375
v -0.125 0.0625 -0.5
v 0.5 0.125 0.125
v 0.5 0.125 -0.125
v 0.5 0.0625 0.125
v 0.5 0.0625 -0.125
v 0.375 0.125 0.125
v 0.375 0.125 -0.125
v 0.375 0.0625 0.125
v 0.375 0.0625 -0.125
v 0.5 0.125 -0.375
v 0.5 0.125 -0.5
v 0.5 0.0625 -0.375
v 0.5 0.0625 -0.5
v 0.375 0.125 -0.375
v 0.375 0.125 -0.5
v 0.375 0.0625 -0.375
v 0.375 0.0625 -0.5
v 0.4375 0.125 0.375
v 0.4375 0.125 0.3125
v 0.4375 0.0625 0.375
v 0.4375 0.0625 0.3125
v 0.375 0.125 0.375
v 0.375 0.125 0.3125
v 0.375 0.0625 0.375
v 0.375 0.0625 0.3125
v 0.4375 0.125 -0.3125
v 0.4375 0.125 -0.375
v 0.4375 0.0625 -0.3125
v 0.4375 0.0625 -0.375
v 0.375 0.125 -0.3125
v 0.375 0.125 -0.375
v 0.375 0.0625 -0.3125
v 0.375 0.0625 -0.375
v 0.4375 0.125 -0.125
v 0.4375 0.125 -0.1875
v 0.4375 0.0625 -0.125
v 0.4375 0.0625 -0.1875
v 0.375 0.125 -0.125
v 0.375 0.125 -0.1875
v 0.375 0.0625 -0.125
v 0.375 0.0625 -0.1875
v 0.4375 0.125 0.1875
v 0.4375 0.125 0.125
v 0.4375 0.0625 0.1875
v 0.4375 0.0625 0.125
v 0.375 0.125 0.1875
v 0.375 0.125 0.125
v 0.375 0.0625 0.1875
v 0.375 0.0625 0.125
v -0.125 0.125 0.125
v -0.125 0.125 0.0625
v -0.125 0.0625 0.125
v -0.125 0.0625 0.0625
v -0.1875 0.125 0.125
v -0.1875 0.125 0.0625
v -0.1875 0.0625 0.125
v -0.1875 0.0625 0.0625
v -0.3125 0.125 -0.0625
v -0.3125 0.125 -0.125
v -0.3125 0.0625 -0.0625
v -0.3125 0.0625 -0.125
v -0.375 0.125 -0.0625
v -0.375 0.125 -0.125
v -0.375 0.0625 -0.0625
v -0.375 0.0625 -0.125
v -0.3125 0.125 0.125
v -0.3125 0.125 0.0625
v -0.3125 0.0625 0.125
v -0.3125 0.0625 0.0625
v -0.375 0.125 0.125
v -0.375 0.125 0.0625
v -0.375 0.0625 0.125
v -0.375 0.0625 0.0625
v 0.375 0.125 -0.0625
v 0.375 0.125 -0.125
v 0.375 0.0625 -0.0625
v 0.375 0.0625 -0.125
v 0.3125 0.125 -0.0625
v 0.3125 0.125 -0.125
v 0.3125 0.0625 -0.0625
v 0.3125 0.0625 -0.125
v 0.375 0.125 0.125
v 0.375 0.125 0.0625
v 0.375 0.0625 0.125
v 0.375 0.0625 0.0625
v 0.3125 0.125 0.125
v 0.3125 0.125 0.0625
v 0.3125 0.0625 0.125
v 0.3125 0.0625 0.0625
v -0.0625 0.125 0.1875
v -0.0625 0.125 0.125
v -0.0625 0.0625 0.1875
v -0.0625 0.0625 0.125
v -0.125 0.125 0.1875
v -0.125 0.125 0.125
v -0.125 0.0625 0.1875
v -0.125 0.0625 0.125
v 0.1875 0.125 0.125
v 0.1875 0.125 0.0625
v 0.1875 0.0625 0.125
v 0.1875 0.0625 0.0625
v 0.125 0.125 0.125
v 0.125 0.125 0.0625
v 0.125 0.0625 0.125
v 0.125 0.0625 0.0625
v 0.125 0.125 0.1875
v 0.125 0.125 0.125
v 0.125 0.0625 0.1875
v 0.125 0.0625 0.125
v 0.0625 0.125 0.1875
v 0.0625 0.125 0.125
v 0.0625 0.0625 0.1875
v 0.0625 0.0625 0.125
v 0.375 0.125 -0.375
v 0.375 0.125 -0.4375
v 0.375 0.0625 -0.375
v 0.375 0.0625 -0.4375
v 0.3125 0.125 -0.375
v 0.3125 0.125 -0.4375
v 0.3125 0.0625 -0.375
v 0.3125 0.0625 -0.4375
v 0.1875 0.125 -0.375
v 0.1875 0.125 -0.4375
v 0.1875 0.0625 -0.375
v 0.1875 0.0625 -0.4375
v 0.125 0.125 -0.375
v 0.125 0.125 -0.4375
v 0.125 0.0625 -0.375
v 0.125 0.0625 -0.4375
v 0.1875 0.125 -0.0625
v 0.1875 0.125 -0.125
v 0.1875 0.0625 -0.0625
v 0.1875 0.0625 -0.125
v 0.125 0.125 -0.0625
v 0.125 0.125 -0.125
v 0.125 0.0625 -0.0625
v 0.125 0.0625 -0.125
v 0.125 0.125 -0.125
v 0.125 0.125 -0.1875
v 0.125 0.0625 -0.125
v 0.125 0.0625 -0.1875
v 0.0625 0.125 -0.125
v 0.0625 0.125 -0.1875
v 0.0625 0.0625 -0.125
v 0.0625 0.0625 -0.1875
v -0.0625 0.125 -0.3125
v -0.0625 0.125 -0.375
v -0.0625 0.0625 -0.3125
v -0.0625 0.0625 -0.375
v -0.125 0.125 -0.3125
v -0.125 0.125 -0.375
v -0.125 0.0625 -0.3125
v -0.125 0.0625 -0.375
v 0.125 0.125 -0.3125
v 0.125 0.125 -0.375
v 0.125 0.0625 -0.3125
v 0.125 0.0625 -0.375
v 0.0625 0.125 -0.3125
v 0.0625 0.125 -0.375
v 0.0625 0.0625 -0.3125
v 0.0625 0.0625 -0.375
v -0.0625 0.125 0.375
v -0.0625 0.125 0.3125
v -0.0625 0.0625 0.375
v -0.0625 0.0625 0.3125
v -0.125 0.125 0.375
v -0.125 0.125 0.3125
v -0.125 0.0625 0.375
v -0.125 0.0625 0.3125
v 0.125 0.125 0.375
v 0.125 0.125 0.3125
v 0.125 0.0625 0.375
v 0.125 0.0625 0.3125
v 0.0625 0.125 0.375
v 0.0625 0.125 0.3125
v 0.0625 0.0625 0.375
v 0.0625 0.0625 0.3125
v -0.3125 0.125 -0.375
v -0.3125 0.125 -0.4375
v -0.3125 0.0625 -0.375
v -0.3125 0.0625 -0.4375
v -0.375 0.125 -0.375
v -0.375 0.125 -0.4375
v -0.375 0.0625 -0.375
v -0.375 0.0625 -0.4375
v -0.125 0.125 -0.375
v -0.125 0.125 -0.4375
v -0.125 0.0625 -0.375
v -0.125 0.0625 -0.4375
v -0.1875 0.125 -0.375
v -0.1875 0.125 -0.4375
v -0.1875 0.0625 -0.375
v -0.1875 0.0625 -0.4375
v -0.125 0.125 -0.0625
v -0.125 0.125 -0.125
v -0.125 0.0625 -0.0625
v -0.125 0.0625 -0.125
v -0.1875 0.125 -0.0625
v -0.1875 0.125 -0.125
v -0.1875 0.0625 -0.125
v -0.0625 0.125 -0.125
v -0.0625 0.125 -0.1875
v -0.0625 0.0625 -0.125
v -0.0625 0.0625 -0.1875
v -0.125 0.125 -0.125
v -0.125 0.125 -0.1875
v -0.125 0.0625 -0.125
v -0.125 0.0625 -0.1875
v 0.5 0.125 0.5
v 0.5 0.125 0.375
v 0.5 0.0625 0.5
v 0.5 0.0625 0.375
v -0.375 0.125 0.5
v -0.375 0.125 0.375
v -0.375 0.0625 0.5
v -0.375 0.0625 0.375
v -0.375 0.125 0.5
v -0.375 0.125 -0.5
v -0.375 0.0625 0.5
v -0.375 0.0625 -0.5
v -0.5 0.125 0.5
v -0.5 0.125 -0.5
v -0.5 0.0625 0.5
v -0.5 0.0625 -0.5
v -0.4375 0.0625 0.5
v -0.4375 0.0625 -0.5
v -0.4375 0 0.5
v -0.4375 0 -0.5
v -0.5 0.0625 0.5
v -0.5 0.0625 -0.5
v -0.5 0 0.5
v -0.5 0 -0.5
vt 0.265625 0.4375
vt 0.25 0.4375
vt 0.25 0.421875
vt 0.265625 0.421875
vt 0.28125 0.390625
vt 0.28125 0.40625
vt 0.265625 0.40625
vt 0.265625 0.390625
vt 0.34375 0.890625
vt 0.34375 0.90625
vt 0.09375 0.90625
vt 0.09375 0.890625
vt 0.34375 0.859375
vt 0.34375 0.875
vt 0.09375 0.875
vt 0.09375 0.859375
vt 0.34375 0.84375
vt 0.09375 0.84375
vt 0.09375 0.828125
vt 0.34375 0.828125
vt 0.09375 0.796875
vt 0.34375 0.796875
vt 0.34375 0.8125
vt 0.09375 0.8125
vt 0.296875 0.625
vt 0.0625 0.625
vt 0.0625 0.609375
vt 0.296875 0.609375
vt 0.546875 0.609375
vt 0.546875 0.625
vt 0.3125 0.625
vt 0.3125 0.609375
vt 0.078125 0.359375
vt 0.078125 0.59375
vt 0.0625 0.59375
vt 0.0625 0.359375
vt 0.3125 0.390625
vt 0.3125 0.40625
vt 0.296875 0.40625
vt 0.296875 0.390625
vt 0.34375 0.40625
vt 0.328125 0.40625
vt 0.328125 0.390625
vt 0.34375 0.390625
vt 0.09375 0.359375
vt 0.109375 0.359375
vt 0.109375 0.59375
vt 0.09375 0.59375
vt 0.28125 0.5625
vt 0.21875 0.5625
vt 0.21875 0.546875
vt 0.28125 0.546875
vt 0.5 0.578125
vt 0.5 0.59375
vt 0.4375 0.59375
vt 0.4375 0.578125
vt 0.15625 0.71875
vt 0.15625 0.78125
vt 0.09375 0.78125
vt 0.09375 0.71875
vt 0.5 0.546875
vt 0.5 0.5625
vt 0.4375 0.5625
vt 0.4375 0.546875
vt 0.359375 0.546875
vt 0.296875 0.546875
vt 0.296875 0.53125
vt 0.359375 0.53125
vt 0.171875 0.71875
vt 0.234375 0.71875
vt 0.234375 0.78125
vt 0.171875 0.78125
vt 0.375 0.40625
vt 0.359375 0.40625
vt 0.359375 0.390625
vt 0.375 0.390625
vt 0.40625 0.390625
vt 0.40625 0.40625
vt 0.390625 0.40625
vt 0.390625 0.390625
vt 0.625 0.6875
vt 0.625 0.703125
vt 0.390625 0.703125
vt 0.390625 0.6875
vt 0.625 0.65625
vt 0.625 0.671875
vt 0.390625 0.671875
vt 0.390625 0.65625
vt 0.640625 1
vt 0.40625 1
vt 0.40625 0.984375
vt 0.640625 0.984375
vt 0.40625 0.953125
vt 0.640625 0.953125
vt 0.640625 0.96875
vt 0.40625 0.96875
vt 0.28125 0.53125
vt 0.21875 0.53125
vt 0.21875 0.515625
vt 0.28125 0.515625
vt 0.4375 0.515625
vt 0.4375 0.53125
vt 0.375 0.53125
vt 0.375 0.515625
vt 0.3125 0.71875
vt 0.3125 0.78125
vt 0.25 0.78125
vt 0.25 0.71875
vt 0.515625 0.515625
vt 0.515625 0.53125
vt 0.453125 0.53125
vt 0.453125 0.515625
vt 0.546875 0.765625
vt 0.484375 0.765625
vt 0.484375 0.75
vt 0.546875 0.75
vt 0 0.671875
vt 0.0625 0.671875
vt 0.0625 0.734375
vt 0 0.734375
vt 0.546875 0.734375
vt 0.484375 0.734375
vt 0.484375 0.71875
vt 0.546875 0.71875
vt 0.359375 0.5
vt 0.359375 0.515625
vt 0.296875 0.515625
vt 0.296875 0.5
vt 0.140625 0.640625
vt 0.140625 0.703125
vt 0.078125 0.703125
vt 0.078125 0.640625
vt 0.28125 0.484375
vt 0.28125 0.5
vt 0.21875 0.5
vt 0.21875 0.484375
vt 0.4375 0.5
vt 0.375 0.5
vt 0.375 0.484375
vt 0.4375 0.484375
vt 0.15625 0.640625
vt 0.21875 0.640625
vt 0.21875 0.703125
vt 0.15625 0.703125
vt 0.515625 0.5
vt 0.453125 0.5
vt 0.453125 0.484375
vt 0.515625 0.484375
vt 0.1875 0.46875
vt 0.1875 0.484375
vt 0.125 0.484375
vt 0.125 0.46875
vt 0.296875 0.640625
vt 0.296875 0.703125
vt 0.234375 0.703125
vt 0.234375 0.640625
vt 0.359375 0.46875
vt 0.359375 0.484375
vt 0.296875 0.484375
vt 0.296875 0.46875
vt 0.578125 0.59375
vt 0.515625 0.59375
vt 0.515625 0.578125
vt 0.578125 0.578125
vt 0.3125 0.640625
vt 0.375 0.640625
vt 0.375 0.703125
vt 0.3125 0.703125
vt 0.578125 0.5625
vt 0.515625 0.5625
vt 0.515625 0.546875
vt 0.578125 0.546875
vt 0.265625 0.453125
vt 0.265625 0.46875
vt 0.203125 0.46875
vt 0.203125 0.453125
vt 0.390625 0.9375
vt 0.390625 1
vt 0.328125 1
vt 0.328125 0.9375
vt 0.4375 0.453125
vt 0.4375 0.46875
vt 0.375 0.46875
vt 0.375 0.453125
vt 0.515625 0.46875
vt 0.453125 0.46875
vt 0.453125 0.453125
vt 0.515625 0.453125
vt 0.328125 0.71875
vt 0.390625 0.71875
vt 0.390625 0.78125
vt 0.328125 0.78125
vt 0.234375 0.4375
vt 0.203125 0.4375
vt 0.203125 0.421875
vt 0.234375 0.421875
vt 0.59375 0.75
vt 0.59375 0.765625
vt 0.5625 0.765625
vt 0.5625 0.75
vt 0.46875 0.734375
vt 0.46875 0.765625
vt 0.40625 0.765625
vt 0.40625 0.734375
vt 0.59375 0.515625
vt 0.59375 0.53125
vt 0.53125 0.53125
vt 0.53125 0.515625
vt 0.59375 0.5
vt 0.53125 0.5
vt 0.53125 0.484375
vt 0.59375 0.484375
vt 0.359375 0.5625
vt 0.421875 0.5625
vt 0.421875 0.59375
vt 0.359375 0.59375
vt 0.59375 0.46875
vt 0.53125 0.46875
vt 0.53125 0.453125
vt 0.59375 0.453125
vt 0.1875 0.4375
vt 0.1875 0.453125
vt 0.125 0.453125
vt 0.125 0.4375
vt 0.15625 0.5
vt 0.15625 0.5625
vt 0.125 0.5625
vt 0.125 0.5
vt 0.59375 0.71875
vt 0.59375 0.734375
vt 0.5625 0.734375
vt 0.5625 0.71875
vt 0.59375 0.640625
vt 0.5625 0.640625
vt 0.5625 0.625
vt 0.59375 0.625
vt 0.171875 0.5
vt 0.203125 0.5
vt 0.203125 0.5625
vt 0.171875 0.5625
vt 0.40625 0.4375
vt 0.375 0.4375
vt 0.375 0.421875
vt 0.40625 0.421875
vt 0.453125 0.421875
vt 0.453125 0.4375
vt 0.421875 0.4375
vt 0.421875 0.421875
vt 0.3125 0.421875
vt 0.3125 0.453125
vt 0.28125 0.453125
vt 0.28125 0.421875
vt 0.5 0.421875
vt 0.5 0.4375
vt 0.46875 0.4375
vt 0.46875 0.421875
vt 0.546875 0.4375
vt 0.515625 0.4375
vt 0.515625 0.421875
vt 0.546875 0.421875
vt 0.328125 0.421875
vt 0.359375 0.421875
vt 0.359375 0.453125
vt 0.328125 0.453125
vt 0.609375 0.609375
vt 0.59375 0.609375
vt 0.59375 0.59375
vt 0.609375 0.59375
vt 0.4375 0.390625
vt 0.4375 0.40625
vt 0.421875 0.40625
vt 0.421875 0.390625
vt 0.609375 0.5625
vt 0.609375 0.578125
vt 0.59375 0.578125
vt 0.59375 0.5625
vt 0.46875 0.390625
vt 0.46875 0.40625
vt 0.453125 0.40625
vt 0.453125 0.390625
vt 0.5 0.40625
vt 0.484375 0.40625
vt 0.484375 0.390625
vt 0.5 0.390625
vt 0.515625 0.390625
vt 0.53125 0.390625
vt 0.53125 0.40625
vt 0.515625 0.40625
vt 0.5625 0.40625
vt 0.546875 0.40625
vt 0.546875 0.390625
vt 0.5625 0.390625
vt 0.59375 0.390625
vt 0.59375 0.40625
vt 0.578125 0.40625
vt 0.578125 0.390625
vt 0.015625 0.375
vt 0.015625 0.390625
vt 0 0.390625
vt 0 0.375
vt 0.046875 0.375
vt 0.046875 0.390625
vt 0.03125 0.390625
vt 0.03125 0.375
vt 0.140625 0.390625
vt 0.125 0.390625
vt 0.125 0.375
vt 0.140625 0.375
vt 0.609375 0.75
vt 0.625 0.75
vt 0.625 0.765625
vt 0.609375 0.765625
vt 0.625 0.734375
vt 0.609375 0.734375
vt 0.609375 0.71875
vt 0.625 0.71875
vt 0.625 0.625
vt 0.625 0.640625
vt 0.609375 0.640625
vt 0.609375 0.625
vt 0.625 0.53125
vt 0.625 0.546875
vt 0.609375 0.546875
vt 0.609375 0.53125
vt 0.625 0.5
vt 0.625 0.515625
vt 0.609375 0.515625
vt 0.609375 0.5
vt 0.625 0.484375
vt 0.609375 0.484375
vt 0.609375 0.46875
vt 0.625 0.46875
vt 0.609375 0.4375
vt 0.625 0.4375
vt 0.625 0.453125
vt 0.609375 0.453125
vt 0.625 0.421875
vt 0.609375 0.421875
vt 0.609375 0.40625
vt 0.625 0.40625
vt 0.625 0.375
vt 0.625 0.390625
vt 0.609375 0.390625
vt 0.609375 0.375
vt 0.640625 0.921875
vt 0.640625 0.9375
vt 0.625 0.9375
vt 0.625 0.921875
vt 0.640625 0.890625
vt 0.640625 0.90625
vt 0.625 0.90625
vt 0.625 0.890625
vt 0.640625 0.875
vt 0.625 0.875
vt 0.625 0.859375
vt 0.640625 0.859375
vt 0.15625 0.359375
vt 0.171875 0.359375
vt 0.171875 0.375
vt 0.15625 0.375
vt 0.640625 0.84375
vt 0.625 0.84375
vt 0.625 0.828125
vt 0.640625 0.828125
vt 0.203125 0.359375
vt 0.203125 0.375
vt 0.1875 0.375
vt 0.1875 0.359375
vt 0.234375 0.359375
vt 0.234375 0.375
vt 0.21875 0.375
vt 0.21875 0.359375
vt 0.265625 0.359375
vt 0.265625 0.375
vt 0.25 0.375
vt 0.25 0.359375
vt 0.296875 0.375
vt 0.28125 0.375
vt 0.28125 0.359375
vt 0.296875 0.359375
vt 0.3125 0.359375
vt 0.328125 0.359375
vt 0.328125 0.375
vt 0.3125 0.375
vt 0.359375 0.375
vt 0.34375 0.375
vt 0.34375 0.359375
vt 0.359375 0.359375
vt 0.390625 0.359375
vt 0.390625 0.375
vt 0.375 0.375
vt 0.375 0.359375
vt 0.640625 0.59375
vt 0.640625 0.609375
vt 0.625 0.609375
vt 0.625 0.59375
vt 0.421875 0.359375
vt 0.421875 0.375
vt 0.40625 0.375
vt 0.40625 0.359375
vt 0.640625 0.578125
vt 0.625 0.578125
vt 0.625 0.5625
vt 0.640625 0.5625
vt 0.4375 0.359375
vt 0.453125 0.359375
vt 0.453125 0.375
vt 0.4375 0.375
vt 0.484375 0.375
vt 0.46875 0.375
vt 0.46875 0.359375
vt 0.484375 0.359375
vt 0.515625 0.359375
vt 0.515625 0.375
vt 0.5 0.375
vt 0.5 0.359375
vt 0.546875 0.359375
vt 0.546875 0.375
vt 0.53125 0.375
vt 0.53125 0.359375
vt 0.578125 0.359375
vt 0.578125 0.375
vt 0.5625 0.375
vt 0.5625 0.359375
vt 0.015625 0.359375
vt 0 0.359375
vt 0 0.34375
vt 0.015625 0.34375
vt 0.03125 0.34375
vt 0.046875 0.34375
vt 0.046875 0.359375
vt 0.03125 0.359375
vt 0.140625 0.359375
vt 0.125 0.359375
vt 0.125 0.34375
vt 0.140625 0.34375
vt 0.65625 0.796875
vt 0.65625 0.8125
vt 0.640625 0.8125
vt 0.640625 0.796875
vt 0.65625 0.765625
vt 0.65625 0.78125
vt 0.640625 0.78125
vt 0.640625 0.765625
vt 0.65625 0.734375
vt 0.65625 0.75
vt 0.640625 0.75
vt 0.640625 0.734375
vt 0.65625 0.71875
vt 0.640625 0.71875
vt 0.640625 0.703125
vt 0.65625 0.703125
vt 0.640625 0.671875
vt 0.65625 0.671875
vt 0.65625 0.6875
vt 0.640625 0.6875
vt 0.65625 0.65625
vt 0.640625 0.65625
vt 0.640625 0.640625
vt 0.65625 0.640625
vt 0.65625 0.53125
vt 0.65625 0.546875
vt 0.640625 0.546875
vt 0.640625 0.53125
vt 0.65625 0.5
vt 0.65625 0.515625
vt 0.640625 0.515625
vt 0.640625 0.5
vt 0.65625 0.46875
vt 0.65625 0.484375
vt 0.640625 0.484375
vt 0.640625 0.46875
vt 0.65625 0.453125
vt 0.640625 0.453125
vt 0.640625 0.4375
vt 0.65625 0.4375
vt 0.640625 0.40625
vt 0.65625 0.40625
vt 0.65625 0.421875
vt 0.640625 0.421875
vt 0.609375 0.359375
vt 0.59375 0.359375
vt 0.59375 0.34375
vt 0.609375 0.34375
vt 0.65625 0.375
vt 0.65625 0.390625
vt 0.640625 0.390625
vt 0.640625 0.375
vt 0.640625 0.34375
vt 0.640625 0.359375
vt 0.625 0.359375
vt 0.625 0.34375
vt 0.671875 0.984375
vt 0.671875 1
vt 0.65625 1
vt 0.65625 0.984375
vt 0.671875 0.96875
vt 0.65625 0.96875
vt 0.65625 0.953125
vt 0.671875 0.953125
vt 0.0625 0.328125
vt 0.078125 0.328125
vt 0.078125 0.34375
vt 0.0625 0.34375
vt 0.671875 0.9375
vt 0.65625 0.9375
vt 0.65625 0.921875
vt 0.671875 0.921875
vt 0.109375 0.328125
vt 0.109375 0.34375
vt 0.09375 0.34375
vt 0.09375 0.328125
vt 0.671875 0.890625
vt 0.671875 0.90625
vt 0.65625 0.90625
vt 0.65625 0.890625
vt 0.671875 0.859375
vt 0.671875 0.875
vt 0.65625 0.875
vt 0.65625 0.859375
vt 0.171875 0.34375
vt 0.15625 0.34375
vt 0.15625 0.328125
vt 0.171875 0.328125
vt 0.65625 0.828125
vt 0.671875 0.828125
vt 0.671875 0.84375
vt 0.65625 0.84375
vt 0.203125 0.34375
vt 0.1875 0.34375
vt 0.1875 0.328125
vt 0.203125 0.328125
vt 0.234375 0.328125
vt 0.234375 0.34375
vt 0.21875 0.34375
vt 0.21875 0.328125
vt 0.265625 0.328125
vt 0.265625 0.34375
vt 0.25 0.34375
vt 0.25 0.328125
vt 0.296875 0.328125
vt 0.296875 0.34375
vt 0.28125 0.34375
vt 0.28125 0.328125
vt 0.328125 0.34375
vt 0.3125 0.34375
vt 0.3125 0.328125
vt 0.328125 0.328125
vt 0.34375 0.328125
vt 0.359375 0.328125
vt 0.359375 0.34375
vt 0.34375 0.34375
vt 0.390625 0.34375
vt 0.375 0.34375
vt 0.375 0.328125
vt 0.390625 0.328125
vt 0.671875 0.609375
vt 0.671875 0.625
vt 0.65625 0.625
vt 0.65625 0.609375
vt 0.421875 0.328125
vt 0.421875 0.34375
vt 0.40625 0.34375
vt 0.40625 0.328125
vt 0.671875 0.578125
vt 0.671875 0.59375
vt 0.65625 0.59375
vt 0.65625 0.578125
vt 0.453125 0.34375
vt 0.4375 0.34375
vt 0.4375 0.328125
vt 0.453125 0.328125
vt 0.46875 0.328125
vt 0.484375 0.328125
vt 0.484375 0.34375
vt 0.46875 0.34375
vt 0.515625 0.34375
vt 0.5 0.34375
vt 0.5 0.328125
vt 0.515625 0.328125
vt 0.546875 0.328125
vt 0.546875 0.34375
vt 0.53125 0.34375
vt 0.53125 0.328125
vt 0.578125 0.328125
vt 0.578125 0.34375
vt 0.5625 0.34375
vt 0.5625 0.328125
vt 0.671875 0.34375
vt 0.671875 0.359375
vt 0.65625 0.359375
vt 0.65625 0.34375
vt 0.015625 0.328125
vt 0 0.328125
vt 0 0.3125
vt 0.015625 0.3125
vt 0.03125 0.3125
vt 0.046875 0.3125
vt 0.046875 0.328125
vt 0.03125 0.328125
vt 0.140625 0.328125
vt 0.125 0.328125
vt 0.125 0.3125
vt 0.140625 0.3125
vt 0.6875 0.796875
vt 0.6875 0.8125
vt 0.671875 0.8125
vt 0.671875 0.796875
vt 0.6875 0.765625
vt 0.6875 0.78125
vt 0.671875 0.78125
vt 0.671875 0.765625
vt 0.6875 0.734375
vt 0.6875 0.75
vt 0.671875 0.75
vt 0.671875 0.734375
vt 0.6875 0.71875
vt 0.671875 0.71875
vt 0.671875 0.703125
vt 0.6875 0.703125
vt 0.671875 0.671875
vt 0.6875 0.671875
vt 0.6875 0.6875
vt 0.671875 0.6875
vt 0.6875 0.65625
vt 0.671875 0.65625
vt 0.671875 0.640625
vt 0.6875 0.640625
vt 0.6875 0.546875
vt 0.6875 0.5625
vt 0.671875 0.5625
vt 0.671875 0.546875
vt 0.6875 0.515625
vt 0.6875 0.53125
vt 0.671875 0.53125
vt 0.671875 0.515625
vt 0.6875 0.484375
vt 0.6875 0.5
vt 0.671875 0.5
vt 0.671875 0.484375
vt 0.6875 0.46875
vt 0.671875 0.46875
vt 0.671875 0.453125
vt 0.6875 0.453125
vt 0.671875 0.421875
vt 0.6875 0.421875
vt 0.6875 0.4375
vt 0.671875 0.4375
vt 0.609375 0.328125
vt 0.59375 0.328125
vt 0.59375 0.3125
vt 0.609375 0.3125
vt 0.6875 0.390625
vt 0.6875 0.40625
vt 0.671875 0.40625
vt 0.671875 0.390625
vt 0.640625 0.3125
vt 0.640625 0.328125
vt 0.625 0.328125
vt 0.625 0.3125
vt 0.671875 0.3125
vt 0.671875 0.328125
vt 0.65625 0.328125
vt 0.65625 0.3125
vt 0.703125 1
vt 0.6875 1
vt 0.6875 0.984375
vt 0.703125 0.984375
vt 0.6875 0.953125
vt 0.703125 0.953125
vt 0.703125 0.96875
vt 0.6875 0.96875
vt 0.078125 0.3125
vt 0.0625 0.3125
vt 0.0625 0.296875
vt 0.078125 0.296875
vt 0.703125 0.921875
vt 0.703125 0.9375
vt 0.6875 0.9375
vt 0.6875 0.921875
vt 0.109375 0.296875
vt 0.109375 0.3125
vt 0.09375 0.3125
vt 0.09375 0.296875
vt 0.703125 0.890625
vt 0.703125 0.90625
vt 0.6875 0.90625
vt 0.6875 0.890625
vt 0.703125 0.875
vt 0.6875 0.875
vt 0.6875 0.859375
vt 0.703125 0.859375
vt 0.15625 0.296875
vt 0.171875 0.296875
vt 0.171875 0.3125
vt 0.15625 0.3125
vt 0.703125 0.84375
vt 0.6875 0.84375
vt 0.6875 0.828125
vt 0.703125 0.828125
vt 0.203125 0.296875
vt 0.203125 0.3125
vt 0.1875 0.3125
vt 0.1875 0.296875
vt 0.234375 0.296875
vt 0.234375 0.3125
vt 0.21875 0.3125
vt 0.21875 0.296875
vt 0.265625 0.296875
vt 0.265625 0.3125
vt 0.25 0.3125
vt 0.25 0.296875
vt 0.296875 0.3125
vt 0.28125 0.3125
vt 0.28125 0.296875
vt 0.296875 0.296875
vt 0.3125 0.296875
vt 0.328125 0.296875
vt 0.328125 0.3125
vt 0.3125 0.3125
vt 0.359375 0.3125
vt 0.34375 0.3125
vt 0.34375 0.296875
vt 0.359375 0.296875
vt 0.390625 0.296875
vt 0.390625 0.3125
vt 0.375 0.3125
vt 0.375 0.296875
vt 0.703125 0.609375
vt 0.703125 0.625
vt 0.6875 0.625
vt 0.6875 0.609375
vt 0.421875 0.296875
vt 0.421875 0.3125
vt 0.40625 0.3125
vt 0.40625 0.296875
vt 0.703125 0.59375
vt 0.6875 0.59375
vt 0.6875 0.578125
vt 0.703125 0.578125
vt 0.4375 0.296875
vt 0.453125 0.296875
vt 0.453125 0.3125
vt 0.4375 0.3125
vt 0.484375 0.3125
vt 0.46875 0.3125
vt 0.46875 0.296875
vt 0.484375 0.296875
vt 0.515625 0.296875
vt 0.515625 0.3125
vt 0.5 0.3125
vt 0.5 0.296875
vt 0.546875 0.296875
vt 0.546875 0.3125
vt 0.53125 0.3125
vt 0.53125 0.296875
vt 0.578125 0.296875
vt 0.578125 0.3125
vt 0.5625 0.3125
vt 0.5625 0.296875
vt 0.703125 0.375
vt 0.6875 0.375
vt 0.6875 0.359375
vt 0.703125 0.359375
vt 0.6875 0.328125
vt 0.703125 0.328125
vt 0.703125 0.34375
vt 0.6875 0.34375
vt 0.703125 0.3125
vt 0.6875 0.3125
vt 0.6875 0.296875
vt 0.703125 0.296875
vt 0.015625 0.28125
vt 0.015625 0.296875
vt 0 0.296875
vt 0 0.28125
vt 0.046875 0.28125
vt 0.046875 0.296875
vt 0.03125 0.296875
vt 0.03125 0.28125
vt 0.140625 0.28125
vt 0.140625 0.296875
vt 0.125 0.296875
vt 0.125 0.28125
vt 0.71875 0.8125
vt 0.703125 0.8125
vt 0.703125 0.796875
vt 0.71875 0.796875
vt 0.703125 0.765625
vt 0.71875 0.765625
vt 0.71875 0.78125
vt 0.703125 0.78125
vt 0.71875 0.75
vt 0.703125 0.75
vt 0.703125 0.734375
vt 0.71875 0.734375
vt 0.71875 0.703125
vt 0.71875 0.71875
vt 0.703125 0.71875
vt 0.703125 0.703125
vt 0.71875 0.671875
vt 0.71875 0.6875
vt 0.703125 0.6875
vt 0.703125 0.671875
vt 0.71875 0.640625
vt 0.71875 0.65625
vt 0.703125 0.65625
vt 0.703125 0.640625
vt 0.71875 0.5625
vt 0.703125 0.5625
vt 0.703125 0.546875
vt 0.71875 0.546875
vt 0.703125 0.515625
vt 0.71875 0.515625
vt 0.71875 0.53125
vt 0.703125 0.53125
vt 0.71875 0.5
vt 0.703125 0.5
vt 0.703125 0.484375
vt 0.71875 0.484375
vt 0.71875 0.453125
vt 0.71875 0.46875
vt 0.703125 0.46875
vt 0.703125 0.453125
vt 0.71875 0.421875
vt 0.71875 0.4375
vt 0.703125 0.4375
vt 0.703125 0.421875
vt 0.609375 0.28125
vt 0.609375 0.296875
vt 0.59375 0.296875
vt 0.59375 0.28125
vt 0.71875 0.40625
vt 0.703125 0.40625
vt 0.703125 0.390625
vt 0.71875 0.390625
vt 0.625 0.28125
vt 0.640625 0.28125
vt 0.640625 0.296875
vt 0.625 0.296875
vt 0.59375 0.4375
vt 0.5625 0.4375
vt 0.5625 0.421875
vt 0.59375 0.421875
vt 0.15625 0.40625
vt 0.15625 0.421875
vt 0.125 0.421875
vt 0.125 0.40625
vt 0.3125 0.96875
vt 0.3125 1
vt 0.09375 1
vt 0.09375 0.96875
vt 0.34375 0.578125
vt 0.34375 0.59375
vt 0.125 0.59375
vt 0.125 0.578125
vt 0.625 0.796875
vt 0.40625 0.796875
vt 0.40625 0.78125
vt 0.625 0.78125
vt 0.09375 0.921875
vt 0.3125 0.921875
vt 0.3125 0.953125
vt 0.09375 0.953125
vt 0.609375 0.921875
vt 0.359375 0.921875
vt 0.359375 0.90625
vt 0.609375 0.90625
vt 0.609375 0.875
vt 0.609375 0.890625
vt 0.359375 0.890625
vt 0.359375 0.875
vt 0.03125 0.75
vt 0.03125 1
vt 0 1
vt 0 0.75
vt 0.203125 0.390625
vt 0.203125 0.40625
vt 0.171875 0.40625
vt 0.171875 0.390625
vt 0.25 0.40625
vt 0.21875 0.40625
vt 0.21875 0.390625
vt 0.25 0.390625
vt 0.046875 0.75
vt 0.078125 0.75
vt 0.078125 1
vt 0.046875 1
vt 0.609375 0.859375
vt 0.359375 0.859375
vt 0.359375 0.84375
vt 0.609375 0.84375
vt 0.609375 0.8125
vt 0.609375 0.828125
vt 0.359375 0.828125
vt 0.359375 0.8125
vt 0.015625 0.40625
vt 0.015625 0.65625
vt 0 0.65625
vt 0 0.40625
vt 0.671875 0.28125
vt 0.671875 0.296875
vt 0.65625 0.296875
vt 0.65625 0.28125
vt 0.734375 1
vt 0.71875 1
vt 0.71875 0.984375
vt 0.734375 0.984375
vt 0.03125 0.40625
vt 0.046875 0.40625
vt 0.046875 0.65625
vt 0.03125 0.65625
vn 1 0 0
vn -1 0 0
vn 0 -1 0
vn 0 0 1
vn 0 0 -1
vn 0 1 0
vn 1 0 0
vn -1 0 0
vn 0 -1 0
vn 0 0 1
vn 0 0 -1
vn 0 1 0
vn 1 0 0
vn -1 0 0
vn 0 -1 0
vn 0 0 1
vn 0 0 -1
vn 0 1 0
vn 1 0 0
vn -1 0 0
vn 0 -1 0
vn 0 0 1
vn 0 0 -1
vn 0 1 0
vn 1 0 0
vn -1 0 0
vn 0 -1 0
vn 0 0 1
vn 0 0 -1
vn 0 1 0
vn 1 0 0
vn -1 0 0
vn 0 -1 0
vn 0 0 1
vn 0 0 -1
vn 0 1 0
vn 1 0 0
vn -1 0 0
vn 0 -1 0
vn 0 0 1
vn 0 0 -1
vn 0 1 0
vn 1 0 0
vn -1 0 0
vn 0 -1 0
vn 0 0 1
vn 0 0 -1
vn 0 1 0
vn 1 0 0
vn -1 0 0
vn 0 -1 0
vn 0 0 1
vn 0 0 -1
vn 0 1 0
vn 1 0 0
vn -1 0 0
vn 0 -1 0
vn 0 0 1
vn 0 0 -1
vn 0 1 0
vn 1 0 0
vn -1 0 0
vn 0 -1 0
vn 0 0 1
vn 0 0 -1
vn 0 1 0
vn 1 0 0
vn -1 0 0
vn 0 -1 0
vn 0 0 1
vn 0 0 -1
vn 0 1 0
vn 1 0 0
vn -1 0 0
vn 0 -1 0
vn 0 0 1
vn 0 0 -1
vn 0 1 0
vn 1 0 0
vn -1 0 0
vn 0 -1 0
vn 0 0 1
vn 0 0 -1
vn 0 1 0
vn 1 0 0
vn -1 0 0
vn 0 -1 0
vn 0 0 1
vn 0 0 -1
vn 0 1 0
vn 1 0 0
vn -1 0 0
vn 0 -1 0
vn 0 0 1
vn 0 0 -1
vn 0 1 0
vn 1 0 0
vn -1 0 0
vn 0 -1 0
vn 0 0 1
vn 0 0 -1
vn 0 1 0
vn 1 0 0
vn -1 0 0
vn 0 -1 0
vn 0 0 1
vn 0 0 -1
vn 0 1 0
vn 1 0 0
vn -1 0 0
vn 0 -1 0
vn 0 0 1
vn 0 0 -1
vn 0 1 0
vn 1 0 0
vn -1 0 0
vn 0 -1 0
vn 0 0 1
vn 0 0 -1
vn 0 1 0
vn 1 0 0
vn -1 0 0
vn 0 -1 0
vn 0 0 1
vn 0 0 -1
vn 0 1 0
vn 1 0 0
vn -1 0 0
vn 0 -1 0
vn 0 0 1
vn 0 0 -1
vn 0 1 0
vn 1 0 0
vn -1 0 0
vn 0 -1 0
vn 0 0 1
vn 0 0 -1
vn 0 1 0
vn 1 0 0
vn -1 0 0
vn 0 -1 0
vn 0 0 1
vn 0 0 -1
vn 0 1 0
vn 1 0 0
vn -1 0 0
vn 0 -1 0
vn 0 0 1
vn 0 0 -1
vn 0 1 0
vn 1 0 0
vn -1 0 0
vn 0 -1 0
vn 0 0 1
vn 0 0 -1
vn 0 1 0
vn 1 0 0
vn -1 0 0
vn 0 -1 0
vn 0 0 1
vn 0 0 -1
vn 0 1 0
vn 1 0 0
vn -1 0 0
vn 0 -1 0
vn 0 0 1
vn 0 0 -1
vn 0 1 0
vn 1 0 0
vn -1 0 0
vn 0 -1 0
vn 0 0 1
vn 0 0 -1
vn 0 1 0
vn 1 0 0
vn -1 0 0
vn 0 -1 0
vn 0 0 1
vn 0 0 -1
vn 0 1 0
vn 1 0 0
vn -1 0 0
vn 0 -1 0
vn 0 0 1
vn 0 0 -1
vn 0 1 0
vn 1 0 0
vn -1 0 0
vn 0 -1 0
vn 0 0 1
vn 0 0 -1
vn 0 1 0
vn 1 0 0
vn -1 0 0
vn 0 -1 0
vn 0 0 1
vn 0 0 -1
vn 0 1 0
vn 1 0 0
vn -1 0 0
vn 0 -1 0
vn 0 0 1
vn 0 0 -1
vn 0 1 0
vn 1 0 0
vn -1 0 0
vn 0 -1 0
vn 0 0 1
vn 0 0 -1
vn 0 1 0
vn 1 0 0
vn -1 0 0
vn 0 -1 0
vn 0 0 1
vn 0 0 -1
vn 0 1 0
vn 1 0 0
vn -1 0 0
vn 0 -1 0
vn 0 0 1
vn 0 0 -1
vn 0 1 0
vn 1 0 0
vn -1 0 0
vn 0 -1 0
vn 0 0 1
vn 0 0 -1
vn 0 1 0
usemtl m_08647e5c-f77c-0e41-9129-3dbebd1c25d1
f 3/1/1 2/2/1 4/3/1 5/4/1
f 8/5/2 6/6/2 7/7/2 9/8/2
f 5/9/3 4/10/3 8/11/3 9/12/3
f 4/13/4 2/14/4 6/15/4 8/16/4
f 7/17/5 3/18/5 5/19/5 9/20/5
f 6/21/6 2/22/6 3/23/6 7/24/6
f 11/25/7 10/26/7 12/27/7 13/28/7
f 16/29/8 14/30/8 15/31/8 17/32/8
f 13/33/9 12/34/9 16/35/9 17/36/9
f 12/37/10 10/38/10 14/39/10 16/40/10
f 15/41/11 11/42/11 13/43/11 17/44/11
f 14/45/12 10/46/12 11/47/12 15/48/12
f 19/49/13 18/50/13 20/51/13 21/52/13
f 24/53/14 22/54/14 23/55/14 25/56/14
f 21/57/15 20/58/15 24/59/15 25/60/15
f 20/61/16 18/62/16 22/63/16 24/64/16
f 23/65/17 19/66/17 21/67/17 25/68/17
f 22/69/18 18/70/18 19/71/18 23/72/18
f 27/73/19 26/74/19 28/75/19 29/76/19
f 32/77/20 30/78/20 31/79/20 33/80/20
f 29/81/21 28/82/21 32/83/21 33/84/21
f 28/85/22 26/86/22 30/87/22 32/88/22
f 31/89/23 27/90/23 29/91/23 33/92/23
f 30/93/24 26/94/24 27/95/24 31/96/24
f 35/97/25 34/98/25 36/99/25 37/100/25
f 40/101/26 38/102/26 39/103/26 41/104/26
f 37/105/27 36/106/27 40/107/27 41/108/27
f 36/109/28 34/110/28 38/111/28 40/112/28
f 39/113/29 35/114/29 37/115/29 41/116/29
f 38/117/30 34/118/30 35/119/30 39/120/30
f 43/121/31 42/122/31 44/123/31 45/124/31
f 48/125/32 46/126/32 47/127/32 49/128/32
f 45/129/33 44/130/33 48/131/33 49/132/33
f 44/133/34 42/134/34 46/135/34 48/136/34
f 47/137/35 43/138/35 45/139/35 49/140/35
f 46/141/36 42/142/36 43/143/36 47/144/36
f 51/145/37 50/146/37 52/147/37 53/148/37
f 56/149/38 54/150/38 55/151/38 57/152/38
f 53/153/39 52/154/39 56/155/39 57/156/39
f 52/157/40 50/158/40 54/159/40 56/160/40
f 55/161/41 51/162/41 53/163/41 57/164/41
f 54/165/42 50/166/42 51/167/42 55/168/42
f 59/169/43 58/170/43 60/171/43 61/172/43
f 64/173/44 62/174/44 63/175/44 65/176/44
f 61/177/45 60/178/45 64/179/45 65/180/45
f 60/181/46 58/182/46 62/183/46 64/184/46
f 63/185/47 59/186/47 61/187/47 65/188/47
f 62/189/48 58/190/48 59/191/48 63/192/48
f 67/193/49 66/194/49 68/195/49 69/196/49
f 72/197/50 70/198/50 71/199/50 73/200/50
f 69/201/51 68/202/51 72/203/51 73/204/51
f 68/205/52 66/206/52 70/207/52 72/208/52
f 71/209/53 67/210/53 69/211/53 73/212/53
f 70/213/54 66/214/54 67/215/54 71/216/54
f 75/217/55 74/218/55 76/219/55 77/220/55
f 80/221/56 78/222/56 79/223/56 81/224/56
f 77/225/57 76/226/57 80/227/57 81/228/57
f 76/229/58 74/230/58 78/231/58 80/232/58
f 79/233/59 75/234/59 77/235/59 81/236/59
f 78/237/60 74/238/60 75/239/60 79/240/60
f 83/241/61 82/242/61 84/243/61 85/244/61
f 88/245/62 86/246/62 87/247/62 89/248/62
f 85/249/63 84/250/63 88/251/63 89/252/63
f 84/253/64 82/254/64 86/255/64 88/256/64
f 87/257/65 83/258/65 85/259/65 89/260/65
f 86/261/66 82/262/66 83/263/66 87/264/66
f 91/265/67 90/266/67 92/267/67 93/268/67
f 96/269/68 94/270/68 95/271/68 97/272/68
f 93/273/69 92/274/69 96/275/69 97/276/69
f 92/277/70 90/278/70 94/279/70 96/280/70
f 95/281/71 91/282/71 93/283/71 97/284/71
f 94/285/72 90/286/72 91/287/72 95/288/72
f 99/289/73 98/290/73 100/291/73 101/292/73
f 104/293/74 102/294/74 103/295/74 105/296/74
f 101/297/75 100/298/75 104/299/75 105/300/75
f 100/301/76 98/302/76 102/303/76 104/304/76
f 103/305/77 99/306/77 101/307/77 105/308/77
f 102/309/78 98/310/78 99/311/78 103/312/78
f 107/313/79 106/314/79 108/315/79 109/316/79
f 112/317/80 110/318/80 111/319/80 113/320/80
f 109/321/81 108/322/81 112/323/81 113/324/81
f 108/325/82 106/326/82 110/327/82 112/328/82
f 111/329/83 107/330/83 109/331/83 113/332/83
f 110/333/84 106/334/84 107/335/84 111/336/84
f 115/337/85 114/338/85 116/339/85 117/340/85
f 120/341/86 118/342/86 119/343/86 121/344/86
f 117/345/87 116/346/87 120/347/87 121/348/87
f 116/349/88 114/350/88 118/351/88 120/352/88
f 119/353/89 115/354/89 117/355/89 121/356/89
f 118/357/90 114/358/90 115/359/90 119/360/90
f 123/361/91 122/362/91 124/363/91 125/364/91
f 128/365/92 126/366/92 127/367/92 129/368/92
f 125/369/93 124/370/93 128/371/93 129/372/93
f 124/373/94 122/374/94 126/375/94 128/376/94
f 127/377/95 123/378/95 125/379/95 129/380/95
f 126/381/96 122/382/96 123/383/96 127/384/96
f 131/385/97 130/386/97 132/387/97 133/388/97
f 136/389/98 134/390/98 135/391/98 137/392/98
f 133/393/99 132/394/99 136/395/99 137/396/99
f 132/397/100 130/398/100 134/399/100 136/400/100
f 135/401/101 131/402/101 133/403/101 137/404/101
f 134/405/102 130/406/102 131/407/102 135/408/102
f 139/409/103 138/410/103 140/411/103 141/412/103
f 144/413/104 142/414/104 143/415/104 145/416/104
f 141/417/105 140/418/105 144/419/105 145/420/105
f 140/421/106 138/422/106 142/423/106 144/424/106
f 143/425/107 139/426/107 141/427/107 145/428/107
f 142/429/108 138/430/108 139/431/108 143/432/108
f 147/433/109 146/434/109 148/435/109 149/436/109
f 152/437/110 150/438/110 151/439/110 153/440/110
f 149/441/111 148/442/111 152/443/111 153/444/111
f 148/445/112 146/446/112 150/447/112 152/448/112
f 151/449/113 147/450/113 149/451/113 153/452/113
f 150/453/114 146/454/114 147/455/114 151/456/114
f 155/457/115 154/458/115 156/459/115 157/460/115
f 160/461/116 158/462/116 159/463/116 161/464/116
f 157/465/117 156/466/117 160/467/117 161/468/117
f 156/469/118 154/470/118 158/471/118 160/472/118
f 159/473/119 155/474/119 157/475/119 161/476/119
f 158/477/120 154/478/120 155/479/120 159/480/120
f 163/481/121 162/482/121 164/483/121 165/484/121
f 168/485/122 166/486/122 167/487/122 169/488/122
f 165/489/123 164/490/123 168/491/123 169/492/123
f 164/493/124 162/494/124 166/495/124 168/496/124
f 167/497/125 163/498/125 165/499/125 169/500/125
f 166/501/126 162/502/126 163/503/126 167/504/126
f 171/505/127 170/506/127 172/507/127 173/508/127
f 176/509/128 174/510/128 175/511/128 177/512/128
f 173/513/129 172/514/129 176/515/129 177/516/129
f 172/517/130 170/518/130 174/519/130 176/520/130
f 175/521/131 171/522/131 173/523/131 177/524/131
f 174/525/132 170/526/132 171/527/132 175/528/132
f 179/529/133 178/530/133 180/531/133 181/532/133
f 184/533/134 182/534/134 183/535/134 185/536/134
f 181/537/135 180/538/135 184/539/135 185/540/135
f 180/541/136 178/542/136 182/543/136 184/544/136
f 183/545/137 179/546/137 181/547/137 185/548/137
f 182/549/138 178/550/138 179/551/138 183/552/138
f 187/553/139 186/554/139 188/555/139 189/556/139
f 192/557/140 190/558/140 191/559/140 193/560/140
f 189/561/141 188/562/141 192/563/141 193/564/141
f 188/565/142 186/566/142 190/567/142 192/568/142
f 191/569/143 187/570/143 189/571/143 193/572/143
f 190/573/144 186/574/144 187/575/144 191/576/144
f 195/577/145 194/578/145 196/579/145 197/580/145
f 200/581/146 198/582/146 199/583/146 201/584/146
f 197/585/147 196/586/147 200/587/147 201/588/147
f 196/589/148 194/590/148 198/591/148 200/592/148
f 199/593/149 195/594/149 197/595/149 201/596/149
f 198/597/150 194/598/150 195/599/150 199/600/150
f 203/601/151 202/602/151 204/603/151 205/604/151
f 208/605/152 206/606/152 207/607/152 209/608/152
f 205/609/153 204/610/153 208/611/153 209/612/153
f 204/613/154 202/614/154 206/615/154 208/616/154
f 207/617/155 203/618/155 205/619/155 209/620/155
f 206/621/156 202/622/156 203/623/156 207/624/156
f 211/625/157 210/626/157 212/627/157 213/628/157
f 216/629/158 214/630/158 215/631/158 217/632/158
f 213/633/159 212/634/159 216/635/159 217/636/159
f 212/637/160 210/638/160 214/639/160 216/640/160
f 215/641/161 211/642/161 213/643/161 217/644/161
f 214/645/162 210/646/162 211/647/162 215/648/162
f 219/649/163 218/650/163 220/651/163 221/652/163
f 224/653/164 222/654/164 223/655/164 225/656/164
f 221/657/165 220/658/165 224/659/165 225/660/165
f 220/661/166 218/662/166 222/663/166 224/664/166
f 223/665/167 219/666/167 221/667/167 225/668/167
f 222/669/168 218/670/168 219/671/168 223/672/168
f 227/673/169 226/674/169 228/675/169 229/676/169
f 232/677/170 230/678/170 231/679/170 233/680/170
f 229/681/171 228/682/171 232/683/171 233/684/171
f 228/685/172 226/686/172 230/687/172 232/688/172
f 231/689/173 227/690/173 229/691/173 233/692/173
f 230/693/174 226/694/174 227/695/174 231/696/174
f 235/697/175 234/698/175 236/699/175 237/700/175
f 240/701/176 238/702/176 239/703/176 241/704/176
f 237/705/177 236/706/177 240/707/177 241/708/177
f 236/709/178 234/710/178 238/711/178 240/712/178
f 239/713/179 235/714/179 237/715/179 241/716/179
f 238/717/180 234/718/180 235/719/180 239/720/180
f 243/721/181 242/722/181 244/723/181 245/724/181
f 248/725/182 246/726/182 247/727/182 249/728/182
f 245/729/183 244/730/183 248/731/183 249/732/183
f 244/733/184 242/734/184 246/735/184 248/736/184
f 247/737/185 243/738/185 245/739/185 249/740/185
f 246/741/186 242/742/186 243/743/186 247/744/186
f 251/745/187 250/746/187 252/747/187 253/748/187
f 256/749/188 254/750/188 255/751/188 257/752/188
f 253/753/189 252/754/189 256/755/189 257/756/189
f 252/757/190 250/758/190 254/759/190 256/760/190
f 255/761/191 251/762/191 253/763/191 257/764/191
f 254/765/192 250/766/192 251/767/192 255/768/192
f 259/769/193 258/770/193 260/771/193 261/772/193
f 264/773/194 262/774/194 263/775/194 265/776/194
f 261/777/195 260/778/195 264/779/195 265/780/195
f 260/781/196 258/782/196 262/783/196 264/784/196
f 263/785/197 259/786/197 261/787/197 265/788/197
f 262/789/198 258/790/198 259/791/198 263/792/198
f 267/793/199 266/794/199 268/795/199 269/796/199
f 1/797/200 270/798/200 271/799/200 272/800/200
f 269/801/201 268/802/201 1/803/201 272/804/201
f 268/805/202 266/806/202 270/807/202 1/808/202
f 271/809/203 267/810/203 269/811/203 272/812/203
f 270/813/204 266/814/204 267/815/204 271/816/204
f 274/817/205 273/818/205 275/819/205 276/820/205
f 279/821/206 277/822/206 278/823/206 280/824/206
f 276/825/207 275/826/207 279/827/207 280/828/207
f 275/829/208 273/830/208 277/831/208 279/832/208
f 278/833/209 274/834/209 276/835/209 280/836/209
f 277/837/210 273/838/210 274/839/210 278/840/210
f 282/841/211 281/842/211 283/843/211 284/844/211
f 287/845/212 285/846/212 286/847/212 288/848/212
f 284/849/213 283/850/213 287/851/213 288/852/213
f 283/853/214 281/854/214 285/855/214 287/856/214
f 286/857/215 282/858/215 284/859/215 288/860/215
f 285/861/216 281/862/216 282/863/216 286/864/216
f 290/865/217 289/866/217 291/867/217 292/868/217
f 295/869/218 293/870/218 294/871/218 296/872/218
f 292/873/219 291/874/219 295/875/219 296/876/219
f 291/877/220 289/878/220 293/879/220 295/880/220
f 294/881/221 290/882/221 292/883/221 296/884/221
f 293/885/222 289/886/222 290/887/222 294/888/222
f 298/889/223 297/890/223 299/891/223 300/892/223
f 303/893/224 301/894/224 302/895/224 304/896/224
f 300/897/225 299/898/225 303/899/225 304/900/225
f 299/901/226 297/902/226 301/903/226 303/904/226
f 302/905/227 298/906/227 300/907/227 304/908/227
f 301/909/228 297/910/228 298/911/228 302/912/228