# Made in Blockbench 5.0.7
mtllib liftplatmiddle.mtl

o mesh
v -0.125 0.125 -0.0625
v -0.125 0.125 -0.125
v -0.125 0.0625 -0.0625
v -0.125 0.0625 -0.125
v -0.1875 0.125 -0.0625
v -0.1875 0.125 -0.125
v -0.1875 0.0625 -0.0625
v -0.1875 0.0625 -0.125
v -0.375 0.125 0.5
v -0.375 0.125 0.375
v -0.375 0.0625 0.5
v -0.375 0.0625 0.375
v -0.5 0.125 0.5
v -0.5 0.125 0.375
v -0.5 0.0625 0.5
v -0.5 0.0625 0.375
v -0.375 0.125 -0.375
v -0.375 0.125 -0.5
v -0.375 0.0625 -0.375
v -0.375 0.0625 -0.5
v -0.5 0.125 -0.375
v -0.5 0.125 -0.5
v -0.5 0.0625 -0.375
v -0.5 0.0625 -0.5
v -0.125 0.125 -0.125
v -0.125 0.125 -0.375
v -0.125 0.0625 -0.125
v -0.125 0.0625 -0.375
v -0.375 0.125 -0.125
v -0.375 0.125 -0.375
v -0.375 0.0625 -0.125
v -0.375 0.0625 -0.375
v 0.375 0.125 -0.125
v 0.375 0.125 -0.375
v 0.375 0.0625 -0.125
v 0.375 0.0625 -0.375
v 0.125 0.125 -0.125
v 0.125 0.125 -0.375
v 0.125 0.0625 -0.125
v 0.125 0.0625 -0.375
v 0.375 0.125 0.375
v 0.375 0.125 0.125
v 0.375 0.0625 0.375
v 0.375 0.0625 0.125
v 0.125 0.125 0.375
v 0.125 0.125 0.125
v 0.125 0.0625 0.375
v 0.125 0.0625 0.125
v 0.125 0.125 0.125
v 0.125 0.125 -0.125
v 0.125 0.0625 0.125
v 0.125 0.0625 -0.125
v -0.125 0.125 0.125
v -0.125 0.125 -0.125
v -0.125 0.0625 0.125
v -0.125 0.0625 -0.125
v -0.125 0.125 0.375
v -0.125 0.125 0.125
v -0.125 0.0625 0.375
v -0.125 0.0625 0.125
v -0.375 0.125 0.375
v -0.375 0.125 0.125
v -0.375 0.0625 0.375
v -0.375 0.0625 0.125
v 0.125 0.125 0.5
v 0.125 0.125 0.375
v 0.125 0.0625 0.5
v 0.125 0.0625 0.375
v -0.125 0.125 0.5
v -0.125 0.125 0.375
v -0.125 0.0625 0.5
v -0.125 0.0625 0.375
v 0.125 0.125 -0.375
v 0.125 0.125 -0.5
v 0.125 0.0625 -0.375
v 0.125 0.0625 -0.5
v -0.125 0.125 -0.375
v -0.125 0.125 -0.5
v -0.125 0.0625 -0.375
v -0.125 0.0625 -0.5
v 0.5 0.125 0.125
v 0.5 0.125 -0.125
v 0.5 0.0625 0.125
v 0.5 0.0625 -0.125
v 0.375 0.125 0.125
v 0.375 0.125 -0.125
v 0.375 0.0625 0.125
v 0.375 0.0625 -0.125
v -0.375 0.125 0.125
v -0.375 0.125 -0.125
v -0.375 0.0625 0.125
v -0.375 0.0625 -0.125
v -0.5 0.125 0.125
v -0.5 0.125 -0.125
v -0.5 0.0625 0.125
v -0.5 0.0625 -0.125
v 0.5 0.125 -0.375
v 0.5 0.125 -0.5
v 0.5 0.0625 -0.375
v 0.5 0.0625 -0.5
v 0.375 0.125 -0.375
v 0.375 0.125 -0.5
v 0.375 0.0625 -0.375
v 0.375 0.0625 -0.5
v 0.4375 0.125 0.375
v 0.4375 0.125 0.3125
v 0.4375 0.0625 0.375
v 0.4375 0.0625 0.3125
v 0.375 0.125 0.375
v 0.375 0.125 0.3125
v 0.375 0.0625 0.375
v 0.375 0.0625 0.3125
v 0.4375 0.125 -0.3125
v 0.4375 0.125 -0.375
v 0.4375 0.0625 -0.3125
v 0.4375 0.0625 -0.375
v 0.375 0.125 -0.3125
v 0.375 0.125 -0.375
v 0.375 0.0625 -0.3125
v 0.375 0.0625 -0.375
v -0.375 0.125 -0.3125
v -0.375 0.125 -0.375
v -0.375 0.0625 -0.3125
v -0.375 0.0625 -0.375
v -0.4375 0.125 -0.3125
v -0.4375 0.125 -0.375
v -0.4375 0.0625 -0.3125
v -0.4375 0.0625 -0.375
v 0.4375 0.125 -0.125
v 0.4375 0.125 -0.1875
v 0.4375 0.0625 -0.125
v 0.4375 0.0625 -0.1875
v 0.375 0.125 -0.125
v 0.375 0.125 -0.1875
v 0.375 0.0625 -0.125
v 0.375 0.0625 -0.1875
v -0.375 0.125 -0.125
v -0.375 0.125 -0.1875
v -0.375 0.0625 -0.125
v -0.375 0.0625 -0.1875
v -0.4375 0.125 -0.125
v -0.4375 0.125 -0.1875
v -0.4375 0.0625 -0.125
v -0.4375 0.0625 -0.1875
v 0.4375 0.125 0.1875
v 0.4375 0.125 0.125
v 0.4375 0.0625 0.1875
v 0.4375 0.0625 0.125
v 0.375 0.125 0.1875
v 0.375 0.125 0.125
v 0.375 0.0625 0.1875
v 0.375 0.0625 0.125
v -0.375 0.125 0.1875
v -0.375 0.125 0.125
v -0.375 0.0625 0.1875
v -0.375 0.0625 0.125
v -0.4375 0.125 0.1875
v -0.4375 0.125 0.125
v -0.4375 0.0625 0.1875
v -0.4375 0.0625 0.125
v -0.375 0.125 0.375
v -0.375 0.125 0.3125
v -0.375 0.0625 0.375
v -0.375 0.0625 0.3125
v -0.4375 0.125 0.375
v -0.4375 0.125 0.3125
v -0.4375 0.0625 0.375
v -0.4375 0.0625 0.3125
v -0.3125 0.125 0.4375
v -0.3125 0.125 0.375
v -0.3125 0.0625 0.4375
v -0.3125 0.0625 0.375
v -0.375 0.125 0.4375
v -0.375 0.125 0.375
v -0.375 0.0625 0.4375
v -0.375 0.0625 0.375
v -0.125 0.125 0.125
v -0.125 0.125 0.0625
v -0.125 0.0625 0.125
v -0.125 0.0625 0.0625
v -0.1875 0.125 0.125
v -0.1875 0.125 0.0625
v -0.1875 0.0625 0.125
v -0.1875 0.0625 0.0625
v -0.3125 0.125 -0.0625
v -0.3125 0.125 -0.125
v -0.3125 0.0625 -0.0625
v -0.3125 0.0625 -0.125
v -0.375 0.125 -0.0625
v -0.375 0.125 -0.125
v -0.375 0.0625 -0.0625
v -0.375 0.0625 -0.125
v -0.3125 0.125 0.125
v -0.3125 0.125 0.0625
v -0.3125 0.0625 0.125
v -0.3125 0.0625 0.0625
v -0.375 0.125 0.125
v -0.375 0.125 0.0625
v -0.375 0.0625 0.125
v -0.375 0.0625 0.0625
v 0.375 0.125 -0.0625
v 0.375 0.125 -0.125
v 0.375 0.0625 -0.0625
v 0.375 0.0625 -0.125
v 0.3125 0.125 -0.0625
v 0.3125 0.125 -0.125
v 0.3125 0.0625 -0.0625
v 0.3125 0.0625 -0.125
v 0.375 0.125 0.125
v 0.375 0.125 0.0625
v 0.375 0.0625 0.125
v 0.375 0.0625 0.0625
v 0.3125 0.125 0.125
v 0.3125 0.125 0.0625
v 0.3125 0.0625 0.125
v 0.3125 0.0625 0.0625
v -0.0625 0.125 0.1875
v -0.0625 0.125 0.125
v -0.0625 0.0625 0.1875
v -0.0625 0.0625 0.125
v -0.125 0.125 0.1875
v -0.125 0.125 0.125
v -0.125 0.0625 0.1875
v -0.125 0.0625 0.125
v 0.375 0.125 0.4375
v 0.375 0.125 0.375
v 0.375 0.0625 0.4375
v 0.375 0.0625 0.375
v 0.3125 0.125 0.4375
v 0.3125 0.125 0.375
v 0.3125 0.0625 0.4375
v 0.3125 0.0625 0.375
v 0.1875 0.125 0.125
v 0.1875 0.125 0.0625
v 0.1875 0.0625 0.125
v 0.1875 0.0625 0.0625
v 0.125 0.125 0.125
v 0.125 0.125 0.0625
v 0.125 0.0625 0.125
v 0.125 0.0625 0.0625
v 0.125 0.125 0.1875
v 0.125 0.125 0.125
v 0.125 0.0625 0.1875
v 0.125 0.0625 0.125
v 0.0625 0.125 0.1875
v 0.0625 0.125 0.125
v 0.0625 0.0625 0.1875
v 0.0625 0.0625 0.125
v 0.375 0.125 -0.375
v 0.375 0.125 -0.4375
v 0.375 0.0625 -0.375
v 0.375 0.0625 -0.4375
v 0.3125 0.125 -0.375
v 0.3125 0.125 -0.4375
v 0.3125 0.0625 -0.375
v 0.3125 0.0625 -0.4375
v 0.1875 0.125 0.4375
v 0.1875 0.125 0.375
v 0.1875 0.0625 0.4375
v 0.1875 0.0625 0.375
v 0.125 0.125 0.4375
v 0.125 0.125 0.375
v 0.125 0.0625 0.4375
v 0.125 0.0625 0.375
v 0.1875 0.125 -0.375
v 0.1875 0.125 -0.4375
v 0.1875 0.0625 -0.375
v 0.1875 0.0625 -0.4375
v 0.125 0.125 -0.375
v 0.125 0.125 -0.4375
v 0.125 0.0625 -0.375
v 0.125 0.0625 -0.4375
v 0.1875 0.125 -0.0625
v 0.1875 0.125 -0.125
v 0.1875 0.0625 -0.0625
v 0.1875 0.0625 -0.125
v 0.125 0.125 -0.0625
v 0.125 0.125 -0.125
v 0.125 0.0625 -0.0625
v 0.125 0.0625 -0.125
v 0.125 0.125 -0.125
v 0.125 0.125 -0.1875
v 0.125 0.0625 -0.125
v 0.125 0.0625 -0.1875
v 0.0625 0.125 -0.125
v 0.0625 0.125 -0.1875
v 0.0625 0.0625 -0.125
v 0.0625 0.0625 -0.1875
v -0.0625 0.125 -0.3125
v -0.0625 0.125 -0.375
v -0.0625 0.0625 -0.3125
v -0.0625 0.0625 -0.375
v -0.125 0.125 -0.3125
v -0.125 0.125 -0.375
v -0.125 0.0625 -0.3125
v -0.125 0.0625 -0.375
v 0.125 0.125 -0.3125
v 0.125 0.125 -0.375
v 0.125 0.0625 -0.3125
v 0.125 0.0625 -0.375
v 0.0625 0.125 -0.3125
v 0.0625 0.125 -0.375
v 0.0625 0.0625 -0.3125
v 0.0625 0.0625 -0.375
v -0.0625 0.125 0.375
v -0.0625 0.125 0.3125
v -0.0625 0.0625 0.375
v -0.0625 0.0625 0.3125
v -0.125 0.125 0.375
v -0.125 0.125 0.3125
v -0.125 0.0625 0.375
v -0.125 0.0625 0.3125
v 0.125 0.125 0.375
v 0.125 0.125 0.3125
v 0.125 0.0625 0.375
v 0.125 0.0625 0.3125
v 0.0625 0.125 0.375
v 0.0625 0.125 0.3125
v 0.0625 0.0625 0.375
v 0.0625 0.0625 0.3125
v -0.3125 0.125 -0.375
v -0.3125 0.125 -0.4375
v -0.3125 0.0625 -0.375
v -0.3125 0.0625 -0.4375
v -0.375 0.125 -0.375
v -0.375 0.125 -0.4375
v -0.375 0.0625 -0.375
v -0.375 0.0625 -0.4375
v -0.125 0.125 0.4375
v -0.125 0.125 0.375
v -0.125 0.0625 0.4375
v -0.125 0.0625 0.375
v -0.1875 0.125 0.4375
v -0.1875 0.125 0.375
v -0.1875 0.0625 0.4375
v -0.1875 0.0625 0.375
v -0.125 0.125 -0.375
v -0.125 0.125 -0.4375
v -0.125 0.0625 -0.375
v -0.125 0.0625 -0.4375
v -0.1875 0.125 -0.375
v -0.1875 0.125 -0.4375
v -0.1875 0.0625 -0.375
v -0.1875 0.0625 -0.4375
v -0.0625 0.125 -0.125
v -0.0625 0.125 -0.1875
v -0.0625 0.0625 -0.125
v -0.0625 0.0625 -0.1875
v -0.125 0.125 -0.125
v -0.125 0.125 -0.1875
v -0.125 0.0625 -0.125
v -0.125 0.0625 -0.1875
v 0.5 0.125 0.5
v 0.5 0.125 0.375
v 0.5 0.0625 0.5
v 0.5 0.0625 0.375
v 0.375 0.125 0.5
v 0.375 0.125 0.375
v 0.375 0.0625 0.5
v 0.375 0.0625 0.375
vt 0.140625 0.71875
vt 0.125 0.71875
vt 0.125 0.703125
vt 0.140625 0.703125
vt 0.15625 0.53125
vt 0.15625 0.546875
vt 0.140625 0.546875
vt 0.140625 0.53125
vt 0.46875 0.828125
vt 0.46875 0.84375
vt 0.453125 0.84375
vt 0.453125 0.828125
vt 0.1875 0.53125
vt 0.1875 0.546875
vt 0.171875 0.546875
vt 0.171875 0.53125
vt 0.21875 0.546875
vt 0.203125 0.546875
vt 0.203125 0.53125
vt 0.21875 0.53125
vt 0.453125 0.703125
vt 0.46875 0.703125
vt 0.46875 0.71875
vt 0.453125 0.71875
vt 0.40625 0.609375
vt 0.375 0.609375
vt 0.375 0.59375
vt 0.40625 0.59375
vt 0.03125 0.578125
vt 0.03125 0.59375
vt 0 0.59375
vt 0 0.578125
vt 0.109375 0.6875
vt 0.109375 0.71875
vt 0.078125 0.71875
vt 0.078125 0.6875
vt 0.078125 0.578125
vt 0.078125 0.59375
vt 0.046875 0.59375
vt 0.046875 0.578125
vt 0.125 0.59375
vt 0.09375 0.59375
vt 0.09375 0.578125
vt 0.125 0.578125
vt 0.28125 0.828125
vt 0.3125 0.828125
vt 0.3125 0.859375
vt 0.28125 0.859375
vt 0.4375 0.875
vt 0.40625 0.875
vt 0.40625 0.859375
vt 0.4375 0.859375
vt 0.4375 0.828125
vt 0.4375 0.84375
vt 0.40625 0.84375
vt 0.40625 0.828125
vt 0.328125 0.78125
vt 0.328125 0.8125
vt 0.296875 0.8125
vt 0.296875 0.78125
vt 0.4375 0.703125
vt 0.4375 0.71875
vt 0.40625 0.71875
vt 0.40625 0.703125
vt 0.171875 0.578125
vt 0.140625 0.578125
vt 0.140625 0.5625
vt 0.171875 0.5625
vt 0.296875 0.734375
vt 0.328125 0.734375
vt 0.328125 0.765625
vt 0.296875 0.765625
vt 0.3125 0.703125
vt 0.25 0.703125
vt 0.25 0.6875
vt 0.3125 0.6875
vt 0.0625 0.671875
vt 0.0625 0.6875
vt 0 0.6875
vt 0 0.671875
vt 0.0625 0.9375
vt 0.0625 1
vt 0 1
vt 0 0.9375
vt 0.375 0.984375
vt 0.375 1
vt 0.3125 1
vt 0.3125 0.984375
vt 0.375 0.96875
vt 0.3125 0.96875
vt 0.3125 0.953125
vt 0.375 0.953125
vt 0 0.859375
vt 0.0625 0.859375
vt 0.0625 0.921875
vt 0 0.921875
vt 0.375 0.9375
vt 0.3125 0.9375
vt 0.3125 0.921875
vt 0.375 0.921875
vt 0.375 0.890625
vt 0.375 0.90625
vt 0.3125 0.90625
vt 0.3125 0.890625
vt 0.140625 0.9375
vt 0.140625 1
vt 0.078125 1
vt 0.078125 0.9375
vt 0.1875 0.671875
vt 0.1875 0.6875
vt 0.125 0.6875
vt 0.125 0.671875
vt 0.390625 0.875
vt 0.328125 0.875
vt 0.328125 0.859375
vt 0.390625 0.859375
vt 0.078125 0.859375
vt 0.140625 0.859375
vt 0.140625 0.921875
vt 0.078125 0.921875
vt 0.390625 0.84375
vt 0.328125 0.84375
vt 0.328125 0.828125
vt 0.390625 0.828125
vt 0.265625 0.65625
vt 0.265625 0.671875
vt 0.203125 0.671875
vt 0.203125 0.65625
vt 0.0625 0.78125
vt 0.0625 0.84375
vt 0 0.84375
vt 0 0.78125
vt 0.34375 0.65625
vt 0.34375 0.671875
vt 0.28125 0.671875
vt 0.28125 0.65625
vt 0.390625 0.71875
vt 0.328125 0.71875
vt 0.328125 0.703125
vt 0.390625 0.703125
vt 0.15625 0.9375
vt 0.21875 0.9375
vt 0.21875 1
vt 0.15625 1
vt 0.0625 0.65625
vt 0 0.65625
vt 0 0.640625
vt 0.0625 0.640625
vt 0.140625 0.640625
vt 0.140625 0.65625
vt 0.078125 0.65625
vt 0.078125 0.640625
vt 0.140625 0.78125
vt 0.140625 0.84375
vt 0.078125 0.84375
vt 0.078125 0.78125
vt 0.40625 0.796875
vt 0.40625 0.8125
vt 0.34375 0.8125
vt 0.34375 0.796875
vt 0.40625 0.78125
vt 0.34375 0.78125
vt 0.34375 0.765625
vt 0.40625 0.765625
vt 0.15625 0.859375
vt 0.21875 0.859375
vt 0.21875 0.921875
vt 0.15625 0.921875
vt 0.40625 0.75
vt 0.34375 0.75
vt 0.34375 0.734375
vt 0.40625 0.734375
vt 0.21875 0.625
vt 0.21875 0.640625
vt 0.15625 0.640625
vt 0.15625 0.625
vt 0.21875 0.78125
vt 0.21875 0.84375
vt 0.15625 0.84375
vt 0.15625 0.78125
vt 0.296875 0.625
vt 0.296875 0.640625
vt 0.234375 0.640625
vt 0.234375 0.625
vt 0.375 0.640625
vt 0.3125 0.640625
vt 0.3125 0.625
vt 0.375 0.625
vt 0 0.703125
vt 0.0625 0.703125
vt 0.0625 0.765625
vt 0 0.765625
vt 0.21875 0.578125
vt 0.1875 0.578125
vt 0.1875 0.5625
vt 0.21875 0.5625
vt 0.453125 0.796875
vt 0.453125 0.8125
vt 0.421875 0.8125
vt 0.421875 0.796875
vt 0.296875 0.96875
vt 0.296875 1
vt 0.234375 1
vt 0.234375 0.96875
vt 0.421875 0.671875
vt 0.421875 0.6875
vt 0.359375 0.6875
vt 0.359375 0.671875
vt 0.0625 0.625
vt 0 0.625
vt 0 0.609375
vt 0.0625 0.609375
vt 0.234375 0.921875
vt 0.296875 0.921875
vt 0.296875 0.953125
vt 0.234375 0.953125
vt 0.453125 0.78125
vt 0.421875 0.78125
vt 0.421875 0.765625
vt 0.453125 0.765625
vt 0.453125 0.734375
vt 0.453125 0.75
vt 0.421875 0.75
vt 0.421875 0.734375
vt 0.140625 0.734375
vt 0.140625 0.765625
vt 0.078125 0.765625
vt 0.078125 0.734375
vt 0.140625 0.609375
vt 0.140625 0.625
vt 0.078125 0.625
vt 0.078125 0.609375
vt 0.453125 1
vt 0.390625 1
vt 0.390625 0.984375
vt 0.453125 0.984375
vt 0.234375 0.875
vt 0.296875 0.875
vt 0.296875 0.90625
vt 0.234375 0.90625
vt 0.453125 0.96875
vt 0.390625 0.96875
vt 0.390625 0.953125
vt 0.453125 0.953125
vt 0.453125 0.921875
vt 0.453125 0.9375
vt 0.390625 0.9375
vt 0.390625 0.921875
vt 0.265625 0.796875
vt 0.265625 0.859375
vt 0.234375 0.859375
vt 0.234375 0.796875
vt 0.40625 0.5625
vt 0.40625 0.578125
vt 0.375 0.578125
vt 0.375 0.5625
vt 0.453125 0.609375
vt 0.421875 0.609375
vt 0.421875 0.59375
vt 0.453125 0.59375
vt 0.15625 0.703125
vt 0.1875 0.703125
vt 0.1875 0.765625
vt 0.15625 0.765625
vt 0.453125 0.90625
vt 0.390625 0.90625
vt 0.390625 0.890625
vt 0.453125 0.890625
vt 0.21875 0.59375
vt 0.21875 0.609375
vt 0.15625 0.609375
vt 0.15625 0.59375
vt 0.234375 0.703125
vt 0.234375 0.765625
vt 0.203125 0.765625
vt 0.203125 0.703125
vt 0.453125 0.5625
vt 0.453125 0.578125
vt 0.421875 0.578125
vt 0.421875 0.5625
vt 0.03125 0.5625
vt 0 0.5625
vt 0 0.546875
vt 0.03125 0.546875
vt 0.25 0.71875
vt 0.28125 0.71875
vt 0.28125 0.78125
vt 0.25 0.78125
vt 0.078125 0.5625
vt 0.046875 0.5625
vt 0.046875 0.546875
vt 0.078125 0.546875
vt 0.125 0.546875
vt 0.125 0.5625
vt 0.09375 0.5625
vt 0.09375 0.546875
vt 0.265625 0.578125
vt 0.265625 0.609375
vt 0.234375 0.609375
vt 0.234375 0.578125
vt 0.265625 0.546875
vt 0.265625 0.5625
vt 0.234375 0.5625
vt 0.234375 0.546875
vt 0.3125 0.5625
vt 0.28125 0.5625
vt 0.28125 0.546875
vt 0.3125 0.546875
vt 0.28125 0.578125
vt 0.3125 0.578125
vt 0.3125 0.609375
vt 0.28125 0.609375
vt 0.390625 0.546875
vt 0.375 0.546875
vt 0.375 0.53125
vt 0.390625 0.53125
vt 0.421875 0.53125
vt 0.421875 0.546875
vt 0.40625 0.546875
vt 0.40625 0.53125
vt 0.453125 0.53125
vt 0.453125 0.546875
vt 0.4375 0.546875
vt 0.4375 0.53125
vt 0.015625 0.515625
vt 0.015625 0.53125
vt 0 0.53125
vt 0 0.515625
vt 0.484375 1
vt 0.46875 1
vt 0.46875 0.984375
vt 0.484375 0.984375
vt 0.03125 0.515625
vt 0.046875 0.515625
vt 0.046875 0.53125
vt 0.03125 0.53125
vt 0.484375 0.96875
vt 0.46875 0.96875
vt 0.46875 0.953125
vt 0.484375 0.953125
vt 0.078125 0.515625
vt 0.078125 0.53125
vt 0.0625 0.53125
vt 0.0625 0.515625
vt 0.484375 0.921875
vt 0.484375 0.9375
vt 0.46875 0.9375
vt 0.46875 0.921875
vt 0.109375 0.515625
vt 0.109375 0.53125
vt 0.09375 0.53125
vt 0.09375 0.515625
vt 0.484375 0.90625
vt 0.46875 0.90625
vt 0.46875 0.890625
vt 0.484375 0.890625
vt 0.46875 0.796875
vt 0.484375 0.796875
vt 0.484375 0.8125
vt 0.46875 0.8125
vt 0.484375 0.78125
vt 0.46875 0.78125
vt 0.46875 0.765625
vt 0.484375 0.765625
vt 0.25 0.515625
vt 0.25 0.53125
vt 0.234375 0.53125
vt 0.234375 0.515625
vt 0.484375 0.734375
vt 0.484375 0.75
vt 0.46875 0.75
vt 0.46875 0.734375
vt 0.28125 0.515625
vt 0.28125 0.53125
vt 0.265625 0.53125
vt 0.265625 0.515625
vt 0.3125 0.53125
vt 0.296875 0.53125
vt 0.296875 0.515625
vt 0.3125 0.515625
vt 0.328125 0.515625
vt 0.34375 0.515625
vt 0.34375 0.53125
vt 0.328125 0.53125
vt 0.484375 0.625
vt 0.46875 0.625
vt 0.46875 0.609375
vt 0.484375 0.609375
vt 0.484375 0.578125
vt 0.484375 0.59375
vt 0.46875 0.59375
vt 0.46875 0.578125
vt 0.484375 0.546875
vt 0.484375 0.5625
vt 0.46875 0.5625
vt 0.46875 0.546875
vt 0.484375 0.515625
vt 0.484375 0.53125
vt 0.46875 0.53125
vt 0.46875 0.515625
vt 0.140625 0.515625
vt 0.125 0.515625
vt 0.125 0.5
vt 0.140625 0.5
vt 0.15625 0.5
vt 0.171875 0.5
vt 0.171875 0.515625
vt 0.15625 0.515625
vt 0.5 0.84375
vt 0.484375 0.84375
vt 0.484375 0.828125
vt 0.5 0.828125
vt 0.203125 0.5
vt 0.203125 0.515625
vt 0.1875 0.515625
vt 0.1875 0.5
vt 0.5 0.703125
vt 0.5 0.71875
vt 0.484375 0.71875
vt 0.484375 0.703125
vt 0.5 0.671875
vt 0.5 0.6875
vt 0.484375 0.6875
vt 0.484375 0.671875
vt 0.5 0.65625
vt 0.484375 0.65625
vt 0.484375 0.640625
vt 0.5 0.640625
vt 0.359375 0.5
vt 0.375 0.5
vt 0.375 0.515625
vt 0.359375 0.515625
vt 0.40625 0.515625
vt 0.390625 0.515625
vt 0.390625 0.5
vt 0.40625 0.5
vt 0.4375 0.5
vt 0.4375 0.515625
vt 0.421875 0.515625
vt 0.421875 0.5
vt 0.015625 0.484375
vt 0.015625 0.5
vt 0 0.5
vt 0 0.484375
vt 0.515625 0.984375
vt 0.515625 1
vt 0.5 1
vt 0.5 0.984375
vt 0.046875 0.5
vt 0.03125 0.5
vt 0.03125 0.484375
vt 0.046875 0.484375
vt 0.5 0.953125
vt 0.515625 0.953125
vt 0.515625 0.96875
vt 0.5 0.96875
vt 0.078125 0.5
vt 0.0625 0.5
vt 0.0625 0.484375
vt 0.078125 0.484375
vt 0.515625 0.921875
vt 0.515625 0.9375
vt 0.5 0.9375
vt 0.5 0.921875
vt 0.109375 0.484375
vt 0.109375 0.5
vt 0.09375 0.5
vt 0.09375 0.484375
vt 0.515625 0.890625
vt 0.515625 0.90625
vt 0.5 0.90625
vt 0.5 0.890625
vt 0.515625 0.875
vt 0.5 0.875
vt 0.5 0.859375
vt 0.515625 0.859375
vt 0.5 0.796875
vt 0.515625 0.796875
vt 0.515625 0.8125
vt 0.5 0.8125
vt 0.234375 0.5
vt 0.21875 0.5
vt 0.21875 0.484375
vt 0.234375 0.484375
vt 0.515625 0.765625
vt 0.515625 0.78125
vt 0.5 0.78125
vt 0.5 0.765625
vt 0.265625 0.484375
vt 0.265625 0.5
vt 0.25 0.5
vt 0.25 0.484375
vt 0.515625 0.734375
vt 0.515625 0.75
vt 0.5 0.75
vt 0.5 0.734375
vt 0.296875 0.5
vt 0.28125 0.5
vt 0.28125 0.484375
vt 0.296875 0.484375
vt 0.3125 0.484375
vt 0.328125 0.484375
vt 0.328125 0.5
vt 0.3125 0.5
vt 0.515625 0.625
vt 0.5 0.625
vt 0.5 0.609375
vt 0.515625 0.609375
vt 0.515625 0.578125
vt 0.515625 0.59375
vt 0.5 0.59375
vt 0.5 0.578125
vt 0.515625 0.546875
vt 0.515625 0.5625
vt 0.5 0.5625
vt 0.5 0.546875
vt 0.46875 0.484375
vt 0.46875 0.5
vt 0.453125 0.5
vt 0.453125 0.484375
vt 0.515625 0.53125
vt 0.5 0.53125
vt 0.5 0.515625
vt 0.515625 0.515625
vt 0.484375 0.484375
vt 0.5 0.484375
vt 0.5 0.5
vt 0.484375 0.5
vt 0.140625 0.484375
vt 0.125 0.484375
vt 0.125 0.46875
vt 0.140625 0.46875
vt 0.171875 0.46875
vt 0.171875 0.484375
vt 0.15625 0.484375
vt 0.15625 0.46875
vt 0.53125 0.828125
vt 0.53125 0.84375
vt 0.515625 0.84375
vt 0.515625 0.828125
vt 0.203125 0.46875
vt 0.203125 0.484375
vt 0.1875 0.484375
vt 0.1875 0.46875
vt 0.53125 0.71875
vt 0.515625 0.71875
vt 0.515625 0.703125
vt 0.53125 0.703125
vt 0.515625 0.671875
vt 0.53125 0.671875
vt 0.53125 0.6875
vt 0.515625 0.6875
vt 0.359375 0.484375
vt 0.34375 0.484375
vt 0.34375 0.46875
vt 0.359375 0.46875
vt 0.53125 0.640625
vt 0.53125 0.65625
vt 0.515625 0.65625
vt 0.515625 0.640625
vt 0.390625 0.46875
vt 0.390625 0.484375
vt 0.375 0.484375
vt 0.375 0.46875
vt 0.421875 0.46875
vt 0.421875 0.484375
vt 0.40625 0.484375
vt 0.40625 0.46875
vt 0.53125 0.5
vt 0.515625 0.5
vt 0.515625 0.484375
vt 0.53125 0.484375
vt 0 0.453125
vt 0.015625 0.453125
vt 0.015625 0.46875
vt 0 0.46875
vt 0.546875 1
vt 0.53125 1
vt 0.53125 0.984375
vt 0.546875 0.984375
vt 0.046875 0.453125
vt 0.046875 0.46875
vt 0.03125 0.46875
vt 0.03125 0.453125
vt 0.546875 0.953125
vt 0.546875 0.96875
vt 0.53125 0.96875
vt 0.53125 0.953125
vt 0.078125 0.453125
vt 0.078125 0.46875
vt 0.0625 0.46875
vt 0.0625 0.453125
vt 0.546875 0.9375
vt 0.53125 0.9375
vt 0.53125 0.921875
vt 0.546875 0.921875
vt 0.09375 0.453125
vt 0.109375 0.453125
vt 0.109375 0.46875
vt 0.09375 0.46875
vt 0.546875 0.90625
vt 0.53125 0.90625
vt 0.53125 0.890625
vt 0.546875 0.890625
vt 0.546875 0.859375
vt 0.546875 0.875
vt 0.53125 0.875
vt 0.53125 0.859375
vt 0.546875 0.796875
vt 0.546875 0.8125
vt 0.53125 0.8125
vt 0.53125 0.796875
vt 0.234375 0.453125
vt 0.234375 0.46875
vt 0.21875 0.46875
vt 0.21875 0.453125
vt 0.546875 0.78125
vt 0.53125 0.78125
vt 0.53125 0.765625
vt 0.546875 0.765625
vt 0.25 0.453125
vt 0.265625 0.453125
vt 0.265625 0.46875
vt 0.25 0.46875
vt 0.546875 0.75
vt 0.53125 0.75
vt 0.53125 0.734375
vt 0.546875 0.734375
vt 0.296875 0.453125
vt 0.296875 0.46875
vt 0.28125 0.46875
vt 0.28125 0.453125
vt 0.328125 0.453125
vt 0.328125 0.46875
vt 0.3125 0.46875
vt 0.3125 0.453125
vt 0.546875 0.609375
vt 0.546875 0.625
vt 0.53125 0.625
vt 0.53125 0.609375
vt 0.546875 0.59375
vt 0.53125 0.59375
vt 0.53125 0.578125
vt 0.546875 0.578125
vt 0.4375 0.453125
vt 0.453125 0.453125
vt 0.453125 0.46875
vt 0.4375 0.46875
vt 0.546875 0.5625
vt 0.53125 0.5625
vt 0.53125 0.546875
vt 0.546875 0.546875
vt 0.484375 0.453125
vt 0.484375 0.46875
vt 0.46875 0.46875
vt 0.46875 0.453125
vt 0.546875 0.515625
vt 0.546875 0.53125
vt 0.53125 0.53125
vt 0.53125 0.515625
vt 0.515625 0.453125
vt 0.515625 0.46875
vt 0.5 0.46875
vt 0.5 0.453125
vt 0.546875 0.46875
vt 0.53125 0.46875
vt 0.53125 0.453125
vt 0.546875 0.453125
vt 0.125 0.4375
vt 0.140625 0.4375
vt 0.140625 0.453125
vt 0.125 0.453125
vt 0.171875 0.453125
vt 0.15625 0.453125
vt 0.15625 0.4375
vt 0.171875 0.4375
vt 0.5625 0.828125
vt 0.5625 0.84375
vt 0.546875 0.84375
vt 0.546875 0.828125
vt 0.203125 0.4375
vt 0.203125 0.453125
vt 0.1875 0.453125
vt 0.1875 0.4375
vt 0.5625 0.703125
vt 0.5625 0.71875
vt 0.546875 0.71875
vt 0.546875 0.703125
vt 0.5625 0.6875
vt 0.546875 0.6875
vt 0.546875 0.671875
vt 0.5625 0.671875
vt 0.34375 0.4375
vt 0.359375 0.4375
vt 0.359375 0.453125
vt 0.34375 0.453125
vt 0.5625 0.65625
vt 0.546875 0.65625
vt 0.546875 0.640625
vt 0.5625 0.640625
vt 0.390625 0.4375
vt 0.390625 0.453125
vt 0.375 0.453125
vt 0.375 0.4375
vt 0.421875 0.4375
vt 0.421875 0.453125
vt 0.40625 0.453125
vt 0.40625 0.4375
vt 0.5625 0.484375
vt 0.5625 0.5
vt 0.546875 0.5
vt 0.546875 0.484375
vt 0.015625 0.4375
vt 0 0.4375
vt 0 0.421875
vt 0.015625 0.421875
vt 0.5625 0.984375
vt 0.578125 0.984375
vt 0.578125 1
vt 0.5625 1
vt 0.046875 0.4375
vt 0.03125 0.4375
vt 0.03125 0.421875
vt 0.046875 0.421875
vt 0.578125 0.953125
vt 0.578125 0.96875
vt 0.5625 0.96875
vt 0.5625 0.953125
vt 0.078125 0.421875
vt 0.078125 0.4375
vt 0.0625 0.4375
vt 0.0625 0.421875
vt 0.578125 0.921875
vt 0.578125 0.9375
vt 0.5625 0.9375
vt 0.5625 0.921875
vt 0.109375 0.4375
vt 0.09375 0.4375
vt 0.09375 0.421875
vt 0.109375 0.421875
vt 0.5625 0.890625
vt 0.578125 0.890625
vt 0.578125 0.90625
vt 0.5625 0.90625
vt 0.578125 0.875
vt 0.5625 0.875
vt 0.5625 0.859375
vt 0.578125 0.859375
vt 0.578125 0.796875
vt 0.578125 0.8125
vt 0.5625 0.8125
vt 0.5625 0.796875
vt 0.234375 0.421875
vt 0.234375 0.4375
vt 0.21875 0.4375
vt 0.21875 0.421875
vt 0.578125 0.765625
vt 0.578125 0.78125
vt 0.5625 0.78125
vt 0.5625 0.765625
vt 0.265625 0.4375
vt 0.25 0.4375
vt 0.25 0.421875
vt 0.265625 0.421875
vt 0.5625 0.734375
vt 0.578125 0.734375
vt 0.578125 0.75
vt 0.5625 0.75
vt 0.296875 0.4375
vt 0.28125 0.4375
vt 0.28125 0.421875
vt 0.296875 0.421875
vt 0.328125 0.421875
vt 0.328125 0.4375
vt 0.3125 0.4375
vt 0.3125 0.421875
vt 0.578125 0.609375
vt 0.578125 0.625
vt 0.5625 0.625
vt 0.5625 0.609375
vt 0.578125 0.578125
vt 0.578125 0.59375
vt 0.5625 0.59375
vt 0.5625 0.578125
vt 0.453125 0.4375
vt 0.4375 0.4375
vt 0.4375 0.421875
vt 0.453125 0.421875
vt 0.5625 0.546875
vt 0.578125 0.546875
vt 0.578125 0.5625
vt 0.5625 0.5625
vt 0.484375 0.4375
vt 0.46875 0.4375
vt 0.46875 0.421875
vt 0.484375 0.421875
vt 0.578125 0.515625
vt 0.578125 0.53125
vt 0.5625 0.53125
vt 0.5625 0.515625
vt 0.515625 0.421875
vt 0.515625 0.4375
vt 0.5 0.4375
vt 0.5 0.421875
vt 0.546875 0.421875
vt 0.546875 0.4375
vt 0.53125 0.4375
vt 0.53125 0.421875
vt 0.578125 0.46875
vt 0.5625 0.46875
vt 0.5625 0.453125
vt 0.578125 0.453125
vt 0.5625 0.421875
vt 0.578125 0.421875
vt 0.578125 0.4375
vt 0.5625 0.4375
vt 0.140625 0.421875
vt 0.125 0.421875
vt 0.125 0.40625
vt 0.140625 0.40625
vt 0.171875 0.40625
vt 0.171875 0.421875
vt 0.15625 0.421875
vt 0.15625 0.40625
vt 0.59375 0.828125
vt 0.59375 0.84375
vt 0.578125 0.84375
vt 0.578125 0.828125
vt 0.203125 0.40625
vt 0.203125 0.421875
vt 0.1875 0.421875
vt 0.1875 0.40625
vt 0.59375 0.71875
vt 0.578125 0.71875
vt 0.578125 0.703125
vt 0.59375 0.703125
vt 0.578125 0.671875
vt 0.59375 0.671875
vt 0.59375 0.6875
vt 0.578125 0.6875
vt 0.359375 0.421875
vt 0.34375 0.421875
vt 0.34375 0.40625
vt 0.359375 0.40625
vt 0.59375 0.640625
vt 0.59375 0.65625
vt 0.578125 0.65625
vt 0.578125 0.640625
vt 0.390625 0.40625
vt 0.390625 0.421875
vt 0.375 0.421875
vt 0.375 0.40625
vt 0.421875 0.40625
vt 0.421875 0.421875
vt 0.40625 0.421875
vt 0.40625 0.40625
vt 0.59375 0.5
vt 0.578125 0.5
vt 0.578125 0.484375
vt 0.59375 0.484375
vt 0 0.390625
vt 0.015625 0.390625
vt 0.015625 0.40625
vt 0 0.40625
vt 0.609375 1
vt 0.59375 1
vt 0.59375 0.984375
vt 0.609375 0.984375
vt 0.046875 0.390625
vt 0.046875 0.40625
vt 0.03125 0.40625
vt 0.03125 0.390625
vt 0.609375 0.953125
vt 0.609375 0.96875
vt 0.59375 0.96875
vt 0.59375 0.953125
vt 0.078125 0.390625
vt 0.078125 0.40625
vt 0.0625 0.40625
vt 0.0625 0.390625
vt 0.609375 0.9375
vt 0.59375 0.9375
vt 0.59375 0.921875
vt 0.609375 0.921875
vt 0.09375 0.390625
vt 0.109375 0.390625
vt 0.109375 0.40625
vt 0.09375 0.40625
vt 0.609375 0.90625
vt 0.59375 0.90625
vt 0.59375 0.890625
vt 0.609375 0.890625
vt 0.609375 0.859375
vt 0.609375 0.875
vt 0.59375 0.875
vt 0.59375 0.859375
vt 0.609375 0.796875
vt 0.609375 0.8125
vt 0.59375 0.8125
vt 0.59375 0.796875
vt 0.234375 0.390625
vt 0.234375 0.40625
vt 0.21875 0.40625
vt 0.21875 0.390625
vt 0.609375 0.78125
vt 0.59375 0.78125
vt 0.59375 0.765625
vt 0.609375 0.765625
vt 0.25 0.390625
vt 0.265625 0.390625
vt 0.265625 0.40625
vt 0.25 0.40625
vt 0.609375 0.75
vt 0.59375 0.75
vt 0.59375 0.734375
vt 0.609375 0.734375
vt 0.296875 0.390625
vt 0.296875 0.40625
vt 0.28125 0.40625
vt 0.28125 0.390625
vt 0.328125 0.390625
vt 0.328125 0.40625
vt 0.3125 0.40625
vt 0.3125 0.390625
vt 0.609375 0.609375
vt 0.609375 0.625
vt 0.59375 0.625
vt 0.59375 0.609375
vt 0.609375 0.59375
vt 0.59375 0.59375
vt 0.59375 0.578125
vt 0.609375 0.578125
vt 0.4375 0.390625
vt 0.453125 0.390625
vt 0.453125 0.40625
vt 0.4375 0.40625
vt 0.609375 0.5625
vt 0.59375 0.5625
vt 0.59375 0.546875
vt 0.609375 0.546875
vt 0.484375 0.390625
vt 0.484375 0.40625
vt 0.46875 0.40625
vt 0.46875 0.390625
vt 0.609375 0.515625
vt 0.609375 0.53125
vt 0.59375 0.53125
vt 0.59375 0.515625
vt 0.515625 0.390625
vt 0.515625 0.40625
vt 0.5 0.40625
vt 0.5 0.390625
vt 0.546875 0.40625
vt 0.53125 0.40625
vt 0.53125 0.390625
vt 0.546875 0.390625
vt 0.59375 0.453125
vt 0.609375 0.453125
vt 0.609375 0.46875
vt 0.59375 0.46875
vt 0.578125 0.40625
vt 0.5625 0.40625
vt 0.5625 0.390625
vt 0.578125 0.390625
vt 0.609375 0.421875
vt 0.609375 0.4375
vt 0.59375 0.4375
vt 0.59375 0.421875
vt 0.609375 0.390625
vt 0.609375 0.40625
vt 0.59375 0.40625
vt 0.59375 0.390625
vt 0.140625 0.375
vt 0.140625 0.390625
vt 0.125 0.390625
vt 0.125 0.375
vt 0.171875 0.390625
vt 0.15625 0.390625
vt 0.15625 0.375
vt 0.171875 0.375
vt 0.609375 0.828125
vt 0.625 0.828125
vt 0.625 0.84375
vt 0.609375 0.84375
vt 0.203125 0.390625
vt 0.1875 0.390625
vt 0.1875 0.375
vt 0.203125 0.375
vt 0.625 0.703125
vt 0.625 0.71875
vt 0.609375 0.71875
vt 0.609375 0.703125
vt 0.625 0.671875
vt 0.625 0.6875
vt 0.609375 0.6875
vt 0.609375 0.671875
vt 0.359375 0.375
vt 0.359375 0.390625
vt 0.34375 0.390625
vt 0.34375 0.375
vt 0.625 0.65625
vt 0.609375 0.65625
vt 0.609375 0.640625
vt 0.625 0.640625
vt 0.375 0.375
vt 0.390625 0.375
vt 0.390625 0.390625
vt 0.375 0.390625
vt 0.421875 0.390625
vt 0.40625 0.390625
vt 0.40625 0.375
vt 0.421875 0.375
vt 0.625 0.484375
vt 0.625 0.5
vt 0.609375 0.5
vt 0.609375 0.484375
vt 0.015625 0.359375
vt 0.015625 0.375
vt 0 0.375
vt 0 0.359375
vt 0.640625 0.984375
vt 0.640625 1
vt 0.625 1
vt 0.625 0.984375
vt 0.046875 0.375
vt 0.03125 0.375
vt 0.03125 0.359375
vt 0.046875 0.359375
vt 0.625 0.953125
vt 0.640625 0.953125
vt 0.640625 0.96875
vt 0.625 0.96875
vt 0.078125 0.375
vt 0.0625 0.375
vt 0.0625 0.359375
vt 0.078125 0.359375
vt 0.640625 0.921875
vt 0.640625 0.9375
vt 0.625 0.9375
vt 0.625 0.921875
vt 0.109375 0.359375
vt 0.109375 0.375
vt 0.09375 0.375
vt 0.09375 0.359375
vt 0.640625 0.890625
vt 0.640625 0.90625
vt 0.625 0.90625
vt 0.625 0.890625
vt 0.640625 0.875
vt 0.625 0.875
vt 0.625 0.859375
vt 0.640625 0.859375
vt 0.625 0.796875
vt 0.640625 0.796875
vt 0.640625 0.8125
vt 0.625 0.8125
vt 0.46875 0.6875
vt 0.4375 0.6875
vt 0.4375 0.671875
vt 0.46875 0.671875
vt 0.359375 0.546875
vt 0.359375 0.5625
vt 0.328125 0.5625
vt 0.328125 0.546875
vt 0.359375 0.578125
vt 0.359375 0.609375
vt 0.328125 0.609375
vt 0.328125 0.578125
vt 0.46875 0.640625
vt 0.46875 0.65625
vt 0.4375 0.65625
vt 0.4375 0.640625
vt 0.484375 0.875
vt 0.453125 0.875
vt 0.453125 0.859375
vt 0.484375 0.859375
vt 0.390625 0.625
vt 0.421875 0.625
vt 0.421875 0.65625
vt 0.390625 0.65625
vn 1 0 0
vn -1 0 0
vn 0 -1 0
vn 0 0 1
vn 0 0 -1
vn 0 1 0
vn 1 0 0
vn -1 0 0
vn 0 -1 0
vn 0 0 1
vn 0 0 -1
vn 0 1 0
vn 1 0 0
vn -1 0 0
vn 0 -1 0
vn 0 0 1
vn 0 0 -1
vn 0 1 0
vn 1 0 0
vn -1 0 0
vn 0 -1 0
vn 0 0 1
vn 0 0 -1
vn 0 1 0
vn 1 0 0
vn -1 0 0
vn 0 -1 0
vn 0 0 1
vn 0 0 -1
vn 0 1 0
vn 1 0 0
vn -1 0 0
vn 0 -1 0
vn 0 0 1
vn 0 0 -1
vn 0 1 0
vn 1 0 0
vn -1 0 0
vn 0 -1 0
vn 0 0 1
vn 0 0 -1
vn 0 1 0
vn 1 0 0
vn -1 0 0
vn 0 -1 0
vn 0 0 1
vn 0 0 -1
vn 0 1 0
vn 1 0 0
vn -1 0 0
vn 0 -1 0
vn 0 0 1
vn 0 0 -1
vn 0 1 0
vn 1 0 0
vn -1 0 0
vn 0 -1 0
vn 0 0 1
vn 0 0 -1
vn 0 1 0
vn 1 0 0
vn -1 0 0
vn 0 -1 0
vn 0 0 1
vn 0 0 -1
vn 0 1 0
vn 1 0 0
vn -1 0 0
vn 0 -1 0
vn 0 0 1
vn 0 0 -1
vn 0 1 0
vn 1 0 0
vn -1 0 0
vn 0 -1 0
vn 0 0 1
vn 0 0 -1
vn 0 1 0
vn 1 0 0
vn -1 0 0
vn 0 -1 0
vn 0 0 1
vn 0 0 -1
vn 0 1 0
vn 1 0 0
vn -1 0 0
vn 0 -1 0
vn 0 0 1
vn 0 0 -1
vn 0 1 0
vn 1 0 0
vn -1 0 0
vn 0 -1 0
vn 0 0 1
vn 0 0 -1
vn 0 1 0
vn 1 0 0
vn -1 0 0
vn 0 -1 0
vn 0 0 1
vn 0 0 -1
vn 0 1 0
vn 1 0 0
vn -1 0 0
vn 0 -1 0
vn 0 0 1
vn 0 0 -1
vn 0 1 0
vn 1 0 0
vn -1 0 0
vn 0 -1 0
vn 0 0 1
vn 0 0 -1
vn 0 1 0
vn 1 0 0
vn -1 0 0
vn 0 -1 0
vn 0 0 1
vn 0 0 -1
vn 0 1 0
vn 1 0 0
vn -1 0 0
vn 0 -1 0
vn 0 0 1
vn 0 0 -1
vn 0 1 0
vn 1 0 0
vn -1 0 0
vn 0 -1 0
vn 0 0 1
vn 0 0 -1
vn 0 1 0
vn 1 0 0
vn -1 0 0
vn 0 -1 0
vn 0 0 1
vn 0 0 -1
vn 0 1 0
vn 1 0 0
vn -1 0 0
vn 0 -1 0
vn 0 0 1
vn 0 0 -1
vn 0 1 0
vn 1 0 0
vn -1 0 0
vn 0 -1 0
vn 0 0 1
vn 0 0 -1
vn 0 1 0
vn 1 0 0
vn -1 0 0
vn 0 -1 0
vn 0 0 1
vn 0 0 -1
vn 0 1 0
vn 1 0 0
vn -1 0 0
vn 0 -1 0
vn 0 0 1
vn 0 0 -1
vn 0 1 0
vn 1 0 0
vn -1 0 0
vn 0 -1 0
vn 0 0 1
vn 0 0 -1
vn 0 1 0
vn 1 0 0
vn -1 0 0
vn 0 -1 0
vn 0 0 1
vn 0 0 -1
vn 0 1 0
vn 1 0 0
vn -1 0 0
vn 0 -1 0
vn 0 0 1
vn 0 0 -1
vn 0 1 0
vn 1 0 0
vn -1 0 0
vn 0 -1 0
vn 0 0 1
vn 0 0 -1
vn 0 1 0
vn 1 0 0
vn -1 0 0
vn 0 -1 0
vn 0 0 1
vn 0 0 -1
vn 0 1 0
vn 1 0 0
vn -1 0 0
vn 0 -1 0
vn 0 0 1
vn 0 0 -1
vn 0 1 0
vn 1 0 0
vn -1 0 0
vn 0 -1 0
vn 0 0 1
vn 0 0 -1
vn 0 1 0
vn 1 0 0
vn -1 0 0
vn 0 -1 0
vn 0 0 1
vn 0 0 -1
vn 0 1 0
vn 1 0 0
vn -1 0 0
vn 0 -1 0
vn 0 0 1
vn 0 0 -1
vn 0 1 0
vn 1 0 0
vn -1 0 0
vn 0 -1 0
vn 0 0 1
vn 0 0 -1
vn 0 1 0
vn 1 0 0
vn -1 0 0
vn 0 -1 0
vn 0 0 1
vn 0 0 -1
vn 0 1 0
vn 1 0 0
vn -1 0 0
vn 0 -1 0
vn 0 0 1
vn 0 0 -1
vn 0 1 0
vn 1 0 0
vn -1 0 0
vn 0 -1 0
vn 0 0 1
vn 0 0 -1
vn 0 1 0
vn 1 0 0
vn -1 0 0
vn 0 -1 0
vn 0 0 1
vn 0 0 -1
vn 0 1 0
vn 1 0 0
vn -1 0 0
vn 0 -1 0
vn 0 0 1
vn 0 0 -1
vn 0 1 0
vn 1 0 0
vn -1 0 0
vn 0 -1 0
vn 0 0 1
vn 0 0 -1
vn 0 1 0
vn 1 0 0
vn -1 0 0
vn 0 -1 0
vn 0 0 1
vn 0 0 -1
vn 0 1 0
vn 1 0 0
vn -1 0 0
vn 0 -1 0
vn 0 0 1
vn 0 0 -1
vn 0 1 0
usemtl m_c646601e-8864-5d47-bf89-f608eada62e9
f 2/1/1 1/2/1 3/3/1 4/4/1
f 7/5/2 5/6/2 6/7/2 8/8/2
f 4/9/3 3/10/3 7/11/3 8/12/3
f 3/13/4 1/14/4 5/15/4 7/16/4
f 6/17/5 2/18/5 4/19/5 8/20/5
f 5/21/6 1/22/6 2/23/6 6/24/6
f 10/25/7 9/26/7 11/27/7 12/28/7
f 15/29/8 13/30/8 14/31/8 16/32/8
f 12/33/9 11/34/9 15/35/9 16/36/9
f 11/37/10 9/38/10 13/39/10 15/40/10
f 14/41/11 10/42/11 12/43/11 16/44/11
f 13/45/12 9/46/12 10/47/12 14/48/12
f 18/49/13 17/50/13 19/51/13 20/52/13
f 23/53/14 21/54/14 22/55/14 24/56/14
f 20/57/15 19/58/15 23/59/15 24/60/15
f 19/61/16 17/62/16 21/63/16 23/64/16
f 22/65/17 18/66/17 20/67/17 24/68/17
f 21/69/18 17/70/18 18/71/18 22/72/18
f 26/73/19 25/74/19 27/75/19 28/76/19
f 31/77/20 29/78/20 30/79/20 32/80/20
f 28/81/21 27/82/21 31/83/21 32/84/21
f 27/85/22 25/86/22 29/87/22 31/88/22
f 30/89/23 26/90/23 28/91/23 32/92/23
f 29/93/24 25/94/24 26/95/24 30/96/24
f 34/97/25 33/98/25 35/99/25 36/100/25
f 39/101/26 37/102/26 38/103/26 40/104/26
f 36/105/27 35/106/27 39/107/27 40/108/27
f 35/109/28 33/110/28 37/111/28 39/112/28
f 38/113/29 34/114/29 36/115/29 40/116/29
f 37/117/30 33/118/30 34/119/30 38/120/30
f 42/121/31 41/122/31 43/123/31 44/124/31
f 47/125/32 45/126/32 46/127/32 48/128/32
f 44/129/33 43/130/33 47/131/33 48/132/33
f 43/133/34 41/134/34 45/135/34 47/136/34
f 46/137/35 42/138/35 44/139/35 48/140/35
f 45/141/36 41/142/36 42/143/36 46/144/36
f 50/145/37 49/146/37 51/147/37 52/148/37
f 55/149/38 53/150/38 54/151/38 56/152/38
f 52/153/39 51/154/39 55/155/39 56/156/39
f 51/157/40 49/158/40 53/159/40 55/160/40
f 54/161/41 50/162/41 52/163/41 56/164/41
f 53/165/42 49/166/42 50/167/42 54/168/42
f 58/169/43 57/170/43 59/171/43 60/172/43
f 63/173/44 61/174/44 62/175/44 64/176/44
f 60/177/45 59/178/45 63/179/45 64/180/45
f 59/181/46 57/182/46 61/183/46 63/184/46
f 62/185/47 58/186/47 60/187/47 64/188/47
f 61/189/48 57/190/48 58/191/48 62/192/48
f 66/193/49 65/194/49 67/195/49 68/196/49
f 71/197/50 69/198/50 70/199/50 72/200/50
f 68/201/51 67/202/51 71/203/51 72/204/51
f 67/205/52 65/206/52 69/207/52 71/208/52
f 70/209/53 66/210/53 68/211/53 72/212/53
f 69/213/54 65/214/54 66/215/54 70/216/54
f 74/217/55 73/218/55 75/219/55 76/220/55
f 79/221/56 77/222/56 78/223/56 80/224/56
f 76/225/57 75/226/57 79/227/57 80/228/57
f 75/229/58 73/230/58 77/231/58 79/232/58
f 78/233/59 74/234/59 76/235/59 80/236/59
f 77/237/60 73/238/60 74/239/60 78/240/60
f 82/241/61 81/242/61 83/243/61 84/244/61
f 87/245/62 85/246/62 86/247/62 88/248/62
f 84/249/63 83/250/63 87/251/63 88/252/63
f 83/253/64 81/254/64 85/255/64 87/256/64
f 86/257/65 82/258/65 84/259/65 88/260/65
f 85/261/66 81/262/66 82/263/66 86/264/66
f 90/265/67 89/266/67 91/267/67 92/268/67
f 95/269/68 93/270/68 94/271/68 96/272/68
f 92/273/69 91/274/69 95/275/69 96/276/69
f 91/277/70 89/278/70 93/279/70 95/280/70
f 94/281/71 90/282/71 92/283/71 96/284/71
f 93/285/72 89/286/72 90/287/72 94/288/72
f 98/289/73 97/290/73 99/291/73 100/292/73
f 103/293/74 101/294/74 102/295/74 104/296/74
f 100/297/75 99/298/75 103/299/75 104/300/75
f 99/301/76 97/302/76 101/303/76 103/304/76
f 102/305/77 98/306/77 100/307/77 104/308/77
f 101/309/78 97/310/78 98/311/78 102/312/78
f 106/313/79 105/314/79 107/315/79 108/316/79
f 111/317/80 109/318/80 110/319/80 112/320/80
f 108/321/81 107/322/81 111/323/81 112/324/81
f 107/325/82 105/326/82 109/327/82 111/328/82
f 110/329/83 106/330/83 108/331/83 112/332/83
f 109/333/84 105/334/84 106/335/84 110/336/84
f 114/337/85 113/338/85 115/339/85 116/340/85
f 119/341/86 117/342/86 118/343/86 120/344/86
f 116/345/87 115/346/87 119/347/87 120/348/87
f 115/349/88 113/350/88 117/351/88 119/352/88
f 118/353/89 114/354/89 116/355/89 120/356/89
f 117/357/90 113/358/90 114/359/90 118/360/90
f 122/361/91 121/362/91 123/363/91 124/364/91
f 127/365/92 125/366/92 126/367/92 128/368/92
f 124/369/93 123/370/93 127/371/93 128/372/93
f 123/373/94 121/374/94 125/375/94 127/376/94
f 126/377/95 122/378/95 124/379/95 128/380/95
f 125/381/96 121/382/96 122/383/96 126/384/96
f 130/385/97 129/386/97 131/387/97 132/388/97
f 135/389/98 133/390/98 134/391/98 136/392/98
f 132/393/99 131/394/99 135/395/99 136/396/99
f 131/397/100 129/398/100 133/399/100 135/400/100
f 134/401/101 130/402/101 132/403/101 136/404/101
f 133/405/102 129/406/102 130/407/102 134/408/102
f 138/409/103 137/410/103 139/411/103 140/412/103
f 143/413/104 141/414/104 142/415/104 144/416/104
f 140/417/105 139/418/105 143/419/105 144/420/105
f 139/421/106 137/422/106 141/423/106 143/424/106
f 142/425/107 138/426/107 140/427/107 144/428/107
f 141/429/108 137/430/108 138/431/108 142/432/108
f 146/433/109 145/434/109 147/435/109 148/436/109
f 151/437/110 149/438/110 150/439/110 152/440/110
f 148/441/111 147/442/111 151/443/111 152/444/111
f 147/445/112 145/446/112 149/447/112 151/448/112
f 150/449/113 146/450/113 148/451/113 152/452/113
f 149/453/114 145/454/114 146/455/114 150/456/114
f 154/457/115 153/458/115 155/459/115 156/460/115
f 159/461/116 157/462/116 158/463/116 160/464/116
f 156/465/117 155/466/117 159/467/117 160/468/117
f 155/469/118 153/470/118 157/471/118 159/472/118
f 158/473/119 154/474/119 156/475/119 160/476/119
f 157/477/120 153/478/120 154/479/120 158/480/120
f 162/481/121 161/482/121 163/483/121 164/484/121
f 167/485/122 165/486/122 166/487/122 168/488/122
f 164/489/123 163/490/123 167/491/123 168/492/123
f 163/493/124 161/494/124 165/495/124 167/496/124
f 166/497/125 162/498/125 164/499/125 168/500/125
f 165/501/126 161/502/126 162/503/126 166/504/126
f 170/505/127 169/506/127 171/507/127 172/508/127
f 175/509/128 173/510/128 174/511/128 176/512/128
f 172/513/129 171/514/129 175/515/129 176/516/129
f 171/517/130 169/518/130 173/519/130 175/520/130
f 174/521/131 170/522/131 172/523/131 176/524/131
f 173/525/132 169/526/132 170/527/132 174/528/132
f 178/529/133 177/530/133 179/531/133 180/532/133
f 183/533/134 181/534/134 182/535/134 184/536/134
f 180/537/135 179/538/135 183/539/135 184/540/135
f 179/541/136 177/542/136 181/543/136 183/544/136
f 182/545/137 178/546/137 180/547/137 184/548/137
f 181/549/138 177/550/138 178/551/138 182/552/138
f 186/553/139 185/554/139 187/555/139 188/556/139
f 191/557/140 189/558/140 190/559/140 192/560/140
f 188/561/141 187/562/141 191/563/141 192/564/141
f 187/565/142 185/566/142 189/567/142 191/568/142
f 190/569/143 186/570/143 188/571/143 192/572/143
f 189/573/144 185/574/144 186/575/144 190/576/144
f 194/577/145 193/578/145 195/579/145 196/580/145
f 199/581/146 197/582/146 198/583/146 200/584/146
f 196/585/147 195/586/147 199/587/147 200/588/147
f 195/589/148 193/590/148 197/591/148 199/592/148
f 198/593/149 194/594/149 196/595/149 200/596/149
f 197/597/150 193/598/150 194/599/150 198/600/150
f 202/601/151 201/602/151 203/603/151 204/604/151
f 207/605/152 205/606/152 206/607/152 208/608/152
f 204/609/153 203/610/153 207/611/153 208/612/153
f 203/613/154 201/614/154 205/615/154 207/616/154
f 206/617/155 202/618/155 204/619/155 208/620/155
f 205/621/156 201/622/156 202/623/156 206/624/156
f 210/625/157 209/626/157 211/627/157 212/628/157
f 215/629/158 213/630/158 214/631/158 216/632/158
f 212/633/159 211/634/159 215/635/159 216/636/159
f 211/637/160 209/638/160 213/639/160 215/640/160
f 214/641/161 210/642/161 212/643/161 216/644/161
f 213/645/162 209/646/162 210/647/162 214/648/162
f 218/649/163 217/650/163 219/651/163 220/652/163
f 223/653/164 221/654/164 222/655/164 224/656/164
f 220/657/165 219/658/165 223/659/165 224/660/165
f 219/661/166 217/662/166 221/663/166 223/664/166
f 222/665/167 218/666/167 220/667/167 224/668/167
f 221/669/168 217/670/168 218/671/168 222/672/168
f 226/673/169 225/674/169 227/675/169 228/676/169
f 231/677/170 229/678/170 230/679/170 232/680/170
f 228/681/171 227/682/171 231/683/171 232/684/171
f 227/685/172 225/686/172 229/687/172 231/688/172
f 230/689/173 226/690/173 228/691/173 232/692/173
f 229/693/174 225/694/174 226/695/174 230/696/174
f 234/697/175 233/698/175 235/699/175 236/700/175
f 239/701/176 237/702/176 238/703/176 240/704/176
f 236/705/177 235/706/177 239/707/177 240/708/177
f 235/709/178 233/710/178 237/711/178 239/712/178
f 238/713/179 234/714/179 236/715/179 240/716/179
f 237/717/180 233/718/180 234/719/180 238/720/180
f 242/721/181 241/722/181 243/723/181 244/724/181
f 247/725/182 245/726/182 246/727/182 248/728/182
f 244/729/183 243/730/183 247/731/183 248/732/183
f 243/733/184 241/734/184 245/735/184 247/736/184
f 246/737/185 242/738/185 244/739/185 248/740/185
f 245/741/186 241/742/186 242/743/186 246/744/186
f 250/745/187 249/746/187 251/747/187 252/748/187
f 255/749/188 253/750/188 254/751/188 256/752/188
f 252/753/189 251/754/189 255/755/189 256/756/189
f 251/757/190 249/758/190 253/759/190 255/760/190
f 254/761/191 250/762/191 252/763/191 256/764/191
f 253/765/192 249/766/192 250/767/192 254/768/192
f 258/769/193 257/770/193 259/771/193 260/772/193
f 263/773/194 261/774/194 262/775/194 264/776/194
f 260/777/195 259/778/195 263/779/195 264/780/195
f 259/781/196 257/782/196 261/783/196 263/784/196
f 262/785/197 258/786/197 260/787/197 264/788/197
f 261/789/198 257/790/198 258/791/198 262/792/198
f 266/793/199 265/794/199 267/795/199 268/796/199
f 271/797/200 269/798/200 270/799/200 272/800/200
f 268/801/201 267/802/201 271/803/201 272/804/201
f 267/805/202 265/806/202 269/807/202 271/808/202
f 270/809/203 266/810/203 268/811/203 272/812/203
f 269/813/204 265/814/204 266/815/204 270/816/204
f 274/817/205 273/818/205 275/819/205 276/820/205
f 279/821/206 277/822/206 278/823/206 280/824/206
f 276/825/207 275/826/207 279/827/207 280/828/207
f 275/829/208 273/830/208 277/831/208 279/832/208
f 278/833/209 274/834/209 276/835/209 280/836/209
f 277/837/210 273/838/210 274/839/210 278/840/210
f 282/841/211 281/842/211 283/843/211 284/844/211
f 287/845/212 285/846/212 286/847/212 288/848/212
f 284/849/213 283/850/213 287/851/213 288/852/213
f 283/853/214 281/854/214 285/855/214 287/856/214
f 286/857/215 282/858/215 284/859/215 288/860/215
f 285/861/216 281/862/216 282/863/216 286/864/216
f 290/865/217 289/866/217 291/867/217 292/868/217
f 295/869/218 293/870/218 294/871/218 296/872/218
f 292/873/219 291/874/219 295/875/219 296/876/219
f 291/877/220 289/878/220 293/879/220 295/880/220
f 294/881/221 290/882/221 292/883/221 296/884/221
f 293/885/222 289/886/222 290/887/222 294/888/222
f 298/889/223 297/890/223 299/891/223 300/892/223
f 303/893/224 301/894/224 302/895/224 304/896/224
f 300/897/225 299/898/225 303/899/225 304/900/225
f 299/901/226 297/902/226 301/903/226 303/904/226
f 302/905/227 298/906/227 300/907/227 304/908/227
f 301/909/228 297/910/228 298/911/228 302/912/228
f 306/913/229 305/914/229 307/915/229 308/916/229
f 311/917/230 309/918/230 310/919/230 312/920/230
f 308/921/231 307/922/231 311/923/231 312/924/231
f 307/925/232 305/926/232 309/927/232 311/928/232
f 310/929/233 306/930/233 308/931/233 312/932/233
f 309/933/234 305/934/234 306/935/234 310/936/234
f 314/937/235 313/938/235 315/939/235 316/940/235
f 319/941/236 317/942/236 318/943/236 320/944/236
f 316/945/237 315/946/237 319/947/237 320/948/237
f 315/949/238 313/950/238 317/951/238 319/952/238
f 318/953/239 314/954/239 316/955/239 320/956/239
f 317/957/240 313/958/240 314/959/240 318/960/240
f 322/961/241 321/962/241 323/963/241 324/964/241
f 327/965/242 325/966/242 326/967/242 328/968/242
f 324/969/243 323/970/243 327/971/243 328/972/243
f 323/973/244 321/974/244 325/975/244 327/976/244
f 326/977/245 322/978/245 324/979/245 328/980/245
f 325/981/246 321/982/246 322/983/246 326/984/246
f 330/985/247 329/986/247 331/987/247 332/988/247
f 335/989/248 333/990/248 334/991/248 336/992/248
f 332/993/249 331/994/249 335/995/249 336/996/249
f 331/997/250 329/998/250 333/999/250 335/1000/250
f 334/1001/251 330/1002/251 332/1003/251 336/1004/251
f 333/1005/252 329/1006/252 330/1007/252 334/1008/252
f 338/1009/253 337/1010/253 339/1011/253 340/1012/253
f 343/1013/254 341/1014/254 342/1015/254 344/1016/254
f 340/1017/255 339/1018/255 343/1019/255 344/1020/255
f 339/1021/256 337/1022/256 341/1023/256 343/1024/256
f 342/1025/257 338/1026/257 340/1027/257 344/1028/257
f 341/1029/258 337/1030/258 338/1031/258 342/1032/258
f 346/1033/259 345/1034/259 347/1035/259 348/1036/259
f 351/1037/260 349/1038/260 350/1039/260 352/1040/260
f 348/1041/261 347/1042/261 351/1043/261 352/1044/261
f 347/1045/262 345/1046/262 349/1047/262 351/1048/262
f 350/1049/263 346/1050/263 348/1051/263 352/1052/263
f 349/1053/264 345/1054/264 346/1055/264 350/1056/264
f 354/1057/265 353/1058/265 355/1059/265 356/1060/265
f 359/1061/266 357/1062/266 358/1063/266 360/1064/266
f 356/1065/267 355/1066/267 359/1067/267 360/1068/267
f 355/1069/268 353/1070/268 357/1071/268 359/1072/268
f 358/1073/269 354/1074/269 356/1075/269 360/1076/269
f 357/1077/270 353/1078/270 354/1079/270 358/1080/270