# Made in Blockbench 5.0.7

o mesh
v 0.5000000000000001 0.125 -0.4999999999999999
v 0.6250000000000001 0.125 -0.4999999999999999
v 0.6250000000000001 0 -0.4999999999999999
v 0.5000000000000001 0 -0.4999999999999999
v 0.6249999999999994 0 0.6250000000000001
v 0.5000000000000001 0 0.6250000000000001
v 0.6249999999999994 0.125 0.6250000000000001
v 0.5000000000000001 0.125 0.6250000000000001
v -0.5000000000000001 0.125 0.4999999999999999
v 0.4999999999999999 0.125 0.5000000000000001
v 0.4999999999999999 0 0.5000000000000001
v -0.5000000000000001 0 0.4999999999999999
v 0.49999999999999944 0 0.6250000000000001
v -0.4999999999999999 0 0.6249999999999999
v 0.49999999999999944 0.125 0.6250000000000001
v -0.4999999999999999 0.125 0.6249999999999999
vt 0.296875 0.8125
vt 0.265625 0.8125
vt 0.265625 0.78125
vt 0.296875 0.78125
vt 0.28125 0.96875
vt 0.28125 1
vt 0 1
vt 0 0.96875
vt 0.28125 0.828125
vt 0.28125 0.859375
vt 0 0.859375
vt 0 0.828125
vt 0.28125 0.90625
vt 0 0.90625
vt 0 0.875
vt 0.28125 0.875
vt 0.125 0.6875
vt 0.125 0.71875
vt 0.09375 0.71875
vt 0.09375 0.6875
vt 0 0.921875
vt 0.28125 0.921875
vt 0.28125 0.953125
vt 0 0.953125
vt 0.25 0.8125
vt 0 0.8125
vt 0 0.78125
vt 0.25 0.78125
vt 0.03125 0.515625
vt 0.03125 0.765625
vt 0 0.765625
vt 0 0.515625
vt 0.21875 0.6875
vt 0.21875 0.71875
vt 0.1875 0.71875
vt 0.1875 0.6875
vt 0.171875 0.71875
vt 0.140625 0.71875
vt 0.140625 0.6875
vt 0.171875 0.6875
vt 0.296875 0.734375
vt 0.296875 0.765625
vt 0.046875 0.765625
vt 0.046875 0.734375
vt 0.046875 0.46875
vt 0.078125 0.46875
vt 0.078125 0.71875
vt 0.046875 0.71875
vn 0 0 -1
vn 0 -1 0
vn 1 0 0
vn -1 0 0
vn 0 0 1
vn 0 1 0
vn 0 0 -1
vn 0 -1 0
vn 1 0 0
vn -1 0 0
vn 0 0 1
vn 0 1 0
f 1/1/1 2/2/1 3/3/1 4/4/1
f 4/5/2 3/6/2 5/7/2 6/8/2
f 3/9/3 2/10/3 7/11/3 5/12/3
f 8/13/4 1/14/4 4/15/4 6/16/4
f 5/17/5 7/18/5 8/19/5 6/20/5
f 7/21/6 2/22/6 1/23/6 8/24/6
f 9/25/7 10/26/7 11/27/7 12/28/7
f 12/29/8 11/30/8 13/31/8 14/32/8
f 11/33/9 10/34/9 15/35/9 13/36/9
f 16/37/10 9/38/10 12/39/10 14/40/10
f 13/41/11 15/42/11 16/43/11 14/44/11
f 15/45/12 10/46/12 9/47/12 16/48/12
