# Made in Blockbench 5.0.7

o mesh
v 0.625 0.125 0.5
v 0.625 0.125 -0.5
v 0.625 0 0.5
v 0.625 0 -0.5
v 0.5 0.125 0.4999999999999996
v 0.5 0.125 -0.49999999999999983
v 0.5 0 0.4999999999999996
v 0.5 0 -0.49999999999999983
vt 0.5 1
vt 0 1
vt 0 0.9375
vt 0.5 0.9375
vt 0.0625 0.40625
vt 0.0625 0.90625
vt 0 0.90625
vt 0 0.40625
vt 0.25 0.65625
vt 0.25 0.71875
vt 0.1875 0.71875
vt 0.1875 0.65625
vt 0.25 0.8125
vt 0.1875 0.8125
vt 0.1875 0.75
vt 0.25 0.75
vt 0.59375 0.84375
vt 0.59375 0.90625
vt 0.09375 0.90625
vt 0.09375 0.84375
vt 0.09375 0.3125
vt 0.15625 0.3125
vt 0.15625 0.8125
vt 0.09375 0.8125
vn 1 0 0
vn 0 -1 0
vn 0 0 1
vn 0 0 -1
vn -1 0 0
vn 0 1 0
f 2/1/1 1/2/1 3/3/1 4/4/1
f 4/5/2 3/6/2 7/7/2 8/8/2
f 3/9/3 1/10/3 5/11/3 7/12/3
f 6/13/4 2/14/4 4/15/4 8/16/4
f 7/17/5 5/18/5 6/19/5 8/20/5
f 5/21/6 1/22/6 2/23/6 6/24/6
