# Blender 5.2.0 LTS
# www.blender.org
mtllib mid_floor_closed.mtl
o mid_floor_closed
v -0.125000 0.125000 -0.062500
v -0.125000 0.125000 -0.125000
v -0.125000 0.062500 -0.062500
v -0.125000 0.062500 -0.125000
v -0.187500 0.125000 -0.062500
v -0.187500 0.125000 -0.125000
v -0.187500 0.062500 -0.062500
v -0.187500 0.062500 -0.125000
v -0.375000 0.125000 0.500000
v -0.375000 0.125000 0.375000
v -0.375000 0.062500 0.500000
v -0.375000 0.062500 0.375000
v -0.500000 0.125000 0.500000
v -0.500000 0.125000 0.375000
v -0.500000 0.062500 0.500000
v -0.500000 0.062500 0.375000
v -0.375000 0.125000 -0.375000
v -0.375000 0.125000 -0.500000
v -0.375000 0.062500 -0.375000
v -0.375000 0.062500 -0.500000
v -0.500000 0.125000 -0.375000
v -0.500000 0.125000 -0.500000
v -0.500000 0.062500 -0.375000
v -0.500000 0.062500 -0.500000
v -0.125000 0.125000 -0.125000
v -0.125000 0.125000 -0.375000
v -0.125000 0.062500 -0.125000
v -0.125000 0.062500 -0.375000
v -0.375000 0.125000 -0.125000
v -0.375000 0.125000 -0.375000
v -0.375000 0.062500 -0.125000
v -0.375000 0.062500 -0.375000
v 0.375000 0.125000 -0.125000
v 0.375000 0.125000 -0.375000
v 0.375000 0.062500 -0.125000
v 0.375000 0.062500 -0.375000
v 0.125000 0.125000 -0.125000
v 0.125000 0.125000 -0.375000
v 0.125000 0.062500 -0.125000
v 0.125000 0.062500 -0.375000
v 0.375000 0.125000 0.375000
v 0.375000 0.125000 0.125000
v 0.375000 0.062500 0.375000
v 0.375000 0.062500 0.125000
v 0.125000 0.125000 0.375000
v 0.125000 0.125000 0.125000
v 0.125000 0.062500 0.375000
v 0.125000 0.062500 0.125000
v 0.125000 0.125000 0.125000
v 0.125000 0.125000 -0.125000
v 0.125000 0.062500 0.125000
v 0.125000 0.062500 -0.125000
v -0.125000 0.125000 0.125000
v -0.125000 0.125000 -0.125000
v -0.125000 0.062500 0.125000
v -0.125000 0.062500 -0.125000
v -0.125000 0.125000 0.375000
v -0.125000 0.125000 0.125000
v -0.125000 0.062500 0.375000
v -0.125000 0.062500 0.125000
v -0.375000 0.125000 0.375000
v -0.375000 0.125000 0.125000
v -0.375000 0.062500 0.375000
v -0.375000 0.062500 0.125000
v 0.125000 0.125000 0.500000
v 0.125000 0.125000 0.375000
v 0.125000 0.062500 0.500000
v 0.125000 0.062500 0.375000
v -0.125000 0.125000 0.500000
v -0.125000 0.125000 0.375000
v -0.125000 0.062500 0.500000
v -0.125000 0.062500 0.375000
v 0.125000 0.125000 -0.375000
v 0.125000 0.125000 -0.500000
v 0.125000 0.062500 -0.375000
v 0.125000 0.062500 -0.500000
v -0.125000 0.125000 -0.375000
v -0.125000 0.125000 -0.500000
v -0.125000 0.062500 -0.375000
v -0.125000 0.062500 -0.500000
v 0.500000 0.125000 0.125000
v 0.500000 0.125000 -0.125000
v 0.500000 0.062500 0.125000
v 0.500000 0.062500 -0.125000
v 0.375000 0.125000 0.125000
v 0.375000 0.125000 -0.125000
v 0.375000 0.062500 0.125000
v 0.375000 0.062500 -0.125000
v -0.375000 0.125000 0.125000
v -0.375000 0.125000 -0.125000
v -0.375000 0.062500 0.125000
v -0.375000 0.062500 -0.125000
v -0.500000 0.125000 0.125000
v -0.500000 0.125000 -0.125000
v -0.500000 0.062500 0.125000
v -0.500000 0.062500 -0.125000
v 0.500000 0.125000 -0.375000
v 0.500000 0.125000 -0.500000
v 0.500000 0.062500 -0.375000
v 0.500000 0.062500 -0.500000
v 0.375000 0.125000 -0.375000
v 0.375000 0.125000 -0.500000
v 0.375000 0.062500 -0.375000
v 0.375000 0.062500 -0.500000
v 0.437500 0.125000 0.375000
v 0.437500 0.125000 0.312500
v 0.437500 0.062500 0.375000
v 0.437500 0.062500 0.312500
v 0.375000 0.125000 0.375000
v 0.375000 0.125000 0.312500
v 0.375000 0.062500 0.375000
v 0.375000 0.062500 0.312500
v 0.437500 0.125000 -0.312500
v 0.437500 0.125000 -0.375000
v 0.437500 0.062500 -0.312500
v 0.437500 0.062500 -0.375000
v 0.375000 0.125000 -0.312500
v 0.375000 0.125000 -0.375000
v 0.375000 0.062500 -0.312500
v 0.375000 0.062500 -0.375000
v -0.375000 0.125000 -0.312500
v -0.375000 0.125000 -0.375000
v -0.375000 0.062500 -0.312500
v -0.375000 0.062500 -0.375000
v -0.437500 0.125000 -0.312500
v -0.437500 0.125000 -0.375000
v -0.437500 0.062500 -0.312500
v -0.437500 0.062500 -0.375000
v 0.437500 0.125000 -0.125000
v 0.437500 0.125000 -0.187500
v 0.437500 0.062500 -0.125000
v 0.437500 0.062500 -0.187500
v 0.375000 0.125000 -0.125000
v 0.375000 0.125000 -0.187500
v 0.375000 0.062500 -0.125000
v 0.375000 0.062500 -0.187500
v -0.375000 0.125000 -0.125000
v -0.375000 0.125000 -0.187500
v -0.375000 0.062500 -0.125000
v -0.375000 0.062500 -0.187500
v -0.437500 0.125000 -0.125000
v -0.437500 0.125000 -0.187500
v -0.437500 0.062500 -0.125000
v -0.437500 0.062500 -0.187500
v 0.437500 0.125000 0.187500
v 0.437500 0.125000 0.125000
v 0.437500 0.062500 0.187500
v 0.437500 0.062500 0.125000
v 0.375000 0.125000 0.187500
v 0.375000 0.125000 0.125000
v 0.375000 0.062500 0.187500
v 0.375000 0.062500 0.125000
v -0.375000 0.125000 0.187500
v -0.375000 0.125000 0.125000
v -0.375000 0.062500 0.187500
v -0.375000 0.062500 0.125000
v -0.437500 0.125000 0.187500
v -0.437500 0.125000 0.125000
v -0.437500 0.062500 0.187500
v -0.437500 0.062500 0.125000
v -0.375000 0.125000 0.375000
v -0.375000 0.125000 0.312500
v -0.375000 0.062500 0.375000
v -0.375000 0.062500 0.312500
v -0.437500 0.125000 0.375000
v -0.437500 0.125000 0.312500
v -0.437500 0.062500 0.375000
v -0.437500 0.062500 0.312500
v -0.312500 0.125000 0.437500
v -0.312500 0.125000 0.375000
v -0.312500 0.062500 0.437500
v -0.312500 0.062500 0.375000
v -0.375000 0.125000 0.437500
v -0.375000 0.125000 0.375000
v -0.375000 0.062500 0.437500
v -0.375000 0.062500 0.375000
v -0.125000 0.125000 0.125000
v -0.125000 0.125000 0.062500
v -0.125000 0.062500 0.125000
v -0.125000 0.062500 0.062500
v -0.187500 0.125000 0.125000
v -0.187500 0.125000 0.062500
v -0.187500 0.062500 0.125000
v -0.187500 0.062500 0.062500
v -0.312500 0.125000 -0.062500
v -0.312500 0.125000 -0.125000
v -0.312500 0.062500 -0.062500
v -0.312500 0.062500 -0.125000
v -0.375000 0.125000 -0.062500
v -0.375000 0.125000 -0.125000
v -0.375000 0.062500 -0.062500
v -0.375000 0.062500 -0.125000
v -0.312500 0.125000 0.125000
v -0.312500 0.125000 0.062500
v -0.312500 0.062500 0.125000
v -0.312500 0.062500 0.062500
v -0.375000 0.125000 0.125000
v -0.375000 0.125000 0.062500
v -0.375000 0.062500 0.125000
v -0.375000 0.062500 0.062500
v 0.375000 0.125000 -0.062500
v 0.375000 0.125000 -0.125000
v 0.375000 0.062500 -0.062500
v 0.375000 0.062500 -0.125000
v 0.312500 0.125000 -0.062500
v 0.312500 0.125000 -0.125000
v 0.312500 0.062500 -0.062500
v 0.312500 0.062500 -0.125000
v 0.375000 0.125000 0.125000
v 0.375000 0.125000 0.062500
v 0.375000 0.062500 0.125000
v 0.375000 0.062500 0.062500
v 0.312500 0.125000 0.125000
v 0.312500 0.125000 0.062500
v 0.312500 0.062500 0.125000
v 0.312500 0.062500 0.062500
v -0.062500 0.125000 0.187500
v -0.062500 0.125000 0.125000
v -0.062500 0.062500 0.187500
v -0.062500 0.062500 0.125000
v -0.125000 0.125000 0.187500
v -0.125000 0.125000 0.125000
v -0.125000 0.062500 0.187500
v -0.125000 0.062500 0.125000
v 0.375000 0.125000 0.437500
v 0.375000 0.125000 0.375000
v 0.375000 0.062500 0.437500
v 0.375000 0.062500 0.375000
v 0.312500 0.125000 0.437500
v 0.312500 0.125000 0.375000
v 0.312500 0.062500 0.437500
v 0.312500 0.062500 0.375000
v 0.187500 0.125000 0.125000
v 0.187500 0.125000 0.062500
v 0.187500 0.062500 0.125000
v 0.187500 0.062500 0.062500
v 0.125000 0.125000 0.125000
v 0.125000 0.125000 0.062500
v 0.125000 0.062500 0.125000
v 0.125000 0.062500 0.062500
v 0.125000 0.125000 0.187500
v 0.125000 0.125000 0.125000
v 0.125000 0.062500 0.187500
v 0.125000 0.062500 0.125000
v 0.062500 0.125000 0.187500
v 0.062500 0.125000 0.125000
v 0.062500 0.062500 0.187500
v 0.062500 0.062500 0.125000
v 0.375000 0.125000 -0.375000
v 0.375000 0.125000 -0.437500
v 0.375000 0.062500 -0.375000
v 0.375000 0.062500 -0.437500
v 0.312500 0.125000 -0.375000
v 0.312500 0.125000 -0.437500
v 0.312500 0.062500 -0.375000
v 0.312500 0.062500 -0.437500
v 0.187500 0.125000 0.437500
v 0.187500 0.125000 0.375000
v 0.187500 0.062500 0.437500
v 0.187500 0.062500 0.375000
v 0.125000 0.125000 0.437500
v 0.125000 0.125000 0.375000
v 0.125000 0.062500 0.437500
v 0.125000 0.062500 0.375000
v 0.187500 0.125000 -0.375000
v 0.187500 0.125000 -0.437500
v 0.187500 0.062500 -0.375000
v 0.187500 0.062500 -0.437500
v 0.125000 0.125000 -0.375000
v 0.125000 0.125000 -0.437500
v 0.125000 0.062500 -0.375000
v 0.125000 0.062500 -0.437500
v 0.187500 0.125000 -0.062500
v 0.187500 0.125000 -0.125000
v 0.187500 0.062500 -0.062500
v 0.187500 0.062500 -0.125000
v 0.125000 0.125000 -0.062500
v 0.125000 0.125000 -0.125000
v 0.125000 0.062500 -0.062500
v 0.125000 0.062500 -0.125000
v 0.125000 0.125000 -0.125000
v 0.125000 0.125000 -0.187500
v 0.125000 0.062500 -0.125000
v 0.125000 0.062500 -0.187500
v 0.062500 0.125000 -0.125000
v 0.062500 0.125000 -0.187500
v 0.062500 0.062500 -0.125000
v 0.062500 0.062500 -0.187500
v -0.062500 0.125000 -0.312500
v -0.062500 0.125000 -0.375000
v -0.062500 0.062500 -0.312500
v -0.062500 0.062500 -0.375000
v -0.125000 0.125000 -0.312500
v -0.125000 0.125000 -0.375000
v -0.125000 0.062500 -0.312500
v -0.125000 0.062500 -0.375000
v 0.125000 0.125000 -0.312500
v 0.125000 0.125000 -0.375000
v 0.125000 0.062500 -0.312500
v 0.125000 0.062500 -0.375000
v 0.062500 0.125000 -0.312500
v 0.062500 0.125000 -0.375000
v 0.062500 0.062500 -0.312500
v 0.062500 0.062500 -0.375000
v -0.062500 0.125000 0.375000
v -0.062500 0.125000 0.312500
v -0.062500 0.062500 0.375000
v -0.062500 0.062500 0.312500
v -0.125000 0.125000 0.375000
v -0.125000 0.125000 0.312500
v -0.125000 0.062500 0.375000
v -0.125000 0.062500 0.312500
v 0.125000 0.125000 0.375000
v 0.125000 0.125000 0.312500
v 0.125000 0.062500 0.375000
v 0.125000 0.062500 0.312500
v 0.062500 0.125000 0.375000
v 0.062500 0.125000 0.312500
v 0.062500 0.062500 0.375000
v 0.062500 0.062500 0.312500
v -0.312500 0.125000 -0.375000
v -0.312500 0.125000 -0.437500
v -0.312500 0.062500 -0.375000
v -0.312500 0.062500 -0.437500
v -0.375000 0.125000 -0.375000
v -0.375000 0.125000 -0.437500
v -0.375000 0.062500 -0.375000
v -0.375000 0.062500 -0.437500
v -0.125000 0.125000 0.437500
v -0.125000 0.125000 0.375000
v -0.125000 0.062500 0.437500
v -0.125000 0.062500 0.375000
v -0.187500 0.125000 0.437500
v -0.187500 0.125000 0.375000
v -0.187500 0.062500 0.437500
v -0.187500 0.062500 0.375000
v -0.125000 0.125000 -0.375000
v -0.125000 0.125000 -0.437500
v -0.125000 0.062500 -0.375000
v -0.125000 0.062500 -0.437500
v -0.187500 0.125000 -0.375000
v -0.187500 0.125000 -0.437500
v -0.187500 0.062500 -0.375000
v -0.187500 0.062500 -0.437500
v -0.062500 0.125000 -0.125000
v -0.062500 0.125000 -0.187500
v -0.062500 0.062500 -0.125000
v -0.062500 0.062500 -0.187500
v -0.125000 0.125000 -0.125000
v -0.125000 0.125000 -0.187500
v -0.125000 0.062500 -0.125000
v -0.125000 0.062500 -0.187500
v 0.500000 0.125000 0.500000
v 0.500000 0.125000 0.375000
v 0.500000 0.062500 0.500000
v 0.500000 0.062500 0.375000
v 0.375000 0.125000 0.500000
v 0.375000 0.125000 0.375000
v 0.375000 0.062500 0.500000
v 0.375000 0.062500 0.375000
vn 1.0000 -0.0000 -0.0000
vn -1.0000 -0.0000 -0.0000
vn -0.0000 -1.0000 -0.0000
vn -0.0000 -0.0000 1.0000
vn -0.0000 -0.0000 -1.0000
vn -0.0000 1.0000 -0.0000
vt 0.062500 1.000000
vt 0.000000 1.000000
vt 0.000000 0.937500
vt 0.062500 0.937500
s 1
f 2/1/1 1/2/1 3/3/1 4/4/1
f 7/4/2 5/1/2 6/2/2 8/3/2
f 4/4/3 3/1/3 7/2/3 8/3/3
f 3/4/4 1/1/4 5/2/4 7/3/4
f 6/1/5 2/2/5 4/3/5 8/4/5
f 5/3/6 1/4/6 2/1/6 6/2/6
f 10/1/1 9/2/1 11/3/1 12/4/1
f 15/4/2 13/1/2 14/2/2 16/3/2
f 12/4/3 11/1/3 15/2/3 16/3/3
f 11/4/4 9/1/4 13/2/4 15/3/4
f 14/1/5 10/2/5 12/3/5 16/4/5
f 13/3/6 9/4/6 10/1/6 14/2/6
f 18/1/1 17/2/1 19/3/1 20/4/1
f 23/4/2 21/1/2 22/2/2 24/3/2
f 20/4/3 19/1/3 23/2/3 24/3/3
f 19/4/4 17/1/4 21/2/4 23/3/4
f 22/1/5 18/2/5 20/3/5 24/4/5
f 21/3/6 17/4/6 18/1/6 22/2/6
f 26/1/1 25/2/1 27/3/1 28/4/1
f 31/4/2 29/1/2 30/2/2 32/3/2
f 28/4/3 27/1/3 31/2/3 32/3/3
f 27/4/4 25/1/4 29/2/4 31/3/4
f 30/1/5 26/2/5 28/3/5 32/4/5
f 29/3/6 25/4/6 26/1/6 30/2/6
f 34/1/1 33/2/1 35/3/1 36/4/1
f 39/4/2 37/1/2 38/2/2 40/3/2
f 36/4/3 35/1/3 39/2/3 40/3/3
f 35/4/4 33/1/4 37/2/4 39/3/4
f 38/1/5 34/2/5 36/3/5 40/4/5
f 37/3/6 33/4/6 34/1/6 38/2/6
f 42/1/1 41/2/1 43/3/1 44/4/1
f 47/4/2 45/1/2 46/2/2 48/3/2
f 44/4/3 43/1/3 47/2/3 48/3/3
f 43/4/4 41/1/4 45/2/4 47/3/4
f 46/1/5 42/2/5 44/3/5 48/4/5
f 45/3/6 41/4/6 42/1/6 46/2/6
f 50/1/1 49/2/1 51/3/1 52/4/1
f 55/4/2 53/1/2 54/2/2 56/3/2
f 52/4/3 51/1/3 55/2/3 56/3/3
f 51/4/4 49/1/4 53/2/4 55/3/4
f 54/1/5 50/2/5 52/3/5 56/4/5
f 53/3/6 49/4/6 50/1/6 54/2/6
f 58/1/1 57/2/1 59/3/1 60/4/1
f 63/4/2 61/1/2 62/2/2 64/3/2
f 60/4/3 59/1/3 63/2/3 64/3/3
f 59/4/4 57/1/4 61/2/4 63/3/4
f 62/1/5 58/2/5 60/3/5 64/4/5
f 61/3/6 57/4/6 58/1/6 62/2/6
f 66/1/1 65/2/1 67/3/1 68/4/1
f 71/4/2 69/1/2 70/2/2 72/3/2
f 68/4/3 67/1/3 71/2/3 72/3/3
f 67/4/4 65/1/4 69/2/4 71/3/4
f 70/1/5 66/2/5 68/3/5 72/4/5
f 69/3/6 65/4/6 66/1/6 70/2/6
f 74/1/1 73/2/1 75/3/1 76/4/1
f 79/4/2 77/1/2 78/2/2 80/3/2
f 76/4/3 75/1/3 79/2/3 80/3/3
f 75/4/4 73/1/4 77/2/4 79/3/4
f 78/1/5 74/2/5 76/3/5 80/4/5
f 77/3/6 73/4/6 74/1/6 78/2/6
f 82/1/1 81/2/1 83/3/1 84/4/1
f 87/4/2 85/1/2 86/2/2 88/3/2
f 84/4/3 83/1/3 87/2/3 88/3/3
f 83/4/4 81/1/4 85/2/4 87/3/4
f 86/1/5 82/2/5 84/3/5 88/4/5
f 85/3/6 81/4/6 82/1/6 86/2/6
f 90/1/1 89/2/1 91/3/1 92/4/1
f 95/4/2 93/1/2 94/2/2 96/3/2
f 92/4/3 91/1/3 95/2/3 96/3/3
f 91/4/4 89/1/4 93/2/4 95/3/4
f 94/1/5 90/2/5 92/3/5 96/4/5
f 93/3/6 89/4/6 90/1/6 94/2/6
f 98/1/1 97/2/1 99/3/1 100/4/1
f 103/4/2 101/1/2 102/2/2 104/3/2
f 100/4/3 99/1/3 103/2/3 104/3/3
f 99/4/4 97/1/4 101/2/4 103/3/4
f 102/1/5 98/2/5 100/3/5 104/4/5
f 101/3/6 97/4/6 98/1/6 102/2/6
f 106/1/1 105/2/1 107/3/1 108/4/1
f 111/4/2 109/1/2 110/2/2 112/3/2
f 108/4/3 107/1/3 111/2/3 112/3/3
f 107/4/4 105/1/4 109/2/4 111/3/4
f 110/1/5 106/2/5 108/3/5 112/4/5
f 109/3/6 105/4/6 106/1/6 110/2/6
f 114/1/1 113/2/1 115/3/1 116/4/1
f 119/4/2 117/1/2 118/2/2 120/3/2
f 116/4/3 115/1/3 119/2/3 120/3/3
f 115/4/4 113/1/4 117/2/4 119/3/4
f 118/1/5 114/2/5 116/3/5 120/4/5
f 117/3/6 113/4/6 114/1/6 118/2/6
f 122/1/1 121/2/1 123/3/1 124/4/1
f 127/4/2 125/1/2 126/2/2 128/3/2
f 124/4/3 123/1/3 127/2/3 128/3/3
f 123/4/4 121/1/4 125/2/4 127/3/4
f 126/1/5 122/2/5 124/3/5 128/4/5
f 125/3/6 121/4/6 122/1/6 126/2/6
f 130/1/1 129/2/1 131/3/1 132/4/1
f 135/4/2 133/1/2 134/2/2 136/3/2
f 132/4/3 131/1/3 135/2/3 136/3/3
f 131/4/4 129/1/4 133/2/4 135/3/4
f 134/1/5 130/2/5 132/3/5 136/4/5
f 133/3/6 129/4/6 130/1/6 134/2/6
f 138/1/1 137/2/1 139/3/1 140/4/1
f 143/4/2 141/1/2 142/2/2 144/3/2
f 140/4/3 139/1/3 143/2/3 144/3/3
f 139/4/4 137/1/4 141/2/4 143/3/4
f 142/1/5 138/2/5 140/3/5 144/4/5
f 141/3/6 137/4/6 138/1/6 142/2/6
f 146/1/1 145/2/1 147/3/1 148/4/1
f 151/4/2 149/1/2 150/2/2 152/3/2
f 148/4/3 147/1/3 151/2/3 152/3/3
f 147/4/4 145/1/4 149/2/4 151/3/4
f 150/1/5 146/2/5 148/3/5 152/4/5
f 149/3/6 145/4/6 146/1/6 150/2/6
f 154/1/1 153/2/1 155/3/1 156/4/1
f 159/4/2 157/1/2 158/2/2 160/3/2
f 156/4/3 155/1/3 159/2/3 160/3/3
f 155/4/4 153/1/4 157/2/4 159/3/4
f 158/1/5 154/2/5 156/3/5 160/4/5
f 157/3/6 153/4/6 154/1/6 158/2/6
f 162/1/1 161/2/1 163/3/1 164/4/1
f 167/4/2 165/1/2 166/2/2 168/3/2
f 164/4/3 163/1/3 167/2/3 168/3/3
f 163/4/4 161/1/4 165/2/4 167/3/4
f 166/1/5 162/2/5 164/3/5 168/4/5
f 165/3/6 161/4/6 162/1/6 166/2/6
f 170/1/1 169/2/1 171/3/1 172/4/1
f 175/4/2 173/1/2 174/2/2 176/3/2
f 172/4/3 171/1/3 175/2/3 176/3/3
f 171/4/4 169/1/4 173/2/4 175/3/4
f 174/1/5 170/2/5 172/3/5 176/4/5
f 173/3/6 169/4/6 170/1/6 174/2/6
f 178/1/1 177/2/1 179/3/1 180/4/1
f 183/4/2 181/1/2 182/2/2 184/3/2
f 180/4/3 179/1/3 183/2/3 184/3/3
f 179/4/4 177/1/4 181/2/4 183/3/4
f 182/1/5 178/2/5 180/3/5 184/4/5
f 181/3/6 177/4/6 178/1/6 182/2/6
f 186/1/1 185/2/1 187/3/1 188/4/1
f 191/4/2 189/1/2 190/2/2 192/3/2
f 188/4/3 187/1/3 191/2/3 192/3/3
f 187/4/4 185/1/4 189/2/4 191/3/4
f 190/1/5 186/2/5 188/3/5 192/4/5
f 189/3/6 185/4/6 186/1/6 190/2/6
f 194/1/1 193/2/1 195/3/1 196/4/1
f 199/4/2 197/1/2 198/2/2 200/3/2
f 196/4/3 195/1/3 199/2/3 200/3/3
f 195/4/4 193/1/4 197/2/4 199/3/4
f 198/1/5 194/2/5 196/3/5 200/4/5
f 197/3/6 193/4/6 194/1/6 198/2/6
f 202/1/1 201/2/1 203/3/1 204/4/1
f 207/4/2 205/1/2 206/2/2 208/3/2
f 204/4/3 203/1/3 207/2/3 208/3/3
f 203/4/4 201/1/4 205/2/4 207/3/4
f 206/1/5 202/2/5 204/3/5 208/4/5
f 205/3/6 201/4/6 202/1/6 206/2/6
f 210/1/1 209/2/1 211/3/1 212/4/1
f 215/4/2 213/1/2 214/2/2 216/3/2
f 212/4/3 211/1/3 215/2/3 216/3/3
f 211/4/4 209/1/4 213/2/4 215/3/4
f 214/1/5 210/2/5 212/3/5 216/4/5
f 213/3/6 209/4/6 210/1/6 214/2/6
f 218/1/1 217/2/1 219/3/1 220/4/1
f 223/4/2 221/1/2 222/2/2 224/3/2
f 220/4/3 219/1/3 223/2/3 224/3/3
f 219/4/4 217/1/4 221/2/4 223/3/4
f 222/1/5 218/2/5 220/3/5 224/4/5
f 221/3/6 217/4/6 218/1/6 222/2/6
f 226/1/1 225/2/1 227/3/1 228/4/1
f 231/4/2 229/1/2 230/2/2 232/3/2
f 228/4/3 227/1/3 231/2/3 232/3/3
f 227/4/4 225/1/4 229/2/4 231/3/4
f 230/1/5 226/2/5 228/3/5 232/4/5
f 229/3/6 225/4/6 226/1/6 230/2/6
f 234/1/1 233/2/1 235/3/1 236/4/1
f 239/4/2 237/1/2 238/2/2 240/3/2
f 236/4/3 235/1/3 239/2/3 240/3/3
f 235/4/4 233/1/4 237/2/4 239/3/4
f 238/1/5 234/2/5 236/3/5 240/4/5
f 237/3/6 233/4/6 234/1/6 238/2/6
f 242/1/1 241/2/1 243/3/1 244/4/1
f 247/4/2 245/1/2 246/2/2 248/3/2
f 244/4/3 243/1/3 247/2/3 248/3/3
f 243/4/4 241/1/4 245/2/4 247/3/4
f 246/1/5 242/2/5 244/3/5 248/4/5
f 245/3/6 241/4/6 242/1/6 246/2/6
f 250/1/1 249/2/1 251/3/1 252/4/1
f 255/4/2 253/1/2 254/2/2 256/3/2
f 252/4/3 251/1/3 255/2/3 256/3/3
f 251/4/4 249/1/4 253/2/4 255/3/4
f 254/1/5 250/2/5 252/3/5 256/4/5
f 253/3/6 249/4/6 250/1/6 254/2/6
f 258/1/1 257/2/1 259/3/1 260/4/1
f 263/4/2 261/1/2 262/2/2 264/3/2
f 260/4/3 259/1/3 263/2/3 264/3/3
f 259/4/4 257/1/4 261/2/4 263/3/4
f 262/1/5 258/2/5 260/3/5 264/4/5
f 261/3/6 257/4/6 258/1/6 262/2/6
f 266/1/1 265/2/1 267/3/1 268/4/1
f 271/4/2 269/1/2 270/2/2 272/3/2
f 268/4/3 267/1/3 271/2/3 272/3/3
f 267/4/4 265/1/4 269/2/4 271/3/4
f 270/1/5 266/2/5 268/3/5 272/4/5
f 269/3/6 265/4/6 266/1/6 270/2/6
f 274/1/1 273/2/1 275/3/1 276/4/1
f 279/4/2 277/1/2 278/2/2 280/3/2
f 276/4/3 275/1/3 279/2/3 280/3/3
f 275/4/4 273/1/4 277/2/4 279/3/4
f 278/1/5 274/2/5 276/3/5 280/4/5
f 277/3/6 273/4/6 274/1/6 278/2/6
f 282/1/1 281/2/1 283/3/1 284/4/1
f 287/4/2 285/1/2 286/2/2 288/3/2
f 284/4/3 283/1/3 287/2/3 288/3/3
f 283/4/4 281/1/4 285/2/4 287/3/4
f 286/1/5 282/2/5 284/3/5 288/4/5
f 285/3/6 281/4/6 282/1/6 286/2/6
f 290/1/1 289/2/1 291/3/1 292/4/1
f 295/4/2 293/1/2 294/2/2 296/3/2
f 292/4/3 291/1/3 295/2/3 296/3/3
f 291/4/4 289/1/4 293/2/4 295/3/4
f 294/1/5 290/2/5 292/3/5 296/4/5
f 293/3/6 289/4/6 290/1/6 294/2/6
f 298/1/1 297/2/1 299/3/1 300/4/1
f 303/4/2 301/1/2 302/2/2 304/3/2
f 300/4/3 299/1/3 303/2/3 304/3/3
f 299/4/4 297/1/4 301/2/4 303/3/4
f 302/1/5 298/2/5 300/3/5 304/4/5
f 301/3/6 297/4/6 298/1/6 302/2/6
f 306/1/1 305/2/1 307/3/1 308/4/1
f 311/4/2 309/1/2 310/2/2 312/3/2
f 308/4/3 307/1/3 311/2/3 312/3/3
f 307/4/4 305/1/4 309/2/4 311/3/4
f 310/1/5 306/2/5 308/3/5 312/4/5
f 309/3/6 305/4/6 306/1/6 310/2/6
f 314/1/1 313/2/1 315/3/1 316/4/1
f 319/4/2 317/1/2 318/2/2 320/3/2
f 316/4/3 315/1/3 319/2/3 320/3/3
f 315/4/4 313/1/4 317/2/4 319/3/4
f 318/1/5 314/2/5 316/3/5 320/4/5
f 317/3/6 313/4/6 314/1/6 318/2/6
f 322/1/1 321/2/1 323/3/1 324/4/1
f 327/4/2 325/1/2 326/2/2 328/3/2
f 324/4/3 323/1/3 327/2/3 328/3/3
f 323/4/4 321/1/4 325/2/4 327/3/4
f 326/1/5 322/2/5 324/3/5 328/4/5
f 325/3/6 321/4/6 322/1/6 326/2/6
f 330/1/1 329/2/1 331/3/1 332/4/1
f 335/4/2 333/1/2 334/2/2 336/3/2
f 332/4/3 331/1/3 335/2/3 336/3/3
f 331/4/4 329/1/4 333/2/4 335/3/4
f 334/1/5 330/2/5 332/3/5 336/4/5
f 333/3/6 329/4/6 330/1/6 334/2/6
f 338/1/1 337/2/1 339/3/1 340/4/1
f 343/4/2 341/1/2 342/2/2 344/3/2
f 340/4/3 339/1/3 343/2/3 344/3/3
f 339/4/4 337/1/4 341/2/4 343/3/4
f 342/1/5 338/2/5 340/3/5 344/4/5
f 341/3/6 337/4/6 338/1/6 342/2/6
f 346/1/1 345/2/1 347/3/1 348/4/1
f 351/4/2 349/1/2 350/2/2 352/3/2
f 348/4/3 347/1/3 351/2/3 352/3/3
f 347/4/4 345/1/4 349/2/4 351/3/4
f 350/1/5 346/2/5 348/3/5 352/4/5
f 349/3/6 345/4/6 346/1/6 350/2/6
f 354/1/1 353/2/1 355/3/1 356/4/1
f 359/4/2 357/1/2 358/2/2 360/3/2
f 356/4/3 355/1/3 359/2/3 360/3/3
f 355/4/4 353/1/4 357/2/4 359/3/4
f 358/1/5 354/2/5 356/3/5 360/4/5
f 357/3/6 353/4/6 354/1/6 358/2/6
