# Blender 5.2.0 LTS
# www.blender.org
mtllib mid_floor_door_closed.mtl
o mid_floor_door_closed
v 0.812500 0.125000 0.375000
v 1.406250 0.156250 -0.500000
v 1.406250 0.156250 0.500000
v 1.406250 0.125000 -0.500000
v 1.406250 0.125000 0.500000
v 1.468750 0.156250 -0.500000
v 1.468750 0.156250 0.500000
v 1.468750 0.125000 -0.500000
v 1.468750 0.125000 0.500000
v 0.625000 0.125000 -0.375000
v 0.625000 0.125000 -0.125000
v 0.625000 0.062500 -0.375000
v 0.625000 0.062500 -0.125000
v 0.875000 0.125000 -0.375000
v 0.875000 0.125000 -0.125000
v 0.875000 0.062500 -0.375000
v 0.875000 0.062500 -0.125000
v 1.437500 0.062500 -0.500000
v 1.437500 0.062500 0.500000
v 1.437500 0.000000 -0.500000
v 1.437500 0.000000 0.500000
v 1.500000 0.062500 -0.500000
v 1.500000 0.062500 0.500000
v 1.500000 0.000000 -0.500000
v 1.500000 0.000000 0.500000
v 1.125000 0.125000 0.125000
v 1.125000 0.125000 0.375000
v 1.125000 0.062500 0.125000
v 1.125000 0.062500 0.375000
v 1.375000 0.125000 0.125000
v 1.375000 0.125000 0.375000
v 1.375000 0.062500 0.125000
v 1.375000 0.062500 0.375000
v 0.625000 0.125000 0.125000
v 0.625000 0.125000 0.375000
v 0.625000 0.062500 0.125000
v 0.625000 0.062500 0.375000
v 0.875000 0.125000 0.125000
v 0.875000 0.125000 0.375000
v 0.875000 0.062500 0.125000
v 0.875000 0.062500 0.375000
v 0.875000 0.125000 -0.125000
v 0.875000 0.125000 0.125000
v 0.875000 0.062500 -0.125000
v 0.875000 0.062500 0.125000
v 1.125000 0.125000 -0.125000
v 1.125000 0.125000 0.125000
v 1.125000 0.062500 -0.125000
v 1.125000 0.062500 0.125000
v 1.125000 0.125000 -0.375000
v 1.125000 0.125000 -0.125000
v 1.125000 0.062500 -0.375000
v 1.125000 0.062500 -0.125000
v 1.375000 0.125000 -0.375000
v 1.375000 0.125000 -0.125000
v 1.375000 0.062500 -0.375000
v 1.375000 0.062500 -0.125000
v 0.875000 0.125000 -0.500000
v 0.875000 0.125000 -0.375000
v 0.875000 0.062500 -0.500000
v 0.875000 0.062500 -0.375000
v 1.125000 0.125000 -0.500000
v 1.125000 0.125000 -0.375000
v 1.125000 0.062500 -0.500000
v 1.125000 0.062500 -0.375000
v 0.875000 0.125000 0.375000
v 0.875000 0.125000 0.500000
v 0.875000 0.062500 0.375000
v 0.875000 0.062500 0.500000
v 1.125000 0.125000 0.375000
v 1.125000 0.125000 0.500000
v 1.125000 0.062500 0.375000
v 1.125000 0.062500 0.500000
v 0.500000 0.125000 -0.125000
v 0.500000 0.125000 0.125000
v 0.500000 0.062500 -0.125000
v 0.500000 0.062500 0.125000
v 0.625000 0.125000 -0.125000
v 0.625000 0.125000 0.125000
v 0.625000 0.062500 -0.125000
v 0.625000 0.062500 0.125000
v 0.500000 0.125000 0.375000
v 0.500000 0.125000 0.500000
v 0.500000 0.062500 0.375000
v 0.500000 0.062500 0.500000
v 0.625000 0.125000 0.375000
v 0.625000 0.125000 0.500000
v 0.625000 0.062500 0.375000
v 0.625000 0.062500 0.500000
v 0.562500 0.125000 -0.375000
v 0.562500 0.125000 -0.312500
v 0.562500 0.062500 -0.375000
v 0.562500 0.062500 -0.312500
v 0.625000 0.125000 -0.375000
v 0.625000 0.125000 -0.312500
v 0.625000 0.062500 -0.375000
v 0.625000 0.062500 -0.312500
v 0.562500 0.125000 0.312500
v 0.562500 0.125000 0.375000
v 0.562500 0.062500 0.312500
v 0.562500 0.062500 0.375000
v 0.625000 0.125000 0.312500
v 0.625000 0.125000 0.375000
v 0.625000 0.062500 0.312500
v 0.625000 0.062500 0.375000
v 0.562500 0.125000 0.125000
v 0.562500 0.125000 0.187500
v 0.562500 0.062500 0.125000
v 0.562500 0.062500 0.187500
v 0.625000 0.125000 0.125000
v 0.625000 0.125000 0.187500
v 0.625000 0.062500 0.125000
v 0.625000 0.062500 0.187500
v 0.562500 0.125000 -0.187500
v 0.562500 0.125000 -0.125000
v 0.562500 0.062500 -0.187500
v 0.562500 0.062500 -0.125000
v 0.625000 0.125000 -0.187500
v 0.625000 0.125000 -0.125000
v 0.625000 0.062500 -0.187500
v 0.625000 0.062500 -0.125000
v 1.312500 0.125000 -0.437500
v 1.312500 0.125000 -0.375000
v 1.312500 0.062500 -0.437500
v 1.312500 0.062500 -0.375000
v 1.375000 0.125000 -0.437500
v 1.375000 0.125000 -0.375000
v 1.375000 0.062500 -0.437500
v 1.375000 0.062500 -0.375000
v 1.125000 0.125000 -0.125000
v 1.125000 0.125000 -0.062500
v 1.125000 0.062500 -0.125000
v 1.125000 0.062500 -0.062500
v 1.187500 0.125000 -0.125000
v 1.187500 0.125000 -0.062500
v 1.187500 0.062500 -0.125000
v 1.187500 0.062500 -0.062500
v 1.312500 0.125000 0.062500
v 1.312500 0.125000 0.125000
v 1.312500 0.062500 0.062500
v 1.312500 0.062500 0.125000
v 1.375000 0.125000 0.062500
v 1.375000 0.125000 0.125000
v 1.375000 0.062500 0.062500
v 1.375000 0.062500 0.125000
v 1.312500 0.125000 -0.125000
v 1.312500 0.125000 -0.062500
v 1.312500 0.062500 -0.125000
v 1.312500 0.062500 -0.062500
v 1.375000 0.125000 -0.125000
v 1.375000 0.125000 -0.062500
v 1.375000 0.062500 -0.125000
v 1.375000 0.062500 -0.062500
v 0.625000 0.125000 0.062500
v 0.625000 0.125000 0.125000
v 0.625000 0.062500 0.062500
v 0.625000 0.062500 0.125000
v 0.687500 0.125000 0.062500
v 0.687500 0.125000 0.125000
v 0.687500 0.062500 0.062500
v 0.687500 0.062500 0.125000
v 0.625000 0.125000 -0.125000
v 0.625000 0.125000 -0.062500
v 0.625000 0.062500 -0.125000
v 0.625000 0.062500 -0.062500
v 0.687500 0.125000 -0.125000
v 0.687500 0.125000 -0.062500
v 0.687500 0.062500 -0.125000
v 0.687500 0.062500 -0.062500
v 1.062500 0.125000 -0.187500
v 1.062500 0.125000 -0.125000
v 1.062500 0.062500 -0.187500
v 1.062500 0.062500 -0.125000
v 1.125000 0.125000 -0.187500
v 1.125000 0.125000 -0.125000
v 1.125000 0.062500 -0.187500
v 1.125000 0.062500 -0.125000
v 0.625000 0.125000 -0.437500
v 0.625000 0.125000 -0.375000
v 0.625000 0.062500 -0.437500
v 0.625000 0.062500 -0.375000
v 0.687500 0.125000 -0.437500
v 0.687500 0.125000 -0.375000
v 0.687500 0.062500 -0.437500
v 0.687500 0.062500 -0.375000
v 0.812500 0.125000 -0.125000
v 0.812500 0.125000 -0.062500
v 0.812500 0.062500 -0.125000
v 0.812500 0.062500 -0.062500
v 0.875000 0.125000 -0.125000
v 0.875000 0.125000 -0.062500
v 0.875000 0.062500 -0.125000
v 0.875000 0.062500 -0.062500
v 0.875000 0.125000 -0.187500
v 0.875000 0.125000 -0.125000
v 0.875000 0.062500 -0.187500
v 0.875000 0.062500 -0.125000
v 0.937500 0.125000 -0.187500
v 0.937500 0.125000 -0.125000
v 0.937500 0.062500 -0.187500
v 0.937500 0.062500 -0.125000
v 0.625000 0.125000 0.375000
v 0.625000 0.125000 0.437500
v 0.625000 0.062500 0.375000
v 0.625000 0.062500 0.437500
v 0.687500 0.125000 0.375000
v 0.687500 0.125000 0.437500
v 0.687500 0.062500 0.375000
v 0.687500 0.062500 0.437500
v 0.812500 0.125000 -0.437500
v 0.812500 0.125000 -0.375000
v 0.812500 0.062500 -0.437500
v 0.812500 0.062500 -0.375000
v 0.875000 0.125000 -0.437500
v 0.875000 0.125000 -0.375000
v 0.875000 0.062500 -0.437500
v 0.875000 0.062500 -0.375000
v 0.812500 0.125000 0.437500
v 0.812500 0.062500 0.375000
v 0.812500 0.062500 0.437500
v 0.875000 0.125000 0.375000
v 0.875000 0.125000 0.437500
v 0.875000 0.062500 0.375000
v 0.875000 0.062500 0.437500
v 0.812500 0.125000 0.062500
v 0.812500 0.125000 0.125000
v 0.812500 0.062500 0.062500
v 0.812500 0.062500 0.125000
v 0.875000 0.125000 0.062500
v 0.875000 0.125000 0.125000
v 0.875000 0.062500 0.062500
v 0.875000 0.062500 0.125000
v 0.875000 0.125000 0.125000
v 0.875000 0.125000 0.187500
v 0.875000 0.062500 0.125000
v 0.875000 0.062500 0.187500
v 0.937500 0.125000 0.125000
v 0.937500 0.125000 0.187500
v 0.937500 0.062500 0.125000
v 0.937500 0.062500 0.187500
v 1.062500 0.125000 0.312500
v 1.062500 0.125000 0.375000
v 1.062500 0.062500 0.312500
v 1.062500 0.062500 0.375000
v 1.125000 0.125000 0.312500
v 1.125000 0.125000 0.375000
v 1.125000 0.062500 0.312500
v 1.125000 0.062500 0.375000
v 0.875000 0.125000 0.312500
v 0.875000 0.125000 0.375000
v 0.875000 0.062500 0.312500
v 0.875000 0.062500 0.375000
v 0.937500 0.125000 0.312500
v 0.937500 0.125000 0.375000
v 0.937500 0.062500 0.312500
v 0.937500 0.062500 0.375000
v 1.062500 0.125000 -0.375000
v 1.062500 0.125000 -0.312500
v 1.062500 0.062500 -0.375000
v 1.062500 0.062500 -0.312500
v 1.125000 0.125000 -0.375000
v 1.125000 0.125000 -0.312500
v 1.125000 0.062500 -0.375000
v 1.125000 0.062500 -0.312500
v 0.875000 0.125000 -0.375000
v 0.875000 0.125000 -0.312500
v 0.875000 0.062500 -0.375000
v 0.875000 0.062500 -0.312500
v 0.937500 0.125000 -0.375000
v 0.937500 0.125000 -0.312500
v 0.937500 0.062500 -0.375000
v 0.937500 0.062500 -0.312500
v 1.312500 0.125000 0.375000
v 1.312500 0.125000 0.437500
v 1.312500 0.062500 0.375000
v 1.312500 0.062500 0.437500
v 1.375000 0.125000 0.375000
v 1.375000 0.125000 0.437500
v 1.375000 0.062500 0.375000
v 1.375000 0.062500 0.437500
v 1.125000 0.125000 -0.437500
v 1.125000 0.125000 -0.375000
v 1.125000 0.062500 -0.437500
v 1.125000 0.062500 -0.375000
v 1.187500 0.125000 -0.437500
v 1.187500 0.125000 -0.375000
v 1.187500 0.062500 -0.437500
v 1.187500 0.062500 -0.375000
v 1.125000 0.125000 0.375000
v 1.125000 0.125000 0.437500
v 1.125000 0.062500 0.375000
v 1.125000 0.062500 0.437500
v 1.187500 0.125000 0.375000
v 1.187500 0.125000 0.437500
v 1.187500 0.062500 0.375000
v 1.187500 0.062500 0.437500
v 1.125000 0.125000 0.062500
v 1.125000 0.125000 0.125000
v 1.125000 0.062500 0.062500
v 1.125000 0.062500 0.125000
v 1.187500 0.125000 0.062500
v 1.187500 0.125000 0.125000
v 1.187500 0.062500 0.062500
v 1.187500 0.062500 0.125000
v 1.062500 0.125000 0.125000
v 1.062500 0.125000 0.187500
v 1.062500 0.062500 0.125000
v 1.062500 0.062500 0.187500
v 1.125000 0.125000 0.125000
v 1.125000 0.125000 0.187500
v 1.125000 0.062500 0.125000
v 1.125000 0.062500 0.187500
v 0.500000 0.125000 -0.500000
v 0.500000 0.125000 -0.375000
v 0.500000 0.062500 -0.500000
v 0.500000 0.062500 -0.375000
v 0.625000 0.125000 -0.500000
v 0.625000 0.125000 -0.375000
v 0.625000 0.062500 -0.500000
v 0.625000 0.062500 -0.375000
v 1.375000 0.125000 -0.500000
v 1.375000 0.125000 0.500000
v 1.375000 0.062500 -0.500000
v 1.375000 0.062500 0.500000
v 1.500000 0.125000 -0.500000
v 1.500000 0.125000 0.500000
v 1.500000 0.062500 -0.500000
v 1.500000 0.062500 0.500000
vn -1.0000 -0.0000 -0.0000
vn 1.0000 -0.0000 -0.0000
vn -0.0000 -1.0000 -0.0000
vn -0.0000 -0.0000 -1.0000
vn -0.0000 -0.0000 1.0000
vn -0.0000 1.0000 -0.0000
vt 0.062500 1.000000
vt 0.000000 1.000000
vt 0.000000 0.937500
vt 0.062500 0.937500
s 1
f 3/1/1 2/2/1 4/3/1 5/4/1
f 8/4/2 6/1/2 7/2/2 9/3/2
f 5/4/3 4/1/3 8/2/3 9/3/3
f 4/4/4 2/1/4 6/2/4 8/3/4
f 7/1/5 3/2/5 5/3/5 9/4/5
f 6/3/6 2/4/6 3/1/6 7/2/6
f 11/1/1 10/2/1 12/3/1 13/4/1
f 16/4/2 14/1/2 15/2/2 17/3/2
f 13/4/3 12/1/3 16/2/3 17/3/3
f 12/4/4 10/1/4 14/2/4 16/3/4
f 15/1/5 11/2/5 13/3/5 17/4/5
f 14/3/6 10/4/6 11/1/6 15/2/6
f 19/1/1 18/2/1 20/3/1 21/4/1
f 24/4/2 22/1/2 23/2/2 25/3/2
f 21/4/3 20/1/3 24/2/3 25/3/3
f 20/4/4 18/1/4 22/2/4 24/3/4
f 23/1/5 19/2/5 21/3/5 25/4/5
f 22/3/6 18/4/6 19/1/6 23/2/6
f 27/1/1 26/2/1 28/3/1 29/4/1
f 32/4/2 30/1/2 31/2/2 33/3/2
f 29/4/3 28/1/3 32/2/3 33/3/3
f 28/4/4 26/1/4 30/2/4 32/3/4
f 31/1/5 27/2/5 29/3/5 33/4/5
f 30/3/6 26/4/6 27/1/6 31/2/6
f 35/1/1 34/2/1 36/3/1 37/4/1
f 40/4/2 38/1/2 39/2/2 41/3/2
f 37/4/3 36/1/3 40/2/3 41/3/3
f 36/4/4 34/1/4 38/2/4 40/3/4
f 39/1/5 35/2/5 37/3/5 41/4/5
f 38/3/6 34/4/6 35/1/6 39/2/6
f 43/1/1 42/2/1 44/3/1 45/4/1
f 48/4/2 46/1/2 47/2/2 49/3/2
f 45/4/3 44/1/3 48/2/3 49/3/3
f 44/4/4 42/1/4 46/2/4 48/3/4
f 47/1/5 43/2/5 45/3/5 49/4/5
f 46/3/6 42/4/6 43/1/6 47/2/6
f 51/1/1 50/2/1 52/3/1 53/4/1
f 56/4/2 54/1/2 55/2/2 57/3/2
f 53/4/3 52/1/3 56/2/3 57/3/3
f 52/4/4 50/1/4 54/2/4 56/3/4
f 55/1/5 51/2/5 53/3/5 57/4/5
f 54/3/6 50/4/6 51/1/6 55/2/6
f 59/1/1 58/2/1 60/3/1 61/4/1
f 64/4/2 62/1/2 63/2/2 65/3/2
f 61/4/3 60/1/3 64/2/3 65/3/3
f 60/4/4 58/1/4 62/2/4 64/3/4
f 63/1/5 59/2/5 61/3/5 65/4/5
f 62/3/6 58/4/6 59/1/6 63/2/6
f 67/1/1 66/2/1 68/3/1 69/4/1
f 72/4/2 70/1/2 71/2/2 73/3/2
f 69/4/3 68/1/3 72/2/3 73/3/3
f 68/4/4 66/1/4 70/2/4 72/3/4
f 71/1/5 67/2/5 69/3/5 73/4/5
f 70/3/6 66/4/6 67/1/6 71/2/6
f 75/1/1 74/2/1 76/3/1 77/4/1
f 80/4/2 78/1/2 79/2/2 81/3/2
f 77/4/3 76/1/3 80/2/3 81/3/3
f 76/4/4 74/1/4 78/2/4 80/3/4
f 79/1/5 75/2/5 77/3/5 81/4/5
f 78/3/6 74/4/6 75/1/6 79/2/6
f 83/1/1 82/2/1 84/3/1 85/4/1
f 88/4/2 86/1/2 87/2/2 89/3/2
f 85/4/3 84/1/3 88/2/3 89/3/3
f 84/4/4 82/1/4 86/2/4 88/3/4
f 87/1/5 83/2/5 85/3/5 89/4/5
f 86/3/6 82/4/6 83/1/6 87/2/6
f 91/1/1 90/2/1 92/3/1 93/4/1
f 96/4/2 94/1/2 95/2/2 97/3/2
f 93/4/3 92/1/3 96/2/3 97/3/3
f 92/4/4 90/1/4 94/2/4 96/3/4
f 95/1/5 91/2/5 93/3/5 97/4/5
f 94/3/6 90/4/6 91/1/6 95/2/6
f 99/1/1 98/2/1 100/3/1 101/4/1
f 104/4/2 102/1/2 103/2/2 105/3/2
f 101/4/3 100/1/3 104/2/3 105/3/3
f 100/4/4 98/1/4 102/2/4 104/3/4
f 103/1/5 99/2/5 101/3/5 105/4/5
f 102/3/6 98/4/6 99/1/6 103/2/6
f 107/1/1 106/2/1 108/3/1 109/4/1
f 112/4/2 110/1/2 111/2/2 113/3/2
f 109/4/3 108/1/3 112/2/3 113/3/3
f 108/4/4 106/1/4 110/2/4 112/3/4
f 111/1/5 107/2/5 109/3/5 113/4/5
f 110/3/6 106/4/6 107/1/6 111/2/6
f 115/1/1 114/2/1 116/3/1 117/4/1
f 120/4/2 118/1/2 119/2/2 121/3/2
f 117/4/3 116/1/3 120/2/3 121/3/3
f 116/4/4 114/1/4 118/2/4 120/3/4
f 119/1/5 115/2/5 117/3/5 121/4/5
f 118/3/6 114/4/6 115/1/6 119/2/6
f 123/1/1 122/2/1 124/3/1 125/4/1
f 128/4/2 126/1/2 127/2/2 129/3/2
f 125/4/3 124/1/3 128/2/3 129/3/3
f 124/4/4 122/1/4 126/2/4 128/3/4
f 127/1/5 123/2/5 125/3/5 129/4/5
f 126/3/6 122/4/6 123/1/6 127/2/6
f 131/1/1 130/2/1 132/3/1 133/4/1
f 136/4/2 134/1/2 135/2/2 137/3/2
f 133/4/3 132/1/3 136/2/3 137/3/3
f 132/4/4 130/1/4 134/2/4 136/3/4
f 135/1/5 131/2/5 133/3/5 137/4/5
f 134/3/6 130/4/6 131/1/6 135/2/6
f 139/1/1 138/2/1 140/3/1 141/4/1
f 144/4/2 142/1/2 143/2/2 145/3/2
f 141/4/3 140/1/3 144/2/3 145/3/3
f 140/4/4 138/1/4 142/2/4 144/3/4
f 143/1/5 139/2/5 141/3/5 145/4/5
f 142/3/6 138/4/6 139/1/6 143/2/6
f 147/1/1 146/2/1 148/3/1 149/4/1
f 152/4/2 150/1/2 151/2/2 153/3/2
f 149/4/3 148/1/3 152/2/3 153/3/3
f 148/4/4 146/1/4 150/2/4 152/3/4
f 151/1/5 147/2/5 149/3/5 153/4/5
f 150/3/6 146/4/6 147/1/6 151/2/6
f 155/1/1 154/2/1 156/3/1 157/4/1
f 160/4/2 158/1/2 159/2/2 161/3/2
f 157/4/3 156/1/3 160/2/3 161/3/3
f 156/4/4 154/1/4 158/2/4 160/3/4
f 159/1/5 155/2/5 157/3/5 161/4/5
f 158/3/6 154/4/6 155/1/6 159/2/6
f 163/1/1 162/2/1 164/3/1 165/4/1
f 168/4/2 166/1/2 167/2/2 169/3/2
f 165/4/3 164/1/3 168/2/3 169/3/3
f 164/4/4 162/1/4 166/2/4 168/3/4
f 167/1/5 163/2/5 165/3/5 169/4/5
f 166/3/6 162/4/6 163/1/6 167/2/6
f 171/1/1 170/2/1 172/3/1 173/4/1
f 176/4/2 174/1/2 175/2/2 177/3/2
f 173/4/3 172/1/3 176/2/3 177/3/3
f 172/4/4 170/1/4 174/2/4 176/3/4
f 175/1/5 171/2/5 173/3/5 177/4/5
f 174/3/6 170/4/6 171/1/6 175/2/6
f 179/1/1 178/2/1 180/3/1 181/4/1
f 184/4/2 182/1/2 183/2/2 185/3/2
f 181/4/3 180/1/3 184/2/3 185/3/3
f 180/4/4 178/1/4 182/2/4 184/3/4
f 183/1/5 179/2/5 181/3/5 185/4/5
f 182/3/6 178/4/6 179/1/6 183/2/6
f 187/1/1 186/2/1 188/3/1 189/4/1
f 192/4/2 190/1/2 191/2/2 193/3/2
f 189/4/3 188/1/3 192/2/3 193/3/3
f 188/4/4 186/1/4 190/2/4 192/3/4
f 191/1/5 187/2/5 189/3/5 193/4/5
f 190/3/6 186/4/6 187/1/6 191/2/6
f 195/1/1 194/2/1 196/3/1 197/4/1
f 200/4/2 198/1/2 199/2/2 201/3/2
f 197/4/3 196/1/3 200/2/3 201/3/3
f 196/4/4 194/1/4 198/2/4 200/3/4
f 199/1/5 195/2/5 197/3/5 201/4/5
f 198/3/6 194/4/6 195/1/6 199/2/6
f 203/1/1 202/2/1 204/3/1 205/4/1
f 208/4/2 206/1/2 207/2/2 209/3/2
f 205/4/3 204/1/3 208/2/3 209/3/3
f 204/4/4 202/1/4 206/2/4 208/3/4
f 207/1/5 203/2/5 205/3/5 209/4/5
f 206/3/6 202/4/6 203/1/6 207/2/6
f 211/1/1 210/2/1 212/3/1 213/4/1
f 216/4/2 214/1/2 215/2/2 217/3/2
f 213/4/3 212/1/3 216/2/3 217/3/3
f 212/4/4 210/1/4 214/2/4 216/3/4
f 215/1/5 211/2/5 213/3/5 217/4/5
f 214/3/6 210/4/6 211/1/6 215/2/6
f 218/1/1 1/2/1 219/3/1 220/4/1
f 223/4/2 221/1/2 222/2/2 224/3/2
f 220/4/3 219/1/3 223/2/3 224/3/3
f 219/4/4 1/1/4 221/2/4 223/3/4
f 222/1/5 218/2/5 220/3/5 224/4/5
f 221/3/6 1/4/6 218/1/6 222/2/6
f 226/1/1 225/2/1 227/3/1 228/4/1
f 231/4/2 229/1/2 230/2/2 232/3/2
f 228/4/3 227/1/3 231/2/3 232/3/3
f 227/4/4 225/1/4 229/2/4 231/3/4
f 230/1/5 226/2/5 228/3/5 232/4/5
f 229/3/6 225/4/6 226/1/6 230/2/6
f 234/1/1 233/2/1 235/3/1 236/4/1
f 239/4/2 237/1/2 238/2/2 240/3/2
f 236/4/3 235/1/3 239/2/3 240/3/3
f 235/4/4 233/1/4 237/2/4 239/3/4
f 238/1/5 234/2/5 236/3/5 240/4/5
f 237/3/6 233/4/6 234/1/6 238/2/6
f 242/1/1 241/2/1 243/3/1 244/4/1
f 247/4/2 245/1/2 246/2/2 248/3/2
f 244/4/3 243/1/3 247/2/3 248/3/3
f 243/4/4 241/1/4 245/2/4 247/3/4
f 246/1/5 242/2/5 244/3/5 248/4/5
f 245/3/6 241/4/6 242/1/6 246/2/6
f 250/1/1 249/2/1 251/3/1 252/4/1
f 255/4/2 253/1/2 254/2/2 256/3/2
f 252/4/3 251/1/3 255/2/3 256/3/3
f 251/4/4 249/1/4 253/2/4 255/3/4
f 254/1/5 250/2/5 252/3/5 256/4/5
f 253/3/6 249/4/6 250/1/6 254/2/6
f 258/1/1 257/2/1 259/3/1 260/4/1
f 263/4/2 261/1/2 262/2/2 264/3/2
f 260/4/3 259/1/3 263/2/3 264/3/3
f 259/4/4 257/1/4 261/2/4 263/3/4
f 262/1/5 258/2/5 260/3/5 264/4/5
f 261/3/6 257/4/6 258/1/6 262/2/6
f 266/1/1 265/2/1 267/3/1 268/4/1
f 271/4/2 269/1/2 270/2/2 272/3/2
f 268/4/3 267/1/3 271/2/3 272/3/3
f 267/4/4 265/1/4 269/2/4 271/3/4
f 270/1/5 266/2/5 268/3/5 272/4/5
f 269/3/6 265/4/6 266/1/6 270/2/6
f 274/1/1 273/2/1 275/3/1 276/4/1
f 279/4/2 277/1/2 278/2/2 280/3/2
f 276/4/3 275/1/3 279/2/3 280/3/3
f 275/4/4 273/1/4 277/2/4 279/3/4
f 278/1/5 274/2/5 276/3/5 280/4/5
f 277/3/6 273/4/6 274/1/6 278/2/6
f 282/1/1 281/2/1 283/3/1 284/4/1
f 287/4/2 285/1/2 286/2/2 288/3/2
f 284/4/3 283/1/3 287/2/3 288/3/3
f 283/4/4 281/1/4 285/2/4 287/3/4
f 286/1/5 282/2/5 284/3/5 288/4/5
f 285/3/6 281/4/6 282/1/6 286/2/6
f 290/1/1 289/2/1 291/3/1 292/4/1
f 295/4/2 293/1/2 294/2/2 296/3/2
f 292/4/3 291/1/3 295/2/3 296/3/3
f 291/4/4 289/1/4 293/2/4 295/3/4
f 294/1/5 290/2/5 292/3/5 296/4/5
f 293/3/6 289/4/6 290/1/6 294/2/6
f 298/1/1 297/2/1 299/3/1 300/4/1
f 303/4/2 301/1/2 302/2/2 304/3/2
f 300/4/3 299/1/3 303/2/3 304/3/3
f 299/4/4 297/1/4 301/2/4 303/3/4
f 302/1/5 298/2/5 300/3/5 304/4/5
f 301/3/6 297/4/6 298/1/6 302/2/6
f 306/1/1 305/2/1 307/3/1 308/4/1
f 311/4/2 309/1/2 310/2/2 312/3/2
f 308/4/3 307/1/3 311/2/3 312/3/3
f 307/4/4 305/1/4 309/2/4 311/3/4
f 310/1/5 306/2/5 308/3/5 312/4/5
f 309/3/6 305/4/6 306/1/6 310/2/6
f 314/1/1 313/2/1 315/3/1 316/4/1
f 319/4/2 317/1/2 318/2/2 320/3/2
f 316/4/3 315/1/3 319/2/3 320/3/3
f 315/4/4 313/1/4 317/2/4 319/3/4
f 318/1/5 314/2/5 316/3/5 320/4/5
f 317/3/6 313/4/6 314/1/6 318/2/6
f 322/1/1 321/2/1 323/3/1 324/4/1
f 327/4/2 325/1/2 326/2/2 328/3/2
f 324/4/3 323/1/3 327/2/3 328/3/3
f 323/4/4 321/1/4 325/2/4 327/3/4
f 326/1/5 322/2/5 324/3/5 328/4/5
f 325/3/6 321/4/6 322/1/6 326/2/6
