# Blender 5.2.0 LTS
# www.blender.org
mtllib mid_roof_door_closed.mtl
o mid_roof_door_closed
v 1.406250 3.000001 0.500000
v 1.406250 3.000000 -0.500000
v 0.500000 3.000001 0.500000
v 0.500000 3.000000 -0.500000
v 1.421875 2.937501 -0.500000
v 1.468750 3.000001 -0.500000
v 1.406250 3.000001 -0.500000
v 1.468750 2.937501 -0.500000
v 1.406250 2.937501 -0.500000
v 1.468750 3.000001 0.500000
v 1.406250 3.000001 0.500000
v 1.468750 2.937501 0.500000
v 1.406250 2.937501 0.500000
v 1.156250 2.937501 -0.343750
v 1.343750 2.937501 -0.343750
v 1.156250 2.937501 -0.406250
v 1.343750 2.937501 -0.406250
v 0.906250 2.937501 -0.343750
v 1.093750 2.937501 -0.343750
v 0.906250 2.937501 -0.406250
v 1.093750 2.937501 -0.406250
v 0.656250 2.937501 -0.343750
v 0.843750 2.937501 -0.343750
v 0.656250 2.937501 -0.406250
v 0.843750 2.937501 -0.406250
v 0.593750 2.937501 -0.343750
v 0.593750 2.937501 -0.406250
v 1.156250 2.937501 -0.093750
v 1.343750 2.937501 -0.093750
v 1.156250 2.937501 -0.156250
v 1.343750 2.937501 -0.156250
v 0.906250 2.937501 -0.093750
v 1.093750 2.937501 -0.093750
v 0.906250 2.937501 -0.156250
v 1.093750 2.937501 -0.156250
v 0.656250 2.937501 -0.093750
v 0.843750 2.937501 -0.093750
v 0.656250 2.937501 -0.156250
v 0.843750 2.937501 -0.156250
v 0.593750 2.937501 -0.093750
v 0.593750 2.937501 -0.156250
v 1.156250 2.937501 0.156250
v 1.343750 2.937501 0.156250
v 1.156250 2.937501 0.093750
v 1.343750 2.937501 0.093750
v 0.906250 2.937501 0.156250
v 1.093750 2.937501 0.156250
v 0.906250 2.937501 0.093750
v 1.093750 2.937501 0.093750
v 0.656250 2.937501 0.156250
v 0.843750 2.937501 0.156250
v 0.656250 2.937501 0.093750
v 0.843750 2.937501 0.093750
v 0.593750 2.937501 0.156250
v 0.593750 2.937501 0.093750
v 1.156250 2.937501 0.406250
v 1.343750 2.937501 0.406250
v 1.156250 2.937501 0.343750
v 1.343750 2.937501 0.343750
v 0.906250 2.937501 0.406250
v 1.093750 2.937501 0.406250
v 0.906250 2.937501 0.343750
v 1.093750 2.937501 0.343750
v 0.656250 2.937501 0.406250
v 0.843750 2.937501 0.406250
v 0.656250 2.937501 0.343750
v 0.843750 2.937501 0.343750
v 0.593750 2.937501 0.406250
v 0.593750 2.937501 0.343750
v 0.500000 2.937501 -0.406250
v 0.500000 2.937501 -0.343750
v 0.500000 2.937501 -0.156250
v 0.500000 2.937501 -0.093750
v 0.500000 2.937501 0.093750
v 0.500000 2.937501 0.156250
v 0.500000 2.937501 0.343750
v 0.500000 2.937501 0.406250
v 1.406250 2.937501 -0.500000
v 1.343750 2.937501 -0.500000
v 1.406250 2.937501 0.500000
v 1.343750 2.937501 0.500000
v 1.156250 2.937501 -0.500000
v 1.093750 2.937501 -0.500000
v 1.156250 2.937501 0.500000
v 1.093750 2.937501 0.500000
v 0.906250 2.937501 -0.500000
v 0.843750 2.937501 -0.500000
v 0.906250 2.937501 0.500000
v 0.843750 2.937501 0.500000
v 0.656250 2.937501 -0.500000
v 0.593750 2.937501 -0.500000
v 0.656250 2.937501 0.500000
v 0.593750 2.937501 0.500000
vn -0.0000 1.0000 -0.0000
vn -0.0000 -0.0000 -1.0000
vn -0.0000 -0.0000 1.0000
vn -0.0000 -1.0000 -0.0000
vn 1.0000 -0.0000 -0.0000
vn -1.0000 -0.0000 -0.0000
vt 0.000000 0.000000
vt 1.000000 0.000000
vt 1.000000 1.000000
vt 0.000000 1.000000
s 0
f 1/1/1 2/2/1 4/3/1 3/4/1
s 1
f 7/1/2 6/1/2 8/1/2 9/1/2
f 12/1/3 10/1/3 11/1/3 13/1/3
f 10/1/1 6/1/1 7/1/1 11/1/1
f 9/1/4 8/1/4 12/1/4 13/1/4
f 8/1/5 6/1/5 10/1/5 12/1/5
f 11/1/6 7/1/6 9/1/6 13/1/6
f 16/1/1 14/1/1 15/1/1 17/1/1
f 20/1/1 18/1/1 19/1/1 21/1/1
f 24/1/1 22/1/1 23/1/1 25/1/1
f 30/1/1 28/1/1 29/1/1 31/1/1
f 34/1/1 32/1/1 33/1/1 35/1/1
f 38/1/1 36/1/1 37/1/1 39/1/1
f 44/1/1 42/1/1 43/1/1 45/1/1
f 48/1/1 46/1/1 47/1/1 49/1/1
f 52/1/1 50/1/1 51/1/1 53/1/1
f 58/1/1 56/1/1 57/1/1 59/1/1
f 62/1/1 60/1/1 61/1/1 63/1/1
f 66/1/1 64/1/1 65/1/1 67/1/1
f 76/1/1 77/1/1 68/1/1 69/1/1
f 74/1/1 75/1/1 54/1/1 55/1/1
f 72/1/1 73/1/1 40/1/1 41/1/1
f 70/1/1 71/1/1 26/1/1 27/1/1
f 78/1/1 79/1/1 81/1/1 80/1/1
f 82/1/1 83/1/1 85/1/1 84/1/1
f 86/1/1 87/1/1 89/1/1 88/1/1
f 90/1/1 91/1/1 93/1/1 92/1/1
