# Blender 5.2.0 LTS
# www.blender.org
mtllib mid_roof_closed.mtl
o straight_roof_closed
v -0.500000 3.000000 1.406250
v 0.500000 3.000000 1.406250
v -0.500000 3.000000 0.500000
v 0.500000 3.000000 0.500000
v -0.437500 2.062500 1.453125
v -0.437500 2.062500 1.421875
v 0.437500 2.062500 1.453125
v 0.437500 2.062500 1.421875
v -0.437500 2.000000 1.453125
v -0.437500 2.000000 1.421875
v 0.437500 2.000000 1.453125
v 0.437500 2.000000 1.421875
v 0.437409 2.170921 1.437500
v 0.329593 2.062923 1.437500
v 0.437500 2.063014 1.437500
v -0.329593 2.812500 1.437500
v -0.437500 2.704593 1.437500
v -0.437500 2.812500 1.437500
v -0.437409 2.170408 1.437500
v -0.329593 2.062410 1.437500
v -0.437500 2.062500 1.437500
v 0.329593 2.812500 1.437500
v 0.437500 2.704593 1.437500
v 0.437500 2.812500 1.437500
v -0.437500 2.812500 1.453125
v -0.437500 2.812500 1.421875
v -0.437500 2.000000 1.453125
v -0.437500 2.000000 1.421875
v -0.500000 2.812500 1.453125
v -0.500000 2.812500 1.421875
v -0.500000 2.000000 1.453125
v -0.500000 2.000000 1.421875
v 0.500000 2.812500 1.453125
v 0.500000 2.812500 1.421875
v 0.500000 2.000000 1.453125
v 0.500000 2.000000 1.421875
v 0.437500 2.812500 1.453125
v 0.437500 2.812500 1.421875
v 0.437500 2.000000 1.453125
v 0.437500 2.000000 1.421875
v 0.500000 2.937500 1.453125
v 0.500000 2.937500 1.421875
v 0.500000 2.812500 1.453125
v 0.500000 2.812500 1.421875
v -0.500000 2.937500 1.453125
v -0.500000 2.937500 1.421875
v -0.500000 2.812500 1.453125
v -0.500000 2.812500 1.421875
v 0.500000 3.000000 1.468750
v 0.500000 3.000000 1.406250
v 0.500000 2.937500 1.468750
v 0.500000 2.937500 1.406250
v -0.500000 3.000000 1.468750
v -0.500000 3.000000 1.406250
v -0.500000 2.937500 1.468750
v -0.500000 2.937500 1.406250
v 0.343750 2.937500 1.156250
v 0.343750 2.937500 1.343750
v 0.406250 2.937500 1.156250
v 0.406250 2.937500 1.343750
v 0.343750 2.937500 0.906250
v 0.343750 2.937500 1.093750
v 0.406250 2.937500 0.906250
v 0.406250 2.937500 1.093750
v 0.343750 2.937500 0.656250
v 0.343750 2.937500 0.843750
v 0.406250 2.937500 0.656250
v 0.406250 2.937500 0.843750
v 0.343750 2.937500 0.593750
v 0.406250 2.937500 0.593750
v 0.093750 2.937500 1.156250
v 0.093750 2.937500 1.343750
v 0.156250 2.937500 1.156250
v 0.156250 2.937500 1.343750
v 0.093750 2.937500 0.906250
v 0.093750 2.937500 1.093750
v 0.156250 2.937500 0.906250
v 0.156250 2.937500 1.093750
v 0.093750 2.937500 0.656250
v 0.093750 2.937500 0.843750
v 0.156250 2.937500 0.656250
v 0.156250 2.937500 0.843750
v 0.093750 2.937500 0.593750
v 0.156250 2.937500 0.593750
v -0.156250 2.937500 1.156250
v -0.156250 2.937500 1.343750
v -0.093750 2.937500 1.156250
v -0.093750 2.937500 1.343750
v -0.156250 2.937500 0.906250
v -0.156250 2.937500 1.093750
v -0.093750 2.937500 0.906250
v -0.093750 2.937500 1.093750
v -0.156250 2.937500 0.656250
v -0.156250 2.937500 0.843750
v -0.093750 2.937500 0.656250
v -0.093750 2.937500 0.843750
v -0.156250 2.937500 0.593750
v -0.093750 2.937500 0.593750
v -0.406250 2.937500 1.156250
v -0.406250 2.937500 1.343750
v -0.343750 2.937500 1.156250
v -0.343750 2.937500 1.343750
v -0.406250 2.937500 0.906250
v -0.406250 2.937500 1.093750
v -0.343750 2.937500 0.906250
v -0.343750 2.937500 1.093750
v -0.406250 2.937500 0.656250
v -0.406250 2.937500 0.843750
v -0.343750 2.937500 0.656250
v -0.343750 2.937500 0.843750
v -0.406250 2.937500 0.593750
v -0.343750 2.937500 0.593750
v 0.406250 2.937500 0.500000
v 0.343750 2.937500 0.500000
v 0.375000 2.937500 0.593750
v 0.156250 2.937500 0.500000
v 0.093750 2.937500 0.500000
v 0.125000 2.937500 0.593750
v -0.093750 2.937500 0.500000
v -0.156250 2.937500 0.500000
v -0.125000 2.937500 0.593750
v -0.343750 2.937500 0.500000
v -0.406250 2.937500 0.500000
v -0.375000 2.937500 0.593750
v -0.375000 2.937500 0.500000
v -0.125000 2.937500 0.500000
v 0.125000 2.937500 0.500000
v 0.375000 2.937500 0.500000
v 0.500000 2.937500 1.406250
v 0.500000 2.937500 1.343750
v -0.500000 2.937500 1.406250
v -0.500000 2.937500 1.343750
v 0.500000 2.937500 1.156250
v 0.500000 2.937500 1.093750
v -0.500000 2.937500 1.156250
v -0.500000 2.937500 1.093750
v 0.500000 2.937500 0.906250
v 0.500000 2.937500 0.843750
v -0.500000 2.937500 0.906250
v -0.500000 2.937500 0.843750
v 0.500000 2.937500 0.656250
v 0.500000 2.937500 0.593750
v -0.500000 2.937500 0.656250
v -0.500000 2.937500 0.593750
vn -0.0000 1.0000 -0.0000
vn -0.0000 -1.0000 -0.0000
vn -1.0000 -0.0000 -0.0000
vn 1.0000 -0.0000 -0.0000
vn -0.0000 -0.0000 1.0000
vn -0.0000 -0.0000 -1.0000
vt 0.000000 0.000000
vt 1.000000 0.000000
vt 1.000000 1.000000
vt 0.000000 1.000000
s 0
f 1/1/1 2/2/1 4/3/1 3/4/1
s 1
f 6/1/1 5/1/1 7/1/1 8/1/1
f 11/1/2 9/1/2 10/1/2 12/1/2
f 9/1/3 5/1/3 6/1/3 10/1/3
f 8/1/4 7/1/4 11/1/4 12/1/4
f 7/1/5 5/1/5 9/1/5 11/1/5
f 10/1/6 6/1/6 8/1/6 12/1/6
f 26/1/4 25/1/4 27/1/4 28/1/4
f 31/1/3 29/1/3 30/1/3 32/1/3
f 29/1/1 25/1/1 26/1/1 30/1/1
f 28/1/2 27/1/2 31/1/2 32/1/2
f 27/1/5 25/1/5 29/1/5 31/1/5
f 30/1/6 26/1/6 28/1/6 32/1/6
f 34/1/4 33/1/4 35/1/4 36/1/4
f 39/1/3 37/1/3 38/1/3 40/1/3
f 37/1/1 33/1/1 34/1/1 38/1/1
f 36/1/2 35/1/2 39/1/2 40/1/2
f 35/1/5 33/1/5 37/1/5 39/1/5
f 38/1/6 34/1/6 36/1/6 40/1/6
f 42/1/4 41/1/4 43/1/4 44/1/4
f 47/1/3 45/1/3 46/1/3 48/1/3
f 45/1/1 41/1/1 42/1/1 46/1/1
f 44/1/2 43/1/2 47/1/2 48/1/2
f 43/1/5 41/1/5 45/1/5 47/1/5
f 46/1/6 42/1/6 44/1/6 48/1/6
f 50/1/4 49/1/4 51/1/4 52/1/4
f 55/1/3 53/1/3 54/1/3 56/1/3
f 53/1/1 49/1/1 50/1/1 54/1/1
f 52/1/2 51/1/2 55/1/2 56/1/2
f 51/1/5 49/1/5 53/1/5 55/1/5
f 54/1/6 50/1/6 52/1/6 56/1/6
f 59/1/1 57/1/1 58/1/1 60/1/1
f 63/1/1 61/1/1 62/1/1 64/1/1
f 67/1/2 68/1/2 66/1/2 65/1/2
f 73/1/1 71/1/1 72/1/1 74/1/1
f 77/1/1 75/1/1 76/1/1 78/1/1
f 81/1/2 82/1/2 80/1/2 79/1/2
f 87/1/1 85/1/1 86/1/1 88/1/1
f 91/1/1 89/1/1 90/1/1 92/1/1
f 95/1/2 96/1/2 94/1/2 93/1/2
f 101/1/1 99/1/1 100/1/1 102/1/1
f 105/1/1 103/1/1 104/1/1 106/1/1
f 109/1/2 110/1/2 108/1/2 107/1/2
f 125/1/2 122/1/2 112/1/2 124/1/2 111/1/2 123/1/2
f 126/1/2 119/1/2 98/1/2 121/1/2 97/1/2 120/1/2
f 127/1/2 116/1/2 84/1/2 118/1/2 83/1/2 117/1/2
f 128/1/2 113/1/2 70/1/2 115/1/2 69/1/2 114/1/2
f 129/1/1 130/1/1 132/1/1 131/1/1
f 133/1/1 134/1/1 136/1/1 135/1/1
f 137/1/2 139/1/2 140/1/2 138/1/2
f 141/1/2 143/1/2 144/1/2 142/1/2
