# Made in Blockbench 5.0.7
mtllib mid_mid_straight_closed.mtl

o mid_mid_straight_closed
v -0.4375 0.9375 0.421875
v -0.4375 0.9375 0.453125
v 0.4375 0.9375 0.453125
v 0.4375 0.9375 0.421875
v 0.4375 0.875 0.453125
v -0.4375 0.875 0.453125
v -0.4375 0.875 0.421875
v 0.4375 0.875 0.421875
v -0.4375 1 0.421875
v -0.4375 1 0.453125
v -0.4375 0.125 0.453125
v -0.4375 0.125 0.421875
v -0.5 0.125 0.453125
v -0.5 1 0.453125
v -0.5 1 0.421875
v -0.5 0.125 0.421875
v 0.5 1 0.421875
v 0.5 1 0.453125
v 0.5 0.125 0.453125
v 0.5 0.125 0.421875
v 0.4375 0.125 0.453125
v 0.4375 1 0.453125
v 0.4375 1 0.421875
v 0.4375 0.125 0.421875
v 0.5 0.125 0.421875
v 0.5 0.125 0.453125
v 0.5 0 0.453125
v 0.5 0 0.421875
v -0.5 0 0.453125
v -0.5 0.125 0.453125
v -0.5 0.125 0.421875
v -0.5 0 0.421875
vt 0 0.6875
vt 0 0.65625
vt 0.4375 0.65625
vt 0.4375 0.6875
vt 0.4375 0.625
vt 0 0.625
vt 0 0.59375
vt 0.4375 0.59375
vt 0.5625 0.78125
vt 0.5625 0.8125
vt 0.53125 0.8125
vt 0.53125 0.78125
vt 0.5625 0.75
vt 0.53125 0.75
vt 0.53125 0.71875
vt 0.5625 0.71875
vt 0.4375 0.5625
vt 0 0.5625
vt 0 0.53125
vt 0.4375 0.53125
vt 0.90625 0.65625
vt 0.90625 0.6875
vt 0.46875 0.6875
vt 0.46875 0.65625
vt 0.5 0.625
vt 0.46875 0.625
vt 0.46875 0.1875
vt 0.5 0.1875
vt 0.03125 0.0625
vt 0.03125 0.5
vt 0 0.5
vt 0 0.0625
vt 0.53125 0.59375
vt 0.5625 0.59375
vt 0.5625 0.625
vt 0.53125 0.625
vt 0.5625 0.53125
vt 0.5625 0.5625
vt 0.53125 0.5625
vt 0.53125 0.53125
vt 0.09375 0.0625
vt 0.09375 0.5
vt 0.0625 0.5
vt 0.0625 0.0625
vt 0.15625 0.5
vt 0.125 0.5
vt 0.125 0.0625
vt 0.15625 0.0625
vt 0.21875 0.5
vt 0.1875 0.5
vt 0.1875 0.0625
vt 0.21875 0.0625
vt 0.28125 0.0625
vt 0.28125 0.5
vt 0.25 0.5
vt 0.25 0.0625
vt 0.53125 0.46875
vt 0.5625 0.46875
vt 0.5625 0.5
vt 0.53125 0.5
vt 0.5625 0.40625
vt 0.5625 0.4375
vt 0.53125 0.4375
vt 0.53125 0.40625
vt 0.34375 0.0625
vt 0.34375 0.5
vt 0.3125 0.5
vt 0.3125 0.0625
vt 0.40625 0.5
vt 0.375 0.5
vt 0.375 0.0625
vt 0.40625 0.0625
vt 0.5625 1
vt 0.53125 1
vt 0.53125 0.9375
vt 0.5625 0.9375
vt 0.5625 0.84375
vt 0.5625 0.90625
vt 0.53125 0.90625
vt 0.53125 0.84375
vt 0 0.78125
vt 0.5 0.78125
vt 0.5 0.8125
vt 0 0.8125
vt 0.5 0.71875
vt 0.5 0.75
vt 0 0.75
vt 0 0.71875
vt 0.5 0.9375
vt 0.5 1
vt 0 1
vt 0 0.9375
vt 0.5 0.90625
vt 0 0.90625
vt 0 0.84375
vt 0.5 0.84375
vn 0 1 0
vn 0 -1 0
vn -1 0 0
vn 1 0 0
vn 0 0 1
vn 0 0 -1
vn 1 0 0
vn -1 0 0
vn 0 1 0
vn 0 -1 0
vn 0 0 1
vn 0 0 -1
vn 1 0 0
vn -1 0 0
vn 0 1 0
vn 0 -1 0
vn 0 0 1
vn 0 0 -1
vn 1 0 0
vn -1 0 0
vn 0 1 0
vn 0 -1 0
vn 0 0 1
vn 0 0 -1
usemtl m_b5aea212-0af5-48b7-ce3f-0458e558c5c7
f 1/1/1 2/2/1 3/3/1 4/4/1
f 5/5/2 6/6/2 7/7/2 8/8/2
f 6/9/3 2/10/3 1/11/3 7/12/3
f 4/13/4 3/14/4 5/15/4 8/16/4
f 3/17/5 2/18/5 6/19/5 5/20/5
f 7/21/6 1/22/6 4/23/6 8/24/6
f 9/25/7 10/26/7 11/27/7 12/28/7
f 13/29/8 14/30/8 15/31/8 16/32/8
f 14/33/9 10/34/9 9/35/9 15/36/9
f 12/37/10 11/38/10 13/39/10 16/40/10
f 11/41/11 10/42/11 14/43/11 13/44/11
f 15/45/12 9/46/12 12/47/12 16/48/12
f 17/49/13 18/50/13 19/51/13 20/52/13
f 21/53/14 22/54/14 23/55/14 24/56/14
f 22/57/15 18/58/15 17/59/15 23/60/15
f 20/61/16 19/62/16 21/63/16 24/64/16
f 19/65/17 18/66/17 22/67/17 21/68/17
f 23/69/18 17/70/18 20/71/18 24/72/18
f 25/73/19 26/74/19 27/75/19 28/76/19
f 29/77/20 30/78/20 31/79/20 32/80/20
f 30/81/21 26/82/21 25/83/21 31/84/21
f 28/85/22 27/86/22 29/87/22 32/88/22
f 27/89/23 26/90/23 30/91/23 29/92/23
f 31/93/24 25/94/24 28/95/24 32/96/24