# Blender 5.2.0 LTS
# www.blender.org
mtllib right_mid_door_closed.mtl
o right_mid_door_closed
v 0.562500 2.000000 -1.453125
v 0.562500 2.000000 -1.421875
v 0.562500 1.125000 -1.453125
v 0.562500 1.125000 -1.421875
v 0.500000 2.000000 -1.453125
v 0.500000 2.000000 -1.421875
v 0.500000 1.125000 -1.453125
v 0.500000 1.125000 -1.421875
v 1.468750 2.000000 -1.468750
v 1.468750 2.000000 -1.406250
v 1.468750 1.000000 -1.468750
v 1.468750 1.000000 -1.406250
v 1.406250 2.000000 -1.468750
v 1.406250 2.000000 -1.406250
v 1.406250 1.000000 -1.468750
v 1.406250 1.000000 -1.406250
v 0.562500 1.937500 -1.453125
v 0.562500 1.937500 -1.421875
v 1.281250 1.937500 -1.453125
v 1.281250 1.937500 -1.421875
v 0.562500 1.875000 -1.453125
v 0.562500 1.875000 -1.421875
v 1.281250 1.875000 -1.453125
v 1.281250 1.875000 -1.421875
v 1.281159 1.232908 -1.437500
v 1.281250 1.125000 -1.437500
v 1.281250 1.125000 -1.437500
v 0.670407 1.875000 -1.437500
v 0.562500 1.875000 -1.437500
v 0.562500 1.875000 -1.437500
v 0.670407 1.124909 -1.437500
v 0.562500 1.125000 -1.453125
v 0.562500 1.125000 -1.437500
v 1.281250 1.767093 -1.437500
v 1.281250 1.875000 -1.453125
v 1.281250 1.875000 -1.437500
v 1.406250 2.000000 -1.453125
v 1.406250 2.000000 -1.421875
v 1.406250 1.125000 -1.453125
v 1.406250 1.125000 -1.421875
v 1.281250 2.000000 -1.453125
v 1.281250 2.000000 -1.421875
v 1.281250 1.125000 -1.453125
v 1.281250 1.125000 -1.421875
v 1.406250 1.125000 -1.453125
v 1.406250 1.125000 -1.421875
v 1.406250 1.000000 -1.453125
v 1.406250 1.000000 -1.421875
v 0.500000 1.125000 -1.453125
v 0.500000 1.125000 -1.421875
v 0.500000 1.000000 -1.453125
v 0.500000 1.000000 -1.421875
vn 1.0000 -0.0000 -0.0000
vn -1.0000 -0.0000 -0.0000
vn -0.0000 1.0000 -0.0000
vn -0.0000 -1.0000 -0.0000
vn -0.0000 -0.0000 -1.0000
vn -0.0000 -0.0000 1.0000
vt 0.062500 1.000000
vt 0.000000 1.000000
vt 0.000000 0.937500
vt 0.062500 0.937500
s 1
f 2/1/1 4/4/1 3/3/1 1/2/1
f 7/4/2 8/3/2 6/2/2 5/1/2
f 5/3/3 6/2/3 2/1/3 1/4/3
f 4/4/4 8/3/4 7/2/4 3/1/4
f 3/4/5 7/3/5 5/2/5 1/1/5
f 6/1/6 8/4/6 4/3/6 2/2/6
f 10/1/1 12/4/1 11/3/1 9/2/1
f 15/4/2 16/3/2 14/2/2 13/1/2
f 13/3/3 14/2/3 10/1/3 9/4/3
f 12/4/4 16/3/4 15/2/4 11/1/4
f 11/4/5 15/3/5 13/2/5 9/1/5
f 14/1/6 16/4/6 12/3/6 10/2/6
f 18/1/3 20/4/3 19/3/3 17/2/3
f 23/4/4 24/3/4 22/2/4 21/1/4
f 21/3/2 22/2/2 18/1/2 17/4/2
f 20/4/1 24/3/1 23/2/1 19/1/1
f 19/4/5 23/3/5 21/2/5 17/1/5
f 22/1/6 24/4/6 20/3/6 18/2/6
f 38/1/1 40/4/1 39/3/1 37/2/1
f 43/4/2 44/3/2 42/2/2 41/1/2
f 41/3/3 42/2/3 38/1/3 37/4/3
f 40/4/4 44/3/4 43/2/4 39/1/4
f 39/4/5 43/3/5 41/2/5 37/1/5
f 42/1/6 44/4/6 40/3/6 38/2/6
f 46/1/1 48/4/1 47/3/1 45/2/1
f 51/4/2 52/3/2 50/2/2 49/1/2
f 49/3/3 50/2/3 46/1/3 45/4/3
f 48/4/4 52/3/4 51/2/4 47/1/4
f 47/4/5 51/3/5 49/2/5 45/1/5
f 50/1/6 52/4/6 48/3/6 46/2/6
l 27 26
l 30 29
l 32 33
l 35 36
