# Blender 5.2.0 LTS
# www.blender.org
mtllib right_roof_door_closed.mtl
o right_roof_door_closed
v 1.468750 3.000001 -0.500000
v 1.406250 3.000001 -0.500000
v 1.468750 2.937501 -0.500000
v 1.406250 2.937501 -0.500000
v 1.468750 3.000000 -1.406250
v 1.406250 3.000000 -1.406250
v 1.468750 2.937501 -1.406250
v 1.406250 2.937501 -1.406250
v 1.406250 2.937501 -1.406250
v 1.406250 2.937501 -0.500001
v 1.343750 2.937501 -1.406250
v 1.343750 2.937501 -0.500001
v 1.343750 2.937501 -1.406250
v 1.343750 2.937501 -1.343750
v 0.500000 2.937501 -1.343750
v 0.500000 2.937501 -1.406250
v 1.343750 2.937501 -1.093750
v 1.343750 2.937501 -1.156250
v 1.343750 2.937501 -0.843750
v 1.343750 2.937501 -0.906250
v 1.343750 2.937501 -0.593750
v 1.343750 2.937501 -0.656250
v 1.093750 2.937501 -0.593750
v 1.156250 2.937501 -0.593750
v 1.093750 2.937501 -0.656250
v 1.093750 2.937501 -0.843750
v 1.156250 2.937501 -0.656250
v 1.156250 2.937501 -0.843750
v 1.093750 2.937501 -0.906250
v 1.093750 2.937501 -1.093750
v 1.156250 2.937501 -0.906250
v 1.156250 2.937501 -1.093750
v 1.093750 2.937501 -1.156250
v 1.093750 2.937501 -1.343750
v 1.156250 2.937501 -1.156250
v 1.156250 2.937501 -1.343750
v 0.843750 2.937501 -1.156250
v 0.843750 2.937501 -1.343750
v 0.906250 2.937501 -1.156250
v 0.906250 2.937501 -1.343750
v 0.843750 2.937501 -0.906250
v 0.843750 2.937501 -1.093750
v 0.906250 2.937501 -0.906250
v 0.906250 2.937501 -1.093750
v 0.843750 2.937501 -0.656250
v 0.843750 2.937501 -0.843750
v 0.906250 2.937501 -0.656250
v 0.906250 2.937501 -0.843750
v 0.843750 2.937501 -0.593750
v 0.906250 2.937501 -0.593750
v 0.593750 2.937501 -1.156250
v 0.593750 2.937501 -1.343750
v 0.656250 2.937501 -1.156250
v 0.656250 2.937501 -1.343750
v 0.593750 2.937501 -0.906251
v 0.593750 2.937501 -1.093750
v 0.656250 2.937501 -0.906251
v 0.656250 2.937501 -1.093750
v 0.593750 2.937501 -0.656250
v 0.593750 2.937501 -0.843751
v 0.656250 2.937501 -0.656250
v 0.656250 2.937501 -0.843751
v 0.593750 2.937501 -0.593750
v 0.656250 2.937501 -0.593750
v 1.156250 2.937501 -0.500000
v 1.093750 2.937501 -0.500000
v 0.906250 2.937501 -0.500000
v 0.843750 2.937501 -0.500000
v 0.656250 2.937501 -0.500000
v 0.593750 2.937501 -0.500000
v 0.500000 2.937501 -1.156250
v 0.500000 2.937501 -1.093750
v 0.500000 2.937501 -0.906251
v 0.500000 2.937501 -0.843751
v 0.500000 2.937501 -0.656250
v 0.500000 2.937501 -0.593750
v 1.468750 3.000000 -1.468750
v 1.468750 3.000000 -1.406250
v 1.468750 2.000000 -1.468750
v 1.468750 2.000000 -1.406250
v 1.406250 3.000000 -1.468750
v 1.406250 3.000000 -1.406250
v 1.406250 2.000001 -1.468750
v 1.406250 2.000001 -1.406250
v 0.562500 2.062500 -1.453125
v 0.562500 2.062500 -1.421875
v 1.281250 2.062500 -1.453125
v 1.281250 2.062500 -1.421875
v 0.562500 2.000000 -1.453125
v 0.562500 2.000000 -1.421875
v 1.281250 2.000000 -1.453125
v 1.281250 2.000000 -1.421875
v 0.562591 2.170408 -1.437500
v 0.670407 2.062410 -1.437500
v 0.562500 2.062500 -1.437500
v 1.173343 2.812500 -1.437501
v 1.281250 2.704593 -1.437500
v 1.281250 2.812500 -1.437501
v 1.281159 2.170408 -1.437501
v 1.281250 2.062500 -1.437500
v 1.281250 2.062500 -1.437501
v 0.670407 2.812500 -1.437501
v 0.562500 2.812500 -1.437500
v 0.562500 2.812500 -1.437501
v 0.562500 2.812500 -1.453125
v 0.562500 2.812500 -1.421875
v 0.562500 2.000000 -1.453126
v 0.562500 2.000000 -1.421876
v 0.500000 2.812500 -1.453125
v 0.500000 2.812500 -1.421875
v 0.500000 2.000000 -1.453126
v 0.500000 2.000000 -1.421876
v 1.406250 2.812500 -1.453125
v 1.406250 2.812500 -1.421875
v 1.406250 2.000000 -1.453126
v 1.406250 2.000000 -1.421876
v 1.281250 2.812500 -1.453125
v 1.281250 2.812500 -1.421875
v 1.281250 2.000000 -1.453126
v 1.281250 2.000000 -1.421876
v 1.406250 2.937500 -1.453125
v 1.406250 2.937500 -1.421875
v 1.406250 2.812500 -1.453125
v 1.406250 2.812500 -1.421875
v 0.500000 2.937500 -1.453125
v 0.500000 2.937500 -1.421875
v 0.500000 2.812500 -1.453125
v 0.500000 2.812500 -1.421875
v 1.406250 3.000000 -1.468750
v 1.406250 3.000000 -1.406250
v 1.406250 2.937500 -1.468750
v 1.406250 2.937500 -1.406250
v 0.500000 3.000000 -1.468750
v 0.500000 3.000000 -1.406250
v 0.500000 2.937500 -1.468750
v 0.500000 2.937500 -1.406250
v 0.500000 3.000000 -1.406250
v 1.406250 3.000000 -1.406250
v 0.500000 3.000001 -0.500000
v 1.406250 3.000000 -0.500000
vn -0.0000 -0.0000 1.0000
vn -0.0000 -0.0000 -1.0000
vn -0.0000 1.0000 -0.0000
vn -0.0000 -1.0000 -0.0000
vn 1.0000 -0.0000 -0.0000
vn -1.0000 -0.0000 -0.0000
vt 0.062500 1.000000
vt 0.000000 1.000000
vt 0.000000 0.937500
vt 0.062500 0.937500
vt 0.000000 0.968750
vt 0.062500 0.968750
vt 0.062500 0.984375
vt 0.000000 0.984375
vt 0.000000 0.000000
s 1
f 2/1/1 4/4/1 3/3/1 1/2/1
f 7/4/2 8/3/2 6/2/2 5/1/2
f 5/3/3 6/2/3 2/1/3 1/4/3
f 4/4/4 8/3/4 7/2/4 3/1/4
f 3/4/5 7/3/5 5/2/5 1/1/5
f 6/1/6 8/4/6 4/3/6 2/2/6
f 11/3/3 12/2/3 10/1/3 9/4/3
f 27/3/4 25/4/4 26/1/4 28/2/4
f 31/3/4 29/4/4 30/1/4 32/2/4
f 35/3/4 33/4/4 34/1/4 36/2/4
f 39/3/3 40/2/3 38/1/3 37/4/3
f 43/3/4 41/4/4 42/1/4 44/2/4
f 47/3/4 45/4/4 46/1/4 48/2/4
f 53/3/3 54/2/3 52/1/3 51/4/3
f 57/3/4 55/4/4 56/1/4 58/2/4
f 61/3/3 62/2/3 60/1/3 59/4/3
f 69/5/4 70/6/4 63/1/4 64/2/4
f 67/5/4 68/6/4 49/1/4 50/2/4
f 65/5/4 66/6/4 23/1/4 24/2/4
f 15/7/4 16/8/4 13/8/4 14/7/4
f 18/3/4 17/4/4 72/6/4 71/5/4
f 20/3/4 19/4/4 74/6/4 73/5/4
f 22/3/3 75/5/3 76/6/3 21/4/3
f 78/1/5 80/4/5 79/3/5 77/2/5
f 83/4/6 84/3/6 82/2/6 81/1/6
f 81/3/3 82/2/3 78/1/3 77/4/3
f 80/4/4 84/3/4 83/2/4 79/1/4
f 79/4/2 83/3/2 81/2/2 77/1/2
f 82/1/1 84/4/1 80/3/1 78/2/1
f 86/1/3 88/4/3 87/3/3 85/2/3
f 91/4/4 92/3/4 90/2/4 89/1/4
f 89/3/6 90/2/6 86/1/6 85/4/6
f 88/4/5 92/3/5 91/2/5 87/1/5
f 87/4/2 91/3/2 89/2/2 85/1/2
f 90/1/1 92/4/1 88/3/1 86/2/1
f 106/1/5 108/4/5 107/3/5 105/2/5
f 111/4/6 112/3/6 110/2/6 109/1/6
f 109/3/3 110/2/3 106/1/3 105/4/3
f 108/4/4 112/3/4 111/2/4 107/1/4
f 107/4/2 111/3/2 109/2/2 105/1/2
f 110/1/1 112/4/1 108/3/1 106/2/1
f 114/1/5 116/4/5 115/3/5 113/2/5
f 119/4/6 120/3/6 118/2/6 117/1/6
f 117/3/3 118/2/3 114/1/3 113/4/3
f 116/4/4 120/3/4 119/2/4 115/1/4
f 115/4/2 119/3/2 117/2/2 113/1/2
f 118/1/1 120/4/1 116/3/1 114/2/1
f 122/1/5 124/4/5 123/3/5 121/2/5
f 127/4/6 128/3/6 126/2/6 125/1/6
f 125/3/3 126/2/3 122/1/3 121/4/3
f 124/4/4 128/3/4 127/2/4 123/1/4
f 123/4/2 127/3/2 125/2/2 121/1/2
f 126/1/1 128/4/1 124/3/1 122/2/1
f 130/1/5 132/4/5 131/3/5 129/2/5
f 135/4/6 136/3/6 134/2/6 133/1/6
f 133/3/3 134/2/3 130/1/3 129/4/3
f 132/4/4 136/3/4 135/2/4 131/1/4
f 131/4/2 135/3/2 133/2/2 129/1/2
f 134/1/1 136/4/1 132/3/1 130/2/1
s 0
f 137/9/3 139/9/3 140/9/3 138/9/3
l 101 100
l 104 103
