# Made in Blockbench 5.0.7
mtllib straight_floor_closed.mtl

o straight_bot_closed
v -0.125 0.125 -0.5
v 0.5 1 0.40625
v 0.5 1 0.46875
v 0.5 0.9375 0.46875
v 0.5 0.9375 0.40625
v -0.5 0.9375 0.46875
v -0.5 1 0.46875
v -0.5 1 0.40625
v -0.5 0.9375 0.40625
v -0.5 0.15625 0.40625
v 0.5 0.15625 0.40625
v 0.5 0.125 0.40625
v -0.5 0.125 0.40625
v 0.5 0.125 0.46875
v 0.5 0.15625 0.46875
v -0.5 0.15625 0.46875
v -0.5 0.125 0.46875
v 0.125 0.125 -0.375
v 0.375 0.125 -0.375
v 0.375 0.0625 -0.375
v 0.125 0.0625 -0.375
v 0.375 0.0625 -0.125
v 0.375 0.125 -0.125
v 0.125 0.125 -0.125
v 0.125 0.0625 -0.125
v -0.5 0.0625 0.4375
v 0.5 0.0625 0.4375
v 0.5 0 0.4375
v -0.5 0 0.4375
v 0.5 0 0.5
v 0.5 0.0625 0.5
v -0.5 0.0625 0.5
v -0.5 0 0.5
v -0.375 0.125 0.125
v -0.125 0.125 0.125
v -0.125 0.0625 0.125
v -0.375 0.0625 0.125
v -0.125 0.0625 0.375
v -0.125 0.125 0.375
v -0.375 0.125 0.375
v -0.375 0.0625 0.375
v -0.375 0.125 -0.375
v -0.125 0.125 -0.375
v -0.125 0.0625 -0.375
v -0.375 0.0625 -0.375
v -0.125 0.0625 -0.125
v -0.125 0.125 -0.125
v -0.375 0.125 -0.125
v -0.375 0.0625 -0.125
v -0.125 0.125 -0.125
v 0.125 0.125 -0.125
v 0.125 0.0625 -0.125
v -0.125 0.0625 -0.125
v 0.125 0.0625 0.125
v 0.125 0.125 0.125
v -0.125 0.125 0.125
v -0.125 0.0625 0.125
v 0.125 0.125 0.125
v 0.375 0.125 0.125
v 0.375 0.0625 0.125
v 0.125 0.0625 0.125
v 0.375 0.0625 0.375
v 0.375 0.125 0.375
v 0.125 0.125 0.375
v 0.125 0.0625 0.375
v 0.375 0.125 -0.125
v 0.5 0.125 -0.125
v 0.5 0.0625 -0.125
v 0.375 0.0625 -0.125
v 0.5 0.0625 0.125
v 0.5 0.125 0.125
v 0.375 0.125 0.125
v 0.375 0.0625 0.125
v -0.5 0.125 -0.125
v -0.375 0.125 -0.125
v -0.375 0.0625 -0.125
v -0.5 0.0625 -0.125
v -0.375 0.0625 0.125
v -0.375 0.125 0.125
v -0.5 0.125 0.125
v -0.5 0.0625 0.125
v 0.125 0.125 -0.5
v 0.125 0.0625 -0.5
v -0.125 0.0625 -0.5
v 0.125 0.0625 -0.375
v 0.125 0.125 -0.375
v -0.125 0.125 -0.375
v -0.125 0.0625 -0.375
v -0.5 0.125 -0.5
v -0.375 0.125 -0.5
v -0.375 0.0625 -0.5
v -0.5 0.0625 -0.5
v -0.375 0.0625 -0.375
v -0.375 0.125 -0.375
v -0.5 0.125 -0.375
v -0.5 0.0625 -0.375
v 0.3125 0.125 -0.4375
v 0.375 0.125 -0.4375
v 0.375 0.0625 -0.4375
v 0.3125 0.0625 -0.4375
v 0.375 0.0625 -0.375
v 0.375 0.125 -0.375
v 0.3125 0.125 -0.375
v 0.3125 0.0625 -0.375
v -0.375 0.125 -0.4375
v -0.3125 0.125 -0.4375
v -0.3125 0.0625 -0.4375
v -0.375 0.0625 -0.4375
v -0.3125 0.0625 -0.375
v -0.3125 0.125 -0.375
v -0.375 0.125 -0.375
v -0.375 0.0625 -0.375
v -0.1875 0.125 -0.4375
v -0.125 0.125 -0.4375
v -0.125 0.0625 -0.4375
v -0.1875 0.0625 -0.4375
v -0.125 0.0625 -0.375
v -0.125 0.125 -0.375
v -0.1875 0.125 -0.375
v -0.1875 0.0625 -0.375
v 0.125 0.125 -0.4375
v 0.1875 0.125 -0.4375
v 0.1875 0.0625 -0.4375
v 0.125 0.0625 -0.4375
v 0.1875 0.0625 -0.375
v 0.1875 0.125 -0.375
v 0.125 0.125 -0.375
v 0.125 0.0625 -0.375
v 0.375 0.125 0.3125
v 0.4375 0.125 0.3125
v 0.4375 0.0625 0.3125
v 0.375 0.0625 0.3125
v 0.4375 0.0625 0.375
v 0.4375 0.125 0.375
v 0.375 0.125 0.375
v 0.375 0.0625 0.375
v 0.0625 0.125 0.125
v 0.125 0.125 0.125
v 0.125 0.0625 0.125
v 0.0625 0.0625 0.125
v 0.125 0.0625 0.1875
v 0.125 0.125 0.1875
v 0.0625 0.125 0.1875
v 0.0625 0.0625 0.1875
v -0.125 0.125 0.3125
v -0.0625 0.125 0.3125
v -0.0625 0.0625 0.3125
v -0.125 0.0625 0.3125
v -0.0625 0.0625 0.375
v -0.0625 0.125 0.375
v -0.125 0.125 0.375
v -0.125 0.0625 0.375
v 0.0625 0.125 0.3125
v 0.125 0.125 0.3125
v 0.125 0.0625 0.3125
v 0.0625 0.0625 0.3125
v 0.125 0.0625 0.375
v 0.125 0.125 0.375
v 0.0625 0.125 0.375
v 0.0625 0.0625 0.375
v -0.125 0.125 -0.375
v -0.0625 0.125 -0.375
v -0.0625 0.0625 -0.375
v -0.125 0.0625 -0.375
v -0.0625 0.0625 -0.3125
v -0.0625 0.125 -0.3125
v -0.125 0.125 -0.3125
v -0.125 0.0625 -0.3125
v 0.0625 0.125 -0.375
v 0.125 0.125 -0.375
v 0.125 0.0625 -0.375
v 0.0625 0.0625 -0.375
v 0.125 0.0625 -0.3125
v 0.125 0.125 -0.3125
v 0.0625 0.125 -0.3125
v 0.0625 0.0625 -0.3125
v 0.125 0.125 0.0625
v 0.1875 0.125 0.0625
v 0.1875 0.0625 0.0625
v 0.125 0.0625 0.0625
v 0.1875 0.0625 0.125
v 0.1875 0.125 0.125
v 0.125 0.125 0.125
v 0.125 0.0625 0.125
v 0.375 0.125 -0.375
v 0.4375 0.125 -0.375
v 0.4375 0.0625 -0.375
v 0.375 0.0625 -0.375
v 0.4375 0.0625 -0.3125
v 0.4375 0.125 -0.3125
v 0.375 0.125 -0.3125
v 0.375 0.0625 -0.3125
v 0.0625 0.125 -0.1875
v 0.125 0.125 -0.1875
v 0.125 0.0625 -0.1875
v 0.0625 0.0625 -0.1875
v 0.125 0.0625 -0.125
v 0.125 0.125 -0.125
v 0.0625 0.125 -0.125
v 0.0625 0.0625 -0.125
v 0.125 0.125 -0.125
v 0.1875 0.125 -0.125
v 0.1875 0.0625 -0.125
v 0.125 0.0625 -0.125
v 0.1875 0.0625 -0.0625
v 0.1875 0.125 -0.0625
v 0.125 0.125 -0.0625
v 0.125 0.0625 -0.0625
v -0.4375 0.125 -0.375
v -0.375 0.125 -0.375
v -0.375 0.0625 -0.375
v -0.4375 0.0625 -0.375
v -0.375 0.0625 -0.3125
v -0.375 0.125 -0.3125
v -0.4375 0.125 -0.3125
v -0.4375 0.0625 -0.3125
v 0.375 0.125 -0.1875
v 0.4375 0.125 -0.1875
v 0.4375 0.0625 -0.1875
v 0.375 0.0625 -0.1875
v 0.4375 0.0625 -0.125
v 0.4375 0.125 -0.125
v 0.375 0.125 -0.125
v 0.375 0.0625 -0.125
v -0.4375 0.125 -0.1875
v -0.375 0.125 -0.1875
v -0.375 0.0625 -0.1875
v -0.4375 0.0625 -0.1875
v -0.375 0.0625 -0.125
v -0.375 0.125 -0.125
v -0.4375 0.125 -0.125
v -0.4375 0.0625 -0.125
v -0.125 0.125 -0.1875
v -0.0625 0.125 -0.1875
v -0.0625 0.0625 -0.1875
v -0.125 0.0625 -0.1875
v -0.0625 0.0625 -0.125
v -0.0625 0.125 -0.125
v -0.125 0.125 -0.125
v -0.125 0.0625 -0.125
v -0.1875 0.125 -0.125
v -0.125 0.125 -0.125
v -0.125 0.0625 -0.125
v -0.1875 0.0625 -0.125
v -0.125 0.0625 -0.0625
v -0.125 0.125 -0.0625
v -0.1875 0.125 -0.0625
v -0.1875 0.0625 -0.0625
v -0.375 0.125 0.0625
v -0.3125 0.125 0.0625
v -0.3125 0.0625 0.0625
v -0.375 0.0625 0.0625
v -0.3125 0.0625 0.125
v -0.3125 0.125 0.125
v -0.375 0.125 0.125
v -0.375 0.0625 0.125
v -0.375 0.125 -0.125
v -0.3125 0.125 -0.125
v -0.3125 0.0625 -0.125
v -0.375 0.0625 -0.125
v -0.3125 0.0625 -0.0625
v -0.3125 0.125 -0.0625
v -0.375 0.125 -0.0625
v -0.375 0.0625 -0.0625
v 0.3125 0.125 0.0625
v 0.375 0.125 0.0625
v 0.375 0.0625 0.0625
v 0.3125 0.0625 0.0625
v 0.375 0.0625 0.125
v 0.375 0.125 0.125
v 0.3125 0.125 0.125
v 0.3125 0.0625 0.125
v 0.3125 0.125 -0.125
v 0.375 0.125 -0.125
v 0.375 0.0625 -0.125
v 0.3125 0.0625 -0.125
v 0.375 0.0625 -0.0625
v 0.375 0.125 -0.0625
v 0.3125 0.125 -0.0625
v 0.3125 0.0625 -0.0625
v -0.4375 0.125 0.3125
v -0.375 0.125 0.3125
v -0.375 0.0625 0.3125
v -0.4375 0.0625 0.3125
v -0.375 0.0625 0.375
v -0.375 0.125 0.375
v -0.4375 0.125 0.375
v -0.4375 0.0625 0.375
v 0.375 0.125 0.125
v 0.4375 0.125 0.125
v 0.4375 0.0625 0.125
v 0.375 0.0625 0.125
v 0.4375 0.0625 0.1875
v 0.4375 0.125 0.1875
v 0.375 0.125 0.1875
v 0.375 0.0625 0.1875
v -0.4375 0.125 0.125
v -0.375 0.125 0.125
v -0.375 0.0625 0.125
v -0.4375 0.0625 0.125
v -0.375 0.0625 0.1875
v -0.375 0.125 0.1875
v -0.4375 0.125 0.1875
v -0.4375 0.0625 0.1875
v -0.125 0.125 0.125
v -0.0625 0.125 0.125
v -0.0625 0.0625 0.125
v -0.125 0.0625 0.125
v -0.0625 0.0625 0.1875
v -0.0625 0.125 0.1875
v -0.125 0.125 0.1875
v -0.125 0.0625 0.1875
v -0.1875 0.125 0.0625
v -0.125 0.125 0.0625
v -0.125 0.0625 0.0625
v -0.1875 0.0625 0.0625
v -0.125 0.0625 0.125
v -0.125 0.125 0.125
v -0.1875 0.125 0.125
v -0.1875 0.0625 0.125
v 0.375 0.125 -0.5
v 0.5 0.125 -0.5
v 0.5 0.0625 -0.5
v 0.375 0.0625 -0.5
v 0.5 0.0625 -0.375
v 0.5 0.125 -0.375
v 0.375 0.125 -0.375
v 0.375 0.0625 -0.375
v -0.5 0.125 0.375
v 0.5 0.125 0.375
v 0.5 0.0625 0.375
v -0.5 0.0625 0.375
v 0.5 0.0625 0.5
v 0.5 0.125 0.5
v -0.5 0.125 0.5
v -0.5 0.0625 0.5
v 0.343751 0.875 0.4375
v 0.406251 0.875 0.4375
v 0.406251 0.8125 0.4375
v 0.343751 0.8125 0.4375
v 0.218751 0.875 0.4375
v 0.281251 0.875 0.4375
v 0.281251 0.8125 0.4375
v 0.218751 0.8125 0.4375
v 0.093751 0.875 0.4375
v 0.156251 0.875 0.4375
v 0.156251 0.8125 0.4375
v 0.093751 0.8125 0.4375
v -0.031249 0.875 0.4375
v 0.031251 0.875 0.4375
v 0.031251 0.8125 0.4375
v -0.031249 0.8125 0.4375
v -0.156249 0.875 0.4375
v -0.093749 0.875 0.4375
v -0.093749 0.8125 0.4375
v -0.156249 0.8125 0.4375
v -0.281249 0.875 0.4375
v -0.218749 0.875 0.4375
v -0.218749 0.8125 0.4375
v -0.281249 0.8125 0.4375
v -0.406249 0.875 0.4375
v -0.343749 0.875 0.4375
v -0.343749 0.8125 0.4375
v -0.406249 0.8125 0.4375
v 0.343751 0.75 0.4375
v 0.406251 0.75 0.4375
v 0.406251 0.6875 0.4375
v 0.343751 0.6875 0.4375
v 0.218751 0.75 0.4375
v 0.281251 0.75 0.4375
v 0.281251 0.6875 0.4375
v 0.218751 0.6875 0.4375
v 0.093751 0.75 0.4375
v 0.156251 0.75 0.4375
v 0.156251 0.6875 0.4375
v 0.093751 0.6875 0.4375
v -0.031249 0.75 0.4375
v 0.031251 0.75 0.4375
v 0.031251 0.6875 0.4375
v -0.031249 0.6875 0.4375
v -0.156249 0.75 0.4375
v -0.093749 0.75 0.4375
v -0.093749 0.6875 0.4375
v -0.156249 0.6875 0.4375
v -0.281249 0.75 0.4375
v -0.218749 0.75 0.4375
v -0.218749 0.6875 0.4375
v -0.281249 0.6875 0.4375
v -0.406249 0.75 0.4375
v -0.343749 0.75 0.4375
v -0.343749 0.6875 0.4375
v -0.406249 0.6875 0.4375
v 0.500001 0.6875 0.4375
v 0.468751 0.6875 0.4375
v 0.468751 0.75 0.4375
v 0.500001 0.75 0.4375
v 0.343751 0.625 0.4375
v 0.406251 0.625 0.4375
v 0.406251 0.5625 0.4375
v 0.343751 0.5625 0.4375
v 0.218751 0.625 0.4375
v 0.281251 0.625 0.4375
v 0.281251 0.5625 0.4375
v 0.218751 0.5625 0.4375
v 0.093751 0.625 0.4375
v 0.156251 0.625 0.4375
v 0.156251 0.5625 0.4375
v 0.093751 0.5625 0.4375
v -0.031249 0.625 0.4375
v 0.031251 0.625 0.4375
v 0.031251 0.5625 0.4375
v -0.031249 0.5625 0.4375
v -0.156249 0.625 0.4375
v -0.093749 0.625 0.4375
v -0.093749 0.5625 0.4375
v -0.156249 0.5625 0.4375
v -0.281249 0.625 0.4375
v -0.218749 0.625 0.4375
v -0.218749 0.5625 0.4375
v -0.281249 0.5625 0.4375
v -0.406249 0.625 0.4375
v -0.343749 0.625 0.4375
v -0.343749 0.5625 0.4375
v -0.406249 0.5625 0.4375
v 0.500001 0.5625 0.4375
v 0.468751 0.5625 0.4375
v 0.468751 0.625 0.4375
v 0.500001 0.625 0.4375
v 0.343751 0.5 0.4375
v 0.406251 0.5 0.4375
v 0.406251 0.4375 0.4375
v 0.343751 0.4375 0.4375
v 0.218751 0.5 0.4375
v 0.281251 0.5 0.4375
v 0.281251 0.4375 0.4375
v 0.218751 0.4375 0.4375
v 0.093751 0.5 0.4375
v 0.156251 0.5 0.4375
v 0.156251 0.4375 0.4375
v 0.093751 0.4375 0.4375
v -0.031249 0.5 0.4375
v 0.031251 0.5 0.4375
v 0.031251 0.4375 0.4375
v -0.031249 0.4375 0.4375
v -0.156249 0.5 0.4375
v -0.093749 0.5 0.4375
v -0.093749 0.4375 0.4375
v -0.156249 0.4375 0.4375
v -0.281249 0.5 0.4375
v -0.218749 0.5 0.4375
v -0.218749 0.4375 0.4375
v -0.281249 0.4375 0.4375
v -0.406249 0.5 0.4375
v -0.343749 0.5 0.4375
v -0.343749 0.4375 0.4375
v -0.406249 0.4375 0.4375
v 0.500001 0.4375 0.4375
v 0.468751 0.4375 0.4375
v 0.468751 0.5 0.4375
v 0.500001 0.5 0.4375
v 0.343751 0.375 0.4375
v 0.406251 0.375 0.4375
v 0.406251 0.3125 0.4375
v 0.343751 0.3125 0.4375
v 0.218751 0.375 0.4375
v 0.281251 0.375 0.4375
v 0.281251 0.3125 0.4375
v 0.218751 0.3125 0.4375
v 0.093751 0.375 0.4375
v 0.156251 0.375 0.4375
v 0.156251 0.3125 0.4375
v 0.093751 0.3125 0.4375
v -0.031249 0.375 0.4375
v 0.031251 0.375 0.4375
v 0.031251 0.3125 0.4375
v -0.031249 0.3125 0.4375
v -0.156249 0.375 0.4375
v -0.093749 0.375 0.4375
v -0.093749 0.3125 0.4375
v -0.156249 0.3125 0.4375
v -0.281249 0.375 0.4375
v -0.218749 0.375 0.4375
v -0.218749 0.3125 0.4375
v -0.28125 0.3125 0.4375
v -0.406249 0.375 0.4375
v -0.343749 0.375 0.4375
v -0.343749 0.3125 0.4375
v -0.406249 0.3125 0.4375
v 0.500001 0.3125 0.4375
v 0.468751 0.3125 0.4375
v 0.468751 0.375 0.4375
v 0.500001 0.375 0.4375
v 0.343751 0.25 0.4375
v 0.406251 0.25 0.4375
v 0.406251 0.1875 0.4375
v 0.343751 0.1875 0.4375
v 0.218751 0.25 0.4375
v 0.281251 0.25 0.4375
v 0.281251 0.1875 0.4375
v 0.218751 0.1875 0.4375
v 0.093751 0.25 0.4375
v 0.156251 0.25 0.4375
v 0.156251 0.1875 0.4375
v 0.093751 0.1875 0.4375
v -0.031249 0.25 0.4375
v 0.031251 0.25 0.4375
v 0.031251 0.1875 0.4375
v -0.031249 0.1875 0.4375
v -0.156249 0.25 0.4375
v -0.093749 0.25 0.4375
v -0.093749 0.1875 0.4375
v -0.156249 0.1875 0.4375
v -0.28125 0.25 0.4375
v -0.218749 0.25 0.4375
v -0.218749 0.1875 0.4375
v -0.28125 0.1875 0.4375
v 0.500001 0.1875 0.4375
v 0.468751 0.1875 0.4375
v 0.468751 0.25 0.4375
v 0.500001 0.25 0.4375
v -0.406249 0.25 0.4375
v -0.343749 0.25 0.4375
v -0.343749 0.1875 0.4375
v -0.406249 0.1875 0.4375
v -0.468749 0.6875 0.4375
v -0.499999 0.6875 0.4375
v -0.499999 0.75 0.4375
v -0.468749 0.75 0.4375
v -0.468749 0.8125 0.4375
v -0.499999 0.8125 0.4375
v -0.499999 0.875 0.4375
v -0.468749 0.875 0.4375
v -0.468749 0.1875 0.4375
v -0.499999 0.1875 0.4375
v -0.499999 0.25 0.4375
v -0.468749 0.25 0.4375
v -0.468749 0.3125 0.4375
v -0.499999 0.3125 0.4375
v -0.499999 0.375 0.4375
v -0.468749 0.375 0.4375
v -0.468749 0.4375 0.4375
v -0.499999 0.4375 0.4375
v -0.499999 0.5 0.4375
v -0.468749 0.5 0.4375
v -0.468749 0.5625 0.4375
v -0.499999 0.5625 0.4375
v -0.499999 0.625 0.4375
v -0.468749 0.625 0.4375
v 0.500001 0.8125 0.4375
v 0.468751 0.8125 0.4375
v 0.468751 0.875 0.4375
v 0.500001 0.875 0.4375
v -0.499999 0.9375 0.4375
v 0.500001 0.9375 0.4375
v -0.499999 0.15625 0.4375
v 0.500001 0.15625 0.4375
vt 0.25 0.40625
vt 0.234375 0.40625
vt 0.234375 0.390625
vt 0.25 0.390625
vt 0.28125 0.390625
vt 0.28125 0.40625
vt 0.265625 0.40625
vt 0.265625 0.390625
vt 0 0.890625
vt 0.25 0.890625
vt 0.25 0.90625
vt 0 0.90625
vt 0.25 0.859375
vt 0.25 0.875
vt 0 0.875
vt 0 0.859375
vt 0.25 0.828125
vt 0.25 0.84375
vt 0 0.84375
vt 0 0.828125
vt 0.25 0.8125
vt 0 0.8125
vt 0 0.796875
vt 0.25 0.796875
vt 0.25 0.78125
vt 0 0.78125
vt 0 0.765625
vt 0.25 0.765625
vt 0.25 0.734375
vt 0.25 0.75
vt 0 0.75
vt 0 0.734375
vt 0.265625 0.984375
vt 0.515625 0.984375
vt 0.515625 1
vt 0.265625 1
vt 0.3125 0.390625
vt 0.3125 0.40625
vt 0.296875 0.40625
vt 0.296875 0.390625
vt 0.34375 0.40625
vt 0.328125 0.40625
vt 0.328125 0.390625
vt 0.34375 0.390625
vt 0.515625 0.953125
vt 0.515625 0.96875
vt 0.265625 0.96875
vt 0.265625 0.953125
vt 0.484375 0.8125
vt 0.421875 0.8125
vt 0.421875 0.796875
vt 0.484375 0.796875
vt 0.0625 0.515625
vt 0.0625 0.53125
vt 0 0.53125
vt 0 0.515625
vt 0.265625 0.875
vt 0.328125 0.875
vt 0.328125 0.9375
vt 0.265625 0.9375
vt 0.546875 0.5625
vt 0.546875 0.578125
vt 0.484375 0.578125
vt 0.484375 0.5625
vt 0.546875 0.546875
vt 0.484375 0.546875
vt 0.484375 0.53125
vt 0.546875 0.53125
vt 0.328125 0.796875
vt 0.328125 0.859375
vt 0.265625 0.859375
vt 0.265625 0.796875
vt 0.515625 0.78125
vt 0.265625 0.78125
vt 0.265625 0.765625
vt 0.515625 0.765625
vt 0.515625 0.734375
vt 0.515625 0.75
vt 0.265625 0.75
vt 0.265625 0.734375
vt 0 0.703125
vt 0.25 0.703125
vt 0.25 0.71875
vt 0 0.71875
vt 0.609375 0.46875
vt 0.609375 0.484375
vt 0.59375 0.484375
vt 0.59375 0.46875
vt 0.015625 0.390625
vt 0 0.390625
vt 0 0.375
vt 0.015625 0.375
vt 0.515625 0.703125
vt 0.515625 0.71875
vt 0.265625 0.71875
vt 0.265625 0.703125
vt 0.546875 0.515625
vt 0.484375 0.515625
vt 0.484375 0.5
vt 0.546875 0.5
vt 0.0625 0.484375
vt 0.0625 0.5
vt 0 0.5
vt 0 0.484375
vt 0 0.625
vt 0.0625 0.625
vt 0.0625 0.6875
vt 0 0.6875
vt 0.1875 0.484375
vt 0.1875 0.5
vt 0.125 0.5
vt 0.125 0.484375
vt 0.5625 0.8125
vt 0.5 0.8125
vt 0.5 0.796875
vt 0.5625 0.796875
vt 0.140625 0.625
vt 0.140625 0.6875
vt 0.078125 0.6875
vt 0.078125 0.625
vt 0.265625 0.5
vt 0.203125 0.5
vt 0.203125 0.484375
vt 0.265625 0.484375
vt 0.34375 0.484375
vt 0.34375 0.5
vt 0.28125 0.5
vt 0.28125 0.484375
vt 0.15625 0.625
vt 0.21875 0.625
vt 0.21875 0.6875
vt 0.15625 0.6875
vt 0.421875 0.484375
vt 0.421875 0.5
vt 0.359375 0.5
vt 0.359375 0.484375
vt 0.5 0.484375
vt 0.4375 0.484375
vt 0.4375 0.46875
vt 0.5 0.46875
vt 0.296875 0.625
vt 0.296875 0.6875
vt 0.234375 0.6875
vt 0.234375 0.625
vt 0.578125 0.484375
vt 0.515625 0.484375
vt 0.515625 0.46875
vt 0.578125 0.46875
vt 0.0625 0.453125
vt 0.0625 0.46875
vt 0 0.46875
vt 0 0.453125
vt 0.3125 0.625
vt 0.375 0.625
vt 0.375 0.6875
vt 0.3125 0.6875
vt 0.59375 0.984375
vt 0.59375 1
vt 0.53125 1
vt 0.53125 0.984375
vt 0.59375 0.96875
vt 0.53125 0.96875
vt 0.53125 0.953125
vt 0.59375 0.953125
vt 0.40625 0.875
vt 0.40625 0.9375
vt 0.34375 0.9375
vt 0.34375 0.875
vt 0.140625 0.46875
vt 0.078125 0.46875
vt 0.078125 0.453125
vt 0.140625 0.453125
vt 0.21875 0.453125
vt 0.21875 0.46875
vt 0.15625 0.46875
vt 0.15625 0.453125
vt 0.34375 0.796875
vt 0.40625 0.796875
vt 0.40625 0.859375
vt 0.34375 0.859375
vt 0.59375 0.765625
vt 0.59375 0.78125
vt 0.53125 0.78125
vt 0.53125 0.765625
vt 0.296875 0.46875
vt 0.234375 0.46875
vt 0.234375 0.453125
vt 0.296875 0.453125
vt 0.0625 0.546875
vt 0.0625 0.609375
vt 0 0.609375
vt 0 0.546875
vt 0.171875 0.4375
vt 0.140625 0.4375
vt 0.140625 0.421875
vt 0.171875 0.421875
vt 0.21875 0.421875
vt 0.21875 0.4375
vt 0.1875 0.4375
vt 0.1875 0.421875
vt 0.34375 0.515625
vt 0.375 0.515625
vt 0.375 0.578125
vt 0.34375 0.578125
vt 0.59375 0.734375
vt 0.59375 0.75
vt 0.53125 0.75
vt 0.53125 0.734375
vt 0.59375 0.71875
vt 0.53125 0.71875
vt 0.53125 0.703125
vt 0.59375 0.703125
vt 0.421875 0.515625
vt 0.421875 0.578125
vt 0.390625 0.578125
vt 0.390625 0.515625
vt 0.265625 0.4375
vt 0.234375 0.4375
vt 0.234375 0.421875
vt 0.265625 0.421875
vt 0.3125 0.421875
vt 0.3125 0.4375
vt 0.28125 0.4375
vt 0.28125 0.421875
vt 0.4375 0.515625
vt 0.46875 0.515625
vt 0.46875 0.578125
vt 0.4375 0.578125
vt 0.375 0.453125
vt 0.375 0.46875
vt 0.3125 0.46875
vt 0.3125 0.453125
vt 0.453125 0.453125
vt 0.390625 0.453125
vt 0.390625 0.4375
vt 0.453125 0.4375
vt 0.109375 0.484375
vt 0.109375 0.546875
vt 0.078125 0.546875
vt 0.078125 0.484375
vt 0.53125 0.453125
vt 0.46875 0.453125
vt 0.46875 0.4375
vt 0.53125 0.4375
vt 0.609375 0.4375
vt 0.609375 0.453125
vt 0.546875 0.453125
vt 0.546875 0.4375
vt 0.125 0.515625
vt 0.1875 0.515625
vt 0.1875 0.546875
vt 0.125 0.546875
vt 0.359375 0.421875
vt 0.359375 0.4375
vt 0.328125 0.4375
vt 0.328125 0.421875
vt 0.59375 0.578125
vt 0.5625 0.578125
vt 0.5625 0.5625
vt 0.59375 0.5625
vt 0.265625 0.515625
vt 0.265625 0.546875
vt 0.203125 0.546875
vt 0.203125 0.515625
vt 0.59375 0.546875
vt 0.5625 0.546875
vt 0.5625 0.53125
vt 0.59375 0.53125
vt 0.59375 0.5
vt 0.59375 0.515625
vt 0.5625 0.515625
vt 0.5625 0.5
vt 0.28125 0.515625
vt 0.3125 0.515625
vt 0.3125 0.546875
vt 0.28125 0.546875
vt 0.609375 0.796875
vt 0.609375 0.8125
vt 0.578125 0.8125
vt 0.578125 0.796875
vt 0.40625 0.421875
vt 0.375 0.421875
vt 0.375 0.40625
vt 0.40625 0.40625
vt 0.03125 0.40625
vt 0.03125 0.4375
vt 0 0.4375
vt 0 0.40625
vt 0.625 1
vt 0.609375 1
vt 0.609375 0.984375
vt 0.625 0.984375
vt 0.046875 0.375
vt 0.046875 0.390625
vt 0.03125 0.390625
vt 0.03125 0.375
vt 0.609375 0.953125
vt 0.625 0.953125
vt 0.625 0.96875
vt 0.609375 0.96875
vt 0.078125 0.375
vt 0.078125 0.390625
vt 0.0625 0.390625
vt 0.0625 0.375
vt 0.109375 0.390625
vt 0.09375 0.390625
vt 0.09375 0.375
vt 0.109375 0.375
vt 0.625 0.765625
vt 0.625 0.78125
vt 0.609375 0.78125
vt 0.609375 0.765625
vt 0.625 0.75
vt 0.609375 0.75
vt 0.609375 0.734375
vt 0.625 0.734375
vt 0.625 0.703125
vt 0.625 0.71875
vt 0.609375 0.71875
vt 0.609375 0.703125
vt 0.359375 0.375
vt 0.375 0.375
vt 0.375 0.390625
vt 0.359375 0.390625
vt 0.625 0.609375
vt 0.625 0.625
vt 0.609375 0.625
vt 0.609375 0.609375
vt 0.40625 0.390625
vt 0.390625 0.390625
vt 0.390625 0.375
vt 0.40625 0.375
vt 0.625 0.578125
vt 0.625 0.59375
vt 0.609375 0.59375
vt 0.609375 0.578125
vt 0.4375 0.390625
vt 0.421875 0.390625
vt 0.421875 0.375
vt 0.4375 0.375
vt 0.625 0.546875
vt 0.625 0.5625
vt 0.609375 0.5625
vt 0.609375 0.546875
vt 0.453125 0.375
vt 0.46875 0.375
vt 0.46875 0.390625
vt 0.453125 0.390625
vt 0.625 0.515625
vt 0.625 0.53125
vt 0.609375 0.53125
vt 0.609375 0.515625
vt 0.5 0.390625
vt 0.484375 0.390625
vt 0.484375 0.375
vt 0.5 0.375
vt 0.53125 0.375
vt 0.53125 0.390625
vt 0.515625 0.390625
vt 0.515625 0.375
vt 0.5625 0.390625
vt 0.546875 0.390625
vt 0.546875 0.375
vt 0.5625 0.375
vt 0.59375 0.375
vt 0.59375 0.390625
vt 0.578125 0.390625
vt 0.578125 0.375
vt 0.609375 0.40625
vt 0.625 0.40625
vt 0.625 0.421875
vt 0.609375 0.421875
vt 0.625 0.375
vt 0.625 0.390625
vt 0.609375 0.390625
vt 0.609375 0.375
vt 0.140625 0.375
vt 0.125 0.375
vt 0.125 0.359375
vt 0.140625 0.359375
vt 0.171875 0.359375
vt 0.171875 0.375
vt 0.15625 0.375
vt 0.15625 0.359375
vt 0.203125 0.375
vt 0.1875 0.375
vt 0.1875 0.359375
vt 0.203125 0.359375
vt 0.640625 0.796875
vt 0.640625 0.8125
vt 0.625 0.8125
vt 0.625 0.796875
vt 0.21875 0.359375
vt 0.234375 0.359375
vt 0.234375 0.375
vt 0.21875 0.375
vt 0.265625 0.359375
vt 0.265625 0.375
vt 0.25 0.375
vt 0.25 0.359375
vt 0.296875 0.375
vt 0.28125 0.375
vt 0.28125 0.359375
vt 0.296875 0.359375
vt 0.328125 0.359375
vt 0.328125 0.375
vt 0.3125 0.375
vt 0.3125 0.359375
vt 0.640625 0.5
vt 0.625 0.5
vt 0.625 0.484375
vt 0.640625 0.484375
vt 0.640625 0.453125
vt 0.640625 0.46875
vt 0.625 0.46875
vt 0.625 0.453125
vt 0 0.34375
vt 0.015625 0.34375
vt 0.015625 0.359375
vt 0 0.359375
vt 0.65625 0.984375
vt 0.65625 1
vt 0.640625 1
vt 0.640625 0.984375
vt 0.046875 0.359375
vt 0.03125 0.359375
vt 0.03125 0.34375
vt 0.046875 0.34375
vt 0.65625 0.953125
vt 0.65625 0.96875
vt 0.640625 0.96875
vt 0.640625 0.953125
vt 0.078125 0.359375
vt 0.0625 0.359375
vt 0.0625 0.34375
vt 0.078125 0.34375
vt 0.109375 0.34375
vt 0.109375 0.359375
vt 0.09375 0.359375
vt 0.09375 0.34375
vt 0.640625 0.765625
vt 0.65625 0.765625
vt 0.65625 0.78125
vt 0.640625 0.78125
vt 0.65625 0.734375
vt 0.65625 0.75
vt 0.640625 0.75
vt 0.640625 0.734375
vt 0.65625 0.71875
vt 0.640625 0.71875
vt 0.640625 0.703125
vt 0.65625 0.703125
vt 0.359375 0.34375
vt 0.359375 0.359375
vt 0.34375 0.359375
vt 0.34375 0.34375
vt 0.390625 0.359375
vt 0.375 0.359375
vt 0.375 0.34375
vt 0.390625 0.34375
vt 0.65625 0.609375
vt 0.65625 0.625
vt 0.640625 0.625
vt 0.640625 0.609375
vt 0.40625 0.34375
vt 0.421875 0.34375
vt 0.421875 0.359375
vt 0.40625 0.359375
vt 0.65625 0.578125
vt 0.65625 0.59375
vt 0.640625 0.59375
vt 0.640625 0.578125
vt 0.453125 0.359375
vt 0.4375 0.359375
vt 0.4375 0.34375
vt 0.453125 0.34375
vt 0.65625 0.546875
vt 0.65625 0.5625
vt 0.640625 0.5625
vt 0.640625 0.546875
vt 0.484375 0.359375
vt 0.46875 0.359375
vt 0.46875 0.34375
vt 0.484375 0.34375
vt 0.65625 0.515625
vt 0.65625 0.53125
vt 0.640625 0.53125
vt 0.640625 0.515625
vt 0.5 0.34375
vt 0.515625 0.34375
vt 0.515625 0.359375
vt 0.5 0.359375
vt 0.546875 0.34375
vt 0.546875 0.359375
vt 0.53125 0.359375
vt 0.53125 0.34375
vt 0.578125 0.359375
vt 0.5625 0.359375
vt 0.5625 0.34375
vt 0.578125 0.34375
vt 0.65625 0.421875
vt 0.65625 0.4375
vt 0.640625 0.4375
vt 0.640625 0.421875
vt 0.609375 0.359375
vt 0.59375 0.359375
vt 0.59375 0.34375
vt 0.609375 0.34375
vt 0.65625 0.390625
vt 0.65625 0.40625
vt 0.640625 0.40625
vt 0.640625 0.390625
vt 0.625 0.34375
vt 0.640625 0.34375
vt 0.640625 0.359375
vt 0.625 0.359375
vt 0.140625 0.328125
vt 0.140625 0.34375
vt 0.125 0.34375
vt 0.125 0.328125
vt 0.171875 0.34375
vt 0.15625 0.34375
vt 0.15625 0.328125
vt 0.171875 0.328125
vt 0.203125 0.328125
vt 0.203125 0.34375
vt 0.1875 0.34375
vt 0.1875 0.328125
vt 0.671875 0.8125
vt 0.65625 0.8125
vt 0.65625 0.796875
vt 0.671875 0.796875
vt 0.234375 0.328125
vt 0.234375 0.34375
vt 0.21875 0.34375
vt 0.21875 0.328125
vt 0.25 0.328125
vt 0.265625 0.328125
vt 0.265625 0.34375
vt 0.25 0.34375
vt 0.296875 0.328125
vt 0.296875 0.34375
vt 0.28125 0.34375
vt 0.28125 0.328125
vt 0.328125 0.34375
vt 0.3125 0.34375
vt 0.3125 0.328125
vt 0.328125 0.328125
vt 0.671875 0.671875
vt 0.671875 0.6875
vt 0.65625 0.6875
vt 0.65625 0.671875
vt 0.671875 0.65625
vt 0.65625 0.65625
vt 0.65625 0.640625
vt 0.671875 0.640625
vt 0.671875 0.484375
vt 0.671875 0.5
vt 0.65625 0.5
vt 0.65625 0.484375
vt 0.65625 0.453125
vt 0.671875 0.453125
vt 0.671875 0.46875
vt 0.65625 0.46875
vt 0.671875 0.359375
vt 0.671875 0.375
vt 0.65625 0.375
vt 0.65625 0.359375
vt 0.671875 0.34375
vt 0.65625 0.34375
vt 0.65625 0.328125
vt 0.671875 0.328125
vt 0.015625 0.3125
vt 0.015625 0.328125
vt 0 0.328125
vt 0 0.3125
vt 0.6875 1
vt 0.671875 1
vt 0.671875 0.984375
vt 0.6875 0.984375
vt 0.046875 0.3125
vt 0.046875 0.328125
vt 0.03125 0.328125
vt 0.03125 0.3125
vt 0.671875 0.953125
vt 0.6875 0.953125
vt 0.6875 0.96875
vt 0.671875 0.96875
vt 0.078125 0.3125
vt 0.078125 0.328125
vt 0.0625 0.328125
vt 0.0625 0.3125
vt 0.109375 0.328125
vt 0.09375 0.328125
vt 0.09375 0.3125
vt 0.109375 0.3125
vt 0.6875 0.765625
vt 0.6875 0.78125
vt 0.671875 0.78125
vt 0.671875 0.765625
vt 0.6875 0.75
vt 0.671875 0.75
vt 0.671875 0.734375
vt 0.6875 0.734375
vt 0.6875 0.703125
vt 0.6875 0.71875
vt 0.671875 0.71875
vt 0.671875 0.703125
vt 0.34375 0.3125
vt 0.359375 0.3125
vt 0.359375 0.328125
vt 0.34375 0.328125
vt 0.390625 0.3125
vt 0.390625 0.328125
vt 0.375 0.328125
vt 0.375 0.3125
vt 0.6875 0.625
vt 0.671875 0.625
vt 0.671875 0.609375
vt 0.6875 0.609375
vt 0.421875 0.3125
vt 0.421875 0.328125
vt 0.40625 0.328125
vt 0.40625 0.3125
vt 0.6875 0.59375
vt 0.671875 0.59375
vt 0.671875 0.578125
vt 0.6875 0.578125
vt 0.453125 0.3125
vt 0.453125 0.328125
vt 0.4375 0.328125
vt 0.4375 0.3125
vt 0.671875 0.546875
vt 0.6875 0.546875
vt 0.6875 0.5625
vt 0.671875 0.5625
vt 0.484375 0.3125
vt 0.484375 0.328125
vt 0.46875 0.328125
vt 0.46875 0.3125
vt 0.6875 0.53125
vt 0.671875 0.53125
vt 0.671875 0.515625
vt 0.6875 0.515625
vt 0.515625 0.3125
vt 0.515625 0.328125
vt 0.5 0.328125
vt 0.5 0.3125
vt 0.546875 0.328125
vt 0.53125 0.328125
vt 0.53125 0.3125
vt 0.546875 0.3125
vt 0.578125 0.3125
vt 0.578125 0.328125
vt 0.5625 0.328125
vt 0.5625 0.3125
vt 0.671875 0.421875
vt 0.6875 0.421875
vt 0.6875 0.4375
vt 0.671875 0.4375
vt 0.609375 0.3125
vt 0.609375 0.328125
vt 0.59375 0.328125
vt 0.59375 0.3125
vt 0.6875 0.40625
vt 0.671875 0.40625
vt 0.671875 0.390625
vt 0.6875 0.390625
vt 0.640625 0.3125
vt 0.640625 0.328125
vt 0.625 0.328125
vt 0.625 0.3125
vt 0.703125 0.9375
vt 0.6875 0.9375
vt 0.6875 0.921875
vt 0.703125 0.921875
vt 0.703125 0.890625
vt 0.703125 0.90625
vt 0.6875 0.90625
vt 0.6875 0.890625
vt 0.125 0.296875
vt 0.140625 0.296875
vt 0.140625 0.3125
vt 0.125 0.3125
vt 0.703125 0.859375
vt 0.703125 0.875
vt 0.6875 0.875
vt 0.6875 0.859375
vt 0.171875 0.3125
vt 0.15625 0.3125
vt 0.15625 0.296875
vt 0.171875 0.296875
vt 0.703125 0.828125
vt 0.703125 0.84375
vt 0.6875 0.84375
vt 0.6875 0.828125
vt 0.203125 0.3125
vt 0.1875 0.3125
vt 0.1875 0.296875
vt 0.203125 0.296875
vt 0.703125 0.796875
vt 0.703125 0.8125
vt 0.6875 0.8125
vt 0.6875 0.796875
vt 0.21875 0.296875
vt 0.234375 0.296875
vt 0.234375 0.3125
vt 0.21875 0.3125
vt 0.265625 0.296875
vt 0.265625 0.3125
vt 0.25 0.3125
vt 0.25 0.296875
vt 0.296875 0.3125
vt 0.28125 0.3125
vt 0.28125 0.296875
vt 0.296875 0.296875
vt 0.328125 0.296875
vt 0.328125 0.3125
vt 0.3125 0.3125
vt 0.3125 0.296875
vt 0.703125 0.6875
vt 0.6875 0.6875
vt 0.6875 0.671875
vt 0.703125 0.671875
vt 0.703125 0.640625
vt 0.703125 0.65625
vt 0.6875 0.65625
vt 0.6875 0.640625
vt 0.6875 0.484375
vt 0.703125 0.484375
vt 0.703125 0.5
vt 0.6875 0.5
vt 0.703125 0.453125
vt 0.703125 0.46875
vt 0.6875 0.46875
vt 0.6875 0.453125
vt 0.703125 0.375
vt 0.6875 0.375
vt 0.6875 0.359375
vt 0.703125 0.359375
vt 0.671875 0.296875
vt 0.671875 0.3125
vt 0.65625 0.3125
vt 0.65625 0.296875
vt 0.703125 0.34375
vt 0.6875 0.34375
vt 0.6875 0.328125
vt 0.703125 0.328125
vt 0.703125 0.296875
vt 0.703125 0.3125
vt 0.6875 0.3125
vt 0.6875 0.296875
vt 0 0.28125
vt 0.015625 0.28125
vt 0.015625 0.296875
vt 0 0.296875
vt 0.71875 0.984375
vt 0.71875 1
vt 0.703125 1
vt 0.703125 0.984375
vt 0.046875 0.296875
vt 0.03125 0.296875
vt 0.03125 0.28125
vt 0.046875 0.28125
vt 0.71875 0.953125
vt 0.71875 0.96875
vt 0.703125 0.96875
vt 0.703125 0.953125
vt 0.078125 0.296875
vt 0.0625 0.296875
vt 0.0625 0.28125
vt 0.078125 0.28125
vt 0.109375 0.28125
vt 0.109375 0.296875
vt 0.09375 0.296875
vt 0.09375 0.28125
vt 0.703125 0.765625
vt 0.71875 0.765625
vt 0.71875 0.78125
vt 0.703125 0.78125
vt 0.71875 0.734375
vt 0.71875 0.75
vt 0.703125 0.75
vt 0.703125 0.734375
vt 0.71875 0.71875
vt 0.703125 0.71875
vt 0.703125 0.703125
vt 0.71875 0.703125
vt 0.359375 0.28125
vt 0.359375 0.296875
vt 0.34375 0.296875
vt 0.34375 0.28125
vt 0.390625 0.296875
vt 0.375 0.296875
vt 0.375 0.28125
vt 0.390625 0.28125
vt 0.71875 0.609375
vt 0.71875 0.625
vt 0.703125 0.625
vt 0.703125 0.609375
vt 0.40625 0.28125
vt 0.421875 0.28125
vt 0.421875 0.296875
vt 0.40625 0.296875
vt 0.71875 0.578125
vt 0.71875 0.59375
vt 0.703125 0.59375
vt 0.703125 0.578125
vt 0.453125 0.296875
vt 0.4375 0.296875
vt 0.4375 0.28125
vt 0.453125 0.28125
vt 0.71875 0.546875
vt 0.71875 0.5625
vt 0.703125 0.5625
vt 0.703125 0.546875
vt 0.484375 0.296875
vt 0.46875 0.296875
vt 0.46875 0.28125
vt 0.484375 0.28125
vt 0.71875 0.515625
vt 0.71875 0.53125
vt 0.703125 0.53125
vt 0.703125 0.515625
vt 0.5 0.28125
vt 0.515625 0.28125
vt 0.515625 0.296875
vt 0.5 0.296875
vt 0.546875 0.28125
vt 0.546875 0.296875
vt 0.53125 0.296875
vt 0.53125 0.28125
vt 0.578125 0.296875
vt 0.5625 0.296875
vt 0.5625 0.28125
vt 0.578125 0.28125
vt 0.71875 0.421875
vt 0.71875 0.4375
vt 0.703125 0.4375
vt 0.703125 0.421875
vt 0.609375 0.296875
vt 0.59375 0.296875
vt 0.59375 0.28125
vt 0.609375 0.28125
vt 0.71875 0.390625
vt 0.71875 0.40625
vt 0.703125 0.40625
vt 0.703125 0.390625
vt 0.625 0.28125
vt 0.640625 0.28125
vt 0.640625 0.296875
vt 0.625 0.296875
vt 0.734375 0.921875
vt 0.734375 0.9375
vt 0.71875 0.9375
vt 0.71875 0.921875
vt 0.734375 0.90625
vt 0.71875 0.90625
vt 0.71875 0.890625
vt 0.734375 0.890625
vt 0.140625 0.265625
vt 0.140625 0.28125
vt 0.125 0.28125
vt 0.125 0.265625
vt 0.734375 0.875
vt 0.71875 0.875
vt 0.71875 0.859375
vt 0.734375 0.859375
vt 0.171875 0.265625
vt 0.171875 0.28125
vt 0.15625 0.28125
vt 0.15625 0.265625
vt 0.71875 0.828125
vt 0.734375 0.828125
vt 0.734375 0.84375
vt 0.71875 0.84375
vt 0.203125 0.265625
vt 0.203125 0.28125
vt 0.1875 0.28125
vt 0.1875 0.265625
vt 0.734375 0.8125
vt 0.71875 0.8125
vt 0.71875 0.796875
vt 0.734375 0.796875
vt 0.234375 0.265625
vt 0.234375 0.28125
vt 0.21875 0.28125
vt 0.21875 0.265625
vt 0.265625 0.28125
vt 0.25 0.28125
vt 0.25 0.265625
vt 0.265625 0.265625
vt 0.296875 0.265625
vt 0.296875 0.28125
vt 0.28125 0.28125
vt 0.28125 0.265625
vt 0.3125 0.265625
vt 0.328125 0.265625
vt 0.328125 0.28125
vt 0.3125 0.28125
vt 0.734375 0.671875
vt 0.734375 0.6875
vt 0.71875 0.6875
vt 0.71875 0.671875
vt 0.734375 0.65625
vt 0.71875 0.65625
vt 0.71875 0.640625
vt 0.734375 0.640625
vt 0.734375 0.484375
vt 0.734375 0.5
vt 0.71875 0.5
vt 0.71875 0.484375
vt 0.734375 0.46875
vt 0.71875 0.46875
vt 0.71875 0.453125
vt 0.734375 0.453125
vt 0.734375 0.359375
vt 0.734375 0.375
vt 0.71875 0.375
vt 0.71875 0.359375
vt 0.65625 0.265625
vt 0.671875 0.265625
vt 0.671875 0.28125
vt 0.65625 0.28125
vt 0.734375 0.328125
vt 0.734375 0.34375
vt 0.71875 0.34375
vt 0.71875 0.328125
vt 0.703125 0.28125
vt 0.6875 0.28125
vt 0.6875 0.265625
vt 0.703125 0.265625
vt 0.734375 0.296875
vt 0.734375 0.3125
vt 0.71875 0.3125
vt 0.71875 0.296875
vt 0.734375 0.28125
vt 0.71875 0.28125
vt 0.71875 0.265625
vt 0.734375 0.265625
vt 0.015625 0.25
vt 0.015625 0.265625
vt 0 0.265625
vt 0 0.25
vt 0.734375 0.984375
vt 0.75 0.984375
vt 0.75 1
vt 0.734375 1
vt 0.046875 0.25
vt 0.046875 0.265625
vt 0.03125 0.265625
vt 0.03125 0.25
vt 0.75 0.96875
vt 0.734375 0.96875
vt 0.734375 0.953125
vt 0.75 0.953125
vt 0.078125 0.25
vt 0.078125 0.265625
vt 0.0625 0.265625
vt 0.0625 0.25
vt 0.453125 0.421875
vt 0.421875 0.421875
vt 0.421875 0.40625
vt 0.453125 0.40625
vt 0.5 0.40625
vt 0.5 0.421875
vt 0.46875 0.421875
vt 0.46875 0.40625
vt 0.046875 0.40625
vt 0.078125 0.40625
vt 0.078125 0.4375
vt 0.046875 0.4375
vt 0.546875 0.40625
vt 0.546875 0.421875
vt 0.515625 0.421875
vt 0.515625 0.40625
vt 0.59375 0.421875
vt 0.5625 0.421875
vt 0.5625 0.40625
vt 0.59375 0.40625
vt 0.125 0.40625
vt 0.125 0.4375
vt 0.09375 0.4375
vt 0.09375 0.40625
vt 0.328125 0.609375
vt 0.078125 0.609375
vt 0.078125 0.59375
vt 0.328125 0.59375
vt 0.640625 0.671875
vt 0.640625 0.6875
vt 0.390625 0.6875
vt 0.390625 0.671875
vt 0 0.96875
vt 0.25 0.96875
vt 0.25 1
vt 0 1
vt 0.171875 0.390625
vt 0.171875 0.40625
vt 0.140625 0.40625
vt 0.140625 0.390625
vt 0.21875 0.40625
vt 0.1875 0.40625
vt 0.1875 0.390625
vt 0.21875 0.390625
vt 0.25 0.921875
vt 0.25 0.953125
vt 0 0.953125
vt 0 0.921875
vt 0.109375 0.265625
vt 0.09375 0.265625
vt 0.09375 0.25
vt 0.109375 0.25
vt 0.75 0.78125
vt 0.734375 0.78125
vt 0.734375 0.765625
vt 0.75 0.765625
vt 0.75 0.75
vt 0.734375 0.75
vt 0.734375 0.734375
vt 0.75 0.734375
vt 0.75 0.71875
vt 0.734375 0.71875
vt 0.734375 0.703125
vt 0.75 0.703125
vt 0.359375 0.265625
vt 0.34375 0.265625
vt 0.34375 0.25
vt 0.359375 0.25
vt 0.390625 0.265625
vt 0.375 0.265625
vt 0.375 0.25
vt 0.390625 0.25
vt 0.75 0.625
vt 0.734375 0.625
vt 0.734375 0.609375
vt 0.75 0.609375
vt 0.421875 0.265625
vt 0.40625 0.265625
vt 0.40625 0.25
vt 0.421875 0.25
vt 0.75 0.59375
vt 0.734375 0.59375
vt 0.734375 0.578125
vt 0.75 0.578125
vt 0.453125 0.265625
vt 0.4375 0.265625
vt 0.4375 0.25
vt 0.453125 0.25
vt 0.75 0.5625
vt 0.734375 0.5625
vt 0.734375 0.546875
vt 0.75 0.546875
vt 0.484375 0.265625
vt 0.46875 0.265625
vt 0.46875 0.25
vt 0.484375 0.25
vt 0.75 0.53125
vt 0.734375 0.53125
vt 0.734375 0.515625
vt 0.75 0.515625
vt 0.515625 0.265625
vt 0.5 0.265625
vt 0.5 0.25
vt 0.515625 0.25
vt 0.53125 0.25
vt 0.546875 0.25
vt 0.546875 0.265625
vt 0.53125 0.265625
vt 0.578125 0.265625
vt 0.5625 0.265625
vt 0.5625 0.25
vt 0.578125 0.25
vt 0.75 0.4375
vt 0.734375 0.4375
vt 0.734375 0.421875
vt 0.75 0.421875
vt 0.609375 0.265625
vt 0.59375 0.265625
vt 0.59375 0.25
vt 0.609375 0.25
vt 0.75 0.40625
vt 0.734375 0.40625
vt 0.734375 0.390625
vt 0.75 0.390625
vt 0.640625 0.265625
vt 0.625 0.265625
vt 0.625 0.25
vt 0.640625 0.25
vt 0.765625 0.9375
vt 0.75 0.9375
vt 0.75 0.921875
vt 0.765625 0.921875
vt 0.765625 0.90625
vt 0.75 0.90625
vt 0.75 0.890625
vt 0.765625 0.890625
vt 0.125 0.234375
vt 0.140625 0.234375
vt 0.140625 0.25
vt 0.125 0.25
vt 0.765625 0.875
vt 0.75 0.875
vt 0.75 0.859375
vt 0.765625 0.859375
vt 0.171875 0.25
vt 0.15625 0.25
vt 0.15625 0.234375
vt 0.171875 0.234375
vt 0.765625 0.84375
vt 0.75 0.84375
vt 0.75 0.828125
vt 0.765625 0.828125
vt 0.203125 0.25
vt 0.1875 0.25
vt 0.1875 0.234375
vt 0.203125 0.234375
vt 0.765625 0.8125
vt 0.75 0.8125
vt 0.75 0.796875
vt 0.765625 0.796875
vt 0.234375 0.25
vt 0.21875 0.25
vt 0.21875 0.234375
vt 0.234375 0.234375
vt 0.265625 0.25
vt 0.25 0.25
vt 0.25 0.234375
vt 0.265625 0.234375
vt 0.28125 0.234375
vt 0.296875 0.234375
vt 0.296875 0.25
vt 0.28125 0.25
vt 0.328125 0.25
vt 0.3125 0.25
vt 0.3125 0.234375
vt 0.328125 0.234375
vt 0.765625 0.6875
vt 0.75 0.6875
vt 0.75 0.671875
vt 0.765625 0.671875
vt 0.765625 0.65625
vt 0.75 0.65625
vt 0.75 0.640625
vt 0.765625 0.640625
vt 0.765625 0.5
vt 0.75 0.5
vt 0.75 0.484375
vt 0.765625 0.484375
vt 0.765625 0.46875
vt 0.75 0.46875
vt 0.75 0.453125
vt 0.765625 0.453125
vt 0.765625 0.375
vt 0.75 0.375
vt 0.75 0.359375
vt 0.765625 0.359375
vt 0.671875 0.25
vt 0.65625 0.25
vt 0.65625 0.234375
vt 0.671875 0.234375
vt 0.75 0.328125
vt 0.765625 0.328125
vt 0.765625 0.34375
vt 0.75 0.34375
vt 0.703125 0.25
vt 0.6875 0.25
vt 0.6875 0.234375
vt 0.703125 0.234375
vt 0.765625 0.3125
vt 0.75 0.3125
vt 0.75 0.296875
vt 0.765625 0.296875
vt 0.734375 0.25
vt 0.71875 0.25
vt 0.71875 0.234375
vt 0.734375 0.234375
vt 0.765625 0.28125
vt 0.75 0.28125
vt 0.75 0.265625
vt 0.765625 0.265625
vt 0.765625 0.25
vt 0.75 0.25
vt 0.75 0.234375
vt 0.765625 0.234375
vt 0.015625 0.234375
vt 0 0.234375
vt 0 0.21875
vt 0.015625 0.21875
vt 0.765625 0.984375
vt 0.78125 0.984375
vt 0.78125 1
vt 0.765625 1
vt 0.046875 0.234375
vt 0.03125 0.234375
vt 0.03125 0.21875
vt 0.046875 0.21875
vt 0.765625 0.953125
vt 0.78125 0.953125
vt 0.78125 0.96875
vt 0.765625 0.96875
vt 0.0625 0.21875
vt 0.078125 0.21875
vt 0.078125 0.234375
vt 0.0625 0.234375
vt 0.09375 0.21875
vt 0.109375 0.21875
vt 0.109375 0.234375
vt 0.09375 0.234375
vt 0.765625 0.765625
vt 0.78125 0.765625
vt 0.78125 0.78125
vt 0.765625 0.78125
vt 0.765625 0.734375
vt 0.78125 0.734375
vt 0.78125 0.75
vt 0.765625 0.75
vt 0.765625 0.703125
vt 0.78125 0.703125
vt 0.78125 0.71875
vt 0.765625 0.71875
vt 0.34375 0.21875
vt 0.359375 0.21875
vt 0.359375 0.234375
vt 0.34375 0.234375
vt 0.34375 0.59375
vt 0.59375 0.59375
vt 0.59375 0.609375
vt 0.34375 0.609375
vt 0.390625 0.65625
vt 0.390625 0.640625
vt 0.640625 0.640625
vt 0.640625 0.65625
vt 0.671875 0.9375
vt 0.421875 0.9375
vt 0.421875 0.921875
vt 0.671875 0.921875
vt 0.328125 0.578125
vt 0.078125 0.578125
vt 0.078125 0.5625
vt 0.328125 0.5625
vt 0.671875 0.90625
vt 0.421875 0.90625
vt 0.421875 0.890625
vt 0.671875 0.890625
vt 0.671875 0.875
vt 0.421875 0.875
vt 0.421875 0.859375
vt 0.671875 0.859375
vt 0.671875 0.84375
vt 0.421875 0.84375
vt 0.421875 0.828125
vt 0.671875 0.828125
vn 1 0 0
vn -1 0 0
vn 0 1 0
vn 0 -1 0
vn 0 0 1
vn 0 0 -1
vn 0 0 -1
vn 0 0 1
vn 0 -1 0
vn 1 0 0
vn -1 0 0
vn 0 1 0
vn 0 0 -1
vn 0 0 1
vn 0 -1 0
vn 1 0 0
vn -1 0 0
vn 0 1 0
vn 0 0 -1
vn 0 0 1
vn 0 -1 0
vn 1 0 0
vn -1 0 0
vn 0 1 0
vn 0 0 -1
vn 0 0 1
vn 0 -1 0
vn 1 0 0
vn -1 0 0
vn 0 1 0
vn 0 0 -1
vn 0 0 1
vn 0 -1 0
vn 1 0 0
vn -1 0 0
vn 0 1 0
vn 0 0 -1
vn 0 0 1
vn 0 -1 0
vn 1 0 0
vn -1 0 0
vn 0 1 0
vn 0 0 -1
vn 0 0 1
vn 0 -1 0
vn 1 0 0
vn -1 0 0
vn 0 1 0
vn 0 0 -1
vn 0 0 1
vn 0 -1 0
vn 1 0 0
vn -1 0 0
vn 0 1 0
vn 0 0 -1
vn 0 0 1
vn 0 -1 0
vn 1 0 0
vn -1 0 0
vn 0 1 0
vn 0 0 -1
vn 0 0 1
vn 0 -1 0
vn 1 0 0
vn -1 0 0
vn 0 1 0
vn 0 0 -1
vn 0 0 1
vn 0 -1 0
vn 1 0 0
vn -1 0 0
vn 0 1 0
vn 0 0 -1
vn 0 0 1
vn 0 -1 0
vn 1 0 0
vn -1 0 0
vn 0 1 0
vn 0 0 -1
vn 0 0 1
vn 0 -1 0
vn 1 0 0
vn -1 0 0
vn 0 1 0
vn 0 0 -1
vn 0 0 1
vn 0 -1 0
vn 1 0 0
vn -1 0 0
vn 0 1 0
vn 0 0 -1
vn 0 0 1
vn 0 -1 0
vn 1 0 0
vn -1 0 0
vn 0 1 0
vn 0 0 -1
vn 0 0 1
vn 0 -1 0
vn 1 0 0
vn -1 0 0
vn 0 1 0
vn 0 0 -1
vn 0 0 1
vn 0 -1 0
vn 1 0 0
vn -1 0 0
vn 0 1 0
vn 0 0 -1
vn 0 0 1
vn 0 -1 0
vn 1 0 0
vn -1 0 0
vn 0 1 0
vn 0 0 -1
vn 0 0 1
vn 0 -1 0
vn 1 0 0
vn -1 0 0
vn 0 1 0
vn 0 0 -1
vn 0 0 1
vn 0 -1 0
vn 1 0 0
vn -1 0 0
vn 0 1 0
vn 0 0 -1
vn 0 0 1
vn 0 -1 0
vn 1 0 0
vn -1 0 0
vn 0 1 0
vn 0 0 -1
vn 0 0 1
vn 0 -1 0
vn 1 0 0
vn -1 0 0
vn 0 1 0
vn 0 0 -1
vn 0 0 1
vn 0 -1 0
vn 1 0 0
vn -1 0 0
vn 0 1 0
vn 0 0 -1
vn 0 0 1
vn 0 -1 0
vn 1 0 0
vn -1 0 0
vn 0 1 0
vn 0 0 -1
vn 0 0 1
vn 0 -1 0
vn 1 0 0
vn -1 0 0
vn 0 1 0
vn 0 0 -1
vn 0 0 1
vn 0 -1 0
vn 1 0 0
vn -1 0 0
vn 0 1 0
vn 0 0 -1
vn 0 0 1
vn 0 -1 0
vn 1 0 0
vn -1 0 0
vn 0 1 0
vn 0 0 -1
vn 0 0 1
vn 0 -1 0
vn 1 0 0
vn -1 0 0
vn 0 1 0
vn 0 0 -1
vn 0 0 1
vn 0 -1 0
vn 1 0 0
vn -1 0 0
vn 0 1 0
vn 0 0 -1
vn 0 0 1
vn 0 -1 0
vn 1 0 0
vn -1 0 0
vn 0 1 0
vn 0 0 -1
vn 0 0 1
vn 0 -1 0
vn 1 0 0
vn -1 0 0
vn 0 1 0
vn 0 0 -1
vn 0 0 1
vn 0 -1 0
vn 1 0 0
vn -1 0 0
vn 0 1 0
vn 0 0 -1
vn 0 0 1
vn 0 -1 0
vn 1 0 0
vn -1 0 0
vn 0 1 0
vn 0 0 -1
vn 0 0 1
vn 0 -1 0
vn 1 0 0
vn -1 0 0
vn 0 1 0
vn 0 0 -1
vn 0 0 1
vn 0 -1 0
vn 1 0 0
vn -1 0 0
vn 0 1 0
vn 0 0 -1
vn 0 0 1
vn 0 -1 0
vn 1 0 0
vn -1 0 0
vn 0 1 0
vn 0 0 -1
vn 0 0 1
vn 0 -1 0
vn 1 0 0
vn -1 0 0
vn 0 1 0
vn 0 0 -1
vn 0 0 1
vn 0 -1 0
vn 1 0 0
vn -1 0 0
vn 0 1 0
vn 0 0 -1
vn 0 0 1
vn 0 -1 0
vn 1 0 0
vn -1 0 0
vn 0 1 0
vn 0 0 -1
vn 0 0 1
vn 0 -1 0
vn 1 0 0
vn -1 0 0
vn 0 1 0
vn 0 0 -1
vn 0 0 1
vn 0 -1 0
vn 1 0 0
vn -1 0 0
vn 0 1 0
vn 0 0 -1
vn 0 0 -1
vn 0 0 -1
vn 0 0 -1
vn 0 0 -1
vn 0 0 -1
vn 0 0 -1
vn 0 0 -1
vn 0 0 -1
vn 0 0 -1
vn 0 0 -1
vn 0 0 -1
vn 0 0 -1
vn 0 0 -1
vn 0 0 -1
vn 0 0 -1
vn 0 0 -1
vn 0 0 -1
vn 0 0 -1
vn 0 0 -1
vn 0 0 -1
vn 0 0 -1
vn 0 0 -1
vn 0 0 -1
vn 0 0 -1
vn 0 0 -1
vn 0 0 -1
vn 0 0 -1
vn 0 0 -1
vn 0 0 -1
vn 0 0 -1
vn 0 0 -1
vn 0 0 -1
vn 0 0 -1
vn 0 0 -1
vn 0 0 -1
vn 0 0 -1
vn 0 0 -1
vn 0 0 -1
vn 0 0 -1
vn 0 0 -1
vn 0 0 -1
vn 0 0 -1
vn 0 0 -1
vn 0 0 -1
vn 0 0 -1
vn 0 0 -1
vn 0 0 -1
vn 0 0 -1
vn 0 0 -1
vn 0 0 -1
vn 0 0 -1
vn 0 0 -1
vn 0 0 -1
vn 0 0 -1
vn 0 0 -1
vn 0 0 1
vn 0 0 1
vn 0 0 1
vn 0 0 -1
vn 0 0 1
usemtl m_0f1a7ea0-7413-5f95-669d-3db5de6d623c
f 2/1/1 3/2/1 4/3/1 5/4/1
f 6/5/2 7/6/2 8/7/2 9/8/2
f 7/9/3 3/10/3 2/11/3 8/12/3
f 5/13/4 4/14/4 6/15/4 9/16/4
f 4/17/5 3/18/5 7/19/5 6/20/5
f 8/21/6 2/22/6 5/23/6 9/24/6
f 10/25/7 11/26/7 12/27/7 13/28/7
f 14/29/8 15/30/8 16/31/8 17/32/8
f 13/33/9 12/34/9 14/35/9 17/36/9
f 12/37/10 11/38/10 15/39/10 14/40/10
f 16/41/11 10/42/11 13/43/11 17/44/11
f 15/45/12 11/46/12 10/47/12 16/48/12
f 18/49/13 19/50/13 20/51/13 21/52/13
f 22/53/14 23/54/14 24/55/14 25/56/14
f 21/57/15 20/58/15 22/59/15 25/60/15
f 20/61/16 19/62/16 23/63/16 22/64/16
f 24/65/17 18/66/17 21/67/17 25/68/17
f 23/69/18 19/70/18 18/71/18 24/72/18
f 26/73/19 27/74/19 28/75/19 29/76/19
f 30/77/20 31/78/20 32/79/20 33/80/20
f 29/81/21 28/82/21 30/83/21 33/84/21
f 28/85/22 27/86/22 31/87/22 30/88/22
f 32/89/23 26/90/23 29/91/23 33/92/23
f 31/93/24 27/94/24 26/95/24 32/96/24
f 34/97/25 35/98/25 36/99/25 37/100/25
f 38/101/26 39/102/26 40/103/26 41/104/26
f 37/105/27 36/106/27 38/107/27 41/108/27
f 36/109/28 35/110/28 39/111/28 38/112/28
f 40/113/29 34/114/29 37/115/29 41/116/29
f 39/117/30 35/118/30 34/119/30 40/120/30
f 42/121/31 43/122/31 44/123/31 45/124/31
f 46/125/32 47/126/32 48/127/32 49/128/32
f 45/129/33 44/130/33 46/131/33 49/132/33
f 44/133/34 43/134/34 47/135/34 46/136/34
f 48/137/35 42/138/35 45/139/35 49/140/35
f 47/141/36 43/142/36 42/143/36 48/144/36
f 50/145/37 51/146/37 52/147/37 53/148/37
f 54/149/38 55/150/38 56/151/38 57/152/38
f 53/153/39 52/154/39 54/155/39 57/156/39
f 52/157/40 51/158/40 55/159/40 54/160/40
f 56/161/41 50/162/41 53/163/41 57/164/41
f 55/165/42 51/166/42 50/167/42 56/168/42
f 58/169/43 59/170/43 60/171/43 61/172/43
f 62/173/44 63/174/44 64/175/44 65/176/44
f 61/177/45 60/178/45 62/179/45 65/180/45
f 60/181/46 59/182/46 63/183/46 62/184/46
f 64/185/47 58/186/47 61/187/47 65/188/47
f 63/189/48 59/190/48 58/191/48 64/192/48
f 66/193/49 67/194/49 68/195/49 69/196/49
f 70/197/50 71/198/50 72/199/50 73/200/50
f 69/201/51 68/202/51 70/203/51 73/204/51
f 68/205/52 67/206/52 71/207/52 70/208/52
f 72/209/53 66/210/53 69/211/53 73/212/53
f 71/213/54 67/214/54 66/215/54 72/216/54
f 74/217/55 75/218/55 76/219/55 77/220/55
f 78/221/56 79/222/56 80/223/56 81/224/56
f 77/225/57 76/226/57 78/227/57 81/228/57
f 76/229/58 75/230/58 79/231/58 78/232/58
f 80/233/59 74/234/59 77/235/59 81/236/59
f 79/237/60 75/238/60 74/239/60 80/240/60
f 1/241/61 82/242/61 83/243/61 84/244/61
f 85/245/62 86/246/62 87/247/62 88/248/62
f 84/249/63 83/250/63 85/251/63 88/252/63
f 83/253/64 82/254/64 86/255/64 85/256/64
f 87/257/65 1/258/65 84/259/65 88/260/65
f 86/261/66 82/262/66 1/263/66 87/264/66
f 89/265/67 90/266/67 91/267/67 92/268/67
f 93/269/68 94/270/68 95/271/68 96/272/68
f 92/273/69 91/274/69 93/275/69 96/276/69
f 91/277/70 90/278/70 94/279/70 93/280/70
f 95/281/71 89/282/71 92/283/71 96/284/71
f 94/285/72 90/286/72 89/287/72 95/288/72
f 97/289/73 98/290/73 99/291/73 100/292/73
f 101/293/74 102/294/74 103/295/74 104/296/74
f 100/297/75 99/298/75 101/299/75 104/300/75
f 99/301/76 98/302/76 102/303/76 101/304/76
f 103/305/77 97/306/77 100/307/77 104/308/77
f 102/309/78 98/310/78 97/311/78 103/312/78
f 105/313/79 106/314/79 107/315/79 108/316/79
f 109/317/80 110/318/80 111/319/80 112/320/80
f 108/321/81 107/322/81 109/323/81 112/324/81
f 107/325/82 106/326/82 110/327/82 109/328/82
f 111/329/83 105/330/83 108/331/83 112/332/83
f 110/333/84 106/334/84 105/335/84 111/336/84
f 113/337/85 114/338/85 115/339/85 116/340/85
f 117/341/86 118/342/86 119/343/86 120/344/86
f 116/345/87 115/346/87 117/347/87 120/348/87
f 115/349/88 114/350/88 118/351/88 117/352/88
f 119/353/89 113/354/89 116/355/89 120/356/89
f 118/357/90 114/358/90 113/359/90 119/360/90
f 121/361/91 122/362/91 123/363/91 124/364/91
f 125/365/92 126/366/92 127/367/92 128/368/92
f 124/369/93 123/370/93 125/371/93 128/372/93
f 123/373/94 122/374/94 126/375/94 125/376/94
f 127/377/95 121/378/95 124/379/95 128/380/95
f 126/381/96 122/382/96 121/383/96 127/384/96
f 129/385/97 130/386/97 131/387/97 132/388/97
f 133/389/98 134/390/98 135/391/98 136/392/98
f 132/393/99 131/394/99 133/395/99 136/396/99
f 131/397/100 130/398/100 134/399/100 133/400/100
f 135/401/101 129/402/101 132/403/101 136/404/101
f 134/405/102 130/406/102 129/407/102 135/408/102
f 137/409/103 138/410/103 139/411/103 140/412/103
f 141/413/104 142/414/104 143/415/104 144/416/104
f 140/417/105 139/418/105 141/419/105 144/420/105
f 139/421/106 138/422/106 142/423/106 141/424/106
f 143/425/107 137/426/107 140/427/107 144/428/107
f 142/429/108 138/430/108 137/431/108 143/432/108
f 145/433/109 146/434/109 147/435/109 148/436/109
f 149/437/110 150/438/110 151/439/110 152/440/110
f 148/441/111 147/442/111 149/443/111 152/444/111
f 147/445/112 146/446/112 150/447/112 149/448/112
f 151/449/113 145/450/113 148/451/113 152/452/113
f 150/453/114 146/454/114 145/455/114 151/456/114
f 153/457/115 154/458/115 155/459/115 156/460/115
f 157/461/116 158/462/116 159/463/116 160/464/116
f 156/465/117 155/466/117 157/467/117 160/468/117
f 155/469/118 154/470/118 158/471/118 157/472/118
f 159/473/119 153/474/119 156/475/119 160/476/119
f 158/477/120 154/478/120 153/479/120 159/480/120
f 161/481/121 162/482/121 163/483/121 164/484/121
f 165/485/122 166/486/122 167/487/122 168/488/122
f 164/489/123 163/490/123 165/491/123 168/492/123
f 163/493/124 162/494/124 166/495/124 165/496/124
f 167/497/125 161/498/125 164/499/125 168/500/125
f 166/501/126 162/502/126 161/503/126 167/504/126
f 169/505/127 170/506/127 171/507/127 172/508/127
f 173/509/128 174/510/128 175/511/128 176/512/128
f 172/513/129 171/514/129 173/515/129 176/516/129
f 171/517/130 170/518/130 174/519/130 173/520/130
f 175/521/131 169/522/131 172/523/131 176/524/131
f 174/525/132 170/526/132 169/527/132 175/528/132
f 177/529/133 178/530/133 179/531/133 180/532/133
f 181/533/134 182/534/134 183/535/134 184/536/134
f 180/537/135 179/538/135 181/539/135 184/540/135
f 179/541/136 178/542/136 182/543/136 181/544/136
f 183/545/137 177/546/137 180/547/137 184/548/137
f 182/549/138 178/550/138 177/551/138 183/552/138
f 185/553/139 186/554/139 187/555/139 188/556/139
f 189/557/140 190/558/140 191/559/140 192/560/140
f 188/561/141 187/562/141 189/563/141 192/564/141
f 187/565/142 186/566/142 190/567/142 189/568/142
f 191/569/143 185/570/143 188/571/143 192/572/143
f 190/573/144 186/574/144 185/575/144 191/576/144
f 193/577/145 194/578/145 195/579/145 196/580/145
f 197/581/146 198/582/146 199/583/146 200/584/146
f 196/585/147 195/586/147 197/587/147 200/588/147
f 195/589/148 194/590/148 198/591/148 197/592/148
f 199/593/149 193/594/149 196/595/149 200/596/149
f 198/597/150 194/598/150 193/599/150 199/600/150
f 201/601/151 202/602/151 203/603/151 204/604/151
f 205/605/152 206/606/152 207/607/152 208/608/152
f 204/609/153 203/610/153 205/611/153 208/612/153
f 203/613/154 202/614/154 206/615/154 205/616/154
f 207/617/155 201/618/155 204/619/155 208/620/155
f 206/621/156 202/622/156 201/623/156 207/624/156
f 209/625/157 210/626/157 211/627/157 212/628/157
f 213/629/158 214/630/158 215/631/158 216/632/158
f 212/633/159 211/634/159 213/635/159 216/636/159
f 211/637/160 210/638/160 214/639/160 213/640/160
f 215/641/161 209/642/161 212/643/161 216/644/161
f 214/645/162 210/646/162 209/647/162 215/648/162
f 217/649/163 218/650/163 219/651/163 220/652/163
f 221/653/164 222/654/164 223/655/164 224/656/164
f 220/657/165 219/658/165 221/659/165 224/660/165
f 219/661/166 218/662/166 222/663/166 221/664/166
f 223/665/167 217/666/167 220/667/167 224/668/167
f 222/669/168 218/670/168 217/671/168 223/672/168
f 225/673/169 226/674/169 227/675/169 228/676/169
f 229/677/170 230/678/170 231/679/170 232/680/170
f 228/681/171 227/682/171 229/683/171 232/684/171
f 227/685/172 226/686/172 230/687/172 229/688/172
f 231/689/173 225/690/173 228/691/173 232/692/173
f 230/693/174 226/694/174 225/695/174 231/696/174
f 233/697/175 234/698/175 235/699/175 236/700/175
f 237/701/176 238/702/176 239/703/176 240/704/176
f 236/705/177 235/706/177 237/707/177 240/708/177
f 235/709/178 234/710/178 238/711/178 237/712/178
f 239/713/179 233/714/179 236/715/179 240/716/179
f 238/717/180 234/718/180 233/719/180 239/720/180
f 241/721/181 242/722/181 243/723/181 244/724/181
f 245/725/182 246/726/182 247/727/182 248/728/182
f 244/729/183 243/730/183 245/731/183 248/732/183
f 243/733/184 242/734/184 246/735/184 245/736/184
f 247/737/185 241/738/185 244/739/185 248/740/185
f 246/741/186 242/742/186 241/743/186 247/744/186
f 249/745/187 250/746/187 251/747/187 252/748/187
f 253/749/188 254/750/188 255/751/188 256/752/188
f 252/753/189 251/754/189 253/755/189 256/756/189
f 251/757/190 250/758/190 254/759/190 253/760/190
f 255/761/191 249/762/191 252/763/191 256/764/191
f 254/765/192 250/766/192 249/767/192 255/768/192
f 257/769/193 258/770/193 259/771/193 260/772/193
f 261/773/194 262/774/194 263/775/194 264/776/194
f 260/777/195 259/778/195 261/779/195 264/780/195
f 259/781/196 258/782/196 262/783/196 261/784/196
f 263/785/197 257/786/197 260/787/197 264/788/197
f 262/789/198 258/790/198 257/791/198 263/792/198
f 265/793/199 266/794/199 267/795/199 268/796/199
f 269/797/200 270/798/200 271/799/200 272/800/200
f 268/801/201 267/802/201 269/803/201 272/804/201
f 267/805/202 266/806/202 270/807/202 269/808/202
f 271/809/203 265/810/203 268/811/203 272/812/203
f 270/813/204 266/814/204 265/815/204 271/816/204
f 273/817/205 274/818/205 275/819/205 276/820/205
f 277/821/206 278/822/206 279/823/206 280/824/206
f 276/825/207 275/826/207 277/827/207 280/828/207
f 275/829/208 274/830/208 278/831/208 277/832/208
f 279/833/209 273/834/209 276/835/209 280/836/209
f 278/837/210 274/838/210 273/839/210 279/840/210
f 281/841/211 282/842/211 283/843/211 284/844/211
f 285/845/212 286/846/212 287/847/212 288/848/212
f 284/849/213 283/850/213 285/851/213 288/852/213
f 283/853/214 282/854/214 286/855/214 285/856/214
f 287/857/215 281/858/215 284/859/215 288/860/215
f 286/861/216 282/862/216 281/863/216 287/864/216
f 289/865/217 290/866/217 291/867/217 292/868/217
f 293/869/218 294/870/218 295/871/218 296/872/218
f 292/873/219 291/874/219 293/875/219 296/876/219
f 291/877/220 290/878/220 294/879/220 293/880/220
f 295/881/221 289/882/221 292/883/221 296/884/221
f 294/885/222 290/886/222 289/887/222 295/888/222
f 297/889/223 298/890/223 299/891/223 300/892/223
f 301/893/224 302/894/224 303/895/224 304/896/224
f 300/897/225 299/898/225 301/899/225 304/900/225
f 299/901/226 298/902/226 302/903/226 301/904/226
f 303/905/227 297/906/227 300/907/227 304/908/227
f 302/909/228 298/910/228 297/911/228 303/912/228
f 305/913/229 306/914/229 307/915/229 308/916/229
f 309/917/230 310/918/230 311/919/230 312/920/230
f 308/921/231 307/922/231 309/923/231 312/924/231
f 307/925/232 306/926/232 310/927/232 309/928/232
f 311/929/233 305/930/233 308/931/233 312/932/233
f 310/933/234 306/934/234 305/935/234 311/936/234
f 313/937/235 314/938/235 315/939/235 316/940/235
f 317/941/236 318/942/236 319/943/236 320/944/236
f 316/945/237 315/946/237 317/947/237 320/948/237
f 315/949/238 314/950/238 318/951/238 317/952/238
f 319/953/239 313/954/239 316/955/239 320/956/239
f 318/957/240 314/958/240 313/959/240 319/960/240
f 321/961/241 322/962/241 323/963/241 324/964/241
f 325/965/242 326/966/242 327/967/242 328/968/242
f 324/969/243 323/970/243 325/971/243 328/972/243
f 323/973/244 322/974/244 326/975/244 325/976/244
f 327/977/245 321/978/245 324/979/245 328/980/245
f 326/981/246 322/982/246 321/983/246 327/984/246
f 329/985/247 330/986/247 331/987/247 332/988/247
f 333/989/248 334/990/248 335/991/248 336/992/248
f 332/993/249 331/994/249 333/995/249 336/996/249
f 331/997/250 330/998/250 334/999/250 333/1000/250
f 335/1001/251 329/1002/251 332/1003/251 336/1004/251
f 334/1005/252 330/1006/252 329/1007/252 335/1008/252
f 337/1009/253 338/1010/253 339/1011/253 340/1012/253
f 341/1013/254 342/1014/254 343/1015/254 344/1016/254
f 345/1017/255 346/1018/255 347/1019/255 348/1020/255
f 349/1021/256 350/1022/256 351/1023/256 352/1024/256
f 353/1025/257 354/1026/257 355/1027/257 356/1028/257
f 357/1029/258 358/1030/258 359/1031/258 360/1032/258
f 361/1033/259 362/1034/259 363/1035/259 364/1036/259
f 365/1037/260 366/1038/260 367/1039/260 368/1040/260
f 369/1041/261 370/1042/261 371/1043/261 372/1044/261
f 373/1045/262 374/1046/262 375/1047/262 376/1048/262
f 377/1049/263 378/1050/263 379/1051/263 380/1052/263
f 381/1053/264 382/1054/264 383/1055/264 384/1056/264
f 385/1057/265 386/1058/265 387/1059/265 388/1060/265
f 389/1061/266 390/1062/266 391/1063/266 392/1064/266
f 393/1065/267 394/1066/267 395/1067/267 396/1068/267
f 397/1069/268 398/1070/268 399/1071/268 400/1072/268
f 401/1073/269 402/1074/269 403/1075/269 404/1076/269
f 405/1077/270 406/1078/270 407/1079/270 408/1080/270
f 409/1081/271 410/1082/271 411/1083/271 412/1084/271
f 413/1085/272 414/1086/272 415/1087/272 416/1088/272
f 417/1089/273 418/1090/273 419/1091/273 420/1092/273
f 421/1093/274 422/1094/274 423/1095/274 424/1096/274
f 425/1097/275 426/1098/275 427/1099/275 428/1100/275
f 429/1101/276 430/1102/276 431/1103/276 432/1104/276
f 433/1105/277 434/1106/277 435/1107/277 436/1108/277
f 437/1109/278 438/1110/278 439/1111/278 440/1112/278
f 441/1113/279 442/1114/279 443/1115/279 444/1116/279
f 445/1117/280 446/1118/280 447/1119/280 448/1120/280
f 449/1121/281 450/1122/281 451/1123/281 452/1124/281
f 453/1125/282 454/1126/282 455/1127/282 456/1128/282
f 457/1129/283 458/1130/283 459/1131/283 460/1132/283
f 461/1133/284 462/1134/284 463/1135/284 464/1136/284
f 465/1137/285 466/1138/285 467/1139/285 468/1140/285
f 469/1141/286 470/1142/286 471/1143/286 472/1144/286
f 473/1145/287 474/1146/287 475/1147/287 476/1148/287
f 477/1149/288 478/1150/288 479/1151/288 480/1152/288
f 481/1153/289 482/1154/289 483/1155/289 484/1156/289
f 485/1157/290 486/1158/290 487/1159/290 488/1160/290
f 489/1161/291 490/1162/291 491/1163/291 492/1164/291
f 493/1165/292 494/1166/292 495/1167/292 496/1168/292
f 497/1169/293 498/1170/293 499/1171/293 500/1172/293
f 501/1173/294 502/1174/294 503/1175/294 504/1176/294
f 505/1177/295 506/1178/295 507/1179/295 508/1180/295
f 509/1181/296 510/1182/296 511/1183/296 512/1184/296
f 513/1185/297 514/1186/297 515/1187/297 516/1188/297
f 517/1189/298 518/1190/298 519/1191/298 520/1192/298
f 521/1193/299 522/1194/299 523/1195/299 524/1196/299
f 525/1197/300 526/1198/300 527/1199/300 528/1200/300
f 529/1201/301 530/1202/301 531/1203/301 532/1204/301
f 533/1205/302 534/1206/302 535/1207/302 536/1208/302
f 537/1209/303 538/1210/303 539/1211/303 540/1212/303
f 541/1213/304 542/1214/304 543/1215/304 544/1216/304
f 545/1217/305 546/1218/305 547/1219/305 548/1220/305
f 549/1221/306 550/1222/306 551/1223/306 552/1224/306
f 552/1225/307 531/1226/307 553/1227/307 554/1228/307
f 549/1229/308 396/1230/308 527/1231/308 530/1232/308
f 393/1233/309 526/1234/309 547/1235/309 428/1236/309
f 425/1237/310 546/1238/310 543/1239/310 460/1240/310
f 457/1241/311 542/1242/311 539/1243/311 492/1244/311
f 538/1245/312 489/1246/312 520/1247/312 535/1248/312
f 517/1249/313 534/1250/313 555/1251/313 556/1252/313