# Made in Blockbench 5.0.7
mtllib straight_roof_closed.mtl

o straight_roof_closed
v -0.5 1 0.40625
v 0.5 1 0.40625
v 0.5 1 -0.5
v -0.5 1 -0.5
v -0.4375 0.0625 0.421875
v -0.4375 0.0625 0.453125
v 0.4375 0.0625 0.453125
v 0.4375 0.0625 0.421875
v 0.4375 0 0.453125
v -0.4375 0 0.453125
v -0.4375 0 0.421875
v 0.4375 0 0.421875
v -0.4375 0.8125 0.421875
v -0.4375 0.8125 0.453125
v -0.4375 0 0.453125
v -0.4375 0 0.421875
v -0.5 0 0.453125
v -0.5 0.8125 0.453125
v -0.5 0.8125 0.421875
v -0.5 0 0.421875
v 0.5 0.8125 0.421875
v 0.5 0.8125 0.453125
v 0.5 0 0.453125
v 0.5 0 0.421875
v 0.4375 0 0.453125
v 0.4375 0.8125 0.453125
v 0.4375 0.8125 0.421875
v 0.4375 0 0.421875
v 0.5 0.9375 0.421875
v 0.5 0.9375 0.453125
v 0.5 0.8125 0.453125
v 0.5 0.8125 0.421875
v -0.5 0.8125 0.453125
v -0.5 0.9375 0.453125
v -0.5 0.9375 0.421875
v -0.5 0.8125 0.421875
v 0.5 1 0.40625
v 0.5 1 0.46875
v 0.5 0.9375 0.46875
v 0.5 0.9375 0.40625
v -0.5 0.9375 0.46875
v -0.5 1 0.46875
v -0.5 1 0.40625
v -0.5 0.9375 0.40625
v 0.40625 0.9375 0.15625
v 0.34375 0.9375 0.15625
v 0.34375 0.9375 0.34375
v 0.40625 0.9375 0.34375
v 0.40625 0.9375 -0.09375
v 0.34375 0.9375 -0.09375
v 0.34375 0.9375 0.09375
v 0.40625 0.9375 0.09375
v 0.40625 0.9375 -0.34375
v 0.40625 0.9375 -0.15625
v 0.34375 0.9375 -0.15625
v 0.34375 0.9375 -0.34375
v 0.15625 0.9375 0.15625
v 0.09375 0.9375 0.15625
v 0.09375 0.9375 0.34375
v 0.15625 0.9375 0.34375
v 0.15625 0.9375 -0.09375
v 0.09375 0.9375 -0.09375
v 0.09375 0.9375 0.09375
v 0.15625 0.9375 0.09375
v 0.15625 0.9375 -0.34375
v 0.15625 0.9375 -0.15625
v 0.09375 0.9375 -0.15625
v 0.09375 0.9375 -0.34375
v -0.09375 0.9375 0.15625
v -0.15625 0.9375 0.15625
v -0.15625 0.9375 0.34375
v -0.09375 0.9375 0.34375
v -0.09375 0.9375 -0.09375
v -0.15625 0.9375 -0.09375
v -0.15625 0.9375 0.09375
v -0.09375 0.9375 0.09375
v -0.09375 0.9375 -0.34375
v -0.09375 0.9375 -0.15625
v -0.15625 0.9375 -0.15625
v -0.15625 0.9375 -0.34375
v -0.34375 0.9375 0.15625
v -0.40625 0.9375 0.15625
v -0.40625 0.9375 0.34375
v -0.34375 0.9375 0.34375
v -0.34375 0.9375 -0.09375
v -0.40625 0.9375 -0.09375
v -0.40625 0.9375 0.09375
v -0.34375 0.9375 0.09375
v -0.34375 0.9375 -0.34375
v -0.34375 0.9375 -0.15625
v -0.40625 0.9375 -0.15625
v -0.40625 0.9375 -0.34375
v -0.34375 0.9375 -0.5
v -0.34375 0.9375 -0.40625
v -0.40625 0.9375 -0.40625
v -0.40625 0.9375 -0.5
v -0.09375 0.9375 -0.5
v -0.09375 0.9375 -0.40625
v -0.15625 0.9375 -0.40625
v -0.15625 0.9375 -0.5
v 0.15625 0.9375 -0.5
v 0.15625 0.9375 -0.40625
v 0.09375 0.9375 -0.40625
v 0.09375 0.9375 -0.5
v 0.40625 0.9375 -0.5
v 0.40625 0.9375 -0.40625
v 0.34375 0.9375 -0.40625
v 0.34375 0.9375 -0.5
v 0.5 0.9375 0.40625
v 0.5 0.9375 0.34375
v -0.5 0.9375 0.34375
v -0.5 0.9375 0.40625
v 0.5 0.9375 0.15625
v 0.5 0.9375 0.09375
v -0.5 0.9375 0.09375
v -0.5 0.9375 0.15625
v 0.5 0.9375 -0.09375
v -0.5 0.9375 -0.09375
v -0.5 0.9375 -0.15625
v 0.5 0.9375 -0.15625
v 0.5 0.9375 -0.34375
v -0.5 0.9375 -0.34375
v -0.5 0.9375 -0.40625
v 0.5 0.9375 -0.40625
vt 0 0.765625
vt 0.25 0.765625
vt 0.25 1
vt 0 1
vt 0 0.671875
vt 0 0.65625
vt 0.21875 0.65625
vt 0.21875 0.671875
vt 0.453125 0.671875
vt 0.234375 0.671875
vt 0.234375 0.65625
vt 0.453125 0.65625
vt 0.515625 0.65625
vt 0.515625 0.671875
vt 0.5 0.671875
vt 0.5 0.65625
vt 0.515625 0.640625
vt 0.5 0.640625
vt 0.5 0.625
vt 0.515625 0.625
vt 0.21875 0.640625
vt 0 0.640625
vt 0 0.625
vt 0.21875 0.625
vt 0.453125 0.625
vt 0.453125 0.640625
vt 0.234375 0.640625
vt 0.234375 0.625
vt 0.015625 0.609375
vt 0 0.609375
vt 0 0.40625
vt 0.015625 0.40625
vt 0.046875 0.40625
vt 0.046875 0.609375
vt 0.03125 0.609375
vt 0.03125 0.40625
vt 0.5 0.59375
vt 0.515625 0.59375
vt 0.515625 0.609375
vt 0.5 0.609375
vt 0.421875 0.484375
vt 0.421875 0.5
vt 0.40625 0.5
vt 0.40625 0.484375
vt 0.078125 0.40625
vt 0.078125 0.609375
vt 0.0625 0.609375
vt 0.0625 0.40625
vt 0.109375 0.609375
vt 0.09375 0.609375
vt 0.09375 0.40625
vt 0.109375 0.40625
vt 0.140625 0.609375
vt 0.125 0.609375
vt 0.125 0.40625
vt 0.140625 0.40625
vt 0.171875 0.40625
vt 0.171875 0.609375
vt 0.15625 0.609375
vt 0.15625 0.40625
vt 0.5 0.5625
vt 0.515625 0.5625
vt 0.515625 0.578125
vt 0.5 0.578125
vt 0.453125 0.484375
vt 0.453125 0.5
vt 0.4375 0.5
vt 0.4375 0.484375
vt 0.203125 0.40625
vt 0.203125 0.609375
vt 0.1875 0.609375
vt 0.1875 0.40625
vt 0.234375 0.609375
vt 0.21875 0.609375
vt 0.21875 0.40625
vt 0.234375 0.40625
vt 0.421875 0.546875
vt 0.40625 0.546875
vt 0.40625 0.515625
vt 0.421875 0.515625
vt 0.453125 0.515625
vt 0.453125 0.546875
vt 0.4375 0.546875
vt 0.4375 0.515625
vt 0.265625 0.9375
vt 0.515625 0.9375
vt 0.515625 0.953125
vt 0.265625 0.953125
vt 0.515625 0.90625
vt 0.515625 0.921875
vt 0.265625 0.921875
vt 0.265625 0.90625
vt 0.25 0.71875
vt 0.25 0.75
vt 0 0.75
vt 0 0.71875
vt 0.515625 1
vt 0.265625 1
vt 0.265625 0.96875
vt 0.515625 0.96875
vt 0.515625 0.546875
vt 0.5 0.546875
vt 0.5 0.53125
vt 0.515625 0.53125
vt 0.515625 0.5
vt 0.515625 0.515625
vt 0.5 0.515625
vt 0.5 0.5
vt 0.265625 0.875
vt 0.515625 0.875
vt 0.515625 0.890625
vt 0.265625 0.890625
vt 0.515625 0.84375
vt 0.515625 0.859375
vt 0.265625 0.859375
vt 0.265625 0.84375
vt 0.515625 0.8125
vt 0.515625 0.828125
vt 0.265625 0.828125
vt 0.265625 0.8125
vt 0.515625 0.796875
vt 0.265625 0.796875
vt 0.265625 0.78125
vt 0.515625 0.78125
vt 0.265625 0.609375
vt 0.25 0.609375
vt 0.25 0.5625
vt 0.265625 0.5625
vt 0.296875 0.609375
vt 0.28125 0.609375
vt 0.28125 0.5625
vt 0.296875 0.5625
vt 0.328125 0.5625
vt 0.328125 0.609375
vt 0.3125 0.609375
vt 0.3125 0.5625
vt 0.359375 0.609375
vt 0.34375 0.609375
vt 0.34375 0.5625
vt 0.359375 0.5625
vt 0.390625 0.609375
vt 0.375 0.609375
vt 0.375 0.5625
vt 0.390625 0.5625
vt 0.421875 0.5625
vt 0.421875 0.609375
vt 0.40625 0.609375
vt 0.40625 0.5625
vt 0.453125 0.609375
vt 0.4375 0.609375
vt 0.4375 0.5625
vt 0.453125 0.5625
vt 0.265625 0.546875
vt 0.25 0.546875
vt 0.25 0.5
vt 0.265625 0.5
vt 0.296875 0.5
vt 0.296875 0.546875
vt 0.28125 0.546875
vt 0.28125 0.5
vt 0.328125 0.546875
vt 0.3125 0.546875
vt 0.3125 0.5
vt 0.328125 0.5
vt 0.359375 0.546875
vt 0.34375 0.546875
vt 0.34375 0.5
vt 0.359375 0.5
vt 0.390625 0.5
vt 0.390625 0.546875
vt 0.375 0.546875
vt 0.375 0.5
vt 0.484375 0.640625
vt 0.484375 0.671875
vt 0.46875 0.671875
vt 0.46875 0.640625
vt 0.484375 0.59375
vt 0.484375 0.625
vt 0.46875 0.625
vt 0.46875 0.59375
vt 0.484375 0.546875
vt 0.484375 0.578125
vt 0.46875 0.578125
vt 0.46875 0.546875
vt 0.484375 0.5
vt 0.484375 0.53125
vt 0.46875 0.53125
vt 0.46875 0.5
vt 0.515625 0.75
vt 0.515625 0.765625
vt 0.265625 0.765625
vt 0.265625 0.75
vt 0.515625 0.71875
vt 0.515625 0.734375
vt 0.265625 0.734375
vt 0.265625 0.71875
vt 0.25 0.703125
vt 0 0.703125
vt 0 0.6875
vt 0.25 0.6875
vt 0.515625 0.703125
vt 0.265625 0.703125
vt 0.265625 0.6875
vt 0.515625 0.6875
vn 0 1 0
vn 0 1 0
vn 0 -1 0
vn -1 0 0
vn 1 0 0
vn 0 0 1
vn 0 0 -1
vn 1 0 0
vn -1 0 0
vn 0 1 0
vn 0 -1 0
vn 0 0 1
vn 0 0 -1
vn 1 0 0
vn -1 0 0
vn 0 1 0
vn 0 -1 0
vn 0 0 1
vn 0 0 -1
vn 1 0 0
vn -1 0 0
vn 0 1 0
vn 0 -1 0
vn 0 0 1
vn 0 0 -1
vn 1 0 0
vn -1 0 0
vn 0 1 0
vn 0 -1 0
vn 0 0 1
vn 0 0 -1
vn 0 1 0
vn 0 1 0
vn 0 -1 0
vn 0 1 0
vn 0 1 0
vn 0 -1 0
vn 0 1 0
vn 0 1 0
vn 0 -1 0
vn 0 1 0
vn 0 1 0
vn 0 -1 0
vn 0 -1 0
vn 0 -1 0
vn 0 -1 0
vn 0 -1 0
vn 0 1 0
vn 0 1 0
vn 0 -1 0
vn 0 -1 0
usemtl m_599d5dde-5bbf-2c5e-84b5-a12d0f4d1570
f 1/1/1 2/2/1 3/3/1 4/4/1
f 5/5/2 6/6/2 7/7/2 8/8/2
f 9/9/3 10/10/3 11/11/3 12/12/3
f 10/13/4 6/14/4 5/15/4 11/16/4
f 8/17/5 7/18/5 9/19/5 12/20/5
f 7/21/6 6/22/6 10/23/6 9/24/6
f 11/25/7 5/26/7 8/27/7 12/28/7
f 13/29/8 14/30/8 15/31/8 16/32/8
f 17/33/9 18/34/9 19/35/9 20/36/9
f 18/37/10 14/38/10 13/39/10 19/40/10
f 16/41/11 15/42/11 17/43/11 20/44/11
f 15/45/12 14/46/12 18/47/12 17/48/12
f 19/49/13 13/50/13 16/51/13 20/52/13
f 21/53/14 22/54/14 23/55/14 24/56/14
f 25/57/15 26/58/15 27/59/15 28/60/15
f 26/61/16 22/62/16 21/63/16 27/64/16
f 24/65/17 23/66/17 25/67/17 28/68/17
f 23/69/18 22/70/18 26/71/18 25/72/18
f 27/73/19 21/74/19 24/75/19 28/76/19
f 29/77/20 30/78/20 31/79/20 32/80/20
f 33/81/21 34/82/21 35/83/21 36/84/21
f 34/85/22 30/86/22 29/87/22 35/88/22
f 32/89/23 31/90/23 33/91/23 36/92/23
f 31/93/24 30/94/24 34/95/24 33/96/24
f 35/97/25 29/98/25 32/99/25 36/100/25
f 37/101/26 38/102/26 39/103/26 40/104/26
f 41/105/27 42/106/27 43/107/27 44/108/27
f 42/109/28 38/110/28 37/111/28 43/112/28
f 40/113/29 39/114/29 41/115/29 44/116/29
f 39/117/30 38/118/30 42/119/30 41/120/30
f 43/121/31 37/122/31 40/123/31 44/124/31
f 45/125/32 46/126/32 47/127/32 48/128/32
f 49/129/33 50/130/33 51/131/33 52/132/33
f 53/133/34 54/134/34 55/135/34 56/136/34
f 57/137/35 58/138/35 59/139/35 60/140/35
f 61/141/36 62/142/36 63/143/36 64/144/36
f 65/145/37 66/146/37 67/147/37 68/148/37
f 69/149/38 70/150/38 71/151/38 72/152/38
f 73/153/39 74/154/39 75/155/39 76/156/39
f 77/157/40 78/158/40 79/159/40 80/160/40
f 81/161/41 82/162/41 83/163/41 84/164/41
f 85/165/42 86/166/42 87/167/42 88/168/42
f 89/169/43 90/170/43 91/171/43 92/172/43
f 93/173/44 94/174/44 95/175/44 96/176/44
f 97/177/45 98/178/45 99/179/45 100/180/45
f 101/181/46 102/182/46 103/183/46 104/184/46
f 105/185/47 106/186/47 107/187/47 108/188/47
f 109/189/48 110/190/48 111/191/48 112/192/48
f 113/193/49 114/194/49 115/195/49 116/196/49
f 117/197/50 118/198/50 119/199/50 120/200/50
f 121/201/51 122/202/51 123/203/51 124/204/51